<?xml version="1.0" encoding="utf-8"?>
<!-- Generator: Adobe Illustrator 22.1.0, SVG Export Plug-In . SVG Version: 6.00 Build 0)  -->
<svg version="1.1" xmlns="http://www.w3.org/2000/svg" xmlns:xlink="http://www.w3.org/1999/xlink" x="0px" y="0px"
	 viewBox="0 0 71 80" style="enable-background:new 0 0 71 80;" xml:space="preserve">
<g id="shortcut">
	<g>
		
			<rect x="8.7" y="5.5" transform="matrix(0.9794 0.202 -0.202 0.9794 2.9663 -3.0096)" style="fill:none;stroke:#000000;stroke-width:1.5;stroke-linecap:round;stroke-miterlimit:10;" width="15" height="15"/>
		
			<rect x="32.1" y="10.3" transform="matrix(0.9794 0.202 -0.202 0.9794 4.4179 -7.6196)" style="fill:none;stroke:#000000;stroke-width:1.5;stroke-linecap:round;stroke-miterlimit:10;" width="15" height="15"/>
		
			<rect x="56.5" y="15.4" transform="matrix(0.9794 0.202 -0.202 0.9794 5.9366 -12.4431)" style="fill:none;stroke:#000000;stroke-width:1.5;stroke-linecap:round;stroke-miterlimit:10;" width="15" height="15"/>
		
			<rect x="3.5" y="28.1" transform="matrix(0.9794 0.202 -0.202 0.9794 7.4147 -1.4916)" style="fill:none;stroke:#000000;stroke-width:1.5;stroke-linecap:round;stroke-miterlimit:10;" width="15" height="15"/>
		
			<rect x="51.8" y="38" transform="matrix(0.9794 0.202 -0.202 0.9794 10.4186 -11.0319)" style="fill:none;stroke:#000000;stroke-width:1.5;stroke-linecap:round;stroke-miterlimit:10;" width="15" height="15"/>
		
			<rect x="27.9" y="33.1" transform="matrix(0.9794 0.202 -0.202 0.9794 8.9335 -6.3151)" style="fill:none;stroke:#000000;stroke-width:1.5;stroke-linecap:round;stroke-miterlimit:10;" width="15" height="15"/>
		
			<rect x="23.4" y="55" transform="matrix(0.9794 0.202 -0.202 0.9794 13.2501 -4.956)" style="fill:none;stroke:#000000;stroke-width:1.5;stroke-linecap:round;stroke-miterlimit:10;" width="15" height="15"/>
		
			<rect x="-0.4" y="50" transform="matrix(0.9794 0.202 -0.202 0.9794 11.7649 -0.2392)" style="fill:none;stroke:#000000;stroke-width:1.5;stroke-linecap:round;stroke-miterlimit:10;" width="15" height="15"/>
		
			<rect x="47.4" y="59.5" transform="matrix(0.9794 0.202 -0.202 0.9794 14.6552 -9.6979)" style="fill:none;stroke:#000000;stroke-width:1.5;stroke-linecap:round;stroke-miterlimit:10;" width="15" height="15"/>
		<path style="fill:none;stroke:#98C03D;stroke-width:1.5;stroke-linecap:round;stroke-linejoin:round;stroke-miterlimit:10;" d="
			M11,7.1c0,0,4.1,8.4,3.5,10.7c0,0,3.1-8.3,7.7-9.2"/>
		<path style="fill:none;stroke:#98C03D;stroke-width:1.5;stroke-linecap:round;stroke-linejoin:round;stroke-miterlimit:10;" d="
			M30.9,35c0,0,4.1,8.4,3.5,10.7c0,0,3.1-8.3,7.7-9.2"/>
		<path style="fill:none;stroke:#C1272D;stroke-width:1.5;stroke-linecap:round;stroke-linejoin:round;stroke-miterlimit:10;" d="
			M56.2,40.4c0,0,3.7,4.5,4.1,9.4"/>
		<path style="fill:none;stroke:#C1272D;stroke-width:1.5;stroke-linecap:round;stroke-linejoin:round;stroke-miterlimit:10;" d="
			M64,40c0,0-8.5,5.3-9.4,8.3"/>
		<path style="fill:none;stroke:#C1272D;stroke-width:1.5;stroke-linecap:round;stroke-linejoin:round;stroke-miterlimit:10;" d="
			M4,53.8c0,0,3.7,4.5,4.1,9.4"/>
		<path style="fill:none;stroke:#C1272D;stroke-width:1.5;stroke-linecap:round;stroke-linejoin:round;stroke-miterlimit:10;" d="
			M11.8,53.3c0,0-8.5,5.3-9.4,8.3"/>
	</g>
</g>
<g id="file">
</g>
</svg>
