<svg id="e87d039b-c1f0-4340-92e7-daa72f56841a" data-name="resources" xmlns="http://www.w3.org/2000/svg" xmlns:xlink="http://www.w3.org/1999/xlink" viewBox="0 0 134 134">
  <defs>
    <style>
      .b275cd9c-6b49-498b-862d-c26e2212f652 {
        fill: none;
      }

      .b0b7d047-f0f2-4547-9c95-f472ddec5037, .bfd38b70-5488-41c8-ac12-deb8ba9d7dc0, .fbbf2dc9-fca8-42e8-8845-fe114b037dd6 {
        fill: var(--secondary-color);
      }

      .bfd38b70-5488-41c8-ac12-deb8ba9d7dc0, .fbbf2dc9-fca8-42e8-8845-fe114b037dd6 {
        stroke: var(--secondary-color);
      }

      .bfd38b70-5488-41c8-ac12-deb8ba9d7dc0, .e5162150-eaae-4fef-b3ca-fe6d4980dc5a, .ef47a4fd-bfd6-4c7a-aeb5-28e711cb0e4f, .fbbf2dc9-fca8-42e8-8845-fe114b037dd6 {
        stroke-miterlimit: 10;
      }

      .bfd38b70-5488-41c8-ac12-deb8ba9d7dc0, .ef47a4fd-bfd6-4c7a-aeb5-28e711cb0e4f {
        stroke-width: 4px;
      }

      .aae9b350-a98a-45e4-8d0e-9f088529d809, .ae5378a2-52e2-4717-96d0-49a9d2654ee9, .b0b7d047-f0f2-4547-9c95-f472ddec5037 {
        fill-rule: evenodd;
      }

      .aae9b350-a98a-45e4-8d0e-9f088529d809, .bc4e894c-2ea2-4c98-843b-75246799dc3c, .e5162150-eaae-4fef-b3ca-fe6d4980dc5a {
        fill: var(--primary-color);
      }

      .ae5378a2-52e2-4717-96d0-49a9d2654ee9, .b87ebcda-c917-4262-b730-3ef2ce794af2, .ef47a4fd-bfd6-4c7a-aeb5-28e711cb0e4f {
        fill: #fff;
      }

      .e5162150-eaae-4fef-b3ca-fe6d4980dc5a, .ef47a4fd-bfd6-4c7a-aeb5-28e711cb0e4f {
        stroke: var(--primary-color);
      }

      .e2ddff0f-accc-49c8-bf6e-f76de887f6ad {
        clip-path: url(#a0f458ae-6267-4911-b7dc-0ccaf52365ea);
      }

      .b2cc40c8-dd0d-4d98-a16e-7a6350a6a168 {
        clip-path: url(#b62fbbfe-60e1-49fc-9873-edc797645643);
      }

      .bc995bc1-8fbd-4fd5-b71d-b7b74b429a7d {
        clip-path: url(#f881f05d-ffd1-46c9-9bb1-d7caec381b17);
      }

      .b96ae659-294d-4f49-8a47-a0c2b99b3d29 {
        clip-path: url(#b0139f4f-6b5f-4fdf-bb08-f91f82285aa3);
      }
    </style>
    <clipPath id="a0f458ae-6267-4911-b7dc-0ccaf52365ea">
      <polygon class="b275cd9c-6b49-498b-862d-c26e2212f652" points="31.43 89.39 107.15 89.39 107.15 33.32 31.43 33.32 31.43 89.39"/>
    </clipPath>
    <clipPath id="b62fbbfe-60e1-49fc-9873-edc797645643">
      <polygon class="b275cd9c-6b49-498b-862d-c26e2212f652" points="28.25 18.1 51.48 18.1 51.48 0.89 28.25 0.89 28.25 18.1"/>
    </clipPath>
    <clipPath id="f881f05d-ffd1-46c9-9bb1-d7caec381b17">
      <polygon class="b275cd9c-6b49-498b-862d-c26e2212f652" points="87.33 18.1 110.56 18.1 110.56 0.89 87.33 0.89 87.33 18.1"/>
    </clipPath>
    <clipPath id="b0139f4f-6b5f-4fdf-bb08-f91f82285aa3">
      <polygon class="b275cd9c-6b49-498b-862d-c26e2212f652" points="57.79 18.1 81.02 18.1 81.02 0.89 57.79 0.89 57.79 18.1"/>
    </clipPath>
  </defs>
  <g id="f336092b-0c57-4bbe-8d68-c5958da3dc77" data-name="Custom">
    <g id="fb75a736-f161-41f4-a1c5-a3d9a95636ab" data-name="BigBlueButton">
      <polygon class="bfd38b70-5488-41c8-ac12-deb8ba9d7dc0" points="24.12 95.87 105.17 95.87 105.17 35.85 24.12 35.85 24.12 95.87"/>
      <polygon class="fbbf2dc9-fca8-42e8-8845-fe114b037dd6" points="22.62 23.47 47.49 23.47 47.49 5.05 22.62 5.05 22.62 23.47"/>
      <polygon class="fbbf2dc9-fca8-42e8-8845-fe114b037dd6" points="81.7 23.47 106.57 23.47 106.57 5.05 81.7 5.05 81.7 23.47"/>
      <polygon class="fbbf2dc9-fca8-42e8-8845-fe114b037dd6" points="52.16 23.47 77.03 23.47 77.03 5.05 52.16 5.05 52.16 23.47"/>
      <g>
        <path class="b0b7d047-f0f2-4547-9c95-f472ddec5037" d="M98.21,119.65a14.11,14.11,0,1,1-14.11-14.1A14.1,14.1,0,0,1,98.21,119.65Z"/>
        <g>
          <path class="aae9b350-a98a-45e4-8d0e-9f088529d809" d="M101.81,116.05a14.11,14.11,0,1,1-14.1-14.11A14.1,14.1,0,0,1,101.81,116.05Z"/>
          <path class="ae5378a2-52e2-4717-96d0-49a9d2654ee9" d="M92.05,112.35s2.7-1.24,3.54-1.61a1.33,1.33,0,0,1,1.9,1.25c0,.43,0,5.8,0,8A1.36,1.36,0,0,1,97,121.2a1.26,1.26,0,0,1-1.34.17l-3.57-1.63s0,.36,0,.53a4.06,4.06,0,0,1-.09.7,2.16,2.16,0,0,1-1.88,1.58l-.44,0H80.16a2.18,2.18,0,0,1-2.23-2.18q0-4.34,0-8.67a2.16,2.16,0,0,1,2.2-2.18c3.24,0,6.47,0,9.71,0A2.17,2.17,0,0,1,92,111.26a4.57,4.57,0,0,1,0,.52C92.06,112,92.05,112.35,92.05,112.35Zm-2.22,8.59a.54.54,0,0,0,.6-.59v-8.61a.54.54,0,0,0-.55-.59H80.11a.51.51,0,0,0-.54.41,1.23,1.23,0,0,0,0,.27q0,4.22,0,8.43a1.48,1.48,0,0,0,0,.21.5.5,0,0,0,.47.46h9.8Zm6-1.23v-7.33l-3.71,1.72a.13.13,0,0,0-.1.15c0,1.2,0,2.39,0,3.58a.15.15,0,0,0,.11.17Z"/>
        </g>
      </g>
      <g>
        <path class="b0b7d047-f0f2-4547-9c95-f472ddec5037" d="M60.33,119.65a14.11,14.11,0,1,1-14.11-14.1A14.1,14.1,0,0,1,60.33,119.65Z"/>
        <g>
          <path class="aae9b350-a98a-45e4-8d0e-9f088529d809" d="M63.93,116.05a14.11,14.11,0,1,1-14.1-14.11A14.1,14.1,0,0,1,63.93,116.05Z"/>
          <g>
            <path class="ae5378a2-52e2-4717-96d0-49a9d2654ee9" d="M49,123.11V122c0-.09-.07-.07-.12-.08-.28-.08-.57-.13-.85-.22a5.79,5.79,0,0,1-3-2.16,5.94,5.94,0,0,1-1.17-3,17.78,17.78,0,0,1-.06-1.93.75.75,0,0,1,.5-.71.85.85,0,0,1,.94.24.87.87,0,0,1,.17.54c0,.47,0,.93,0,1.4a4.41,4.41,0,0,0,.58,2,4.69,4.69,0,0,0,1.48,1.59,4,4,0,0,0,2.52.63,4.45,4.45,0,0,0,1.54-.36,4.17,4.17,0,0,0,2-1.88,4.68,4.68,0,0,0,.53-2.21c0-.39,0-.78,0-1.18a.78.78,0,0,1,.79-.85.74.74,0,0,1,.82.7,4.08,4.08,0,0,1,0,.7c0,.5,0,1,0,1.49a5.58,5.58,0,0,1-1.29,3,5.85,5.85,0,0,1-3.54,2.11h0c-.27,0-.27,0-.27.32v.88h1.56a.86.86,0,0,1,.68.28.81.81,0,0,1-.5,1.33l-.28,0H47.4a.83.83,0,0,1-.77-.52.76.76,0,0,1,.15-.86.84.84,0,0,1,.64-.25Z"/>
            <path class="ae5378a2-52e2-4717-96d0-49a9d2654ee9" d="M46.57,110.48a3.25,3.25,0,0,1,6.25-1.14,3.49,3.49,0,0,1,.26,1.32c0,1.78,0,3.55,0,5.33a3.26,3.26,0,0,1-.71,2.1,3.12,3.12,0,0,1-1.9,1.14,3.17,3.17,0,0,1-2.9-.84,3.21,3.21,0,0,1-1-2.41C46.56,115.09,46.55,111.42,46.57,110.48Zm1.61,5.35c0,.13,0,.26,0,.38A1.6,1.6,0,0,0,50,117.65a1.57,1.57,0,0,0,1.2-.8,1.74,1.74,0,0,0,.23-.89v-5.19a2.64,2.64,0,0,0,0-.29A1.61,1.61,0,0,0,49.65,109a1.59,1.59,0,0,0-1.14.64,1.86,1.86,0,0,0-.33,1Z"/>
          </g>
        </g>
      </g>
      <g>
        <polygon class="ef47a4fd-bfd6-4c7a-aeb5-28e711cb0e4f" points="28.76 91.22 109.81 91.22 109.81 31.21 28.76 31.21 28.76 91.22"/>
        <g class="e2ddff0f-accc-49c8-bf6e-f76de887f6ad">
          <g>
            <path class="bc4e894c-2ea2-4c98-843b-75246799dc3c" d="M55,75.12a23.28,23.28,0,0,0,28.68,0c12.25,6.55,20.8,21.19,20.8,38.24H34.14c0-17,8.54-31.69,20.81-38.24"/>
            <path class="bc4e894c-2ea2-4c98-843b-75246799dc3c" d="M51.46,54.11A17.83,17.83,0,1,0,69.28,36.3,17.82,17.82,0,0,0,51.46,54.11"/>
          </g>
        </g>
      </g>
      <g>
        <polygon class="e5162150-eaae-4fef-b3ca-fe6d4980dc5a" points="27.43 18.66 52.3 18.66 52.3 0.25 27.43 0.25 27.43 18.66"/>
        <g class="b2cc40c8-dd0d-4d98-a16e-7a6350a6a168">
          <g>
            <path class="b87ebcda-c917-4262-b730-3ef2ce794af2" d="M35.47,13.72a7.17,7.17,0,0,0,8.8,0c3.76,2,6.38,6.5,6.38,11.73H29.08c0-5.23,2.62-9.72,6.39-11.73"/>
            <path class="b87ebcda-c917-4262-b730-3ef2ce794af2" d="M34.4,7.27A5.47,5.47,0,1,0,39.86,1.8,5.47,5.47,0,0,0,34.4,7.27"/>
          </g>
        </g>
      </g>
      <g>
        <polygon class="e5162150-eaae-4fef-b3ca-fe6d4980dc5a" points="86.51 18.66 111.38 18.66 111.38 0.25 86.51 0.25 86.51 18.66"/>
        <g class="bc995bc1-8fbd-4fd5-b71d-b7b74b429a7d">
          <g>
            <path class="b87ebcda-c917-4262-b730-3ef2ce794af2" d="M94.54,13.72a7.17,7.17,0,0,0,8.8,0c3.76,2,6.39,6.5,6.39,11.73H88.16c0-5.23,2.62-9.72,6.38-11.73"/>
            <path class="b87ebcda-c917-4262-b730-3ef2ce794af2" d="M93.47,7.27A5.47,5.47,0,1,0,98.94,1.8a5.47,5.47,0,0,0-5.47,5.47"/>
          </g>
        </g>
      </g>
      <g>
        <polygon class="e5162150-eaae-4fef-b3ca-fe6d4980dc5a" points="56.97 18.66 81.84 18.66 81.84 0.25 56.97 0.25 56.97 18.66"/>
        <g class="b96ae659-294d-4f49-8a47-a0c2b99b3d29">
          <g>
            <path class="b87ebcda-c917-4262-b730-3ef2ce794af2" d="M65,13.72a7.17,7.17,0,0,0,8.8,0c3.76,2,6.38,6.5,6.38,11.73H58.62c0-5.23,2.63-9.72,6.39-11.73"/>
            <path class="b87ebcda-c917-4262-b730-3ef2ce794af2" d="M63.94,7.27A5.47,5.47,0,1,0,69.41,1.8a5.47,5.47,0,0,0-5.47,5.47"/>
          </g>
        </g>
      </g>
    </g>
  </g>
</svg>
