<svg id="fc2596de-7998-49b1-93e9-b5732bb55673" data-name="resources" xmlns="http://www.w3.org/2000/svg" viewBox="0 0 134 134">
  <defs>
    <style>
      .b1219a98-0f85-424d-ba8f-a5270d954501, .fe5eb188-f05e-44a7-b022-d85a4c000f0a {
        fill: var(--secondary-color);
      }

      .fe5eb188-f05e-44a7-b022-d85a4c000f0a {
        stroke: var(--secondary-color);
      }

      .bf7547d2-1713-4657-8716-dde5cb687e07, .e79bf2a5-14b2-47aa-85d2-908783e578ff, .fe5eb188-f05e-44a7-b022-d85a4c000f0a {
        stroke-miterlimit: 10;
      }

      .bf7547d2-1713-4657-8716-dde5cb687e07, .fe5eb188-f05e-44a7-b022-d85a4c000f0a {
        stroke-width: 4px;
      }

      .a253923b-cd4a-4151-b1b3-af0abd5e9818, .bf7547d2-1713-4657-8716-dde5cb687e07 {
        fill: #fff;
      }

      .bf7547d2-1713-4657-8716-dde5cb687e07, .e79bf2a5-14b2-47aa-85d2-908783e578ff {
        stroke: var(--primary-color);
      }

      .e79bf2a5-14b2-47aa-85d2-908783e578ff {
        fill: none;
        stroke-width: 2px;
      }
    </style>
  </defs>
  <g id="e77403e4-5fe0-442e-bb09-d1cb47e429cb" data-name="Custom">
    <g id="a17a4e6f-f42d-4353-b487-a9a2e859a28c" data-name="Wiki">
      <path class="fe5eb188-f05e-44a7-b022-d85a4c000f0a" d="M110.58,74.44c-1.81-2-3.77-2.11-4.52-.15-.6,1.51-1.21,2.71-1.51,3.47-.9,2.41-4.22,3.17-7.24,2s-4.67-4.07-3.77-6.49c.3-.9,2.26-2.86,4.68-4.52,2.26-1.66,2.56-4.07.45-5.73-2.26-1.66-4.67-3.32-7.09-4.83a52.17,52.17,0,0,1-4.82,7.09c-1.66,2.11-4.08,1.66-5.73-.45-1.66-2.26-3.47-4.22-4.53-4.68-2.26-1-5.27.76-6.48,3.77s-.46,6.34,2,7.24c.75.3,2,.91,3.47,1.51,2,.75,2,2.87-.16,4.52A80.86,80.86,0,0,1,67,83.05a53.28,53.28,0,0,1-7.1-4.83c-2.11-1.66-1.66-4.07.46-5.73S64.59,69,65,68c1-2.26-.76-5.28-3.77-6.48S54.94,61,54,63.44c-.3.76-.9,2-1.51,3.47-.75,2-2.86,2-4.52-.15a82.4,82.4,0,0,1-5.88-8.29,53.74,53.74,0,0,1-4.83,7.08c-1.66,2.12-4.07,1.66-5.73-.45S28.09,60.88,27,60.43c-2.27-1.06-5.28.75-6.49,3.77s-.3,6.33,2,7.38c.76.31,2,.91,3.47,1.52,2,.75,2,2.86-.15,4.52-2.71,2.11-5.58,4.07-8.44,5.88a74.61,74.61,0,0,0,5.88,8.29c1.66,2,3.77,2,4.52,0,.6-1.51,1.21-2.71,1.51-3.46.9-2.42,4.22-3.17,7.24-2s4.67,4.07,3.77,6.49c-.3.9-2.26,2.86-4.68,4.52-2.26,1.66-2.56,4.07-.45,5.73A74.69,74.69,0,0,0,42.36,108a53,53,0,0,1,7.17,4.75c2.11,1.66,1.66,4.07-.45,5.73S44.86,122,44.4,123c-1,2.26.76,5.27,3.77,6.48s6.34.3,7.39-2c.3-.76.91-2,1.51-3.47.75-2,2.87-2,4.53.15,2.11,2.72,4.07,5.58,5.87,8.45a73.9,73.9,0,0,0,8.3-5.89c2-1.65,2-3.76,0-4.52-1.51-.6-2.71-1.21-3.47-1.51-2.41-.9-3.17-4.22-2-7.23s4.07-4.68,6.48-3.77c.91.3,2.87,2.26,4.53,4.67s4.07,2.57,5.73.45a75.39,75.39,0,0,0,5-7.09v0a76,76,0,0,0,8.29-5.88c2-1.65,2-3.77,0-4.52-1.51-.6-2.72-1.21-3.47-1.51-2.41-.9-3.17-4.22-2-7.23s4.07-4.68,6.48-3.78c.91.3,2.87,2.27,4.53,4.68s4.07,2.56,5.73.45a74.11,74.11,0,0,0,5-7.09A84.14,84.14,0,0,0,110.58,74.44Z"/>
      <path class="bf7547d2-1713-4657-8716-dde5cb687e07" d="M100.33,95.91A76.93,76.93,0,0,1,92,101.79h0c-1.81-2.87-3.84-5.72-6-8.44-1.66-2.11-3.77-2.11-4.52-.15-.61,1.51-1.21,2.72-1.51,3.47-1.06,2.26-4.31,3.16-7.33,2S67.92,94.41,69,92.15c.46-1.06,2.41-2.87,4.68-4.53,2.11-1.66,2.56-4.07.45-5.73A53.75,53.75,0,0,0,67,77.07h0a82.34,82.34,0,0,0,8.28-5.89c2.12-1.66,2.12-3.77.16-4.53-1.51-.6-2.72-1.2-3.47-1.51-2.42-.9-3.17-4.22-2-7.23s4.22-4.83,6.48-3.77c1.06.45,2.87,2.41,4.53,4.67,1.65,2.11,4.07,2.56,5.73.45a52.71,52.71,0,0,0,4.82-7.08h0c2.42,1.5,4.83,3.16,7.09,4.82,2.11,1.66,1.81,4.07-.45,5.73-2.42,1.66-4.38,3.62-4.68,4.53-.9,2.41.76,5.27,3.77,6.48s6.34.45,7.24-2c.3-.75.91-2,1.51-3.47.75-2,2.71-1.81,4.52.15a84.28,84.28,0,0,1,6,8.45h0a76.71,76.71,0,0,1-5,7.09c-1.66,2.11-4.07,1.8-5.73-.46-1.66-2.41-3.62-4.37-4.53-4.67-2.41-.91-5.27.75-6.48,3.77s-.45,6.33,2,7.23c.75.31,2,.91,3.47,1.51C102.29,92.14,102.29,94.25,100.33,95.91Z"/>
      <path class="bf7547d2-1713-4657-8716-dde5cb687e07" d="M42.36,102a84.05,84.05,0,0,0,8.36-6c2-1.8,2.12-3.77.15-4.52-1.5-.6-2.71-1.21-3.46-1.51-2.41-.9-3.17-4.22-2-7.23s4.07-4.68,6.48-3.78c.91.31,2.87,2.26,4.53,4.68,1.65,2.26,4.07,2.56,5.73.45S65.5,79.48,67,77.07a53.75,53.75,0,0,1,7.09,4.82c2.11,1.66,1.66,4.07-.45,5.73-2.27,1.66-4.22,3.47-4.68,4.53-1,2.26.75,5.26,3.76,6.47s6.27.31,7.33-2c.3-.75.9-2,1.51-3.47.75-2,2.86-2,4.52.15,2.11,2.72,4.15,5.59,6,8.45h0a74.11,74.11,0,0,1-5,7.09c-1.66,2.12-4.07,1.82-5.73-.45s-3.62-4.37-4.53-4.67c-2.41-.91-5.28.75-6.48,3.77s-.45,6.33,2,7.24c.76.3,2,.9,3.47,1.5,2,.76,2,2.87,0,4.53a75.1,75.1,0,0,1-8.3,5.88h0c-1.8-2.87-3.76-5.73-5.87-8.45-1.66-2.11-3.78-2.11-4.53-.15-.6,1.51-1.21,2.72-1.51,3.47-1.05,2.26-4.37,3.17-7.39,2S43.35,119.3,44.4,117c.46-1.06,2.42-2.87,4.68-4.53s2.56-4.07.45-5.73A53.92,53.92,0,0,0,42.36,102Z"/>
      <path class="b1219a98-0f85-424d-ba8f-a5270d954501" d="M92.05,26a83,83,0,0,0-8.37,6c-2,1.81-2.11,3.77-.15,4.52C85,37.08,86.24,37.68,87,38c2.41.91,3.16,4.22,2,7.24S84.89,49.89,82.47,49c-.9-.3-2.86-2.26-4.52-4.67s-4.07-2.57-5.73-.46S68.91,48.54,67.4,51a53.93,53.93,0,0,1-7.1-4.83c-2.11-1.66-1.66-4.07.46-5.73s4.22-3.47,4.67-4.52c1.06-2.26-.74-5.27-3.76-6.48s-6.26-.31-7.32,2c-.3.76-.91,2-1.51,3.47-.75,2-2.86,2-4.52-.15a103.21,103.21,0,0,1-6-8.45h0a73.57,73.57,0,0,1,5-7.09c1.65-2.11,4.07-1.81,5.73.45C54.71,22,56.67,24,57.58,24.25c2.41.91,5.28-.75,6.48-3.76s.46-6.34-2-7.24c-.75-.3-2-.91-3.47-1.51-2-.75-2-2.87,0-4.52a74.82,74.82,0,0,1,8.3-5.89h0c1.81,2.87,3.77,5.73,5.88,8.45,1.66,2.11,3.77,2.11,4.52.15.61-1.51,1.21-2.71,1.51-3.47,1.06-2.26,4.38-3.17,7.39-2S91.06,8.72,90,11c-.45,1-2.41,2.86-4.67,4.52-2.11,1.66-2.57,4.07-.46,5.73A53,53,0,0,0,92.05,26Z"/>
      <path class="bf7547d2-1713-4657-8716-dde5cb687e07" d="M23.27,85.82a74.72,74.72,0,0,1-5.88-8.3h0c2.86-1.81,5.73-3.77,8.44-5.88,2.11-1.66,2.11-3.77.15-4.52-1.5-.61-2.71-1.21-3.47-1.51-2.26-1.06-3.16-4.37-2-7.39s4.22-4.83,6.49-3.77c1.05.45,2.86,2.41,4.52,4.67s4.07,2.57,5.73.46a54.51,54.51,0,0,0,4.83-7.09h0A83.7,83.7,0,0,0,48,60.79c1.66,2.1,3.77,2.1,4.52.14.61-1.5,1.21-2.71,1.51-3.46.91-2.42,4.22-3.17,7.24-2S66.09,59.73,65,62c-.45,1-2.41,2.86-4.67,4.52s-2.57,4.08-.46,5.73A53.28,53.28,0,0,0,67,77.07h0c-1.51,2.41-3.17,4.83-4.82,7.09s-4.08,1.81-5.73-.45c-1.66-2.42-3.62-4.37-4.53-4.68-2.41-.9-5.28.76-6.48,3.78s-.45,6.33,2,7.23c.75.3,2,.91,3.46,1.51,2,.75,1.81,2.72-.15,4.52a84.05,84.05,0,0,1-8.36,6h0a74.69,74.69,0,0,1-7.18-4.91c-2.11-1.65-1.81-4.07.45-5.72,2.42-1.66,4.38-3.62,4.68-4.53.9-2.41-.76-5.28-3.77-6.48s-6.34-.45-7.24,2c-.3.75-.91,2-1.51,3.47C27,87.78,24.93,87.78,23.27,85.82Z"/>
      <path class="a253923b-cd4a-4151-b1b3-af0abd5e9818" d="M42.36,102a84.05,84.05,0,0,0,8.36-6c2-1.8,2.12-3.77.15-4.52-1.5-.6-2.71-1.21-3.46-1.51-2.41-.9-3.17-4.22-2-7.23s4.07-4.68,6.48-3.78c.91.31,2.87,2.26,4.53,4.68,1.65,2.26,4.07,2.56,5.73.45S65.5,79.48,67,77.07a53.75,53.75,0,0,1,7.09,4.82c2.11,1.66,1.66,4.07-.45,5.73-2.27,1.66-4.22,3.47-4.68,4.53-1,2.26.75,5.26,3.76,6.47s6.27.31,7.33-2c.3-.75.9-2,1.51-3.47.75-2,2.86-2,4.52.15,2.11,2.72,4.15,5.59,6,8.45h0a74.11,74.11,0,0,1-5,7.09c-1.66,2.12-4.07,1.82-5.73-.45s-3.62-4.37-4.53-4.67c-2.41-.91-5.28.75-6.48,3.77s-.45,6.33,2,7.24c.76.3,2,.9,3.47,1.5,2,.76,2,2.87,0,4.53a75.1,75.1,0,0,1-8.3,5.88h0c-1.8-2.87-3.76-5.73-5.87-8.45-1.66-2.11-3.78-2.11-4.53-.15-.6,1.51-1.21,2.72-1.51,3.47-1.05,2.26-4.37,3.17-7.39,2S43.35,119.3,44.4,117c.46-1.06,2.42-2.87,4.68-4.53s2.56-4.07.45-5.73A53.92,53.92,0,0,0,42.36,102Z"/>
      <path class="a253923b-cd4a-4151-b1b3-af0abd5e9818" d="M23.27,85.82a74.72,74.72,0,0,1-5.88-8.3h0c2.86-1.81,5.73-3.77,8.44-5.88,2.11-1.66,2.11-3.77.15-4.52-1.5-.61-2.71-1.21-3.47-1.51-2.26-1.06-3.16-4.37-2-7.39s4.22-4.83,6.49-3.77c1.05.45,2.86,2.41,4.52,4.67s4.07,2.57,5.73.46a54.51,54.51,0,0,0,4.83-7.09h0A83.7,83.7,0,0,0,48,60.79c1.66,2.1,3.77,2.1,4.52.14.61-1.5,1.21-2.71,1.51-3.46.91-2.42,4.22-3.17,7.24-2S66.09,59.73,65,62c-.45,1-2.41,2.86-4.67,4.52s-2.57,4.08-.46,5.73A53.28,53.28,0,0,0,67,77.07h0c-1.51,2.41-3.17,4.83-4.82,7.09s-4.08,1.81-5.73-.45c-1.66-2.42-3.62-4.37-4.53-4.68-2.41-.9-5.28.76-6.48,3.78s-.45,6.33,2,7.23c.75.3,2,.91,3.46,1.51,2,.75,1.81,2.72-.15,4.52a84.05,84.05,0,0,1-8.36,6h0a74.69,74.69,0,0,1-7.18-4.91c-2.11-1.65-1.81-4.07.45-5.72,2.42-1.66,4.38-3.62,4.68-4.53.9-2.41-.76-5.28-3.77-6.48s-6.34-.45-7.24,2c-.3.75-.91,2-1.51,3.47C27,87.78,24.93,87.78,23.27,85.82Z"/>
      <path class="a253923b-cd4a-4151-b1b3-af0abd5e9818" d="M100.33,95.91A76.93,76.93,0,0,1,92,101.79h0c-1.81-2.87-3.84-5.72-6-8.44-1.66-2.11-3.77-2.11-4.52-.15-.61,1.51-1.21,2.72-1.51,3.47-1.06,2.26-4.31,3.16-7.33,2S67.92,94.41,69,92.15c.46-1.06,2.41-2.87,4.68-4.53,2.11-1.66,2.56-4.07.45-5.73A53.75,53.75,0,0,0,67,77.07h0a82.34,82.34,0,0,0,8.28-5.89c2.12-1.66,2.12-3.77.16-4.53-1.51-.6-2.72-1.2-3.47-1.51-2.42-.9-3.17-4.22-2-7.23s4.22-4.83,6.48-3.77c1.06.45,2.87,2.41,4.53,4.67,1.65,2.11,4.07,2.56,5.73.45a52.71,52.71,0,0,0,4.82-7.08h0c2.42,1.5,4.83,3.16,7.09,4.82,2.11,1.66,1.81,4.07-.45,5.73-2.42,1.66-4.38,3.62-4.68,4.53-.9,2.41.76,5.27,3.77,6.48s6.34.45,7.24-2c.3-.75.91-2,1.51-3.47.75-2,2.71-1.81,4.52.15a84.28,84.28,0,0,1,6,8.45h0a76.71,76.71,0,0,1-5,7.09c-1.66,2.11-4.07,1.8-5.73-.46-1.66-2.41-3.62-4.37-4.53-4.67-2.41-.91-5.27.75-6.48,3.77s-.45,6.33,2,7.23c.75.31,2,.91,3.47,1.51C102.29,92.14,102.29,94.25,100.33,95.91Z"/>
      <path class="e79bf2a5-14b2-47aa-85d2-908783e578ff" d="M40.57,103h0a89.76,89.76,0,0,0,8.9-6.2c2.08-1.88,2.25-3.92.16-4.7-1.6-.63-2.89-1.26-3.69-1.57-2.56-.94-3.37-4.39-2.08-7.53s4.33-4.86,6.89-3.92c1,.32,3,2.35,4.81,4.86,1.77,2.36,4.34,2.67,6.1.47s3.52-4.86,5.13-7.37a56.11,56.11,0,0,1,7.54,5c2.25,1.72,1.76,4.23-.48,6-2.41,1.73-4.49,3.61-5,4.71-1.13,2.35.79,5.48,4,6.73s6.66.33,7.78-2c.33-.78,1-2,1.61-3.6.8-2,3-2,4.81.15,2.25,2.83,4.42,5.81,6.34,8.79h0"/>
    </g>
  </g>
</svg>
