<?xml version="1.0" encoding="utf-8"?>
<!-- Generator: Adobe Illustrator 22.1.0, SVG Export Plug-In . SVG Version: 6.00 Build 0)  -->
<svg version="1.1" xmlns="http://www.w3.org/2000/svg" xmlns:xlink="http://www.w3.org/1999/xlink" x="0px" y="0px"
	 viewBox="0 0 71 80" style="enable-background:new 0 0 71 80;" xml:space="preserve">
<g id="shortcut">
</g>
<g id="file">
	<g>
		<g>
			<g>
				<defs>
					<rect id="SVGID_7_" x="4.5" y="2.4" width="62" height="62.1"/>
				</defs>
				<clipPath id="SVGID_2_">
					<use xlink:href="#SVGID_7_"  style="overflow:visible;"/>
				</clipPath>
				<path style="clip-path:url(#SVGID_2_);" d="M64.3,38.8l-3.8-2.4c0.2-1.6,0.2-3.2,0.1-4.8l4-2.4c1.6-1,2.3-3,1.6-4.8L64,19.1
					c-0.6-1.5-2-2.4-3.6-2.4c-0.3,0-0.6,0-0.8,0.1l-4.4,1c-1-1.2-2.1-2.4-3.3-3.4l1.1-4.5c0.4-1.8-0.5-3.7-2.2-4.5l-5.1-2.2
					c-0.5-0.2-1-0.3-1.5-0.3c-1.3,0-2.5,0.7-3.3,1.8c0,0,0,0,0,0l-2.4,3.8c-1.6-0.2-3.2-0.2-4.8-0.1l-2.4-4c-0.7-1.1-2-1.9-3.3-1.9
					c-0.5,0-1,0.1-1.4,0.3l-5.2,2.1c-1.8,0.7-2.8,2.6-2.4,4.4l1,4.4c-1.3,1-2.5,2.2-3.6,3.4l-4.5-1.1C11.4,16,11.1,16,10.8,16
					c-1.6,0-3,0.9-3.6,2.3L5,23.5c-0.7,1.7-0.1,3.8,1.5,4.8l3.9,2.5c-0.2,1.6-0.2,3.2-0.1,4.8L6.4,38c0,0,0,0,0,0
					c-1.6,1-2.2,2.9-1.7,4.6c0,0,0,0.1,0,0.1l2.1,5.2c0.6,1.5,2,2.4,3.6,2.4c0.3,0,0.6,0,0.8-0.1l4.5-1c1,1.3,2.1,2.4,3.3,3.4
					L18,57.2c-0.4,1.8,0.5,3.7,2.2,4.5l5.2,2.2c0.5,0.2,1,0.3,1.5,0.3c1.3,0,2.5-0.7,3.3-1.8l2.5-3.9c1.6,0.2,3.2,0.2,4.8,0.1
					l2.4,3.9c0.7,1.1,2,1.9,3.3,1.9c0.5,0,1-0.1,1.4-0.3l5.2-2.1c1.8-0.7,2.8-2.6,2.4-4.4l-1-4.5c1.2-1,2.3-2,3.3-3.2l4.5,1.1
					c0.3,0.1,0.6,0.1,0.9,0.1c1.6,0,3-0.9,3.6-2.3l2.2-5.1C66.5,41.8,65.9,39.8,64.3,38.8L64.3,38.8z M62.6,42.2l-2.2,5.2
					c-0.1,0.2-0.2,0.3-0.4,0.3c0,0-0.1,0-0.1,0l-5.6-1.3c-0.7-0.2-1.4,0.1-1.8,0.6c-1.2,1.6-2.7,3-4.2,4.1c-0.6,0.4-0.8,1.1-0.7,1.8
					l1.2,5.6c0.1,0.2-0.1,0.4-0.3,0.5l-5.2,2.1c-0.1,0-0.1,0-0.2,0c-0.1,0-0.3-0.1-0.4-0.2l-3-4.9C39.6,55.3,39,55,38.4,55
					c-0.1,0-0.1,0-0.2,0c-0.9,0.1-1.9,0.2-2.8,0.2c-1.1,0-2.2-0.1-3.3-0.3c-0.7-0.1-1.3,0.2-1.7,0.8l-3.1,4.8
					c-0.1,0.2-0.3,0.2-0.5,0.2l-5.2-2.2c-0.2-0.1-0.3-0.3-0.2-0.5l1.3-5.5c0.2-0.7-0.1-1.4-0.6-1.8c-1.6-1.2-3-2.7-4.2-4.3
					c-0.4-0.6-1.1-0.8-1.8-0.7l-5.6,1.2c0,0-0.1,0-0.1,0c-0.1,0-0.3-0.1-0.4-0.3L8,41.4c-0.1-0.2,0-0.4,0.2-0.6L13,38
					c0.6-0.4,0.9-1,0.8-1.7c-0.3-2.1-0.2-4.1,0.1-6.1c0.1-0.7-0.2-1.3-0.8-1.7l-4.8-3.1c-0.2-0.1-0.2-0.3-0.2-0.5l2.2-5.1
					c0.1-0.2,0.2-0.3,0.4-0.3c0,0,0.1,0,0.1,0l5.5,1.3c0.7,0.2,1.4-0.1,1.8-0.6c1.3-1.7,2.8-3.1,4.4-4.3c0.6-0.4,0.8-1.1,0.7-1.8
					l-1.2-5.5c-0.1-0.2,0.1-0.4,0.3-0.5L27.6,6c0.1,0,0.1,0,0.2,0c0.1,0,0.3,0.1,0.4,0.2l3,4.9c0.4,0.6,1,0.9,1.7,0.8
					c1.9-0.2,4-0.2,6.1,0.1c0.7,0.1,1.4-0.2,1.7-0.8l3-4.8c0.1-0.2,0.3-0.2,0.5-0.2l5.1,2.2c0.2,0.1,0.3,0.3,0.2,0.5l-1.3,5.6
					c-0.2,0.7,0.1,1.4,0.6,1.8c1.6,1.3,3,2.7,4.2,4.4c0.4,0.6,1.1,0.8,1.8,0.7l5.5-1.2c0,0,0.1,0,0.1,0c0.1,0,0.3,0.1,0.4,0.3
					l2.1,5.2c0.1,0.2,0,0.4-0.2,0.5l-4.9,3c-0.6,0.4-0.9,1-0.8,1.7c0.2,1.9,0.2,4-0.1,6.1c-0.1,0.7,0.2,1.3,0.8,1.7l4.7,3
					C62.6,41.8,62.7,42,62.6,42.2L62.6,42.2z M62.6,42.2"/>
			</g>
			<path style="fill:#128BC7;" d="M35.4,20.6h-0.2c-3.4,0-6.6,1.3-9,3.7c-2.4,2.4-3.8,5.6-3.8,8.9c-0.1,7.1,5.6,12.9,12.6,13h0.2
				c3.4,0,6.6-1.3,9-3.7c2.4-2.4,3.8-5.6,3.8-8.9C48.2,26.6,42.5,20.7,35.4,20.6L35.4,20.6z M35.2,42.8h-0.1
				c-5.2-0.1-9.3-4.3-9.2-9.5c0.1-5.1,4.3-9.2,9.4-9.2h0.1c5.2,0.1,9.3,4.3,9.2,9.5C44.5,38.7,40.3,42.8,35.2,42.8L35.2,42.8z
				 M35.2,42.8"/>
		</g>
		<g>
			<path d="M22.3,69.5l-1,1c-0.4-0.4-0.8-0.6-1.1-0.6c-0.2,0-0.3,0-0.4,0.1s-0.2,0.2-0.2,0.3c0,0.1,0,0.2,0.1,0.2s0.2,0.2,0.5,0.3
				l0.6,0.3c0.6,0.3,1,0.6,1.3,0.9s0.3,0.7,0.3,1.1c0,0.6-0.2,1-0.6,1.4s-1,0.6-1.7,0.6c-0.9,0-1.7-0.4-2.2-1.1l1-1.1
				c0.2,0.2,0.4,0.4,0.7,0.5s0.5,0.2,0.7,0.2c0.2,0,0.4-0.1,0.5-0.2s0.2-0.2,0.2-0.4c0-0.2-0.2-0.5-0.7-0.7l-0.5-0.3
				c-1-0.5-1.5-1.2-1.5-2c0-0.5,0.2-0.9,0.6-1.3s0.9-0.5,1.5-0.5c0.4,0,0.8,0.1,1.2,0.3S22.1,69.2,22.3,69.5z"/>
			<path d="M29.9,69.9l-1.3,0.7c-0.2-0.3-0.5-0.4-0.7-0.5c-0.2-0.1-0.5-0.2-0.9-0.2c-0.6,0-1.1,0.2-1.5,0.5
				c-0.4,0.4-0.6,0.8-0.6,1.4c0,0.5,0.2,1,0.5,1.3c0.4,0.3,0.8,0.5,1.4,0.5c0.7,0,1.3-0.2,1.7-0.7l1.3,0.9c-0.7,0.9-1.6,1.3-2.9,1.3
				c-1.1,0-2-0.3-2.6-1s-1-1.4-1-2.3c0-0.6,0.2-1.2,0.5-1.7s0.7-0.9,1.3-1.2s1.2-0.4,1.9-0.4c0.6,0,1.2,0.1,1.7,0.4
				S29.6,69.4,29.9,69.9z"/>
			<path d="M34.4,68.4c0.6,0,1.2,0.2,1.7,0.5s0.9,0.7,1.2,1.2s0.4,1.1,0.4,1.7c0,0.6-0.1,1.2-0.4,1.7s-0.7,0.9-1.2,1.2
				s-1.1,0.4-1.7,0.4c-0.9,0-1.7-0.3-2.3-1s-1-1.4-1-2.4c0-1,0.4-1.8,1.1-2.5C32.8,68.7,33.6,68.4,34.4,68.4z M34.4,69.9
				c-0.5,0-0.9,0.2-1.2,0.5c-0.3,0.3-0.5,0.8-0.5,1.3c0,0.6,0.2,1,0.5,1.3c0.3,0.3,0.7,0.5,1.2,0.5s0.9-0.2,1.2-0.5
				c0.3-0.3,0.5-0.8,0.5-1.3s-0.2-1-0.5-1.3C35.3,70.1,34.9,69.9,34.4,69.9z"/>
			<path d="M38.7,68.6h1.4v0.8c0.1-0.3,0.3-0.6,0.6-0.7s0.5-0.2,0.8-0.2c0.2,0,0.4,0.1,0.7,0.2L41.6,70c-0.2-0.1-0.3-0.1-0.5-0.1
				c-0.2,0-0.5,0.2-0.6,0.5s-0.3,0.9-0.3,1.8l0,0.3V75h-1.6V68.6z"/>
			<path d="M42.9,68.6h1.6v0.7c0.3-0.3,0.6-0.5,0.9-0.7c0.3-0.1,0.7-0.2,1.1-0.2c0.4,0,0.8,0.1,1.1,0.3s0.6,0.5,0.8,0.9
				c0.3-0.4,0.6-0.7,0.9-0.9c0.4-0.2,0.8-0.3,1.2-0.3c0.5,0,0.9,0.1,1.2,0.3s0.6,0.5,0.7,0.8s0.2,0.9,0.2,1.7V75h-1.6v-3.2
				c0-0.7-0.1-1.2-0.3-1.5s-0.4-0.4-0.8-0.4c-0.3,0-0.5,0.1-0.7,0.2s-0.4,0.4-0.5,0.6s-0.2,0.7-0.2,1.3V75H47v-3.1
				c0-0.6,0-1-0.1-1.2c-0.1-0.3-0.2-0.4-0.4-0.6c-0.2-0.1-0.4-0.2-0.6-0.2c-0.3,0-0.5,0.1-0.7,0.2c-0.2,0.2-0.4,0.4-0.5,0.7
				c-0.1,0.3-0.2,0.7-0.2,1.3V75h-1.6V68.6z"/>
		</g>
	</g>
</g>
</svg>
