<?xml version="1.0" encoding="utf-8"?>
<!-- Generator: Adobe Illustrator 21.0.2, SVG Export Plug-In . SVG Version: 6.00 Build 0)  -->
<svg version="1.1" xmlns="http://www.w3.org/2000/svg" xmlns:xlink="http://www.w3.org/1999/xlink" x="0px" y="0px"
	 viewBox="0 0 71 80" style="enable-background:new 0 0 71 80;" xml:space="preserve">
<g id="shortcut">
</g>
<g id="file">
	<g>
		<g>
			<path d="M49.6,8.1l-4.9,3.2L40,14.4c-1.5,1-3,2-4.5,3c-1.5,0.9-3,1.9-4.5,2.8c-0.3,0.2-0.6,0.2-0.8,0.1l-0.1,0
				c-0.1,0-0.1,0-0.1,0l-0.4,0l-0.8,0l-1.6,0c-1.1,0-2.2,0-3.3,0c-2.2,0-4.4-0.1-6.6-0.1l-1.6-0.1c-0.5,0-1.2-0.1-1.3,0
				c-0.2,0-0.5,0.2-0.6,0.5c0,0.1,0,0.1-0.1,0.2l0,0.1l0,0.2l0,0.8c-0.1,2.2-0.2,4.4-0.3,6.6c-0.1,2.2-0.1,4.4-0.1,6.6l0,0.8
				c0,0.3,0,0.6,0,0.7c0.1,0.4,0.4,0.8,0.7,0.9c0.2,0.1,0.4,0.1,0.6,0.1l0.8,0l1.6-0.1c4.4-0.3,8.7-0.6,13.1-0.9l-0.3,0
				c0.2,0,0.3-0.1,0.5-0.1c0.2,0,0.4,0,0.8,0.1c0.3,0.1,0.8,0.5,0.9,0.8l0,0.1l0,0l0,0l-0.1-0.1c-0.1-0.1-0.2-0.2-0.3-0.3
				c-0.1-0.1-0.3-0.2-0.6-0.2c-0.1,0-0.2,0-0.3,0c-0.1,0-0.2,0.1-0.2,0.1c-0.1,0-0.2,0.1-0.2,0.1c-0.3,0.3-0.1,0.1-0.1,0.1
				c-0.3,0.1-0.6-0.1-0.7-0.4s0.1-0.6,0.4-0.7c0.1,0,0.3,0,0.4,0l1.4,0.7c3.2,1.6,6.3,3.2,9.4,4.8l4.7,2.4c1.6,0.8,3.1,1.6,4.7,2.5
				l-2.3,1.3l0-4.8l0.1-4.8c0.1-3.2,0.2-6.4,0.4-9.7l0.5-10L49.6,8.1z M49.8,7.8l1,19.4c0.1,3.4,0.3,6.8,0.4,10.2l0.1,5.2l0,5.2
				c0,0.8-0.7,1.5-1.5,1.5c-0.3,0-0.5-0.1-0.7-0.2l0,0c-1.6-0.8-3.1-1.7-4.6-2.6L39.8,44c-3.1-1.7-6.1-3.5-9.2-5.2l1.5-0.4
				c-0.1,0.1,0,0.1-0.3,0.4c-0.1,0.1-0.2,0.1-0.3,0.2c0,0-0.1,0-0.2,0.1c-0.1,0-0.2,0-0.3,0c-0.2,0-0.5-0.1-0.6-0.2
				c-0.1-0.1-0.2-0.2-0.3-0.3C30,38.4,30,38.4,30,38.4l0,0l0-0.1l0,0c0,0,0,0,0,0c0,0.1,0.3,0.4,0.4,0.4c0.1,0,0.2,0,0.1,0
				c0,0-0.1,0-0.1,0l-0.3,0c-4.4-0.1-8.8-0.1-13.1-0.1l-1.6,0l-0.8,0c-0.4,0-0.7-0.1-1-0.2c-0.6-0.3-1.1-0.9-1.2-1.6
				c-0.1-0.4,0-0.6,0-0.9l0-0.8c0-2.2,0-4.4-0.1-6.6c-0.1-2.2-0.2-4.4-0.3-6.6l0-0.8l0-0.2l0-0.3c0-0.2,0.1-0.4,0.1-0.6
				c0.2-0.8,0.9-1.5,1.7-1.8c0.4-0.2,0.9-0.2,1.1-0.2l0.8,0l1.6-0.1c2.2-0.1,4.4-0.1,6.6-0.1c1.1,0,2.2,0,3.3,0l1.6,0l0.8,0l0.4,0
				c0.2,0,0.5,0,0.7,0.1l-0.9,0.1c1.7-1,3.4-1.9,5.2-2.8c1.7-0.9,3.5-1.8,5.1-2.6L49.8,7.8z"/>
		</g>
		<g>
			<path style="fill:#128BC7;" d="M52.4,23.2c1.2,0.3,2.3,1.1,2.9,2.2c0.3,0.6,0.5,1.2,0.7,1.7c0.2,0.6,0.3,1.2,0.4,1.8
				c0.2,1.2,0,2.6-0.6,3.7c-0.6,1.1-1.6,2-2.7,2.6c0,0,0,0,0,0c0,0,0,0,0,0c0.9-0.9,1.6-1.8,2.1-2.8c0.6-1,0.8-2.2,0.9-3.3
				c0-0.6-0.1-1.2-0.3-1.8c-0.2-0.6-0.6-1.1-0.9-1.5C54.2,24.8,53.4,24,52.4,23.2C52.4,23.2,52.4,23.2,52.4,23.2
				C52.4,23.2,52.4,23.2,52.4,23.2z"/>
		</g>
		<g>
			<path style="fill:#128BC7;" d="M50.8,24c1,0.3,2,1,2.6,1.9c0.3,0.5,0.4,1,0.6,1.5c0.2,0.5,0.3,1,0.4,1.6c0.2,1.1,0,2.2-0.5,3.2
				c-0.5,1-1.4,1.8-2.3,2.2c0,0,0,0,0,0c0,0,0,0,0,0c0.7-0.8,1.4-1.6,1.8-2.5c0.5-0.9,0.7-1.9,0.8-2.9c0-0.5-0.1-1-0.2-1.5
				c-0.2-0.5-0.5-0.9-0.8-1.3C52.4,25.4,51.7,24.7,50.8,24C50.8,24,50.8,24,50.8,24C50.8,24,50.8,24,50.8,24z"/>
		</g>
		<g>
			<path style="fill:#128BC7;" d="M54,22.6c1.3,0.4,2.5,1.3,3.2,2.4c0.3,0.6,0.6,1.3,0.8,1.9c0.2,0.6,0.4,1.3,0.5,2
				c0.2,1.4,0,2.8-0.7,4c-0.7,1.2-1.7,2.2-2.9,2.8c0,0,0,0,0,0c0,0,0,0,0,0c0.9-0.9,1.7-2,2.3-3.1c0.6-1.1,0.9-2.4,1-3.7
				c0-0.7-0.1-1.3-0.3-1.9c-0.2-0.6-0.6-1.2-1-1.7C56,24.4,55.1,23.5,54,22.6C54,22.7,54,22.6,54,22.6C54,22.6,54,22.6,54,22.6z"/>
		</g>
	</g>
	<rect y="57" style="fill:#128BC7;" width="71" height="23"/>
	<g>
		<path style="fill:#FFFFFF;" d="M22.6,62.5h2l2.5,7.5l2.5-7.5h2l1.8,10.8h-2l-1.2-6.8L28,73.3h-1.8l-2.3-6.8l-1.2,6.8h-2L22.6,62.5
			z"/>
		<path style="fill:#FFFFFF;" d="M35.1,62.5h2.2c1.2,0,2,0.1,2.5,0.3c0.5,0.2,0.9,0.6,1.2,1.1c0.3,0.5,0.5,1.1,0.5,1.7
			c0,0.8-0.2,1.4-0.6,1.9c-0.4,0.5-0.9,0.8-1.6,1c-0.4,0.1-1.1,0.2-2.2,0.2v4.6h-2.1V62.5z M37.1,66.7h0.7c0.5,0,0.9,0,1.1-0.1
			c0.2-0.1,0.4-0.2,0.5-0.4c0.1-0.2,0.2-0.4,0.2-0.6c0-0.4-0.2-0.7-0.5-0.9c-0.2-0.1-0.7-0.2-1.3-0.2h-0.6V66.7z"/>
		<path style="fill:#FFFFFF;" d="M45.1,65.2h-2c0.1-0.8,0.4-1.4,0.9-1.9c0.7-0.7,1.5-1,2.5-1c0.9,0,1.6,0.3,2.2,0.8
			c0.6,0.6,0.9,1.2,0.9,2c0,0.5-0.1,0.9-0.4,1.3c-0.3,0.4-0.6,0.7-1.1,1c0.7,0.2,1.2,0.5,1.5,1c0.4,0.5,0.6,1.1,0.6,1.7
			c0,1-0.4,1.8-1.1,2.5c-0.7,0.7-1.6,1-2.7,1c-1,0-1.9-0.3-2.6-0.9c-0.7-0.6-1-1.5-1.1-2.6h2c0.1,0.6,0.3,1,0.6,1.2
			c0.3,0.3,0.7,0.4,1.1,0.4c0.5,0,0.9-0.2,1.2-0.5c0.3-0.3,0.5-0.7,0.5-1.1c0-0.5-0.2-0.9-0.6-1.2s-1-0.5-1.8-0.5v-1.8
			c0.5,0,0.9-0.1,1.1-0.2c0.2-0.1,0.4-0.3,0.6-0.5c0.1-0.2,0.2-0.4,0.2-0.6c0-0.3-0.1-0.5-0.3-0.7c-0.2-0.2-0.5-0.3-0.8-0.3
			c-0.3,0-0.6,0.1-0.8,0.3C45.3,64.6,45.2,64.9,45.1,65.2z"/>
	</g>
</g>
</svg>
