<?xml version="1.0" encoding="utf-8"?>
<!-- Generator: Adobe Illustrator 22.1.0, SVG Export Plug-In . SVG Version: 6.00 Build 0)  -->
<svg version="1.1" xmlns="http://www.w3.org/2000/svg" xmlns:xlink="http://www.w3.org/1999/xlink" x="0px" y="0px"
	 viewBox="0 0 71 80" style="enable-background:new 0 0 71 80;" xml:space="preserve">
<g id="shortcut">
</g>
<g id="file">
	<g>
		<g>
			<path d="M47,9.7c2,2.2,3,5.1,2.9,8.1c-0.1,3-1.4,5.9-3.6,8.1c-2.2,2.2-5.2,3.6-8.4,3.6c-1.6,0-3.2-0.3-4.7-0.9
				c-1.5-0.7-2.8-1.6-3.9-2.8c-1.1-1.2-1.9-2.7-2.4-4.2c-0.5-1.5-0.6-3.2-0.5-4.8c0.3-3.2,2-6.1,4.4-8c2.4-1.9,5.5-2.9,8.4-2.7
				C42.2,6.2,45.1,7.5,47,9.7z M47,9.7c-1-1.1-2.2-1.9-3.5-2.5c-1.3-0.6-2.8-0.8-4.2-0.8c-2.9,0-5.7,1.3-7.6,3.3
				c-1.9,2-3.1,4.6-3.2,7.3c-0.1,2.7,0.8,5.3,2.6,7.2c1.7,1.9,4.2,3.1,6.9,3.3c2.7,0.2,5.4-0.7,7.6-2.4c2.2-1.7,3.7-4.4,4-7.2
				c0.2-1.4,0-2.9-0.4-4.3C48.7,12.1,48,10.8,47,9.7z"/>
		</g>
		<g>
			<path d="M41.4,32.2c0-2,0.8-3.9,2.2-5.3c1.4-1.4,3.4-2.3,5.5-2.5c2.1-0.2,4.3,0.4,6.1,1.9c1.7,1.4,2.9,3.6,2.9,6
				c0,1.2-0.3,2.3-0.8,3.3c-0.5,1-1.2,1.9-2.1,2.6c-1.7,1.4-4,2-6.1,1.9c-2.1-0.2-4.1-1.1-5.5-2.5C42.2,36.1,41.4,34.1,41.4,32.2z
				 M41.4,32.2c0,2,1,3.9,2.5,5.1c1.5,1.2,3.4,1.7,5.2,1.6c1.8-0.2,3.5-1,4.7-2.2c1.2-1.2,1.8-2.8,1.8-4.4c0-1.6-0.7-3.2-1.8-4.4
				c-1.2-1.2-2.8-2-4.7-2.2c-1.8-0.2-3.8,0.3-5.2,1.5C42.3,28.3,41.3,30.2,41.4,32.2z"/>
		</g>
		<g>
			<path d="M43.6,38.2c1.6,0,3.2,0.5,4.5,1.6c1.3,1,2.2,2.6,2.4,4.4c0.2,1.8-0.5,3.7-1.8,5c-1.3,1.4-3.2,2.2-5.1,2.2
				c-1.9,0-3.8-0.8-5.1-2.2c-1.3-1.4-1.9-3.3-1.8-5.1c0.2-1.8,1.1-3.4,2.4-4.4C40.4,38.7,42,38.2,43.6,38.2z M43.6,38.2
				c-1.6,0-3.2,0.7-4.2,1.8c-1.1,1.2-1.6,2.7-1.4,4.2c0.2,1.4,0.9,2.7,2,3.5c1,0.8,2.3,1.3,3.6,1.3c1.3,0,2.6-0.4,3.6-1.3
				c1-0.8,1.8-2.1,2-3.5c0.2-1.4-0.3-3-1.4-4.2C46.8,38.9,45.3,38.2,43.6,38.2z"/>
		</g>
		<g>
			<path style="fill:#128BC7;" d="M37.8,39c-2-0.2-4-0.2-5.8,0.2c-1.8,0.4-3.6,0.9-5.2,1.8c-3.2,1.6-5.6,4.2-7.1,7.1
				c-1.5,2.9-2,6.1-1.6,9.2c0.4,3.1,1.8,6,3.9,8.2c4.1,4.5,11.2,6,17.2,3.3c3-1.3,5.6-3.6,7.5-6.7c0.9-1.5,1.6-3.2,2.1-5
				c0.4-1.8,0.6-3.8,0.5-5.8c1.9,3.6,2.3,8.1,1.1,12.4c-1.2,4.3-4.1,8.1-8,10.7c-2,1.3-4.2,2.2-6.5,2.7c-2.3,0.6-4.7,0.7-7.1,0.4
				c-2.4-0.3-4.7-1-6.9-2.1c-2.1-1.1-4.1-2.6-5.8-4.4c-1.6-1.8-3-3.8-4-6c-0.9-2.2-1.5-4.6-1.7-7c-0.2-2.4,0.1-4.8,0.8-7.1
				c0.7-2.3,1.7-4.4,3.1-6.3c2.8-3.7,6.8-6.4,11.1-7.4C29.8,36.3,34.3,36.9,37.8,39z"/>
		</g>
	</g>
</g>
</svg>
