<?xml version="1.0" encoding="utf-8"?>
<!-- Generator: Adobe Illustrator 21.0.2, SVG Export Plug-In . SVG Version: 6.00 Build 0)  -->
<svg version="1.1" xmlns="http://www.w3.org/2000/svg" xmlns:xlink="http://www.w3.org/1999/xlink" x="0px" y="0px"
	 viewBox="0 0 71 80" style="enable-background:new 0 0 71 80;" xml:space="preserve">
<g id="shortcut">
</g>
<g id="file">
	<rect y="57" style="fill:#98C03D;" width="71" height="23"/>
	<g>
		<path style="fill:#FFFFFF;" d="M22.9,62.5h2.3l2.3,3.5l2.3-3.5h2.3l-3.4,5.2l3.6,5.6H30l-2.5-3.8L25,73.3h-2.3l3.6-5.6L22.9,62.5z
			"/>
		<path style="fill:#FFFFFF;" d="M33.8,62.5h2.1v8.8h3v2h-5V62.5z"/>
		<path style="fill:#FFFFFF;" d="M46.1,64l-1.5,1.3c-0.5-0.7-1.1-1.1-1.6-1.1c-0.3,0-0.5,0.1-0.7,0.2c-0.2,0.1-0.3,0.3-0.3,0.5
			s0.1,0.4,0.2,0.5c0.2,0.2,0.7,0.7,1.5,1.4c0.8,0.7,1.3,1.1,1.4,1.2c0.4,0.4,0.7,0.8,0.9,1.2c0.2,0.4,0.3,0.8,0.3,1.3
			c0,0.9-0.3,1.6-0.9,2.2c-0.6,0.6-1.4,0.9-2.4,0.9c-0.8,0-1.4-0.2-2-0.6s-1.1-1-1.5-1.8l1.7-1c0.5,1,1.1,1.4,1.8,1.4
			c0.4,0,0.6-0.1,0.9-0.3c0.2-0.2,0.4-0.4,0.4-0.7c0-0.2-0.1-0.5-0.3-0.7c-0.2-0.2-0.6-0.6-1.2-1.1c-1.2-1-1.9-1.7-2.3-2.2
			C40.2,66,40,65.5,40,65c0-0.7,0.3-1.4,0.9-1.9c0.6-0.5,1.3-0.8,2.1-0.8c0.5,0,1,0.1,1.5,0.4S45.5,63.4,46.1,64z"/>
	</g>
	<path style="fill:#98C03D;" d="M37,5.4v21l19.5-7.7C56.5,18.8,51.7,5.9,37,5.4z"/>
	<g>
		<path d="M34.7,30.4v-21c-11.6,0-21,9.4-21,21c0,11.6,9.4,21,21,21c5.1,0,9.7-1.8,13.3-4.8L34.7,30.4z"/>
		<path d="M55.3,26.4C55.3,26.5,55.3,26.5,55.3,26.4C55.3,26.5,55.3,26.5,55.3,26.4z"/>
		<path d="M49.5,45.3C49.6,45.3,49.6,45.3,49.5,45.3C49.6,45.3,49.6,45.3,49.5,45.3z"/>
		<path d="M48.2,46.6C48.1,46.6,48.1,46.6,48.2,46.6C48.1,46.6,48.1,46.6,48.2,46.6z"/>
	</g>
	<path d="M41.4,30.4l19.5-7.7c0,0,6.1,13.7-6.2,23.9L41.4,30.4z"/>
</g>
</svg>
