<?xml version="1.0" encoding="utf-8"?>
<!-- Generator: Adobe Illustrator 21.0.2, SVG Export Plug-In . SVG Version: 6.00 Build 0)  -->
<svg version="1.1" xmlns="http://www.w3.org/2000/svg" xmlns:xlink="http://www.w3.org/1999/xlink" x="0px" y="0px"
	 viewBox="0 0 71 80" style="enable-background:new 0 0 71 80;" xml:space="preserve">
<g id="shortcut">
</g>
<g id="file">
	<path style="fill:#E59B3A;" d="M55.5,53.4c-1.5-1.9-5.3-3.5-8.7-3.6c2.2,2.4,4.2,4.8,7.8,4.7c-0.9,0.9-1.8,1.2-3.3,0.7
		c-2.6-0.8-4.5-2.5-6.1-4.6c-1.1-1.4-2.3-2.1-4-2.1c-2.8-0.1-5.6-0.4-8.4-0.5c-0.7,0-1.5,0.4-2.1,0.8c-2.3,1.5-4.4,3.3-6.8,4.7
		c-1.3,0.8-2.8,1-4.2,0.3c-1.8-0.9-2.1-2.9-0.5-4.1c1.4-1,5.6-2.2,7.9-2c-1.3,0.4-2.2,0.7-3.2,1.1c-1,0.4-2,0.9-2.8,1.5
		c-0.8,0.6-1.4,1.4-2.1,2.1c0.1,0.2,0.2,0.3,0.3,0.5c1-0.4,2.1-0.6,3-1.1c6.5-3.8,12-8.9,16.8-14.7c0.3-0.4,0.3-1.1,0.4-1.6
		c0.5-3,0.9-6,1.5-8.9c0.2-1.1,0.9-1.8,2.1-2c1.8-0.3,2.8,0.7,2.6,2.6c-0.1,2.2-1,4.2-2.4,5.7c-2.6,2.8-2.1,5.8-1,8.9
		c0.2,0.8,0.6,1.5,0.9,2.2c1,2.5,2.5,4.3,5.5,4.7c2,0.2,4,1.2,5.9,2C56,51.3,56.1,52.2,55.5,53.4z M39.6,38.3
		c-2.4,2.9-4.8,5.9-7.2,8.9c3.4,0.1,6.8,0.1,10,0.2C41.5,44.4,40.6,41.3,39.6,38.3z M44.3,25.7c-1.7,1.3-3.1,5.7-2.7,8.3
		C44.5,31,46.3,27.2,44.3,25.7z"/>
	<g>
		
			<polygon style="fill:none;stroke:#000000;stroke-width:1.4276;stroke-linecap:round;stroke-linejoin:round;stroke-miterlimit:10;" points="
			54.4,14.6 51.4,27.8 66.9,31.4 		"/>
		
			<polygon style="fill:none;stroke:#000000;stroke-width:1.4276;stroke-linecap:round;stroke-linejoin:round;stroke-miterlimit:10;" points="
			54.8,14.6 25.2,7.8 10.8,69.7 55.5,80.2 67,30.8 		"/>
	</g>
	<rect x="0.2" y="56.7" style="fill:#E59B3A;" width="71" height="23"/>
	<g>
		<path style="fill:#FFFFFF;" d="M25.3,62.2h2.2c1.2,0,2,0.1,2.5,0.3c0.5,0.2,0.9,0.6,1.2,1.1c0.3,0.5,0.5,1.1,0.5,1.7
			c0,0.8-0.2,1.4-0.6,1.9c-0.4,0.5-0.9,0.8-1.6,1c-0.4,0.1-1.1,0.2-2.2,0.2V73h-2.1V62.2z M27.4,66.4H28c0.5,0,0.9,0,1.1-0.1
			c0.2-0.1,0.4-0.2,0.5-0.4c0.1-0.2,0.2-0.4,0.2-0.6c0-0.4-0.2-0.7-0.5-0.9c-0.2-0.1-0.7-0.2-1.3-0.2h-0.6V66.4z"/>
		<path style="fill:#FFFFFF;" d="M33.8,62.2h2.4c1.6,0,2.7,0.2,3.5,0.6c0.8,0.4,1.4,1,1.9,1.9c0.5,0.9,0.7,1.9,0.7,3.1
			c0,0.8-0.1,1.6-0.4,2.3c-0.3,0.7-0.7,1.3-1.1,1.7s-1,0.8-1.6,1c-0.6,0.2-1.5,0.3-2.9,0.3h-2.5V62.2z M35.8,64.2V71h1
			c0.9,0,1.6-0.1,2-0.3c0.4-0.2,0.8-0.6,1-1.1s0.4-1.1,0.4-1.9c0-1.1-0.3-2-1-2.7c-0.6-0.6-1.5-0.9-2.8-0.9H35.8z"/>
		<path style="fill:#FFFFFF;" d="M44.3,62.2h5.3v2h-3.3v2h3.3v2h-3.3V73h-2V62.2z"/>
	</g>
</g>
</svg>
