<?xml version="1.0" encoding="utf-8"?>
<!-- Generator: Adobe Illustrator 21.0.2, SVG Export Plug-In . SVG Version: 6.00 Build 0)  -->
<svg version="1.1" xmlns="http://www.w3.org/2000/svg" xmlns:xlink="http://www.w3.org/1999/xlink" x="0px" y="0px"
	 viewBox="0 0 71 80" style="enable-background:new 0 0 71 80;" xml:space="preserve">
<g id="shortcut">
</g>
<g id="file">
	<g>
		<g>
			
				<polygon style="fill:none;stroke:#000000;stroke-width:1.4276;stroke-linecap:round;stroke-linejoin:round;stroke-miterlimit:10;" points="
				56.2,11.2 51.2,23.9 66,29.7 			"/>
			
				<polygon style="fill:none;stroke:#000000;stroke-width:1.4276;stroke-linecap:round;stroke-linejoin:round;stroke-miterlimit:10;" points="
				56.5,11.4 28.2,0.3 5,59.5 47.7,76.3 66.2,29.1 			"/>
		</g>
		
			<line style="fill:none;stroke:#60439A;stroke-width:3;stroke-linejoin:round;stroke-miterlimit:10;stroke-dasharray:6;" x1="34.4" y1="3.4" x2="33.2" y2="6.7"/>
		
			<line style="fill:none;stroke:#60439A;stroke-width:3;stroke-linejoin:round;stroke-miterlimit:10;stroke-dasharray:6;" x1="32.3" y1="8.9" x2="31.1" y2="12.2"/>
		
			<line style="fill:none;stroke:#60439A;stroke-width:3;stroke-linejoin:round;stroke-miterlimit:10;stroke-dasharray:6;" x1="30.2" y1="14.5" x2="29" y2="17.8"/>
		
			<line style="fill:none;stroke:#60439A;stroke-width:3;stroke-linejoin:round;stroke-miterlimit:10;stroke-dasharray:6;" x1="37.3" y1="7.5" x2="36.1" y2="10.8"/>
		
			<line style="fill:none;stroke:#60439A;stroke-width:3;stroke-linejoin:round;stroke-miterlimit:10;stroke-dasharray:6;" x1="35.1" y1="13.4" x2="33.8" y2="16.7"/>
		
			<line style="fill:none;stroke:#60439A;stroke-width:3;stroke-linejoin:round;stroke-miterlimit:10;stroke-dasharray:6;" x1="33.3" y1="18.2" x2="32" y2="21.5"/>
		<path style="fill:#60439A;stroke:#60439A;stroke-width:1.0467;stroke-miterlimit:10;" d="M32.3,31.3l1.5-10.9
			c0-0.3-0.1-0.5-0.4-0.6l-4.9-1.8c-0.3-0.1-0.6,0-0.7,0.2l-6.2,8.2c-0.9,1.2-0.9,2.9,0,4.2c3.2,4.7,7,3.9,9.1,3
			C31.6,33.1,32.2,32.3,32.3,31.3z M25.3,33.2c-2.7-1-4.4-3.1-3.8-4.6s3.2-1.9,5.9-0.9c2.7,1,4.4,3.1,3.8,4.6
			C30.6,33.8,27.9,34.2,25.3,33.2z"/>
	</g>
	<rect y="57" style="fill:#60439A;" width="71" height="23"/>
	<g>
		<path style="fill:#FFFFFF;" d="M36.6,64l-1.4,1.4c-0.9-1-2-1.5-3.2-1.5c-1.1,0-1.9,0.4-2.7,1.1c-0.7,0.7-1.1,1.6-1.1,2.6
			c0,1,0.4,1.9,1.1,2.6c0.7,0.7,1.7,1.1,2.7,1.1c0.7,0,1.3-0.1,1.8-0.4s0.9-0.8,1.2-1.4H32v-1.9h5.4l0,0.5c0,0.9-0.2,1.8-0.7,2.7
			s-1.1,1.5-1.9,1.9s-1.7,0.7-2.7,0.7c-1.1,0-2.1-0.2-3-0.7c-0.9-0.5-1.6-1.2-2.1-2.1c-0.5-0.9-0.8-1.9-0.8-2.9
			c0-1.4,0.5-2.7,1.4-3.7c1.1-1.3,2.6-1.9,4.4-1.9c0.9,0,1.8,0.2,2.6,0.5C35.3,62.8,36,63.3,36.6,64z"/>
		<path style="fill:#FFFFFF;" d="M38.7,62.2h6.5L41.4,71H45v2h-6.6l3.8-8.7h-3.5V62.2z"/>
	</g>
</g>
</svg>
