<?xml version="1.0" encoding="utf-8"?>
<!-- Generator: Adobe Illustrator 21.0.2, SVG Export Plug-In . SVG Version: 6.00 Build 0)  -->
<svg version="1.1" xmlns="http://www.w3.org/2000/svg" xmlns:xlink="http://www.w3.org/1999/xlink" x="0px" y="0px"
	 viewBox="0 0 71 80" style="enable-background:new 0 0 71 80;" xml:space="preserve">
<g id="shortcut">
</g>
<g id="file">
	<g>
		
			<polygon style="fill:#FFFFFF;stroke:#000000;stroke-width:1.7618;stroke-linecap:round;stroke-linejoin:round;stroke-miterlimit:10;" points="
			23.3,4 7.2,63.7 50.4,75.4 64.2,24.5 57.3,13.3 		"/>
		
			<polyline style="fill:#FFFFFF;stroke:#000000;stroke-width:1.8481;stroke-linecap:round;stroke-linejoin:round;stroke-miterlimit:10;" points="
			63.9,24.4 53.8,21.7 56,13.4 		"/>
		
			<line style="fill:none;stroke:#000000;stroke-width:1.7622;stroke-linecap:round;stroke-linejoin:round;stroke-miterlimit:10;" x1="40.6" y1="21.9" x2="57.8" y2="26.6"/>
		
			<line style="fill:none;stroke:#000000;stroke-width:1.7622;stroke-linecap:round;stroke-linejoin:round;stroke-miterlimit:10;" x1="22.8" y1="28.3" x2="55" y2="37"/>
		
			<line style="fill:none;stroke:#000000;stroke-width:1.7622;stroke-linecap:round;stroke-linejoin:round;stroke-miterlimit:10;" x1="20" y1="38.8" x2="52.1" y2="47.5"/>
		
			<line style="fill:none;stroke:#000000;stroke-width:1.7622;stroke-linecap:round;stroke-linejoin:round;stroke-miterlimit:10;" x1="17.2" y1="49.2" x2="49.3" y2="57.9"/>
		
			<line style="fill:none;stroke:#000000;stroke-width:1.7622;stroke-linecap:round;stroke-linejoin:round;stroke-miterlimit:10;" x1="14.3" y1="59.7" x2="38.6" y2="66.3"/>
		<g>
			<path style="fill:#128BC7;" d="M34.5,13.1l-2.9,10.6c0,0.1-0.1,0.2-0.1,0.3c0,0.1,0,0.2,0.1,0.3c0.1,0.1,0.2,0.2,0.3,0.3
				c0.1,0.1,0.3,0.2,0.6,0.3c0.2,0.1,0.3,0.2,0.2,0.4c0,0,0,0.1-0.1,0.2c0,0.1-0.1,0.1-0.1,0.2c-0.4-0.1-0.9-0.3-1.4-0.4
				c-0.5-0.2-0.9-0.3-1.3-0.4c-0.4-0.1-0.8-0.2-1.3-0.3c-0.5-0.1-0.9-0.2-1.4-0.3c0-0.1,0-0.1,0-0.2c0-0.1,0-0.1,0-0.2
				c0-0.1,0.1-0.2,0.1-0.2c0-0.1,0.2-0.1,0.3-0.1c0.5,0.1,0.9,0.1,1,0c0.2-0.1,0.3-0.3,0.3-0.5L32,12.4l-1.8-0.5
				c-0.4-0.1-0.7-0.2-1-0.2c-0.3,0-0.5,0.1-0.8,0.2c-0.2,0.1-0.5,0.3-0.7,0.5c-0.2,0.2-0.5,0.5-0.7,0.8c-0.1,0.1-0.2,0.1-0.4,0.1
				c-0.1,0-0.2-0.1-0.3-0.1c-0.1-0.1-0.2-0.1-0.2-0.2c0.2-0.3,0.3-0.6,0.5-0.8c0.1-0.2,0.3-0.5,0.4-0.7c0.1-0.3,0.3-0.6,0.3-0.8
				c0.1-0.2,0.2-0.4,0.2-0.5c0.1-0.1,0.2-0.1,0.4-0.1c0.1,0,0.4,0.1,0.9,0.3c0.4,0.2,0.9,0.3,1.6,0.5l6.2,1.7
				c0.6,0.2,1.1,0.3,1.6,0.4c0.4,0.1,0.8,0.1,0.9,0.2c0.1,0,0.2,0.1,0.3,0.3c0,0.1,0,0.3-0.1,0.5c0,0.2-0.1,0.5-0.1,0.9
				c0,0.3,0,0.5-0.1,0.8c0,0.3,0,0.6,0,0.9c-0.1,0-0.2,0-0.3,0c-0.1,0-0.2,0-0.3,0c-0.1,0-0.2-0.1-0.3-0.3c-0.1-0.4-0.1-0.7-0.2-1
				s-0.2-0.5-0.4-0.7c-0.2-0.2-0.3-0.4-0.6-0.5c-0.2-0.1-0.5-0.3-0.9-0.4L34.5,13.1z"/>
		</g>
	</g>
	<rect x="0.2" y="56.7" style="fill:#128BC7;" width="71" height="23"/>
	<g>
		<path style="fill:#FFFFFF;" d="M20.3,62.2h2.4c1.6,0,2.7,0.2,3.5,0.6c0.8,0.4,1.4,1,1.9,1.9s0.7,1.9,0.7,3.1
			c0,0.8-0.1,1.6-0.4,2.3c-0.3,0.7-0.7,1.3-1.1,1.7s-1,0.8-1.6,1S24.1,73,22.7,73h-2.5V62.2z M22.3,64.2V71h1c0.9,0,1.6-0.1,2-0.3
			c0.4-0.2,0.8-0.6,1-1.1s0.4-1.1,0.4-1.9c0-1.1-0.3-2-1-2.7c-0.6-0.6-1.5-0.9-2.8-0.9H22.3z"/>
		<path style="fill:#FFFFFF;" d="M35.9,62c1.5,0,2.8,0.6,3.9,1.7c1.1,1.1,1.6,2.4,1.6,4c0,1.6-0.5,2.9-1.6,4
			c-1.1,1.1-2.4,1.6-3.9,1.6c-1.6,0-3-0.6-4-1.7c-1.1-1.1-1.6-2.4-1.6-4c0-1,0.2-2,0.7-2.8s1.2-1.5,2.1-2.1
			C33.9,62.2,34.9,62,35.9,62z M35.8,64c-1,0-1.8,0.3-2.5,1s-1,1.6-1,2.6c0,1.2,0.4,2.1,1.3,2.8c0.7,0.5,1.4,0.8,2.3,0.8
			c1,0,1.8-0.4,2.5-1.1c0.7-0.7,1-1.6,1-2.6c0-1-0.3-1.9-1-2.6C37.7,64.3,36.8,64,35.8,64z"/>
		<path style="fill:#FFFFFF;" d="M53.3,64.1l-1.4,1.4c-1-1-2.1-1.5-3.3-1.5c-1,0-1.9,0.4-2.6,1.1c-0.7,0.7-1.1,1.6-1.1,2.6
			c0,0.7,0.2,1.4,0.5,1.9c0.3,0.6,0.8,1,1.3,1.3s1.2,0.5,1.9,0.5c0.6,0,1.1-0.1,1.6-0.3c0.5-0.2,1-0.6,1.6-1.2l1.4,1.5
			c-0.8,0.8-1.5,1.3-2.3,1.6s-1.5,0.5-2.4,0.5c-1.7,0-3-0.5-4.1-1.6c-1.1-1.1-1.6-2.4-1.6-4.1c0-1.1,0.2-2,0.7-2.9
			c0.5-0.8,1.2-1.5,2.1-2s1.9-0.8,2.9-0.8c0.9,0,1.7,0.2,2.6,0.6S52.7,63.4,53.3,64.1z"/>
	</g>
</g>
</svg>
