<?xml version="1.0" encoding="utf-8"?>
<!-- Generator: Adobe Illustrator 22.1.0, SVG Export Plug-In . SVG Version: 6.00 Build 0)  -->
<svg version="1.1" xmlns="http://www.w3.org/2000/svg" xmlns:xlink="http://www.w3.org/1999/xlink" x="0px" y="0px"
	 viewBox="0 0 71 80" style="enable-background:new 0 0 71 80;" xml:space="preserve">
<g id="shortcut">
</g>
<g id="file">
	<g>
		<g>
			<path style="fill:#60439A;" d="M41.3,62.1h2.7v5c0,1,0.1,1.7,0.2,2c0.1,0.4,0.4,0.7,0.7,0.9c0.3,0.2,0.7,0.3,1.1,0.3
				c0.4,0,0.8-0.1,1.1-0.3c0.3-0.2,0.5-0.5,0.7-0.9c0.1-0.3,0.2-0.9,0.2-1.9v-5.1h2.6v4.4c0,1.8-0.1,3.1-0.4,3.8
				c-0.4,0.8-0.9,1.5-1.6,1.9c-0.7,0.4-1.6,0.7-2.6,0.7c-1.1,0-2.1-0.3-2.8-0.8c-0.7-0.5-1.2-1.2-1.5-2.1c-0.2-0.6-0.3-1.8-0.3-3.5
				V62.1z"/>
			<path style="fill:#60439A;" d="M52.5,62.1h2.2v1.3c0.2-0.5,0.6-0.9,1-1.2c0.4-0.3,0.8-0.4,1.3-0.4c0.3,0,0.7,0.1,1.1,0.3
				l-0.8,2.3c-0.3-0.2-0.6-0.2-0.8-0.2c-0.4,0-0.7,0.2-1,0.8c-0.3,0.5-0.4,1.5-0.4,2.9l0,0.5v4.2h-2.6V62.1z"/>
			<path style="fill:#60439A;" d="M59.1,58.1h2.6v14.5h-2.6V58.1z"/>
		</g>
		<g>
			<path d="M29.8,38.7c0.9,0.2,1.8,0.5,2.7,0.9c0.9,0.3,1.7,0.5,2.5,0.7c1.6,0.3,3.3,0.2,4.8-0.1c1.5-0.3,3-0.9,4.3-1.7
				c1.3-0.9,2.4-1.9,3.4-3.1l0.4-0.5l0.4-0.6c0.3-0.4,0.5-0.8,0.8-1.1l1.7-2.2c1.2-1.5,2.3-3,3.3-4.5c0.5-0.8,1-1.6,1.4-2.4
				c0.5-0.8,0.9-1.6,1.2-2.4c0.6-1.6,0.7-3.4,0.4-5c-0.3-1.6-1-3.1-1.9-4.4c-0.9-1.3-2-2.4-3.2-3.2c-0.3-0.2-0.7-0.4-1-0.6l-1.2-0.6
				c-0.8-0.4-1.7-0.9-2.3-1.2c-1.3-0.6-2.8-0.9-4.2-0.9c-1.5,0-2.9,0.2-4.3,0.7c-0.4,0.1-0.7,0.3-1,0.4c-0.3,0.2-0.7,0.4-1,0.6
				c-0.6,0.4-1.3,0.9-1.8,1.4c-1.1,1-2.2,2.7-3.4,4.1c-1.2,1.5-2.4,2.9-3.7,4.3c-0.1,0.1-0.3,0.1-0.4,0c-0.1-0.1-0.1-0.2-0.1-0.3
				c0.6-1.8,1.2-3.6,1.9-5.3c0.3-0.9,0.7-1.7,1.1-2.6l0.3-0.6C31,8.3,31.1,8,31.2,7.8c0.2-0.5,0.5-0.9,0.8-1.4
				c2.4-3.6,6.8-5.9,11.3-6c2.2,0,4.5,0.5,6.5,1.5c1.1,0.6,1.8,1,2.6,1.5l1.2,0.8c0.5,0.3,0.9,0.6,1.3,1c1.7,1.4,3.1,3.2,3.9,5.1
				c0.9,2,1.2,4.1,1,6.2c-0.1,2.1-0.7,4-1.6,5.8c-0.4,0.9-1,1.7-1.4,2.5c-0.5,0.8-0.9,1.6-1.4,2.4c-0.9,1.6-1.6,3.4-2.3,5.1L52.2,35
				c-0.2,0.4-0.4,0.9-0.6,1.3l-0.3,0.6c-0.1,0.2-0.2,0.5-0.4,0.7c-1,1.9-2.6,3.5-4.5,4.6c-1.9,1.1-4,1.7-6.2,1.8
				c-2.1,0.1-4.3-0.3-6.1-1.3c-0.9-0.5-1.8-1.1-2.5-1.7c-0.7-0.6-1.4-1.3-2.1-1.9c-0.1-0.1-0.1-0.3,0-0.4
				C29.6,38.7,29.7,38.7,29.8,38.7z"/>
		</g>
		<g>
			<path d="M36.9,31.2c-0.9-0.2-1.8-0.5-2.7-0.9c-0.9-0.3-1.7-0.5-2.5-0.7c-1.6-0.3-3.3-0.2-4.8,0.1c-1.5,0.3-3,0.9-4.3,1.7
				c-1.3,0.8-2.4,1.9-3.4,3.1c-0.1,0.2-0.2,0.3-0.4,0.5l-0.4,0.6c-0.3,0.4-0.5,0.7-0.8,1.1l-1.7,2.2c-1.2,1.5-2.3,2.9-3.3,4.5
				c-0.5,0.8-1,1.6-1.4,2.4c-0.5,0.8-0.9,1.6-1.2,2.4c-0.6,1.6-0.7,3.4-0.4,5c0.1,0.8,0.4,1.6,0.7,2.4c0.3,0.7,0.7,1.4,1.1,2.1
				c0.9,1.3,1.9,2.4,3.2,3.2c0.3,0.2,0.7,0.4,1,0.6l1.2,0.6c0.8,0.4,1.7,0.9,2.3,1.2c1.3,0.6,2.8,0.9,4.2,1c2.9,0.1,5.9-0.9,8.2-3
				c0.3-0.3,0.6-0.5,0.8-0.9l0.4-0.5c0.1-0.2,0.3-0.4,0.4-0.5c0.6-0.7,1.1-1.5,1.7-2.2c1.2-1.5,2.4-2.9,3.7-4.3
				c0.1-0.1,0.3-0.1,0.4,0C39,52.8,39,52.9,39,53c-0.6,1.8-1.2,3.6-1.9,5.3c-0.3,0.9-0.7,1.7-1.1,2.6c-0.1,0.2-0.2,0.4-0.3,0.6
				l-0.4,0.7c-0.2,0.5-0.5,0.9-0.8,1.4c-2.4,3.6-6.8,5.8-11.3,5.8c-2.2,0-4.5-0.5-6.5-1.6c-1.1-0.6-1.7-1-2.5-1.5l-1.2-0.8
				c-0.4-0.3-0.9-0.6-1.3-1c-1.7-1.4-3.1-3.2-3.9-5.2c-0.9-2-1.1-4.1-1-6.2c0.1-2.1,0.7-4,1.6-5.8c0.2-0.5,0.5-0.9,0.7-1.3l0.7-1.2
				c0.5-0.8,0.9-1.6,1.4-2.4c0.9-1.6,1.6-3.4,2.3-5.1l1.1-2.6c0.2-0.4,0.4-0.9,0.6-1.3l0.3-0.6c0.1-0.2,0.2-0.5,0.4-0.7
				c1-1.9,2.6-3.5,4.5-4.6c1.9-1.1,4-1.7,6.2-1.8c2.1-0.1,4.3,0.3,6.1,1.3c0.9,0.4,1.8,1.1,2.5,1.7c0.7,0.6,1.4,1.3,2.1,1.9
				c0.1,0.1,0.1,0.3,0,0.4C37.1,31.2,37,31.2,36.9,31.2z"/>
		</g>
	</g>
</g>
</svg>
