<svg id="abef4149-2c4a-464f-b710-78f630d752c8" data-name="resources" xmlns="http://www.w3.org/2000/svg" xmlns:xlink="http://www.w3.org/1999/xlink" viewBox="0 0 134 134">
  <defs>
    <style>
      .a9c2e81f-085f-4463-8441-2662b0afa40f {
        fill: none;
      }

      .aac46276-deea-4712-a061-2b4cf259669c, .bef41757-b359-473c-a1b8-d63bb4256868 {
        fill: var(--secondary-color);
      }

      .aac46276-deea-4712-a061-2b4cf259669c {
        stroke: var(--secondary-color);
        stroke-width: 4px;
      }

      .aac46276-deea-4712-a061-2b4cf259669c, .f285613d-43b2-43dc-82e2-d73870731da9 {
        stroke-miterlimit: 10;
      }

      .b63ae921-0a3b-4325-ad9a-cff5256ede0d, .f285613d-43b2-43dc-82e2-d73870731da9 {
        fill: var(--primary-color);
      }

      .f285613d-43b2-43dc-82e2-d73870731da9 {
        stroke: var(--primary-color);
        stroke-width: 6px;
      }

      .a868538d-31e6-43bf-aeb9-c6e2056bdc06 {
        fill: #fff;
      }

      .ad9fd622-4c20-4503-ae43-e5088f47a005 {
        clip-path: url(#ac8dcb69-21da-4813-b36e-1f392149c748);
      }
    </style>
    <clipPath id="ac8dcb69-21da-4813-b36e-1f392149c748">
      <path class="a9c2e81f-085f-4463-8441-2662b0afa40f" d="M121.79,22.82c5.48,9.49,6.3,19.27,1.84,21.84s-12.51-3-18-12.52-6.3-19.27-1.84-21.84S116.31,13.33,121.79,22.82Z"/>
    </clipPath>
  </defs>
  <g id="fb94cee4-387b-43c0-a700-3aea7d0499eb" data-name="Custom">
    <g id="b3576a85-184c-475b-875f-8ebe60024e74" data-name="Announce">
      <g>
        <path class="aac46276-deea-4712-a061-2b4cf259669c" d="M115.88,29.91C108.5,17.14,97.66,9.6,91.66,13.06c-2.89,1.67-4.12,5.59-3.81,10.62L68.24,53.14,15.59,83.53,3.07,86.3l7.56,13.11L19.29,90l5.57-3.22A9.79,9.79,0,0,0,26,89.94c1.32,2.28,3.92,6.8,5.25,9.08a10.48,10.48,0,0,0,4.9,4.44,11,11,0,0,0,10.57-.59l31.8-18.36a11,11,0,0,0,5.79-8.85A10.57,10.57,0,0,0,83,69.19c-.55-1-5.62-9.68-5.82-10l30.13-1.93c4.2,2.79,8.21,3.68,11.1,2C124.36,55.84,123.25,42.68,115.88,29.91Zm-41,48.18L43,96.45a3.65,3.65,0,0,1-5.22-1.32l-4.94-8.56a3.62,3.62,0,0,1,1.41-5.27L66.87,62.49l-.78.44a3.63,3.63,0,0,1,5.27,1.42h0l4.94,8.56A3.64,3.64,0,0,1,74.84,78.09Z"/>
        <polygon class="bef41757-b359-473c-a1b8-d63bb4256868" points="77.09 85.36 73.2 78.43 44.46 95.02 48.34 101.95 41.67 130.49 41.69 130.49 58.27 116.83 74.84 130.49 74.86 130.49 77.09 85.36 77.09 85.36"/>
      </g>
      <g>
        <path class="f285613d-43b2-43dc-82e2-d73870731da9" d="M124.58,21.21C117.21,8.44,106.37.89,100.37,4.36,97.48,6,96.24,9.94,96.55,15L77,44.43,24.29,74.83,11.78,77.6l7.56,13.1L28,81.25,33.56,78a10.27,10.27,0,0,0,1.17,3.2L40,90.32a10.66,10.66,0,0,0,4.91,4.44,11,11,0,0,0,10.56-.59l31.8-18.36A10.94,10.94,0,0,0,93,67a10.59,10.59,0,0,0-1.38-6.47c-.55-.94-5.62-9.68-5.83-10L116,48.6c4.2,2.78,8.21,3.67,11.1,2C133.07,47.14,132,34,124.58,21.21Zm-41,48.18c-.4.22-29.69,17.14-31.8,18.36a3.65,3.65,0,0,1-5.22-1.33l-5-8.56A3.63,3.63,0,0,1,43,72.59L75.58,53.78l-.78.45a3.62,3.62,0,0,1,5.27,1.41h0c.2.36,4,7,4.94,8.56A3.66,3.66,0,0,1,83.55,69.39Z"/>
        <g>
          <path class="a868538d-31e6-43bf-aeb9-c6e2056bdc06" d="M124.58,21.21C132,34,133.07,47.14,127.07,50.6s-16.85-4.08-24.22-16.85S94.37,7.82,100.37,4.36,117.21,8.44,124.58,21.21Z"/>
          <path class="b63ae921-0a3b-4325-ad9a-cff5256ede0d" d="M121.79,22.82c5.48,9.49,6.3,19.27,1.84,21.84s-12.51-3-18-12.52-6.3-19.27-1.84-21.84S116.31,13.33,121.79,22.82Z"/>
          <rect class="b63ae921-0a3b-4325-ad9a-cff5256ede0d" x="24.41" y="67.87" width="25.84" height="7.41" transform="translate(-30.79 28.26) rotate(-30)"/>
          <path class="a868538d-31e6-43bf-aeb9-c6e2056bdc06" d="M80.07,55.64,85,64.2a3.66,3.66,0,0,1-1.46,5.19c-2.12,1.21-7.39,4.26-7.39,4.26l-17,9.83-7.38,4.27a3.65,3.65,0,0,1-5.22-1.33l-5-8.56A3.63,3.63,0,0,1,43,72.59L80.65,50.85l38.58-2.46L98.36,12.25,77,44.43c-6.34,3.65-31.24,18-37.57,21.69a11.62,11.62,0,0,0-4.54,4.73c-.2.47-.4.93-.56,1.26A10,10,0,0,1,33.62,74c0,.13,0,.36-.06.5a10,10,0,0,0,1.17,6.71L40,90.32a10.66,10.66,0,0,0,4.91,4.44,11,11,0,0,0,10.56-.59l7.39-4.27,17-9.83,7.38-4.26A10.94,10.94,0,0,0,93,67a10.59,10.59,0,0,0-1.38-6.47l-5-8.64Z"/>
          <path class="b63ae921-0a3b-4325-ad9a-cff5256ede0d" d="M80.65,50.85,74.8,54.23a3.62,3.62,0,0,1,5.27,1.41l1.8,3.13,2.52-1.46L89.63,57l-3.22-5.59a10.11,10.11,0,0,0-.58-.87Z"/>
          <polygon class="a868538d-31e6-43bf-aeb9-c6e2056bdc06" points="24.29 74.83 11.78 77.6 19.34 90.7 28 81.25 24.29 74.83"/>
          <g class="ad9fd622-4c20-4503-ae43-e5088f47a005">
            <path class="bef41757-b359-473c-a1b8-d63bb4256868" d="M116.87,25.66c5.47,9.49,6.3,19.27,1.84,21.84s-12.51-3-18-12.52-6.3-19.27-1.84-21.84S111.39,16.17,116.87,25.66Z"/>
          </g>
          <polygon class="b63ae921-0a3b-4325-ad9a-cff5256ede0d" points="85.8 76.65 81.91 69.72 53.17 86.31 57.05 93.24 50.38 121.78 50.4 121.78 66.97 108.12 83.55 121.78 83.57 121.78 85.8 76.65 85.8 76.65"/>
        </g>
      </g>
    </g>
  </g>
</svg>
