<?xml version="1.0" encoding="utf-8"?>
<!-- Generator: Adobe Illustrator 22.1.0, SVG Export Plug-In . SVG Version: 6.00 Build 0)  -->
<svg version="1.1" xmlns="http://www.w3.org/2000/svg" xmlns:xlink="http://www.w3.org/1999/xlink" x="0px" y="0px"
	 viewBox="0 0 71 80" style="enable-background:new 0 0 71 80;" xml:space="preserve">
<g id="shortcut">
</g>
<g id="file">
	<g>
		<g>
			<path d="M51.9,31.2c-0.5,0.2-0.9,0.2-1.3,0.2c-0.4,0-0.8-0.1-1.2-0.2c-0.4-0.1-0.8-0.3-1.1-0.5
				c-0.4-0.2-0.7-0.5-1-0.9c0.5-0.2,0.9-0.2,1.3-0.2c0.4,0,0.8,0.1,1.2,0.2c0.4,0.1,0.8,0.3,1.1,0.5C51.3,30.5,51.6,30.8,51.9,31.2z
				"/>
		</g>
		<g>
			<path d="M53.5,29.6c-0.5,0.2-1.1,0.2-1.5,0.2c-0.5,0-1-0.1-1.4-0.2c-0.5-0.1-0.9-0.3-1.3-0.6
				c-0.4-0.2-0.9-0.5-1.2-1c0.5-0.2,1.1-0.2,1.5-0.2c0.5,0,1,0.1,1.4,0.2c0.5,0.1,0.9,0.3,1.3,0.6C52.7,28.9,53.1,29.2,53.5,29.6z"
				/>
		</g>
		<g>
			<path d="M54.5,27.8c-0.7,0.1-1.3,0.1-1.9,0.1c-0.6,0-1.2-0.2-1.8-0.3c-0.6-0.2-1.1-0.4-1.7-0.7
				c-0.5-0.3-1.1-0.6-1.6-1.1c0.7-0.1,1.3-0.1,1.9-0.1c0.6,0.1,1.2,0.2,1.8,0.3c0.6,0.2,1.1,0.4,1.7,0.7C53.4,27,54,27.3,54.5,27.8z
				"/>
		</g>
		<g>
			<g>
				<path d="M20.5,20L15,13l-0.2-0.2l0.2-0.2c2.4-2.1,5.1-3.8,8-5.2c2.9-1.4,5.9-2.4,9.1-2.9c1.6-0.2,3.2-0.3,4.8-0.2
					c1.6,0.1,3.2,0.4,4.8,0.8c3.1,0.9,6,2.6,8.4,4.7c1.3,1,2.3,2.2,3.3,3.5c0.9,1.3,1.7,2.8,2.1,4.4c0.9,3.2,0.4,6.6-0.9,9.5
					c-1.2,3-3.1,5.6-5.2,7.9c-2.1,2.4-4.4,4.6-7,6.5l0,0l0,0c-1.8,0.9-3.6,2-5.2,3.3c-1.6,1.3-3.2,2.6-4.5,4.2
					c-1.3,1.6-2.4,3.3-3.2,5.2c-0.8,1.9-1.1,3.9-1.1,5.9l0,0.8l-0.8-0.2l-6.4-1.8l-0.6-0.2l0.1-0.6c0.6-3.6,1.7-7,3.3-10.3
					c0.8-1.6,1.7-3.2,2.8-4.7c1.1-1.4,2.3-2.9,3.7-4c0.7-0.6,1.4-1.1,2.2-1.7c0.8-0.5,1.4-1,2.2-1.5c1.4-1,2.8-2.1,4-3.3
					c1.2-1.2,2.3-2.5,3.2-4c0.9-1.4,1.7-3,2-4.5l0-0.1c0.5-2.5,0-5.3-1.8-7.2c-0.9-0.9-2-1.7-3.2-2.1c-1.2-0.5-2.6-0.7-3.9-0.9
					c-2.7-0.3-5.4,0.2-7.9,1.2C24.7,16.4,22.5,18,20.5,20z M20.5,19.9c0-0.1,0-0.1,0.1-0.2l0.2-0.2l0.4-0.4c0.2-0.2,0.5-0.5,0.7-0.7
					c0.5-0.5,1-0.9,1.6-1.4c1.1-0.8,2.3-1.6,3.6-2.2c2.5-1.2,5.4-1.8,8.2-1.6c1.4,0.1,2.8,0.3,4.2,0.8c1.4,0.4,2.7,1.2,3.7,2.3
					c1,1.1,1.8,2.4,2.1,3.9c0.4,1.5,0.4,2.9,0.1,4.4l0-0.1c-0.8,3.8-3,6.8-5.6,9.4c-1.3,1.3-2.7,2.4-4.1,3.5c-0.7,0.5-1.5,1-2.2,1.5
					c-0.7,0.5-1.4,1-2,1.6c-0.3,0.3-0.6,0.6-0.9,0.9l-0.9,0.9c-0.6,0.6-1.1,1.3-1.6,2c-1,1.4-1.9,2.8-2.7,4.4
					c-1.5,3.1-2.7,6.4-3.3,9.8l-0.5-0.7l6.4,1.9l-0.8,0.6c0.1-2.2,0.5-4.3,1.4-6.3c0.9-2,2.1-3.7,3.6-5.3c1.4-1.6,3-2.9,4.8-4.2
					c1.7-1.2,3.5-2.3,5.4-3.2l0,0c2.5-1.9,4.9-4,6.9-6.4c2-2.4,3.9-5,5-7.9c1.1-2.9,1.5-6.1,0.5-9c-0.5-1.4-1.2-2.8-2.1-4
					c-1-1.2-2-2.3-3.2-3.3c-4.7-4-11-5.9-17.1-5c-6.1,0.9-12,3.7-16.9,7.4l0-0.4L20.5,19.9z"/>
			</g>
			<g>
				<path d="M28.1,71c-0.4,1.5-1.3,2.9-2.6,3.9c-1.3,1-3.3,1.3-4.9,0.7C19,75,17.7,73.7,17,72.3
					c-0.7-1.4-1-3.1-0.7-4.7c0.3-1.6,1.3-3.2,2.8-4c1.5-0.9,3.3-1.2,5-0.7c1.7,0.5,3.1,1.7,3.7,3.3C28.6,67.8,28.5,69.5,28.1,71z
					 M27.9,70.9c0.4-1.5,0-3.1-0.9-4.2c-0.9-1.1-2-1.9-3.3-2.3c-1.3-0.3-2.7-0.3-3.9,0.4c-1.2,0.6-2.2,1.7-2.7,3
					c-0.5,1.3-0.5,3,0.3,4.2c0.8,1.3,2.1,2,3.5,2.3c1.3,0.3,2.7,0.2,4.1-0.3C26.3,73.6,27.5,72.4,27.9,70.9z"/>
			</g>
			<g>
				<path d="M44.9,8.9c0,0.5-0.2,0.9-0.4,1.3c-0.2,0.4-0.4,0.7-0.7,1c-0.3,0.3-0.6,0.6-0.9,0.8
					c-0.3,0.2-0.7,0.4-1.2,0.5c0-0.5,0.2-0.9,0.4-1.3c0.2-0.4,0.4-0.7,0.7-1c0.3-0.3,0.6-0.6,0.9-0.8C44.1,9.1,44.4,8.9,44.9,8.9z"
					/>
			</g>
			<g>
				<path d="M43.9,6.6c-0.1,0.6-0.3,1-0.5,1.5c-0.2,0.4-0.5,0.8-0.8,1.2c-0.3,0.4-0.7,0.7-1.1,1
					c-0.4,0.3-0.8,0.5-1.4,0.7c0.1-0.6,0.3-1,0.5-1.5c0.2-0.4,0.5-0.8,0.8-1.2c0.3-0.4,0.7-0.7,1.1-1C42.9,7,43.4,6.8,43.9,6.6z"/>
			</g>
			<g>
				<path d="M42.9,5.1c-0.2,0.7-0.4,1.2-0.8,1.7c-0.3,0.5-0.7,1-1.1,1.4c-0.4,0.4-0.8,0.9-1.3,1.2
					c-0.5,0.4-1,0.7-1.6,0.9c0.2-0.7,0.4-1.2,0.8-1.7c0.3-0.5,0.7-1,1.1-1.4c0.4-0.4,0.8-0.9,1.3-1.2C41.8,5.7,42.3,5.3,42.9,5.1z"
					/>
			</g>
			
			<g>
				<path style="fill:#60439A;" d="M23,71c0,0.5-0.2,0.9-0.4,1.3c-0.2,0.4-0.4,0.7-0.7,1c-0.3,0.3-0.6,0.6-0.9,0.8c-0.3,0.2-0.7,0.4-1.2,0.5
					c0-0.5,0.2-0.9,0.4-1.3c0.2-0.4,0.4-0.7,0.7-1c0.3-0.3,0.6-0.6,0.9-0.8C22.2,71.3,22.5,71.1,23,71z"/>
			</g>
			
			<g>
				<path style="fill:#60439A;" d="M22,68.8c-0.1,0.6-0.3,1-0.5,1.5c-0.2,0.4-0.5,0.8-0.8,1.2c-0.3,0.4-0.7,0.7-1.1,1c-0.4,0.3-0.8,0.5-1.4,0.7
					c0.1-0.6,0.3-1,0.5-1.5c0.2-0.4,0.5-0.8,0.8-1.2c0.3-0.4,0.7-0.7,1.1-1C21,69.2,21.5,68.9,22,68.8z"/>
			</g>
			
			<g>
				<path style="fill:#60439A;" d="M21.8,66.2c-0.2,0.7-0.4,1.2-0.8,1.7c-0.3,0.5-0.7,1-1.1,1.4c-0.4,0.4-0.8,0.9-1.3,1.2c-0.5,0.4-1,0.7-1.6,0.9
					c0.2-0.7,0.4-1.2,0.8-1.7c0.3-0.5,0.7-1,1.1-1.4c0.4-0.4,0.8-0.9,1.3-1.2C20.6,66.7,21.1,66.4,21.8,66.2z"/>
			</g>
		</g>
	</g>
</g>
</svg>
