<svg id="b1124f0d-6979-4281-a29f-aec88c1853e5" data-name="resources" xmlns="http://www.w3.org/2000/svg" viewBox="0 0 134 134">
  <defs>
    <style>
      .a6e2df28-6b7a-42fe-96ef-68c5de1f47ba {
        fill: var(--secondary-color);
        stroke: var(--secondary-color);
      }

      .a6e2df28-6b7a-42fe-96ef-68c5de1f47ba, .bde896f8-4ca9-4835-ba16-eb1e90014a0c {
        stroke-miterlimit: 10;
        stroke-width: 4px;
      }

      .bde896f8-4ca9-4835-ba16-eb1e90014a0c {
        fill: #fff;
        stroke: var(--primary-color);
      }
    </style>
  </defs>
  <g id="bf6fd467-ed72-4e1c-817d-d2afa5d3d208" data-name="Custom">
    <g id="b4c6b46f-765a-46f7-aecf-de1adfda4bce" data-name="Blog">
      <path class="a6e2df28-6b7a-42fe-96ef-68c5de1f47ba" d="M126.92,100.08l-.16-26.62q0-16.62-16.62-16.62h-9.85V31.6C100.29,20.52,87.06,7.28,76,7.28H26.42C15,7.28,2,20.36,2.11,31.6v76c0,11.07,13.23,24.31,24.31,24.31h69C116.6,132.24,126.91,120.08,126.92,100.08Z"/>
      <path class="bde896f8-4ca9-4835-ba16-eb1e90014a0c" d="M131.74,66.58q0-16.2-16.21-16.2h-9.6V25.77C105.93,15,93,2.06,82.22,2.06H33.9C22.79,2.06,10,14.81,10.19,25.77V99.9c0,10.81,12.91,23.71,23.72,23.72h67.23c20.71.3,30.76-11.56,30.76-31.06ZM47.25,33.42H77.57c3.6,0,6.6,3,7.05,7,.15,3.76-3,6.61-7.05,7.06H47.26c-3.61,0-6.61-3-7.06-7.06C40.2,36.87,43.2,33.87,47.25,33.42Zm45,63.93L49.8,97.2c-5.1,0-9.6-4.5-9.45-9.45s4.5-9.61,9.45-9.46H92.12c5.11,0,9.61,4.5,9.46,9.46S97.23,97.2,92.27,97.35Z"/>
    </g>
  </g>
</svg>
