<svg id="b5cf38ba-0829-4f26-aebd-f64cc229fd91" data-name="resources" xmlns="http://www.w3.org/2000/svg" viewBox="0 0 134 134">
  <defs>
    <style>
      .a4df1947-c06c-4b7d-9712-6dbac23e73f2 {
        fill: var(--secondary-color);
        stroke: var(--secondary-color);
      }

      .a4df1947-c06c-4b7d-9712-6dbac23e73f2, .e76e6b8c-b8d3-42dd-a2b9-4211a97f0921 {
        stroke-miterlimit: 10;
        stroke-width: 4px;
        fill-rule: evenodd;
      }

      .e76e6b8c-b8d3-42dd-a2b9-4211a97f0921 {
        fill: #fff;
        stroke: var(--primary-color);
      }
    </style>
  </defs>
  <g id="bf51ac35-cd6d-4cc4-b1e3-23479a7991fc" data-name="Custom">
    <g id="ae350b35-ccba-4cf2-9205-04130d22158a" data-name="Directory">
      <path class="a4df1947-c06c-4b7d-9712-6dbac23e73f2" d="M47.75,111.48H13.91a11.47,11.47,0,0,1-8.31-3.22,11.26,11.26,0,0,1-3.5-7.52C2,99.92,2,99.09,2,98.27Q2,70.8,2,43.35A11.53,11.53,0,0,1,6.8,33.61a11.25,11.25,0,0,1,6.84-2.21c6.87,0,40.37,0,40.37,0L71.13,42.86s31.56-.06,40.24,0A11.61,11.61,0,0,1,123.1,54.69q0,22.46,0,44.93a11.46,11.46,0,0,1-8.84,11.5,13.37,13.37,0,0,1-3.16.35C99.83,111.49,59,111.48,47.75,111.48Z"/>
      <path class="e76e6b8c-b8d3-42dd-a2b9-4211a97f0921" d="M56.61,102.61H22.77a11.44,11.44,0,0,1-8.3-3.22A11.19,11.19,0,0,1,11,91.87c-.06-.82-.07-1.65-.07-2.47q0-27.47,0-54.92a11.54,11.54,0,0,1,4.77-9.74,11.32,11.32,0,0,1,6.84-2.21c6.87,0,40.36,0,40.36,0L80,34s31.56-.06,40.25,0a11.27,11.27,0,0,1,10.58,6.56A11.51,11.51,0,0,1,132,45.82q0,22.47,0,44.94a11.45,11.45,0,0,1-8.84,11.49,13.37,13.37,0,0,1-3.16.35C108.69,102.62,67.89,102.61,56.61,102.61Z"/>
    </g>
  </g>
</svg>
