<svg id="a3a7bd14-6fca-45d8-8666-2074ec2d0d03" data-name="resources" xmlns="http://www.w3.org/2000/svg" viewBox="0 0 134 134">
  <defs>
    <style>
      .a65663bc-ca77-4340-8400-e4f9ce0e7a75 {
        fill: var(--secondary-color);
      }

      .b6ac5f2f-f32f-45b2-ac8d-f9db00cca8d0 {
        fill: #fff;
      }

      .a600034f-0f54-4b10-8d42-66cbdd1d92ac {
        fill: var(--primary-color);
      }

      .e7e1f3bc-c6e3-44f4-823c-741a66b11416 {
        fill: none;
        stroke: var(--secondary-color);
        stroke-miterlimit: 10;
        stroke-width: 3px;
      }
    </style>
  </defs>
  <g id="e99c16e8-98b3-4381-bd2c-03af7dec1d8b" data-name="Files">
    <g>
      <g>
        <polygon class="a65663bc-ca77-4340-8400-e4f9ce0e7a75" points="88.25 133.66 10.88 112.93 39.14 7.47 99.7 23.7 112.19 44.31 88.25 133.66"/>
        <polygon class="b6ac5f2f-f32f-45b2-ac8d-f9db00cca8d0" points="53.87 2.23 26.64 103.83 100.15 123.53 123.35 36.93 111.72 17.73 53.87 2.23"/>
        <path class="a600034f-0f54-4b10-8d42-66cbdd1d92ac" d="M101.57,126,24.19,105.24,52.45-.22,113,16l12.5,20.61ZM29.09,102.42l69.65,18.66L121.2,37.24,110.43,19.45,55.28,4.68Z"/>
        <g>
          <line class="e7e1f3bc-c6e3-44f4-823c-741a66b11416" x1="83.28" y1="32.68" x2="112.69" y2="40.53"/>
          <line class="e7e1f3bc-c6e3-44f4-823c-741a66b11416" x1="53.26" y1="43.61" x2="107.91" y2="58.39"/>
          <line class="e7e1f3bc-c6e3-44f4-823c-741a66b11416" x1="48.49" y1="61.32" x2="102.99" y2="76.09"/>
          <line class="e7e1f3bc-c6e3-44f4-823c-741a66b11416" x1="43.56" y1="79.02" x2="98.21" y2="93.8"/>
          <path class="a65663bc-ca77-4340-8400-e4f9ce0e7a75" d="M73.12,17.59l-4.92,18c0,.15-.16.46-.16.61a.57.57,0,0,0,.16.47l.46.46.92.46a.56.56,0,0,1,.31.77l-.15.3c0,.16-.16.16-.16.31l-2.31-.77a15.05,15.05,0,0,0-2.15-.61A16.33,16.33,0,0,1,63,37l-2.31-.46v-.62a.51.51,0,0,1,.16-.3.55.55,0,0,1,.46-.16,3,3,0,0,0,1.69,0c.31-.15.46-.46.62-.92l5.08-18-3.08-.77a6.35,6.35,0,0,0-1.7-.31,4.3,4.3,0,0,0-1.38.31,5.19,5.19,0,0,0-1.23.77L60,17.75c-.16.15-.31.31-.62.15-.15,0-.31-.15-.46-.15-.16-.16-.31-.16-.31-.31l.77-1.39c.15-.46.46-.77.62-1.23s.46-.92.61-1.38a3.23,3.23,0,0,1,.47-.77c.15-.16.46-.31.61-.16.31,0,.77.31,1.54.47s1.54.61,2.62.92l10.47,2.93c1.07.3,1.84.46,2.61.61a14.33,14.33,0,0,0,1.54.31.4.4,0,0,1,.46.46,2,2,0,0,1-.15.92,4.16,4.16,0,0,0-.16,1.39,4.43,4.43,0,0,1-.15,1.39v1.53h-.46a.4.4,0,0,1-.46-.46,5.88,5.88,0,0,0-.46-1.69,3.1,3.1,0,0,0-.62-1.23l-.92-.93A4.7,4.7,0,0,0,76,18.52Z"/>
        </g>
      </g>
      <rect class="a600034f-0f54-4b10-8d42-66cbdd1d92ac" y="92" width="134" height="42"/>
      <g>
        <path class="b6ac5f2f-f32f-45b2-ac8d-f9db00cca8d0" d="M58.61,103.39h4.2L67,109.78l4.2-6.39h4.19l-6.2,9.48,6.56,10.21H71.56L67,116.16l-4.56,6.92H58.25l6.56-10.21Z"/>
        <path class="b6ac5f2f-f32f-45b2-ac8d-f9db00cca8d0" d="M78.48,103.37h11V107H85.79v16.06H82V107H78.48Z"/>
        <path class="b6ac5f2f-f32f-45b2-ac8d-f9db00cca8d0" d="M55.51,103.37H44.56V107h3.65v16.06H52V107h3.47Z"/>
      </g>
    </g>
  </g>
</svg>
