<svg id="a941085f-c47b-4820-9731-ca57f3578caf" data-name="resources" xmlns="http://www.w3.org/2000/svg" viewBox="0 0 134 134">
  <defs>
    <style>
      .fde3fbac-3ce7-44db-af07-4952960767ef {
        fill: var(--secondary-color);
      }

      .a3988b2d-d238-4b36-b793-d15b894fb804 {
        fill: #fff;
      }

      .fbd54457-76c0-4c7d-b5fa-f0114f7a5609 {
        fill: var(--primary-color);
      }
    </style>
  </defs>
  <g id="ebae3443-e7b7-4d3f-8379-3b38534e5e34" data-name="Files">
    <g>
      <polygon class="fde3fbac-3ce7-44db-af07-4952960767ef" points="88.25 134.7 10.88 113.97 39.14 8.5 60.29 14.17 66.1 31.99 80.04 19.46 99.7 24.73 112.19 45.35 88.25 134.7"/>
      <g>
        <polygon class="a3988b2d-d238-4b36-b793-d15b894fb804" points="123.35 37.4 111.72 18.2 93.89 13.43 78.47 27.28 72.04 7.57 53.87 2.7 26.64 104.3 100.15 124 123.35 37.4"/>
        <path class="fbd54457-76c0-4c7d-b5fa-f0114f7a5609" d="M101.56,126.45,24.19,105.72,52.45.25,73.6,5.92l5.81,17.82,14-12.53L113,16.48,125.5,37.1ZM29.09,102.89l69.65,18.66L121.2,37.71,110.42,19.93l-16-4.29L77.52,30.82l-7-21.6L55.28,5.15Z"/>
        <g>
          <path class="fbd54457-76c0-4c7d-b5fa-f0114f7a5609" d="M70,66.52l-3.77-1,2.45-9.13,3.76,1Z"/>
          <path class="fbd54457-76c0-4c7d-b5fa-f0114f7a5609" d="M66,81.34l-3.77-1,2.44-9.12,3.77,1Z"/>
          <path class="fbd54457-76c0-4c7d-b5fa-f0114f7a5609" d="M62,96.15l-3.77-1L60.69,86l3.76,1Z"/>
          <path class="fbd54457-76c0-4c7d-b5fa-f0114f7a5609" d="M58,111l-3.77-1,2.45-9.12,3.76,1Z"/>
        </g>
        <path class="fbd54457-76c0-4c7d-b5fa-f0114f7a5609" d="M83.16,24.92,76,23,64.39,50.82l14.91,4ZM69.41,48.41l5.24-12.58,3.25.87L76.15,50.22Z"/>
      </g>
      <g>
        <rect class="fbd54457-76c0-4c7d-b5fa-f0114f7a5609" y="92" width="134" height="42"/>
        <g>
          <path class="a3988b2d-d238-4b36-b793-d15b894fb804" d="M42.65,103.05h4.16a13.92,13.92,0,0,1,4.71.55,4.72,4.72,0,0,1,2.27,2,6.23,6.23,0,0,1,0,6.58,6.6,6.6,0,0,1-2.83,2L55.87,123H51.71l-4.53-8.4h-.37v8.22h-4V103.05Zm4,7.67h1.13a3.58,3.58,0,0,0,2.45-.55,2.28,2.28,0,0,0,.76-1.64,2.54,2.54,0,0,0-.38-1.1,1.92,1.92,0,0,0-.94-.73,6.19,6.19,0,0,0-2.08-.18H46.43v4.2Z"/>
          <path class="a3988b2d-d238-4b36-b793-d15b894fb804" d="M65.11,103.05h4l7.73,19.72h-4l-1.51-4H63l-1.89,4h-4ZM67,108.34l-2.64,6.76h5.47Z"/>
          <path class="a3988b2d-d238-4b36-b793-d15b894fb804" d="M80,103.05h4.15a14,14,0,0,1,4.72.55,4.72,4.72,0,0,1,2.27,2,6.23,6.23,0,0,1,0,6.58,6.6,6.6,0,0,1-2.83,2l4.9,8.76H89.08l-4.53-8.4h-.38v8.22h-4V103.05Zm4,7.67h1.13a3.6,3.6,0,0,0,2.45-.55,2.28,2.28,0,0,0,.76-1.64,2.54,2.54,0,0,0-.38-1.1,1.92,1.92,0,0,0-.94-.73,6.19,6.19,0,0,0-2.08-.18H83.8v4.2Z"/>
        </g>
      </g>
    </g>
  </g>
</svg>
