<svg id="bee7e488-4f91-4856-9052-c3e3d57dbb85" data-name="resources" xmlns="http://www.w3.org/2000/svg" viewBox="0 0 134 134">
  <defs>
    <style>
      .e166bf72-d0fc-4106-a0fe-74d0428103b8 {
        fill: var(--secondary-color);
      }

      .a60a0d4f-818f-487a-8e42-b17bbc1276a7 {
        fill: #fff;
      }

      .eadab858-b158-43ad-8837-fb23ede19a81 {
        fill: var(--primary-color);
      }
    </style>
  </defs>
  <g id="a3cb3054-fea9-43a1-beea-9d263beeddb4" data-name="Files">
    <g>
      <polygon class="e166bf72-d0fc-4106-a0fe-74d0428103b8" points="88.25 134.44 10.88 113.71 39.14 8.25 60.29 13.92 66.1 31.73 80.04 19.21 99.7 24.48 112.19 45.09 88.25 134.44"/>
      <g>
        <polygon class="a60a0d4f-818f-487a-8e42-b17bbc1276a7" points="123.35 37.15 111.72 17.95 93.89 13.17 78.47 27.03 72.04 7.32 53.87 2.45 26.64 104.05 100.15 123.75 123.35 37.15"/>
        <path class="eadab858-b158-43ad-8837-fb23ede19a81" d="M101.56,126.19,24.19,105.46,52.45,0,73.6,5.67l5.81,17.82L93.36,11,113,16.23,125.5,36.84ZM29.09,102.63,98.74,121.3,121.2,37.46,110.42,19.67l-16-4.28L77.52,30.57,70.47,9,55.28,4.9Z"/>
        <g>
          <path class="eadab858-b158-43ad-8837-fb23ede19a81" d="M70,66.26l-3.77-1,2.45-9.12,3.76,1Z"/>
          <path class="eadab858-b158-43ad-8837-fb23ede19a81" d="M66,81.09l-3.77-1L64.65,71l3.77,1Z"/>
          <path class="eadab858-b158-43ad-8837-fb23ede19a81" d="M62,95.9l-3.77-1,2.45-9.13,3.76,1Z"/>
          <path class="eadab858-b158-43ad-8837-fb23ede19a81" d="M58,110.72l-3.77-1,2.45-9.13,3.76,1Z"/>
        </g>
        <path class="eadab858-b158-43ad-8837-fb23ede19a81" d="M83.16,24.66,76,22.74,64.39,50.56l14.91,4ZM69.41,48.16l5.24-12.58,3.25.87L76.15,50Z"/>
      </g>
      <g>
        <rect class="eadab858-b158-43ad-8837-fb23ede19a81" y="92" width="134" height="42"/>
        <g>
          <path class="a60a0d4f-818f-487a-8e42-b17bbc1276a7" d="M49.26,103.14H61.53l-7.18,16.07h6.8v3.65H48.69L55.86,107h-6.6v-3.83Z"/>
          <path class="a60a0d4f-818f-487a-8e42-b17bbc1276a7" d="M64.17,103.14h3.77v19.72H64.17Z"/>
          <path class="a60a0d4f-818f-487a-8e42-b17bbc1276a7" d="M72.47,103.14h4.16a13.92,13.92,0,0,1,4.71.55,4.69,4.69,0,0,1,2.27,2,6.06,6.06,0,0,1,.94,3.1,5.17,5.17,0,0,1-1.13,3.47,5.66,5.66,0,0,1-3,1.83,18.77,18.77,0,0,1-4.15.36v8.4h-4V103.14Zm3.78,7.67h1.32a6.09,6.09,0,0,0,2.07-.18,2,2,0,0,0,1-.73,2.59,2.59,0,0,0,.38-1.1,1.89,1.89,0,0,0-1-1.64,6.57,6.57,0,0,0-2.45-.37H76.44v4Z"/>
        </g>
      </g>
    </g>
  </g>
</svg>
