<svg id="b8541950-136f-4aef-b034-b15447bc071f" data-name="resources" xmlns="http://www.w3.org/2000/svg" viewBox="0 0 134 134">
  <defs>
    <style>
      .b1322857-1004-46d9-a43f-b5e84e4340c7 {
        fill: var(--secondary-color);
      }

      .aad0307b-9d38-4eca-a3c6-07e047ea241c {
        fill: #fff;
      }

      .ac26cc1c-f3d5-41a2-8a4e-3d7fa5d50cbf {
        fill: var(--primary-color);
      }

      .a48a188e-603f-4e3e-b07d-24dd88dabe14 {
        fill: none;
        stroke: var(--secondary-color);
        stroke-miterlimit: 10;
        stroke-width: 3px;
      }
    </style>
  </defs>
  <g id="f8b404cb-b771-433c-9580-bab03cab78f7" data-name="Files">
    <g>
      <g>
        <polygon class="b1322857-1004-46d9-a43f-b5e84e4340c7" points="88.25 133.66 10.88 112.93 39.14 7.47 99.7 23.7 112.19 44.31 88.25 133.66"/>
        <polygon class="aad0307b-9d38-4eca-a3c6-07e047ea241c" points="53.87 2.23 26.64 103.83 100.15 123.53 123.35 36.93 111.72 17.73 53.87 2.23"/>
        <path class="ac26cc1c-f3d5-41a2-8a4e-3d7fa5d50cbf" d="M101.57,126,24.19,105.24,52.45-.22,113,16l12.5,20.61ZM29.09,102.42l69.65,18.66L121.2,37.24,110.43,19.45,55.28,4.68Z"/>
        <g>
          <line class="a48a188e-603f-4e3e-b07d-24dd88dabe14" x1="83.28" y1="32.68" x2="112.69" y2="40.53"/>
          <line class="a48a188e-603f-4e3e-b07d-24dd88dabe14" x1="53.26" y1="43.61" x2="107.91" y2="58.39"/>
          <line class="a48a188e-603f-4e3e-b07d-24dd88dabe14" x1="48.49" y1="61.32" x2="102.99" y2="76.09"/>
          <line class="a48a188e-603f-4e3e-b07d-24dd88dabe14" x1="43.56" y1="79.02" x2="98.21" y2="93.8"/>
          <path class="b1322857-1004-46d9-a43f-b5e84e4340c7" d="M73.12,17.59l-4.92,18c0,.15-.16.46-.16.61a.57.57,0,0,0,.16.47l.46.46.92.46a.56.56,0,0,1,.31.77l-.15.3c0,.16-.16.16-.16.31l-2.31-.77a15.05,15.05,0,0,0-2.15-.61A16.33,16.33,0,0,1,63,37l-2.31-.46v-.62a.51.51,0,0,1,.16-.3.55.55,0,0,1,.46-.16,3,3,0,0,0,1.69,0c.31-.15.46-.46.62-.92l5.08-18-3.08-.77a6.35,6.35,0,0,0-1.7-.31,4.3,4.3,0,0,0-1.38.31,5.19,5.19,0,0,0-1.23.77L60,17.75c-.16.15-.31.31-.62.15-.15,0-.31-.15-.46-.15-.16-.16-.31-.16-.31-.31l.77-1.39c.15-.46.46-.77.62-1.23s.46-.92.61-1.38a3.23,3.23,0,0,1,.47-.77c.15-.16.46-.31.61-.16.31,0,.77.31,1.54.47s1.54.61,2.62.92l10.47,2.93c1.07.3,1.84.46,2.61.61a14.33,14.33,0,0,0,1.54.31.4.4,0,0,1,.46.46,2,2,0,0,1-.15.92,4.16,4.16,0,0,0-.16,1.39,4.43,4.43,0,0,1-.15,1.39v1.53h-.46a.4.4,0,0,1-.46-.46,5.88,5.88,0,0,0-.46-1.69,3.1,3.1,0,0,0-.62-1.23l-.92-.93A4.78,4.78,0,0,0,76,18.52Z"/>
        </g>
      </g>
      <g>
        <rect class="ac26cc1c-f3d5-41a2-8a4e-3d7fa5d50cbf" y="92" width="134" height="42"/>
        <g>
          <path class="aad0307b-9d38-4eca-a3c6-07e047ea241c" d="M48.69,102h4.15a14,14,0,0,1,4.72.55,4.79,4.79,0,0,1,2.27,2,6.21,6.21,0,0,1,0,6.57,6.52,6.52,0,0,1-2.83,2L61.9,122H57.75l-4.91-8.59h-.37v8.41h-4V102Zm3.78,7.67H53.6a3.6,3.6,0,0,0,2.45-.55,2.26,2.26,0,0,0,.76-1.64,2.59,2.59,0,0,0-.38-1.1,1.9,1.9,0,0,0-.94-.72,5.85,5.85,0,0,0-2.08-.19H52.28v4.2Z"/>
          <path class="aad0307b-9d38-4eca-a3c6-07e047ea241c" d="M62.85,102H74.17v3.66H70.4v16.07h-4V105.7H62.85Z"/>
          <path class="aad0307b-9d38-4eca-a3c6-07e047ea241c" d="M76.81,102h10v3.66H80.59v3.65h6.23V113H80.59v8.77H76.81Z"/>
        </g>
      </g>
    </g>
  </g>
</svg>
