<svg id="bad0c46e-d70e-4e2d-93e2-0c0c9cf4ab41" data-name="resources" xmlns="http://www.w3.org/2000/svg" viewBox="0 0 134 134">
  <defs>
    <style>
      .f9bab2ee-b6b2-4c38-a862-75e682bae0ea {
        fill: var(--secondary-color);
      }

      .a746f8f3-b89d-439a-9c13-bb2d5bb590b6 {
        fill: #fff;
      }

      .b1f76c40-884b-499d-af26-631a26b5860a {
        fill: var(--primary-color);
      }

      .ec690446-c1d2-470d-821b-e3da2b9a42a1 {
        fill: none;
        stroke: var(--secondary-color);
        stroke-miterlimit: 10;
        stroke-width: 3px;
      }
    </style>
  </defs>
  <g id="e00a8004-5004-4679-b871-33e3c788c8c2" data-name="Files">
    <g>
      <g>
        <polygon class="f9bab2ee-b6b2-4c38-a862-75e682bae0ea" points="88.25 133.66 10.88 112.93 39.14 7.47 99.7 23.7 112.19 44.31 88.25 133.66"/>
        <polygon class="a746f8f3-b89d-439a-9c13-bb2d5bb590b6" points="53.87 2.23 26.64 103.83 100.15 123.53 123.35 36.93 111.72 17.73 53.87 2.23"/>
        <path class="b1f76c40-884b-499d-af26-631a26b5860a" d="M101.57,126,24.19,105.24,52.45-.22,113,16l12.5,20.61ZM29.09,102.42l69.65,18.66L121.2,37.24,110.42,19.45,55.28,4.68Z"/>
        <g>
          <line class="ec690446-c1d2-470d-821b-e3da2b9a42a1" x1="83.28" y1="32.68" x2="112.69" y2="40.53"/>
          <line class="ec690446-c1d2-470d-821b-e3da2b9a42a1" x1="53.26" y1="43.61" x2="107.91" y2="58.39"/>
          <line class="ec690446-c1d2-470d-821b-e3da2b9a42a1" x1="48.49" y1="61.32" x2="102.99" y2="76.09"/>
          <line class="ec690446-c1d2-470d-821b-e3da2b9a42a1" x1="43.56" y1="79.02" x2="98.21" y2="93.8"/>
          <path class="f9bab2ee-b6b2-4c38-a862-75e682bae0ea" d="M73.12,17.59l-4.93,18c0,.15-.15.46-.15.61a.57.57,0,0,0,.15.46l.47.47.92.46a.56.56,0,0,1,.31.77l-.15.3c0,.16-.16.16-.16.31l-2.31-.77a14.8,14.8,0,0,0-2.16-.61A16.67,16.67,0,0,1,63,37l-2.31-.46v-.62a.51.51,0,0,1,.16-.3.54.54,0,0,1,.46-.16,3,3,0,0,0,1.69,0c.31-.15.46-.46.62-.92l5.08-18-3.08-.77a6.35,6.35,0,0,0-1.7-.31,4.3,4.3,0,0,0-1.38.31,5.19,5.19,0,0,0-1.23.77L60,17.75c-.16.15-.31.31-.62.15-.15,0-.31-.15-.46-.15-.16-.16-.31-.16-.31-.31l.77-1.39c.15-.46.46-.77.62-1.23s.46-.92.61-1.38a3.61,3.61,0,0,1,.46-.77c.16-.16.47-.31.62-.16.31,0,.77.31,1.54.47s1.54.61,2.62.92l10.46,2.93c1.08.3,1.85.46,2.62.61a13.86,13.86,0,0,0,1.54.31.4.4,0,0,1,.46.46,2,2,0,0,1-.15.92,4.13,4.13,0,0,0-.16,1.39,4.43,4.43,0,0,1-.15,1.39v1.53h-.46a.4.4,0,0,1-.46-.46,5.88,5.88,0,0,0-.46-1.69,3.1,3.1,0,0,0-.62-1.23l-.92-.93A4.78,4.78,0,0,0,76,18.52Z"/>
        </g>
      </g>
      <g>
        <rect class="b1f76c40-884b-499d-af26-631a26b5860a" y="92" width="134" height="42"/>
        <g>
          <path class="a746f8f3-b89d-439a-9c13-bb2d5bb590b6" d="M26.8,102.22h4.53a15.24,15.24,0,0,1,6.6,1.1,8.1,8.1,0,0,1,3.59,3.47,11,11,0,0,1,1.32,5.66,10.52,10.52,0,0,1-.75,4.2A10.1,10.1,0,0,1,40,119.76a8.17,8.17,0,0,1-3,1.82,18.73,18.73,0,0,1-5.47.55H26.8Zm4,3.48v12.41h1.89a9.64,9.64,0,0,0,3.77-.54,4,4,0,0,0,1.89-2,8.66,8.66,0,0,0,.76-3.47,6.48,6.48,0,0,0-1.89-4.93c-1.13-1.1-2.83-1.65-5.29-1.65H30.76Z"/>
          <path class="a746f8f3-b89d-439a-9c13-bb2d5bb590b6" d="M56.24,101.68a10.3,10.3,0,0,1,7.36,3.1,10.34,10.34,0,0,1,0,14.61,10.74,10.74,0,0,1-14.91-.18,10.37,10.37,0,0,1-3-7.31A9.47,9.47,0,0,1,47,106.79,11.23,11.23,0,0,1,51,103,10.66,10.66,0,0,1,56.24,101.68Zm0,3.65a6.35,6.35,0,0,0-6.6,6.57A5.92,5.92,0,0,0,52.09,117a7.29,7.29,0,0,0,4.34,1.46,6.52,6.52,0,0,0,4.72-2,6.91,6.91,0,0,0,0-9.5A9.27,9.27,0,0,0,56.24,105.33Z"/>
          <path class="a746f8f3-b89d-439a-9c13-bb2d5bb590b6" d="M89.08,105.7l-2.64,2.55a8.77,8.77,0,0,0-6.23-2.74,7,7,0,0,0-4.91,2,6.53,6.53,0,0,0-2.07,4.75,6.77,6.77,0,0,0,.94,3.47,6.05,6.05,0,0,0,2.45,2.37,8,8,0,0,0,3.59.92,8.16,8.16,0,0,0,3-.55,9.8,9.8,0,0,0,3-2.19L88.89,119A12.16,12.16,0,0,1,84.55,122a12.45,12.45,0,0,1-4.53.91,10.43,10.43,0,0,1-7.74-2.92,9.76,9.76,0,0,1-3-7.49,10,10,0,0,1,1.33-5.29,10.79,10.79,0,0,1,4-3.66A11.68,11.68,0,0,1,80,102a12,12,0,0,1,4.91,1.1A6.65,6.65,0,0,1,89.08,105.7Z"/>
          <path class="a746f8f3-b89d-439a-9c13-bb2d5bb590b6" d="M91.16,102.22H95.5l4.34,6.4,4.34-6.4h4.34l-6.42,9.5L108.9,122h-4.34L99.84,115,95.12,122H90.78l6.79-10.23Z"/>
        </g>
      </g>
    </g>
  </g>
</svg>
