<svg id="bf8b400d-79c8-4553-bcb3-6423999a4f04" data-name="resources" xmlns="http://www.w3.org/2000/svg" viewBox="0 0 134 134">
  <defs>
    <style>
      .a0b6b590-c35f-467f-8fb7-362d8b4b4b56 {
        fill: var(--secondary-color);
      }

      .bbf791f8-15f8-4945-bed6-0f5948a14c76 {
        fill: #fff;
      }

      .bd95c2c8-2f63-4429-93a7-22038a4c8d2d {
        fill: var(--primary-color);
      }
    </style>
  </defs>
  <g id="bee95f20-a9e3-44e1-b24c-07561b453e1c" data-name="Files">
    <g>
      <polygon class="a0b6b590-c35f-467f-8fb7-362d8b4b4b56" points="88.25 134.4 10.88 113.67 39.13 8.2 60.29 13.87 66.1 31.69 80.04 19.16 99.69 24.43 112.19 45.05 88.25 134.4"/>
      <g>
        <polygon class="bbf791f8-15f8-4945-bed6-0f5948a14c76" points="123.35 37.1 111.72 17.9 93.89 13.13 78.46 26.98 72.04 7.27 53.86 2.4 26.64 104 100.15 123.7 123.35 37.1"/>
        <path class="bd95c2c8-2f63-4429-93a7-22038a4c8d2d" d="M101.56,126.15,24.19,105.42,52.45,0,73.6,5.62l5.81,17.82,14-12.53L113,16.18,125.5,36.8ZM29.09,102.59l69.65,18.66L121.2,37.41,110.42,19.63l-16-4.29L77.52,30.52l-7-21.6L55.28,4.85Z"/>
        <g>
          <path class="bd95c2c8-2f63-4429-93a7-22038a4c8d2d" d="M70,66.22l-3.77-1,2.45-9.13,3.76,1Z"/>
          <path class="bd95c2c8-2f63-4429-93a7-22038a4c8d2d" d="M66,81l-3.77-1,2.44-9.12,3.77,1Z"/>
          <path class="bd95c2c8-2f63-4429-93a7-22038a4c8d2d" d="M62,95.85l-3.77-1,2.44-9.12,3.77,1Z"/>
          <path class="bd95c2c8-2f63-4429-93a7-22038a4c8d2d" d="M58,110.67l-3.77-1,2.45-9.12,3.76,1Z"/>
        </g>
        <path class="bd95c2c8-2f63-4429-93a7-22038a4c8d2d" d="M83.16,24.62,76,22.69,64.39,50.52l14.91,4ZM69.41,48.12l5.24-12.58,3.25.86L76.15,49.92Z"/>
      </g>
      <g>
        <rect class="bd95c2c8-2f63-4429-93a7-22038a4c8d2d" y="92" width="134" height="42"/>
        <g>
          <path class="bbf791f8-15f8-4945-bed6-0f5948a14c76" d="M14.91,102.77h4l7.74,19.73h-4l-1.51-4h-8.5l-1.69,4H7Zm1.89,5.3-2.64,6.76h5.47Z"/>
          <path class="bbf791f8-15f8-4945-bed6-0f5948a14c76" d="M29.82,102.77H34a14.22,14.22,0,0,1,4.72.55,4.84,4.84,0,0,1,2.27,2,6.21,6.21,0,0,1,0,6.57,6.49,6.49,0,0,1-2.84,2L43,122.68H38.88l-4.53-8.4H34v8.22H30V102.77Zm4,7.67h1.14a3.67,3.67,0,0,0,2.45-.54,2.3,2.3,0,0,0,.75-1.65,2.48,2.48,0,0,0-.37-1.09,1.85,1.85,0,0,0-1-.73,5.78,5.78,0,0,0-2.07-.19H33.59v4.2Z"/>
          <path class="bbf791f8-15f8-4945-bed6-0f5948a14c76" d="M64.74,106.24l-2.65,2.56a8.76,8.76,0,0,0-6.23-2.74,7,7,0,0,0-4.9,2,6.54,6.54,0,0,0-2.08,4.75,6.83,6.83,0,0,0,.95,3.47,6.06,6.06,0,0,0,2.45,2.37,7.94,7.94,0,0,0,6.6.36,9.37,9.37,0,0,0,3-2.19l2.65,2.74a12.2,12.2,0,0,1-4.34,2.93,12,12,0,0,1-4.53.91,10.41,10.41,0,0,1-7.74-2.92,9.74,9.74,0,0,1-3-7.49,10.14,10.14,0,0,1,1.32-5.3,10.76,10.76,0,0,1,4-3.65,11.72,11.72,0,0,1,5.48-1.46,12,12,0,0,1,4.9,1.1A7.63,7.63,0,0,1,64.74,106.24Z"/>
          <path class="bbf791f8-15f8-4945-bed6-0f5948a14c76" d="M68.13,102.77h4v7.49h6.79v-7.49h4V122.5h-4v-8.59H72.1v8.59h-4Z"/>
          <path class="bbf791f8-15f8-4945-bed6-0f5948a14c76" d="M87,102.77h3.77V122.5H87Z"/>
          <path class="bbf791f8-15f8-4945-bed6-0f5948a14c76" d="M93.8,102.77h4l5.1,14.06,5.28-14.06h4l-7.36,19.73H101Z"/>
          <path class="bbf791f8-15f8-4945-bed6-0f5948a14c76" d="M115.13,102.77h11.13v3.66h-7.17v3.47h7.17v3.65h-7.17v5.29h7.17v3.66H115.13Z"/>
        </g>
      </g>
    </g>
  </g>
</svg>
