<svg id="eb57ab38-de81-4a74-b7be-52cb380db97c" data-name="resources" xmlns="http://www.w3.org/2000/svg" viewBox="0 0 134 134">
  <defs>
    <style>
      .bd28ab4a-2c23-411c-8210-3f9457aa30b9 {
        fill: var(--secondary-color);
      }

      .f87f71b7-6414-49b4-a20d-41f42681a344 {
        fill: #fff;
      }

      .e5dcef15-cb0c-4e26-865f-421b8bca853d {
        fill: var(--primary-color);
      }

      .f330557e-00e4-439a-a365-4c1cb60378ab {
        fill: none;
        stroke: var(--secondary-color);
        stroke-miterlimit: 10;
        stroke-width: 3px;
      }
    </style>
  </defs>
  <g id="a09f9e3e-0863-4f3d-a389-e8f4d2c35d3a" data-name="Files">
    <g>
      <g>
        <polygon class="bd28ab4a-2c23-411c-8210-3f9457aa30b9" points="88.25 133.66 10.88 112.93 39.14 7.47 99.7 23.7 112.19 44.31 88.25 133.66"/>
        <polygon class="f87f71b7-6414-49b4-a20d-41f42681a344" points="53.87 2.23 26.64 103.83 100.15 123.53 123.35 36.93 111.72 17.73 53.87 2.23"/>
        <path class="e5dcef15-cb0c-4e26-865f-421b8bca853d" d="M101.57,126,24.19,105.24,52.45-.22,113,16l12.5,20.61ZM29.09,102.42l69.65,18.66L121.2,37.24,110.42,19.45,55.28,4.68Z"/>
        <g>
          <line class="f330557e-00e4-439a-a365-4c1cb60378ab" x1="83.28" y1="32.68" x2="112.69" y2="40.53"/>
          <line class="f330557e-00e4-439a-a365-4c1cb60378ab" x1="53.26" y1="43.61" x2="107.91" y2="58.39"/>
          <line class="f330557e-00e4-439a-a365-4c1cb60378ab" x1="48.49" y1="61.32" x2="102.99" y2="76.09"/>
          <line class="f330557e-00e4-439a-a365-4c1cb60378ab" x1="43.56" y1="79.02" x2="98.21" y2="93.8"/>
          <path class="bd28ab4a-2c23-411c-8210-3f9457aa30b9" d="M73.12,17.59l-4.93,18c0,.15-.15.46-.15.61a.57.57,0,0,0,.15.46l.47.47.92.46a.56.56,0,0,1,.31.77l-.15.3c0,.16-.16.16-.16.31l-2.31-.77a14.8,14.8,0,0,0-2.16-.61A16.67,16.67,0,0,1,63,37l-2.31-.46v-.62a.51.51,0,0,1,.16-.3.54.54,0,0,1,.46-.16,3,3,0,0,0,1.69,0c.31-.15.46-.46.62-.92l5.08-18-3.08-.77a6.35,6.35,0,0,0-1.7-.31,4.3,4.3,0,0,0-1.38.31,5.19,5.19,0,0,0-1.23.77L60,17.75c-.16.15-.31.31-.62.15-.15,0-.31-.15-.46-.15-.16-.16-.31-.16-.31-.31l.77-1.39c.15-.46.46-.77.62-1.23s.46-.92.61-1.38a3.61,3.61,0,0,1,.46-.77c.16-.16.47-.31.62-.16.31,0,.77.31,1.54.47s1.54.61,2.62.92l10.46,2.93c1.08.3,1.85.46,2.62.61a13.86,13.86,0,0,0,1.54.31.4.4,0,0,1,.46.46,2,2,0,0,1-.15.92,4.13,4.13,0,0,0-.16,1.39,4.43,4.43,0,0,1-.15,1.39v1.53h-.46a.4.4,0,0,1-.46-.46,5.88,5.88,0,0,0-.46-1.69,3.1,3.1,0,0,0-.62-1.23l-.92-.93A4.78,4.78,0,0,0,76,18.52Z"/>
        </g>
      </g>
      <g>
        <rect class="e5dcef15-cb0c-4e26-865f-421b8bca853d" y="92" width="134" height="42"/>
        <g>
          <path class="f87f71b7-6414-49b4-a20d-41f42681a344" d="M37.93,102h4.53a15.29,15.29,0,0,1,6.61,1.1,8.15,8.15,0,0,1,3.59,3.47A11,11,0,0,1,54,112.27a10.35,10.35,0,0,1-.76,4.2,10,10,0,0,1-2.07,3.1,8.41,8.41,0,0,1-3,1.83,22.23,22.23,0,0,1-5.67.37H37.75V102Zm3.78,3.66v12.41H43.6a9.64,9.64,0,0,0,3.77-.54,4,4,0,0,0,1.89-2,8.67,8.67,0,0,0,.75-3.47,6.47,6.47,0,0,0-1.88-4.93c-1.14-1.1-2.83-1.65-5.29-1.65H41.71Z"/>
          <path class="f87f71b7-6414-49b4-a20d-41f42681a344" d="M67.38,101.68a10.32,10.32,0,0,1,7.36,3.1,10.34,10.34,0,0,1,0,14.61,10.74,10.74,0,0,1-14.91-.18,9.6,9.6,0,0,1-3-7.31,9.47,9.47,0,0,1,1.32-5.11,12.87,12.87,0,0,1,4-3.83A10.22,10.22,0,0,1,67.38,101.68Zm-.19,3.65a6.36,6.36,0,0,0-6.61,6.57A5.93,5.93,0,0,0,63,117a7.29,7.29,0,0,0,4.34,1.46,6.54,6.54,0,0,0,4.72-2,6.94,6.94,0,0,0,0-9.5A7.6,7.6,0,0,0,67.19,105.33Z"/>
          <path class="f87f71b7-6414-49b4-a20d-41f42681a344" d="M100.22,105.51l-2.64,2.56a8.79,8.79,0,0,0-6.23-2.74,7,7,0,0,0-4.91,2,6.54,6.54,0,0,0-2.08,4.75,6.8,6.8,0,0,0,1,3.47,6.06,6.06,0,0,0,2.45,2.37,7.4,7.4,0,0,0,3.59.91,8.19,8.19,0,0,0,3-.54,9.81,9.81,0,0,0,3-2.2l2.64,2.74a12.2,12.2,0,0,1-4.34,2.93,12.66,12.66,0,0,1-4.53.91,10.43,10.43,0,0,1-7.74-2.92,9.74,9.74,0,0,1-3-7.49,10.14,10.14,0,0,1,1.32-5.3,10.71,10.71,0,0,1,4-3.65,11.65,11.65,0,0,1,5.47-1.46,11.82,11.82,0,0,1,4.91,1.1A10.59,10.59,0,0,1,100.22,105.51Z"/>
        </g>
      </g>
    </g>
  </g>
</svg>
