<svg id="b17bedfc-8593-4552-9da4-0b12eff91bad" data-name="resources" xmlns="http://www.w3.org/2000/svg" viewBox="0 0 134 134">
  <defs>
    <style>
      .b3f7ab9a-ae60-4ddc-8dc5-c419d921f1ab, .ed3962c0-3ad4-495c-9dc7-25eee9ccff9d {
        fill: var(--primary-color);
      }

      .a93e6d99-b13b-4d38-b16a-5c37c3028dc5, .ed1139c0-a5f1-4a67-8458-95f2e1ccbd85 {
        fill: #fff;
      }

      .e9dc2944-2ff0-4fd6-b11b-08cf4a360315 {
        fill: var(--secondary-color);
        stroke: var(--secondary-color);
      }

      .b3f7ab9a-ae60-4ddc-8dc5-c419d921f1ab, .e9dc2944-2ff0-4fd6-b11b-08cf4a360315, .ed1139c0-a5f1-4a67-8458-95f2e1ccbd85 {
        stroke-miterlimit: 10;
        stroke-width: 4px;
      }

      .b3f7ab9a-ae60-4ddc-8dc5-c419d921f1ab, .ed1139c0-a5f1-4a67-8458-95f2e1ccbd85 {
        stroke: var(--primary-color);
      }
    </style>
  </defs>
  <g id="a404bdd8-8054-41e7-9d4d-58fc564bf97e" data-name="Files">
    <g>
      <g>
        <rect class="ed3962c0-3ad4-495c-9dc7-25eee9ccff9d" y="92" width="134" height="42"/>
        <g>
          <path class="a93e6d99-b13b-4d38-b16a-5c37c3028dc5" d="M47.56,102h4.15a14.22,14.22,0,0,1,4.72.55,4.79,4.79,0,0,1,2.27,2,6.06,6.06,0,0,1,.94,3.1,5.16,5.16,0,0,1-1.13,3.47,5.6,5.6,0,0,1-3,1.83,18.62,18.62,0,0,1-4.16.37v8.4h-4V102Zm3.77,7.85h1.33a6.09,6.09,0,0,0,2.07-.18,1.85,1.85,0,0,0,1-.73,2.48,2.48,0,0,0,.37-1.09,1.91,1.91,0,0,0-.94-1.65,6.84,6.84,0,0,0-2.45-.36H51.52v4Z"/>
          <path class="a93e6d99-b13b-4d38-b16a-5c37c3028dc5" d="M63.41,102h4.16a14.19,14.19,0,0,1,4.71.55,4.79,4.79,0,0,1,2.27,2,6.06,6.06,0,0,1,.94,3.1,5.16,5.16,0,0,1-1.13,3.47,5.56,5.56,0,0,1-3,1.83,18.44,18.44,0,0,1-4.15.37v8.4h-4V102Zm3.78,7.85h1.32a6.19,6.19,0,0,0,2.08-.18,1.86,1.86,0,0,0,.94-.73,2.51,2.51,0,0,0,.38-1.09,1.92,1.92,0,0,0-1-1.65,6.8,6.8,0,0,0-2.45-.36H67.38v4Z"/>
          <path class="a93e6d99-b13b-4d38-b16a-5c37c3028dc5" d="M77.19,102H88.52v3.66H84.74v16.07h-4V105.7H77.19Z"/>
        </g>
      </g>
      <g>
        <g>
          <path class="e9dc2944-2ff0-4fd6-b11b-08cf4a360315" d="M68.8,8.28V43.34L101.31,30.5C97.68,23.88,88,10.38,68.8,8.28Z"/>
          <path class="e9dc2944-2ff0-4fd6-b11b-08cf4a360315" d="M56.28,8.18a40.26,40.26,0,0,0,3.37,80.37,39.25,39.25,0,0,0,22.82-7.16L56.28,49.5Z"/>
          <path class="e9dc2944-2ff0-4fd6-b11b-08cf4a360315" d="M74.81,50.69,97.28,78.06c14-16.12,10.74-34.24,8.58-41.35Z"/>
        </g>
        <g>
          <path class="b3f7ab9a-ae60-4ddc-8dc5-c419d921f1ab" d="M73.8,3.28V38.34L106.31,25.5C102.68,18.88,93,5.38,73.8,3.28Z"/>
          <path class="ed1139c0-a5f1-4a67-8458-95f2e1ccbd85" d="M61.28,3.18a40.26,40.26,0,0,0,3.37,80.37,39.25,39.25,0,0,0,22.82-7.16L61.28,44.5Z"/>
          <path class="ed1139c0-a5f1-4a67-8458-95f2e1ccbd85" d="M79.81,45.69l22.47,27.38c15.93-15.17,12.66-33.29,10.5-40.4Z"/>
        </g>
      </g>
    </g>
  </g>
</svg>
