<svg id="e3b4cf77-e6ea-467a-a4b2-d3c169d84aec" data-name="resources" xmlns="http://www.w3.org/2000/svg" viewBox="0 0 134 134">
  <defs>
    <style>
      .bb695440-0245-4384-bd76-d64ad76851b1 {
        fill: var(--secondary-color);
      }

      .afc0c8b1-48d3-49de-b781-42d3565f76fa {
        fill: #fff;
      }

      .a8ffcd95-1f4f-4c5a-b4ac-5eb1cb590f34, .b73556db-90d6-44dd-9bff-84f7ffa3cd9b {
        fill: var(--primary-color);
      }

      .b73556db-90d6-44dd-9bff-84f7ffa3cd9b {
        fill-rule: evenodd;
      }
    </style>
  </defs>
  <g id="baeaee53-2afe-40e3-9f3f-08a092356ef1" data-name="Files">
    <g id="a3e65345-8aba-4038-b127-b029c69e1b24" data-name="PDF">
      <g>
        <polygon class="bb695440-0245-4384-bd76-d64ad76851b1" points="87.98 134.1 10.61 113.37 38.87 7.91 99.43 24.14 111.93 44.75 87.98 134.1"/>
        <polygon class="afc0c8b1-48d3-49de-b781-42d3565f76fa" points="53.6 2.67 26.38 104.27 99.89 123.96 123.09 37.37 111.45 18.17 53.6 2.67"/>
        <path class="a8ffcd95-1f4f-4c5a-b4ac-5eb1cb590f34" d="M101.3,126.41,23.93,105.68,52.19.22l60.56,16.23,12.49,20.61ZM28.83,102.85l69.64,18.66,22.47-83.83L110.16,19.89,55,5.12Z"/>
        <path class="b73556db-90d6-44dd-9bff-84f7ffa3cd9b" d="M98.62,77.48a23.91,23.91,0,0,1-11.73-8.37c-.52-.67-.92-1.44-1.49-2.06A2.47,2.47,0,0,0,84,66.2a104.52,104.52,0,0,0-14.7,0,4.6,4.6,0,0,0-2.73,1.13c-3,2.52-6,5.06-9.09,7.5a20.49,20.49,0,0,1-6.26,3.28,8.11,8.11,0,0,1-6.28-.31A3.7,3.7,0,0,1,44,71.44a18.17,18.17,0,0,1,7.1-3.69,81,81,0,0,1,8.3-1.87A9.32,9.32,0,0,0,65.82,62c3.47-4.72,7.05-9.36,10.64-14a3.74,3.74,0,0,0,.83-2.87,33.53,33.53,0,0,1,1.24-14.32,16.07,16.07,0,0,1,.72-1.94,3.86,3.86,0,0,1,6.42-1.1,6.34,6.34,0,0,1,1.73,5.42,25.9,25.9,0,0,1-3.15,9.53C83.19,44.85,82,46.9,80.85,49a3.33,3.33,0,0,0-.23,3q2.05,5.14,4.12,10.29a12,12,0,0,1,.49,1.17c.3,1.1,1.1,1.41,2.13,1.57,3.17.5,6.35,1,9.48,1.68a20.16,20.16,0,0,1,6.93,3.12,4.72,4.72,0,0,1,1.79,6,3.43,3.43,0,0,1-2.67,1.92A9.23,9.23,0,0,1,98.62,77.48Zm-29.07-13L84,64.59c-1.74-4.27-3.43-8.42-5.18-12.69C75.72,56.14,72.69,60.22,69.55,64.47Zm17.22,1.84a1,1,0,0,1-.1.17c.4.48.78,1,1.2,1.44a27.85,27.85,0,0,0,10,7.32A3.08,3.08,0,0,0,101.61,74a2.85,2.85,0,0,0-.69-3.72,9.13,9.13,0,0,0-2-1.36,32.56,32.56,0,0,0-9.62-2.33Zm-25.89.94-.17-.3-3.13.67c-3.49.79-7,1.41-10.25,3.08a15.54,15.54,0,0,0-3,2.22,1.67,1.67,0,0,0-.23,2.13c.36.73.87,1.38,1.74,1.29A9.51,9.51,0,0,0,50.48,75c2.25-1.55,4.54-3,6.74-4.65C58.51,69.42,59.67,68.29,60.88,67.25ZM78.63,44.4l.17,0c.16-.26.35-.51.5-.79.67-1.23,1.35-2.46,2-3.7,1.5-2.84,3.09-5.63,3.44-8.93.15-1.35-.13-2.11-1.31-2.66-.88-.41-1.73-.09-2.53.93a8.4,8.4,0,0,0-1.76,4.14c-.32,2.54-.49,5.11-.64,7.67C78.45,42.19,78.58,43.3,78.63,44.4Z"/>
      </g>
      <g>
        <rect class="a8ffcd95-1f4f-4c5a-b4ac-5eb1cb590f34" y="92" width="134" height="42"/>
        <g>
          <path class="afc0c8b1-48d3-49de-b781-42d3565f76fa" d="M47.37,102h4.15a14,14,0,0,1,4.72.55,4.79,4.79,0,0,1,2.27,2,6.06,6.06,0,0,1,.94,3.1,5.16,5.16,0,0,1-1.13,3.47,5.6,5.6,0,0,1-3,1.83,18.51,18.51,0,0,1-4.15.37v8.4h-4V102Zm4,7.67h1.14a6.12,6.12,0,0,0,2.07-.18,1.85,1.85,0,0,0,1-.73,2.5,2.5,0,0,0,.38-1.1,1.9,1.9,0,0,0-.95-1.64,6.84,6.84,0,0,0-2.45-.36H51.33v4Z"/>
          <path class="afc0c8b1-48d3-49de-b781-42d3565f76fa" d="M63.41,102h4.53a15.29,15.29,0,0,1,6.61,1.1,8,8,0,0,1,3.58,3.47,10.9,10.9,0,0,1,1.32,5.66,10.35,10.35,0,0,1-.75,4.2,10,10,0,0,1-2.08,3.1,8.24,8.24,0,0,1-3,1.83,18.73,18.73,0,0,1-5.47.55H63.41V102Zm3.78,3.66v12.41h1.89a9.71,9.71,0,0,0,3.77-.54,4.08,4.08,0,0,0,1.89-2,8.66,8.66,0,0,0,.76-3.47,6.47,6.47,0,0,0-1.9-4.93c-1.13-1.1-2.83-1.65-5.28-1.65H67.19Z"/>
          <path class="afc0c8b1-48d3-49de-b781-42d3565f76fa" d="M83.23,102h10v3.66H87v3.65h6.22V113H87v8.77H83.23Z"/>
        </g>
      </g>
    </g>
  </g>
</svg>
