<svg id="b3c40ed9-3bf2-4683-8677-faceb73635b0" data-name="resources" xmlns="http://www.w3.org/2000/svg" viewBox="0 0 134 134">
  <defs>
    <style>
      .ac931c41-273e-438f-b537-f2700a160c82 {
        fill: var(--secondary-color);
      }

      .fa7226ce-374c-414b-85b0-0a9cafd9c536 {
        fill: #fff;
      }

      .bede0654-9578-4c16-8a2b-27c4aeaec7a0 {
        fill: var(--primary-color);
      }
    </style>
  </defs>
  <g id="a0e9b546-c36c-4dfd-99d7-04d9e9be632b" data-name="Files">
    <g>
      <polygon class="ac931c41-273e-438f-b537-f2700a160c82" points="88.25 134.4 10.88 113.67 39.14 8.2 60.29 13.87 66.1 31.69 80.04 19.16 99.69 24.43 112.19 45.05 88.25 134.4"/>
      <g>
        <polygon class="fa7226ce-374c-414b-85b0-0a9cafd9c536" points="123.35 37.1 111.72 17.9 93.89 13.13 78.46 26.98 72.04 7.27 53.86 2.4 26.64 104 100.15 123.7 123.35 37.1"/>
        <path class="bede0654-9578-4c16-8a2b-27c4aeaec7a0" d="M101.56,126.15,24.19,105.42,52.45,0,73.6,5.62l5.81,17.82,14-12.53L113,16.18,125.5,36.8ZM29.09,102.59l69.65,18.66L121.2,37.41,110.42,19.63l-16-4.29L77.52,30.52l-7-21.6L55.28,4.85Z"/>
        <g>
          <path class="bede0654-9578-4c16-8a2b-27c4aeaec7a0" d="M70,66.22l-3.77-1,2.45-9.13,3.76,1Z"/>
          <path class="bede0654-9578-4c16-8a2b-27c4aeaec7a0" d="M66,81l-3.77-1,2.44-9.12,3.77,1Z"/>
          <path class="bede0654-9578-4c16-8a2b-27c4aeaec7a0" d="M62,95.85l-3.77-1,2.44-9.12,3.77,1Z"/>
          <path class="bede0654-9578-4c16-8a2b-27c4aeaec7a0" d="M58,110.67l-3.77-1,2.45-9.12,3.76,1Z"/>
        </g>
        <path class="bede0654-9578-4c16-8a2b-27c4aeaec7a0" d="M83.16,24.62,76,22.69,64.39,50.52l14.91,4ZM69.41,48.12l5.24-12.58,3.25.86L76.15,49.92Z"/>
      </g>
      <g>
        <rect class="bede0654-9578-4c16-8a2b-27c4aeaec7a0" y="92" width="134" height="42"/>
        <g>
          <path class="fa7226ce-374c-414b-85b0-0a9cafd9c536" d="M69.08,106.15l-2.65,2.56a8,8,0,0,0-6-2.74,7.41,7.41,0,0,0-5.09,2,6.45,6.45,0,0,0,0,9.49,7.41,7.41,0,0,0,5.09,2,6.62,6.62,0,0,0,3.4-.73,6.13,6.13,0,0,0,2.27-2.56H60.39v-3.46h10.2v.91a9.64,9.64,0,0,1-1.33,4.93A8.08,8.08,0,0,1,65.68,122a11.92,11.92,0,0,1-10.76,0,9.76,9.76,0,0,1-4-3.84,10.66,10.66,0,0,1-1.51-5.29,9.84,9.84,0,0,1,2.64-6.76,10.52,10.52,0,0,1,8.3-3.47,14.56,14.56,0,0,1,4.91.92A8.16,8.16,0,0,1,69.08,106.15Z"/>
          <path class="fa7226ce-374c-414b-85b0-0a9cafd9c536" d="M73,102.86H85.31l-7.18,16.07h6.8v3.66H72.47l7.17-15.89H73Z"/>
        </g>
      </g>
    </g>
  </g>
</svg>
