<svg id="fa0930d5-27c8-4678-bdb7-3edcb2557758" data-name="resources" xmlns="http://www.w3.org/2000/svg" viewBox="0 0 134 134">
  <defs>
    <style>
      .fe899238-3471-4008-961a-665ab9a06c2b {
        fill: var(--secondary-color);
      }

      .a44a0d67-d33b-4e95-bc45-27e6b5530f83, .f11b1c83-ee2e-46b9-87a5-0cef5a0c966d {
        fill: #fff;
      }

      .a8b95bd8-72d7-437c-81fd-f44d2914c4e2, .f316497c-6a44-4164-8ab8-34a26c0c92a1 {
        fill: var(--primary-color);
      }

      .a44a0d67-d33b-4e95-bc45-27e6b5530f83, .f316497c-6a44-4164-8ab8-34a26c0c92a1 {
        stroke: var(--primary-color);
        stroke-miterlimit: 10;
        stroke-width: 4px;
      }
    </style>
  </defs>
  <g id="a3991610-b8df-47f8-9b55-2df6c9f3f17b" data-name="Files">
    <g>
      <g>
        <polygon class="fe899238-3471-4008-961a-665ab9a06c2b" points="88.04 133.88 10.67 113.15 38.92 7.69 99.49 23.92 111.98 44.53 88.04 133.88"/>
        <polygon class="f11b1c83-ee2e-46b9-87a5-0cef5a0c966d" points="53.66 2.45 26.43 104.05 99.94 123.74 123.14 37.15 111.51 17.95 53.66 2.45"/>
        <path class="a8b95bd8-72d7-437c-81fd-f44d2914c4e2" d="M101.35,126.19,24,105.46,52.24,0,112.8,16.23l12.5,20.61ZM28.88,102.63l69.65,18.66L121,37.46,110.21,19.67,55.07,4.9Z"/>
      </g>
      <g>
        <rect class="a8b95bd8-72d7-437c-81fd-f44d2914c4e2" y="92" width="134" height="42"/>
        <g>
          <path class="f11b1c83-ee2e-46b9-87a5-0cef5a0c966d" d="M43.22,102h4.34l4.34,6.4,4.34-6.4h4.34l-6.41,9.5L61,121.77H56.62l-4.72-6.94-4.72,6.94H42.84l6.8-10.23Z"/>
          <path class="f11b1c83-ee2e-46b9-87a5-0cef5a0c966d" d="M63.79,102h4v16.07h5.67v3.66H64V102Z"/>
          <path class="f11b1c83-ee2e-46b9-87a5-0cef5a0c966d" d="M87,104.78l-2.83,2.38a4.22,4.22,0,0,0-3-2,2.85,2.85,0,0,0-1.32.36,1,1,0,0,0-.56.92,1.36,1.36,0,0,0,.38.91c.37.36,1.32,1.28,2.83,2.56s2.45,2,2.64,2.19a8.79,8.79,0,0,1,1.7,2.19,5,5,0,0,1,.56,2.37,5.24,5.24,0,0,1-1.7,4,6.21,6.21,0,0,1-4.53,1.64,6.53,6.53,0,0,1-3.77-1.09,8.42,8.42,0,0,1-2.83-3.29l3.21-1.83c.94,1.83,2.07,2.56,3.39,2.56a2.65,2.65,0,0,0,1.7-.55,1.82,1.82,0,0,0,.76-1.27,1.92,1.92,0,0,0-.57-1.28c-.38-.37-1.13-1.1-2.26-2a31.08,31.08,0,0,1-4.34-4,6.51,6.51,0,0,1-1-2.92,4.44,4.44,0,0,1,1.7-3.47,6.23,6.23,0,0,1,4-1.46,5.47,5.47,0,0,1,2.84.73A15.87,15.87,0,0,1,87,104.78Z"/>
        </g>
      </g>
      <g>
        <rect class="a44a0d67-d33b-4e95-bc45-27e6b5530f83" x="58.86" y="32.13" width="39.59" height="52.11" transform="translate(2.1 119.1) rotate(-75)"/>
        <rect class="f316497c-6a44-4164-8ab8-34a26c0c92a1" x="62.89" y="29.04" width="13.2" height="26.05" transform="translate(10.87 98.3) rotate(-75)"/>
        <rect class="a44a0d67-d33b-4e95-bc45-27e6b5530f83" x="56.06" y="54.53" width="13.2" height="26.05" transform="translate(-18.82 110.59) rotate(-75)"/>
        <rect class="a44a0d67-d33b-4e95-bc45-27e6b5530f83" x="84.64" y="48.53" width="13.2" height="26.05" transform="translate(8.17 133.75) rotate(-75)"/>
      </g>
    </g>
  </g>
</svg>
