<svg id="abb35416-7e65-46a3-becf-b419f0019e52" data-name="resources" xmlns="http://www.w3.org/2000/svg" viewBox="0 0 134 134">
  <defs>
    <style>
      .b9042957-cfbc-4501-81ac-48ae0b9153ab {
        fill: var(--secondary-color);
        stroke: var(--secondary-color);
      }

      .a00df3ed-c401-4485-99f2-8dc103d0478f, .b9042957-cfbc-4501-81ac-48ae0b9153ab, .e67681b2-28cd-45d0-a630-38369bb40b28 {
        stroke-miterlimit: 10;
        stroke-width: 4px;
      }

      .a1b02758-e803-4b54-b4a9-8a9aa03ae82a, .e67681b2-28cd-45d0-a630-38369bb40b28 {
        fill: var(--primary-color);
      }

      .a00df3ed-c401-4485-99f2-8dc103d0478f, .e67681b2-28cd-45d0-a630-38369bb40b28 {
        stroke: var(--primary-color);
      }

      .a00df3ed-c401-4485-99f2-8dc103d0478f, .b447e54e-7fd0-41b0-8ad1-15ca2aa460ad {
        fill: #fff;
      }
    </style>
  </defs>
  <g id="f3e8c537-b4b9-4b28-8764-80a224f3c3a7" data-name="Files">
    <g>
      <g>
        <g>
          <path class="b9042957-cfbc-4501-81ac-48ae0b9153ab" d="M68.8,8.28V43.34L99.39,30.5C95.76,23.88,86.12,10.38,68.8,8.28Z"/>
          <path class="b9042957-cfbc-4501-81ac-48ae0b9153ab" d="M56.28,8.18a40.26,40.26,0,0,0,3.37,80.37,39.25,39.25,0,0,0,22.82-7.16L56.28,49.5Z"/>
          <path class="b9042957-cfbc-4501-81ac-48ae0b9153ab" d="M74.81,50.69,97.28,78.06c14-15.16,10.74-33.28,8.58-40.39Z"/>
        </g>
        <g>
          <path class="e67681b2-28cd-45d0-a630-38369bb40b28" d="M73.8,3.28V38.34L106.31,25.5C102.68,18.88,93,5.38,73.8,3.28Z"/>
          <path class="a00df3ed-c401-4485-99f2-8dc103d0478f" d="M61.28,3.18a40.26,40.26,0,0,0,3.37,80.37,39.25,39.25,0,0,0,22.82-7.16L61.28,44.5Z"/>
          <path class="a00df3ed-c401-4485-99f2-8dc103d0478f" d="M79.81,45.69l22.47,27.38c15.93-15.17,12.66-33.29,10.5-40.4Z"/>
        </g>
      </g>
      <g>
        <rect class="a1b02758-e803-4b54-b4a9-8a9aa03ae82a" y="92" width="134" height="42"/>
        <g>
          <path class="b447e54e-7fd0-41b0-8ad1-15ca2aa460ad" d="M37.94,102h4.15a14.19,14.19,0,0,1,4.71.55,4.75,4.75,0,0,1,2.27,2,6,6,0,0,1,1,3.1,5.11,5.11,0,0,1-1.14,3.47,5.56,5.56,0,0,1-3,1.83,18.62,18.62,0,0,1-4.15.36v8.41h-4V102Zm3.77,7.67H43a6.19,6.19,0,0,0,2.08-.18,1.86,1.86,0,0,0,.94-.73,2.54,2.54,0,0,0,.38-1.1,1.9,1.9,0,0,0-1-1.64A6.8,6.8,0,0,0,43,105.7H41.9v4Z"/>
          <path class="b447e54e-7fd0-41b0-8ad1-15ca2aa460ad" d="M53.79,102h4.15a14.22,14.22,0,0,1,4.72.55,4.77,4.77,0,0,1,2.26,2,6,6,0,0,1,1,3.1,5.16,5.16,0,0,1-1.13,3.47,5.6,5.6,0,0,1-3,1.83,18.81,18.81,0,0,1-4.16.36v8.41h-4V102Zm3.77,7.67h1.32a6.16,6.16,0,0,0,2.08-.18,1.78,1.78,0,0,0,.94-.73,2.54,2.54,0,0,0,.38-1.1,1.92,1.92,0,0,0-.94-1.64,6.87,6.87,0,0,0-2.46-.36H57.75v4Z"/>
          <path class="b447e54e-7fd0-41b0-8ad1-15ca2aa460ad" d="M67.57,102H78.89v3.66H75.11v16.07h-4V105.88H67.57Z"/>
          <path class="b447e54e-7fd0-41b0-8ad1-15ca2aa460ad" d="M80.21,102h4.34l4.34,6.39L93.23,102h4.35l-6.42,9.5L98,121.77H93.61l-4.72-6.94-4.71,6.94H79.83l6.8-10.23Z"/>
        </g>
      </g>
    </g>
  </g>
</svg>
