<svg id="e86bf7a2-8043-403d-9557-f572812b7fa8" data-name="resources" xmlns="http://www.w3.org/2000/svg" viewBox="0 0 134 134">
  <defs>
    <style>
      .a965443a-8db3-40a9-944d-eeea5dceab24 {
        fill: var(--secondary-color);
      }

      .a6058441-378d-445d-9cb5-713fe45078ef {
        fill: #fff;
      }

      .b881393d-31e3-4856-8302-90d618861a64 {
        fill: var(--primary-color);
      }
    </style>
  </defs>
  <g id="ae8fc3a2-aa3d-4b6a-a37e-b8290262956f" data-name="Files">
    <g>
      <polygon class="a965443a-8db3-40a9-944d-eeea5dceab24" points="88.25 134.4 10.88 113.67 39.13 8.2 60.29 13.87 66.1 31.69 80.04 19.16 99.69 24.43 112.19 45.05 88.25 134.4"/>
      <g>
        <polygon class="a6058441-378d-445d-9cb5-713fe45078ef" points="123.35 37.1 111.72 17.9 93.89 13.13 78.47 26.98 72.04 7.27 53.86 2.4 26.64 104 100.15 123.7 123.35 37.1"/>
        <path class="b881393d-31e3-4856-8302-90d618861a64" d="M101.56,126.15,24.19,105.42,52.45,0,73.6,5.62l5.81,17.82,14-12.53L113,16.18,125.5,36.8ZM29.09,102.59l69.64,18.66L121.2,37.41,110.42,19.63l-16-4.29L77.52,30.52l-7-21.6L55.28,4.85Z"/>
        <g>
          <path class="b881393d-31e3-4856-8302-90d618861a64" d="M70,66.22l-3.77-1,2.44-9.13,3.77,1Z"/>
          <path class="b881393d-31e3-4856-8302-90d618861a64" d="M66,81l-3.77-1,2.44-9.12,3.77,1Z"/>
          <path class="b881393d-31e3-4856-8302-90d618861a64" d="M62,95.85l-3.77-1,2.45-9.12,3.76,1Z"/>
          <path class="b881393d-31e3-4856-8302-90d618861a64" d="M58,110.67l-3.77-1,2.44-9.12,3.77,1Z"/>
        </g>
        <path class="b881393d-31e3-4856-8302-90d618861a64" d="M83.16,24.62,76,22.69,64.39,50.52l14.9,4ZM69.41,48.12l5.24-12.58,3.25.86L76.15,49.92Z"/>
      </g>
      <g>
        <rect class="b881393d-31e3-4856-8302-90d618861a64" y="92" width="134" height="42"/>
        <g>
          <path class="a6058441-378d-445d-9cb5-713fe45078ef" d="M46.62,103.05H57.94v3.65H54.17v16.07h-4V106.7H46.62Z"/>
          <path class="a6058441-378d-445d-9cb5-713fe45078ef" d="M66.62,103.05h4l7.92,19.72h-4l-1.51-4h-8.3l-1.89,4h-4Zm2.08,5.29-2.64,6.76h5.47Z"/>
          <path class="a6058441-378d-445d-9cb5-713fe45078ef" d="M81.72,103.05h4.15a14.28,14.28,0,0,1,4.72.54,4.79,4.79,0,0,1,2.27,2,6.23,6.23,0,0,1,0,6.58,6.6,6.6,0,0,1-2.83,2l4.9,8.76H90.59l-4.53-8.4h-.38v8.22h-4Zm3.78,7.67h1.32a3.6,3.6,0,0,0,2.45-.55,2.28,2.28,0,0,0,.76-1.64,2.5,2.5,0,0,0-.38-1.1,1.9,1.9,0,0,0-1-.73,6.09,6.09,0,0,0-2.07-.18H85.5v4.2Z"/>
        </g>
      </g>
    </g>
  </g>
</svg>
