<svg id="edb82dc9-7571-425c-b0aa-b9b50c63d4fd" data-name="resources" xmlns="http://www.w3.org/2000/svg" viewBox="0 0 134 134">
  <defs>
    <style>
      .b9a33f87-d602-4fba-ae7e-ed1238c93670 {
        fill: var(--secondary-color);
      }

      .adc5b59d-0af8-4ac0-a0bd-5f5a50f8380a {
        fill: #fff;
      }

      .a4e1495d-e132-43bb-a406-f0163336fdf5 {
        fill: var(--primary-color);
      }

      .b249cd84-2448-4be6-9e65-476df9926254 {
        fill: none;
        stroke: var(--secondary-color);
        stroke-miterlimit: 10;
        stroke-width: 3px;
      }
    </style>
  </defs>
  <g id="addee81a-3273-42ba-92b8-1bc6e725991c" data-name="Files">
    <g>
      <g>
        <polygon class="b9a33f87-d602-4fba-ae7e-ed1238c93670" points="88.25 133.66 10.88 112.93 39.13 7.47 99.7 23.7 112.19 44.31 88.25 133.66"/>
        <polygon class="adc5b59d-0af8-4ac0-a0bd-5f5a50f8380a" points="53.87 2.23 26.64 103.83 100.15 123.53 123.35 36.93 111.72 17.73 53.87 2.23"/>
        <path class="a4e1495d-e132-43bb-a406-f0163336fdf5" d="M101.57,126,24.19,105.24,52.45-.22,113,16,125.5,36.62ZM29.09,102.42l69.65,18.66L121.2,37.24,110.42,19.45,55.28,4.68Z"/>
        <g>
          <line class="b249cd84-2448-4be6-9e65-476df9926254" x1="83.28" y1="32.68" x2="112.69" y2="40.53"/>
          <line class="b249cd84-2448-4be6-9e65-476df9926254" x1="53.26" y1="43.61" x2="107.91" y2="58.39"/>
          <line class="b249cd84-2448-4be6-9e65-476df9926254" x1="48.49" y1="61.32" x2="102.99" y2="76.09"/>
          <line class="b249cd84-2448-4be6-9e65-476df9926254" x1="43.56" y1="79.02" x2="98.21" y2="93.8"/>
          <path class="b9a33f87-d602-4fba-ae7e-ed1238c93670" d="M73.12,17.59l-4.93,18c0,.15-.15.46-.15.61a.57.57,0,0,0,.15.46l.47.47.92.46a.56.56,0,0,1,.31.77l-.15.3c0,.16-.16.16-.16.31l-2.31-.77a14.8,14.8,0,0,0-2.16-.61A16.67,16.67,0,0,1,63,37l-2.31-.46v-.62a.52.52,0,0,1,.15-.3.57.57,0,0,1,.47-.16,3,3,0,0,0,1.69,0c.31-.15.46-.46.62-.92l5.08-18-3.08-.77a6.35,6.35,0,0,0-1.7-.31,4.3,4.3,0,0,0-1.38.31,5.19,5.19,0,0,0-1.23.77c-.47.46-.77.77-1.23,1.23-.16.15-.31.31-.62.15-.15,0-.31-.15-.46-.15-.16-.16-.31-.16-.31-.31l.77-1.39c.15-.46.46-.77.62-1.23s.46-.92.61-1.38a3.24,3.24,0,0,1,.46-.77c.16-.16.47-.31.62-.16.31,0,.77.31,1.54.47s1.54.61,2.62.92l10.46,2.93c1.08.3,1.85.46,2.62.61a13.86,13.86,0,0,0,1.54.31.4.4,0,0,1,.46.46,2,2,0,0,1-.15.92,4.13,4.13,0,0,0-.16,1.39,4.43,4.43,0,0,1-.15,1.39v1.53h-.46a.4.4,0,0,1-.46-.46,5.88,5.88,0,0,0-.46-1.69,3.1,3.1,0,0,0-.62-1.23l-.92-.93A4.78,4.78,0,0,0,76,18.52Z"/>
        </g>
      </g>
      <g>
        <rect class="a4e1495d-e132-43bb-a406-f0163336fdf5" y="92" width="134" height="42"/>
        <g>
          <path class="adc5b59d-0af8-4ac0-a0bd-5f5a50f8380a" d="M47.56,101.5a10.3,10.3,0,0,1,7.36,3.1,10.34,10.34,0,0,1,0,14.61,10.13,10.13,0,0,1-7.36,2.92A10.16,10.16,0,0,1,40,119a9.61,9.61,0,0,1-3-7.31,9.47,9.47,0,0,1,1.32-5.11,13.16,13.16,0,0,1,4-3.84A12.45,12.45,0,0,1,47.56,101.5Zm-.19,3.65a6.33,6.33,0,0,0-6.6,6.57,5.91,5.91,0,0,0,2.45,5.11,7.23,7.23,0,0,0,4.34,1.47,6.52,6.52,0,0,0,4.72-2,6.91,6.91,0,0,0,0-9.5A8.74,8.74,0,0,0,47.37,105.15Z"/>
          <path class="adc5b59d-0af8-4ac0-a0bd-5f5a50f8380a" d="M61.71,102h4.54a15.24,15.24,0,0,1,6.6,1.1,8.15,8.15,0,0,1,3.59,3.47,11,11,0,0,1,1.32,5.66,10.35,10.35,0,0,1-.76,4.2,10,10,0,0,1-2.07,3.1,8.41,8.41,0,0,1-3,1.83,21.36,21.36,0,0,1-5.48.37H61.71Zm3.78,3.66v12.41h1.89a9.64,9.64,0,0,0,3.77-.54,4,4,0,0,0,1.89-2,8.67,8.67,0,0,0,.75-3.47,6.49,6.49,0,0,0-1.88-4.93c-1.14-1.1-2.83-1.65-5.29-1.65H65.49Z"/>
          <path class="adc5b59d-0af8-4ac0-a0bd-5f5a50f8380a" d="M79.46,102H90.78v3.66H87v16.07H83V105.7H79.46Z"/>
        </g>
      </g>
    </g>
  </g>
</svg>
