<svg id="b2fa150d-7e7f-4b6b-9f7b-8ff8313ae27f" data-name="resources" xmlns="http://www.w3.org/2000/svg" viewBox="0 0 134 134">
  <defs>
    <style>
      .adb5ad45-5f54-48bc-8ce7-b1bd44b8a164 {
        fill: var(--secondary-color);
      }

      .a5a900ad-3a31-42df-9413-7fb787853fe6, .a88be6d1-3fc7-4306-9f6a-6a360b02c943 {
        fill: #fff;
      }

      .b1f8780d-afc9-4289-9e65-4c6340abaf09, .f2cf7ec0-68d2-4415-bb2a-91a6b48d62aa {
        fill: var(--primary-color);
      }

      .a88be6d1-3fc7-4306-9f6a-6a360b02c943, .b1f8780d-afc9-4289-9e65-4c6340abaf09 {
        stroke: var(--primary-color);
        stroke-miterlimit: 10;
        stroke-width: 4px;
      }
    </style>
  </defs>
  <g id="a29c7fbb-5f5d-4953-a9df-fac8bdbc24c0" data-name="Files">
    <g>
      <g>
        <polygon class="adb5ad45-5f54-48bc-8ce7-b1bd44b8a164" points="88.04 134.11 10.67 113.38 38.92 7.91 99.49 24.14 111.98 44.76 88.04 134.11"/>
        <polygon class="a5a900ad-3a31-42df-9413-7fb787853fe6" points="53.66 2.67 26.43 104.27 99.94 123.97 123.14 37.38 111.51 18.18 53.66 2.67"/>
        <path class="f2cf7ec0-68d2-4415-bb2a-91a6b48d62aa" d="M101.35,126.42,24,105.69,52.24.23,112.8,16.45l12.5,20.62ZM28.88,102.86l69.65,18.66L121,37.68,110.21,19.9,55.07,5.12Z"/>
      </g>
      <g>
        <rect class="a88be6d1-3fc7-4306-9f6a-6a360b02c943" x="58.86" y="32.36" width="39.59" height="52.11" transform="translate(1.88 119.27) rotate(-75)"/>
        <rect class="b1f8780d-afc9-4289-9e65-4c6340abaf09" x="62.89" y="29.26" width="13.2" height="26.05" transform="translate(10.66 98.46) rotate(-75)"/>
        <rect class="a88be6d1-3fc7-4306-9f6a-6a360b02c943" x="56.06" y="54.76" width="13.2" height="26.05" transform="translate(-19.04 110.76) rotate(-75)"/>
        <rect class="a88be6d1-3fc7-4306-9f6a-6a360b02c943" x="84.64" y="48.75" width="13.2" height="26.05" transform="translate(7.95 133.92) rotate(-75)"/>
      </g>
      <g>
        <rect class="f2cf7ec0-68d2-4415-bb2a-91a6b48d62aa" y="92" width="134" height="42"/>
        <g>
          <path class="a5a900ad-3a31-42df-9413-7fb787853fe6" d="M35.1,102h4.34l4.35,6.4,4.34-6.4h4.34l-6.42,9.5,6.79,10.23H48.5l-4.71-6.94-4.72,6.94H34.73l6.79-10.23Z"/>
          <path class="a5a900ad-3a31-42df-9413-7fb787853fe6" d="M55.68,102h4v16.07H65.3v3.66H55.87V102Z"/>
          <path class="a5a900ad-3a31-42df-9413-7fb787853fe6" d="M78.89,104.78l-2.83,2.38a4.24,4.24,0,0,0-3-2,2.78,2.78,0,0,0-1.32.36,1,1,0,0,0-.57.92,1.36,1.36,0,0,0,.38.91c.38.36,1.32,1.28,2.83,2.56s2.45,2,2.64,2.19a8.56,8.56,0,0,1,1.7,2.19,4.89,4.89,0,0,1,.57,2.37,5.28,5.28,0,0,1-1.7,4A6.21,6.21,0,0,1,73,122.31a6.54,6.54,0,0,1-3.78-1.09,8.42,8.42,0,0,1-2.83-3.29l3.21-1.83c1,1.83,2.08,2.56,3.4,2.56a2.69,2.69,0,0,0,1.7-.55,1.81,1.81,0,0,0,.75-1.27,2,2,0,0,0-.56-1.28c-.38-.37-1.14-1.1-2.27-2a31.08,31.08,0,0,1-4.34-4,5.36,5.36,0,0,1-.94-2.92,4.43,4.43,0,0,1,1.69-3.47,6.26,6.26,0,0,1,4-1.46,5.44,5.44,0,0,1,2.83.73A15.89,15.89,0,0,1,78.89,104.78Z"/>
          <path class="a5a900ad-3a31-42df-9413-7fb787853fe6" d="M81.53,102h4.34l4.34,6.4,4.34-6.4h4.34l-6.41,9.68L99.27,122H94.93L90.21,115,85.5,122H81.16L88,111.72Z"/>
        </g>
      </g>
    </g>
  </g>
</svg>
