<svg id="a2586dba-6f21-4672-a363-610f9ea10a80" data-name="resources" xmlns="http://www.w3.org/2000/svg" viewBox="0 0 134 134">
  <defs>
    <style>
      .aa21bd34-89a5-4e17-a6aa-c68b48d9e001 {
        fill: var(--secondary-color);
      }

      .a3fa5e67-acac-4a08-96e5-8700d09662e6, .fd51313f-7126-4b5c-8fb6-40ec48b3170e {
        fill: #fff;
      }

      .b250faa9-d457-4459-b275-4c5401e2eabb, .f0e862a2-7c21-4c3d-8f26-b8b08fe64a78 {
        fill: var(--primary-color);
      }

      .b250faa9-d457-4459-b275-4c5401e2eabb, .fd51313f-7126-4b5c-8fb6-40ec48b3170e {
        stroke: var(--primary-color);
        stroke-miterlimit: 10;
        stroke-width: 4px;
      }
    </style>
  </defs>
  <g id="badf92c5-0876-4090-91a8-7b03ab6e6d31" data-name="Files">
    <g>
      <g>
        <polygon class="aa21bd34-89a5-4e17-a6aa-c68b48d9e001" points="88.04 134.11 10.67 113.38 38.92 7.91 99.48 24.14 111.98 44.76 88.04 134.11"/>
        <polygon class="a3fa5e67-acac-4a08-96e5-8700d09662e6" points="53.66 2.67 26.43 104.27 99.94 123.97 123.14 37.38 111.51 18.18 53.66 2.67"/>
        <path class="f0e862a2-7c21-4c3d-8f26-b8b08fe64a78" d="M101.35,126.42,24,105.69,52.24.23,112.8,16.45l12.5,20.62ZM28.88,102.86l69.65,18.66L121,37.68,110.21,19.9,55.07,5.12Z"/>
      </g>
      <g>
        <rect class="fd51313f-7126-4b5c-8fb6-40ec48b3170e" x="58.86" y="32.36" width="39.59" height="52.11" transform="translate(1.88 119.27) rotate(-75)"/>
        <rect class="b250faa9-d457-4459-b275-4c5401e2eabb" x="62.89" y="29.26" width="13.2" height="26.05" transform="translate(10.66 98.46) rotate(-75)"/>
        <rect class="fd51313f-7126-4b5c-8fb6-40ec48b3170e" x="56.06" y="54.76" width="13.2" height="26.05" transform="translate(-19.04 110.76) rotate(-75)"/>
        <rect class="fd51313f-7126-4b5c-8fb6-40ec48b3170e" x="84.64" y="48.75" width="13.2" height="26.05" transform="translate(7.95 133.92) rotate(-75)"/>
      </g>
      <g>
        <rect class="f0e862a2-7c21-4c3d-8f26-b8b08fe64a78" y="92" width="134" height="42"/>
        <g>
          <path class="a3fa5e67-acac-4a08-96e5-8700d09662e6" d="M52.22,101.46a10.32,10.32,0,0,1,7.36,3.1,10.34,10.34,0,0,1,0,14.61A10.74,10.74,0,0,1,44.67,119a9.6,9.6,0,0,1-3-7.31A9.47,9.47,0,0,1,43,106.57a11.29,11.29,0,0,1,4-3.83A12.35,12.35,0,0,1,52.22,101.46Zm0,3.65a6.35,6.35,0,0,0-6.6,6.57,5.92,5.92,0,0,0,2.45,5.12,7.29,7.29,0,0,0,4.34,1.46,6.52,6.52,0,0,0,4.72-2,6.94,6.94,0,0,0,0-9.5A9.27,9.27,0,0,0,52.22,105.11Z"/>
          <path class="a3fa5e67-acac-4a08-96e5-8700d09662e6" d="M66.37,102H70.9a15.26,15.26,0,0,1,6.61,1.1,8.15,8.15,0,0,1,3.59,3.47,11,11,0,0,1,1.32,5.66,10.35,10.35,0,0,1-.76,4.2,10.09,10.09,0,0,1-2.07,3.11,8.25,8.25,0,0,1-3,1.82,18.81,18.81,0,0,1-5.48.55H66.37V102Zm3.78,3.66v12.42H72a9.61,9.61,0,0,0,3.77-.55,4,4,0,0,0,1.89-2,6.41,6.41,0,0,0,.75-3.47,6.49,6.49,0,0,0-1.88-4.93c-1.14-1.1-2.83-1.64-5.29-1.64H70.15Z"/>
          <path class="a3fa5e67-acac-4a08-96e5-8700d09662e6" d="M97,104.74l-2.83,2.38a4.25,4.25,0,0,0-3-2,2.67,2.67,0,0,0-1.32.37,1,1,0,0,0-.57.91,1.36,1.36,0,0,0,.38.91c.38.37,1.32,1.28,2.83,2.56s2.45,2,2.64,2.19a8.56,8.56,0,0,1,1.7,2.19,4.89,4.89,0,0,1,.57,2.37,5.28,5.28,0,0,1-1.7,4,6.23,6.23,0,0,1-4.53,1.65,6.57,6.57,0,0,1-3.78-1.1,8.42,8.42,0,0,1-2.83-3.29l3.21-1.82c1,1.82,2.08,2.55,3.4,2.55a2.74,2.74,0,0,0,1.7-.54,1.86,1.86,0,0,0,.75-1.28,2,2,0,0,0-.56-1.28c-.38-.37-1.14-1.1-2.27-2a31.05,31.05,0,0,1-4.34-4,5.34,5.34,0,0,1-.95-2.92,4.44,4.44,0,0,1,1.7-3.47,6.26,6.26,0,0,1,4-1.46,5.44,5.44,0,0,1,2.83.73A10.88,10.88,0,0,1,97,104.74Z"/>
        </g>
      </g>
    </g>
  </g>
</svg>
