<svg id="a72866fb-5d27-4842-9274-74f23890b332" data-name="resources" xmlns="http://www.w3.org/2000/svg" viewBox="0 0 134 134">
  <defs>
    <style>
      .eaf7ed59-a501-4fcb-aa26-fb6043839f20 {
        fill: var(--secondary-color);
        stroke: var(--secondary-color);
      }

      .ab8674cb-fbc2-43cd-8d0d-51cb2449c99f, .e746c91d-2179-40e0-a3af-24e56b7d1f37, .eaf7ed59-a501-4fcb-aa26-fb6043839f20 {
        stroke-miterlimit: 10;
        stroke-width: 4px;
      }

      .ab8674cb-fbc2-43cd-8d0d-51cb2449c99f, .b5c53e5d-c92b-4b5c-99e1-93d62c5391ef {
        fill: var(--primary-color);
      }

      .ab8674cb-fbc2-43cd-8d0d-51cb2449c99f, .e746c91d-2179-40e0-a3af-24e56b7d1f37 {
        stroke: var(--primary-color);
      }

      .e746c91d-2179-40e0-a3af-24e56b7d1f37, .f3f6ca87-f82d-4006-800c-fe053c0fc8c5 {
        fill: #fff;
      }
    </style>
  </defs>
  <g id="eef4b755-3c4c-4d94-befa-34dc8bcab1d9" data-name="Files">
    <g>
      <g>
        <g>
          <path class="eaf7ed59-a501-4fcb-aa26-fb6043839f20" d="M68.8,8.28V43.34L99.39,30.5C95.76,23.88,86.12,10.38,68.8,8.28Z"/>
          <path class="eaf7ed59-a501-4fcb-aa26-fb6043839f20" d="M56.28,8.18a40.26,40.26,0,0,0,3.37,80.37,39.25,39.25,0,0,0,22.82-7.16L56.28,49.5Z"/>
          <path class="eaf7ed59-a501-4fcb-aa26-fb6043839f20" d="M74.8,50.69,97.28,78.06c14-15.16,10.74-33.28,8.58-40.39Z"/>
        </g>
        <g>
          <path class="ab8674cb-fbc2-43cd-8d0d-51cb2449c99f" d="M73.8,3.28V38.34L106.31,25.5C102.68,18.88,93,5.38,73.8,3.28Z"/>
          <path class="e746c91d-2179-40e0-a3af-24e56b7d1f37" d="M61.28,3.18a40.26,40.26,0,0,0,3.37,80.37,39.25,39.25,0,0,0,22.82-7.16L61.28,44.5Z"/>
          <path class="e746c91d-2179-40e0-a3af-24e56b7d1f37" d="M79.81,45.69l22.47,27.38c15.93-15.17,12.66-33.29,10.5-40.4Z"/>
        </g>
      </g>
      <g>
        <rect class="b5c53e5d-c92b-4b5c-99e1-93d62c5391ef" y="92" width="134" height="42"/>
        <g>
          <path class="f3f6ca87-f82d-4006-800c-fe053c0fc8c5" d="M49.26,101.5a10.32,10.32,0,0,1,7.36,3.1,10.34,10.34,0,0,1,0,14.61A10.74,10.74,0,0,1,41.71,119a9.61,9.61,0,0,1-3-7.31A9.45,9.45,0,0,1,40,106.61a13.12,13.12,0,0,1,4-3.84A12.5,12.5,0,0,1,49.26,101.5Zm-.19,3.65a6.33,6.33,0,0,0-6.6,6.57,5.94,5.94,0,0,0,2.45,5.12,7.29,7.29,0,0,0,4.34,1.46,6.52,6.52,0,0,0,4.72-2,6.91,6.91,0,0,0,0-9.5A8.74,8.74,0,0,0,49.07,105.15Z"/>
          <path class="f3f6ca87-f82d-4006-800c-fe053c0fc8c5" d="M63.41,102h4.53a15.29,15.29,0,0,1,6.61,1.1,8.08,8.08,0,0,1,3.58,3.47,10.9,10.9,0,0,1,1.33,5.66,9.87,9.87,0,0,1-2.83,7.31,8.53,8.53,0,0,1-3,1.82,18.81,18.81,0,0,1-5.48.55H63.41V102Zm3.78,3.66v12.41h1.89a9.68,9.68,0,0,0,3.77-.54,4,4,0,0,0,1.89-2,7.77,7.77,0,0,0-1.13-8.4c-1.14-1.1-2.83-1.65-5.29-1.65H67.19Z"/>
          <path class="f3f6ca87-f82d-4006-800c-fe053c0fc8c5" d="M83.23,102h4.15a14.22,14.22,0,0,1,4.72.55,4.84,4.84,0,0,1,2.27,2,6.06,6.06,0,0,1,.94,3.1,5.16,5.16,0,0,1-1.13,3.47,5.6,5.6,0,0,1-3,1.83,18.58,18.58,0,0,1-4.15.37v8.4H83V102ZM87,109.71h1.32a6.12,6.12,0,0,0,2.07-.18,1.85,1.85,0,0,0,.95-.73,2.48,2.48,0,0,0,.37-1.1,1.89,1.89,0,0,0-.94-1.64,6.84,6.84,0,0,0-2.45-.36H87.19v4Z"/>
        </g>
      </g>
    </g>
  </g>
</svg>
