<svg id="b09bc5fb-5306-4d54-a7ac-b284ca7ff54a" data-name="resources" xmlns="http://www.w3.org/2000/svg" viewBox="0 0 134 134">
  <defs>
    <style>
      .afdcb0d6-6a20-454b-8c20-3cd9884821d3, .e8a83da7-bcee-4bd6-9cd9-f53bb8dbfc4d {
        fill: var(--secondary-color);
      }

      .ba2cc73b-36bb-4a09-bb21-56beda1f12fa, .e8a83da7-bcee-4bd6-9cd9-f53bb8dbfc4d {
        stroke: var(--secondary-color);
      }

      .a872410b-8b59-4d0f-a891-ce64960577dd, .ba2cc73b-36bb-4a09-bb21-56beda1f12fa, .e8a83da7-bcee-4bd6-9cd9-f53bb8dbfc4d {
        stroke-miterlimit: 10;
      }

      .a872410b-8b59-4d0f-a891-ce64960577dd, .e8a83da7-bcee-4bd6-9cd9-f53bb8dbfc4d {
        stroke-width: 4px;
      }

      .a872410b-8b59-4d0f-a891-ce64960577dd {
        fill: #fff;
        stroke: var(--primary-color);
      }

      .ba2cc73b-36bb-4a09-bb21-56beda1f12fa {
        fill: none;
        stroke-width: 3px;
      }
    </style>
  </defs>
  <g id="aafb2e98-49bc-41cb-bd1a-0f81589bf83d" data-name="Custom">
    <g id="e01ba199-533f-4280-a6da-2e7354f6408f" data-name="Text">
      <polygon class="e8a83da7-bcee-4bd6-9cd9-f53bb8dbfc4d" points="39.21 10.2 11.99 111.8 85.5 131.49 108.7 44.9 97.06 25.7 39.21 10.2"/>
      <polygon class="a872410b-8b59-4d0f-a891-ce64960577dd" points="52.54 2.51 25.33 104.08 98.82 123.77 122.01 37.2 110.38 18 52.54 2.51"/>
      <line class="ba2cc73b-36bb-4a09-bb21-56beda1f12fa" x1="81.98" y1="32.94" x2="111.39" y2="40.79"/>
      <line class="ba2cc73b-36bb-4a09-bb21-56beda1f12fa" x1="51.96" y1="43.87" x2="106.61" y2="58.65"/>
      <line class="ba2cc73b-36bb-4a09-bb21-56beda1f12fa" x1="47.19" y1="61.58" x2="101.68" y2="76.36"/>
      <line class="ba2cc73b-36bb-4a09-bb21-56beda1f12fa" x1="42.26" y1="79.28" x2="96.91" y2="94.06"/>
      <line class="ba2cc73b-36bb-4a09-bb21-56beda1f12fa" x1="37.49" y1="97.14" x2="78.75" y2="108.22"/>
      <path class="afdcb0d6-6a20-454b-8c20-3cd9884821d3" d="M71.82,17.86l-4.93,18c0,.15-.15.46-.15.61a.59.59,0,0,0,.15.47c.16.15.31.3.46.46l.93.46a.56.56,0,0,1,.31.77l-.16.31c0,.15-.15.15-.15.3L66,38.49a14.94,14.94,0,0,0-2.16-.62,15.21,15.21,0,0,1-2.15-.62l-2.31-.46v-.61a.53.53,0,0,1,.15-.31.57.57,0,0,1,.47-.16,3,3,0,0,0,1.69,0c.31-.15.46-.46.61-.92l5.08-18L64.27,16a6.21,6.21,0,0,0-1.69-.31A4.3,4.3,0,0,0,61.2,16a5,5,0,0,0-1.23.77L58.73,18c-.15.15-.3.31-.61.15-.16,0-.31-.15-.46-.15-.16-.15-.31-.15-.31-.31l.77-1.38c.15-.47.46-.77.61-1.24s.46-.92.62-1.38a3.24,3.24,0,0,1,.46-.77c.16-.16.46-.31.62-.16.3,0,.77.31,1.54.47s1.53.61,2.61.92l10.47,2.93c1.08.3,1.85.46,2.62.61a11.8,11.8,0,0,0,1.54.31.4.4,0,0,1,.46.46,2,2,0,0,1-.15.92,4.16,4.16,0,0,0-.16,1.39,4.4,4.4,0,0,1-.15,1.39V23.7h-.46a.4.4,0,0,1-.46-.46,5.58,5.58,0,0,0-.47-1.69,3.16,3.16,0,0,0-.61-1.23l-.93-.93a4.64,4.64,0,0,0-1.54-.61Z"/>
    </g>
  </g>
</svg>
