<?xml version="1.0" encoding="utf-8"?>
<!-- Generator: Adobe Illustrator 22.1.0, SVG Export Plug-In . SVG Version: 6.00 Build 0)  -->
<svg version="1.1" xmlns="http://www.w3.org/2000/svg" xmlns:xlink="http://www.w3.org/1999/xlink" x="0px" y="0px"
	 viewBox="0 0 71 80" style="enable-background:new 0 0 71 80;" xml:space="preserve">
<g id="shortcut">
</g>
<g id="file">
	<g>
		<g>
			<g>
				<path style="fill:#E59B3A;" d="M17.7,2.4l-4.2,16.7c-1.4,5.5-2.8,11-4.3,16.5c-1.4,5.5-2.8,11-4.3,16.4
					c-1.5,5.4-3,10.9-4.6,16.3L0,67.7l11.9,3.4l11.9,3.3c8,2.1,15.9,4.2,23.9,6.2l-0.6,0.3c2.4-9.4,4.9-18.8,7.3-28.2l3.7-14.1
					l3.8-14l0.1,0.6c-2.5-4.1-5-8.2-7.5-12.3l0.4,0.3c-6.2-1.8-12.3-3.5-18.5-5.3L17.7,2.4z M17.6,2.2L36.3,7
					c6.3,1.6,12.6,3.3,19,4.9c0.2,0,0.3,0.1,0.4,0.3l0,0c2.6,4.1,5.1,8.2,7.7,12.2c0.1,0.2,0.1,0.4,0.1,0.6l-3.8,14.1l-3.9,14
					c-2.6,9.4-5.2,18.7-7.9,28l0,0c-0.1,0.2-0.3,0.4-0.6,0.3c-7.9-2.3-15.8-4.5-23.8-6.7l-11.9-3.2l-12-3.1
					c-0.2-0.1-0.4-0.3-0.3-0.6l0,0c1.4-5.5,2.8-11.1,4.3-16.6c1.5-5.6,3-11,4.6-16.6c1.5-5.5,3.1-11,4.7-16.4L17.6,2.2z"/>
			</g>
			<g>
				<path style="fill:#E59B3A;" d="M62.4,25.8c-1,0-2-0.1-2.9-0.2c-1-0.2-1.9-0.4-2.8-0.8c-0.9-0.4-1.8-0.9-2.7-1.1
					c-0.9-0.2-1.9-0.3-2.9-0.4c-0.3,0-0.5-0.3-0.4-0.6l0,0l0-0.2c0.1-0.8,0.3-1.6,0.4-2.3c0.2-0.8,0.3-1.5,0.6-2.3
					c0.5-1.5,1.1-3,1.9-4.4c0,0,0.1,0,0.1,0c0,0,0,0,0,0.1c0,1.6-0.2,3.2-0.5,4.7c-0.2,0.8-0.4,1.5-0.6,2.3
					c-0.3,0.7-0.5,1.5-0.8,2.2l-0.4-0.7c0.9,0.4,1.8,0.8,2.7,1.1c0.9,0.3,1.9,0.4,2.9,0.5c1,0.1,1.9,0.4,2.8,0.7
					c0.9,0.3,1.8,0.7,2.7,1.3C62.5,25.7,62.5,25.8,62.4,25.8C62.5,25.8,62.4,25.8,62.4,25.8z"/>
			</g>
		</g>
		<g>
			<g>
				<polygon style="fill:#FFFFFF;" points="26.1,-1 8.3,64.8 55.9,77.7 71.1,21.5 63.5,9.2 				"/>
				<path d="M26.1-1l-4.2,16.7c-1.4,5.5-2.8,11-4.3,16.5c-1.4,5.5-2.8,11-4.3,16.4c-1.5,5.4-3,10.9-4.6,16.3l-0.3-0.6l11.9,3.4
					L32.2,71c8,2.1,15.9,4.2,23.9,6.2l-0.6,0.3c2.4-9.4,4.9-18.8,7.3-28.2l3.7-14.1l3.8-14l0.1,0.6c-2.5-4.1-5-8.2-7.5-12.3l0.4,0.3
					c-6.2-1.8-12.3-3.5-18.5-5.3L26.1-1z M26-1.1l18.7,4.7c6.3,1.6,12.6,3.3,19,4.9c0.2,0,0.3,0.1,0.4,0.3l0,0
					c2.6,4.1,5.1,8.2,7.7,12.2c0.1,0.2,0.1,0.4,0.1,0.6l-3.8,14.1l-3.9,14c-2.6,9.4-5.2,18.7-7.9,28l0,0c-0.1,0.2-0.3,0.4-0.6,0.3
					C47.9,75.9,40,73.7,32,71.5l-11.9-3.2l-12-3.1c-0.2-0.1-0.4-0.3-0.3-0.6l0,0c1.4-5.5,2.8-11.1,4.3-16.6c1.5-5.6,3-11,4.6-16.6
					c1.5-5.5,3.1-11,4.7-16.4L26-1.1z"/>
			</g>
			<g>
				<path d="M70.8,22.5c-1,0-2-0.1-2.9-0.2c-1-0.2-1.9-0.4-2.8-0.8c-0.9-0.4-1.8-0.9-2.7-1.1c-0.9-0.2-1.9-0.3-2.9-0.4
					c-0.3,0-0.5-0.3-0.4-0.6l0,0l0-0.2c0.1-0.8,0.3-1.6,0.4-2.3c0.2-0.8,0.3-1.5,0.6-2.3c0.5-1.5,1.1-3,1.9-4.4c0,0,0.1,0,0.1,0
					c0,0,0,0,0,0.1c0,1.6-0.2,3.2-0.5,4.7c-0.2,0.8-0.4,1.5-0.6,2.3c-0.3,0.7-0.5,1.5-0.8,2.2l-0.4-0.7c0.9,0.4,1.8,0.8,2.7,1.1
					c0.9,0.3,1.9,0.4,2.9,0.5c1,0.1,1.9,0.4,2.8,0.7c0.9,0.3,1.8,0.7,2.7,1.3C70.9,22.4,70.9,22.4,70.8,22.5
					C70.9,22.5,70.9,22.5,70.8,22.5z"/>
			</g>
		</g>
	</g>
</g>
</svg>
