<?xml version="1.0" encoding="utf-8"?>
<!-- Generator: Adobe Illustrator 21.0.2, SVG Export Plug-In . SVG Version: 6.00 Build 0)  -->
<svg version="1.1" xmlns="http://www.w3.org/2000/svg" xmlns:xlink="http://www.w3.org/1999/xlink" x="0px" y="0px"
	 viewBox="0 0 71 80" style="enable-background:new 0 0 71 80;" xml:space="preserve">
<g id="shortcut">
</g>
<g id="file">
	<rect y="57" style="fill:#98C03D;" width="71" height="23"/>
	<g>
		<path style="fill:#FFFFFF;" d="M28.7,61c1.5,0,2.8,0.6,3.9,1.7c1.1,1.1,1.6,2.4,1.6,4c0,1.6-0.5,2.9-1.6,4s-2.4,1.6-3.9,1.6
			c-1.6,0-3-0.6-4-1.7c-1.1-1.1-1.6-2.4-1.6-4c0-1,0.2-2,0.7-2.8c0.5-0.9,1.2-1.5,2.1-2.1C26.7,61.3,27.7,61,28.7,61z M28.7,63
			c-1,0-1.8,0.3-2.5,1c-0.7,0.7-1,1.6-1,2.6c0,1.2,0.4,2.1,1.3,2.8c0.7,0.5,1.4,0.8,2.3,0.8c1,0,1.8-0.4,2.5-1.1s1-1.6,1-2.6
			c0-1-0.3-1.9-1-2.6C30.5,63.4,29.7,63,28.7,63z"/>
		<path style="fill:#FFFFFF;" d="M36.2,61.3h2.4c1.6,0,2.7,0.2,3.5,0.6c0.8,0.4,1.4,1,1.9,1.9c0.5,0.9,0.7,1.9,0.7,3.1
			c0,0.8-0.1,1.6-0.4,2.3c-0.3,0.7-0.7,1.3-1.1,1.7s-1,0.8-1.6,1c-0.6,0.2-1.5,0.3-2.9,0.3h-2.5V61.3z M38.2,63.3v6.8h1
			c0.9,0,1.6-0.1,2-0.3c0.4-0.2,0.8-0.6,1-1.1c0.3-0.5,0.4-1.1,0.4-1.9c0-1.1-0.3-2-1-2.7c-0.6-0.6-1.5-0.9-2.8-0.9H38.2z"/>
		<path style="fill:#FFFFFF;" d="M52.4,62.8l-1.5,1.3c-0.5-0.7-1.1-1.1-1.6-1.1c-0.3,0-0.5,0.1-0.7,0.2c-0.2,0.1-0.3,0.3-0.3,0.5
			s0.1,0.4,0.2,0.5c0.2,0.2,0.7,0.7,1.5,1.4c0.8,0.7,1.3,1.1,1.4,1.2c0.4,0.4,0.7,0.8,0.9,1.2c0.2,0.4,0.3,0.8,0.3,1.3
			c0,0.9-0.3,1.6-0.9,2.2c-0.6,0.6-1.4,0.9-2.4,0.9c-0.8,0-1.4-0.2-2-0.6s-1.1-1-1.5-1.8l1.7-1c0.5,1,1.1,1.4,1.8,1.4
			c0.4,0,0.6-0.1,0.9-0.3c0.2-0.2,0.4-0.4,0.4-0.7c0-0.2-0.1-0.5-0.3-0.7c-0.2-0.2-0.6-0.6-1.2-1.1c-1.2-1-1.9-1.7-2.3-2.2
			c-0.3-0.5-0.5-1-0.5-1.6c0-0.7,0.3-1.4,0.9-1.9c0.6-0.5,1.3-0.8,2.1-0.8c0.5,0,1,0.1,1.5,0.4S51.8,62.1,52.4,62.8z"/>
	</g>
	<path style="fill:#98C03D;" d="M37,5.2v21l19.5-7.7C56.5,18.5,51.7,5.6,37,5.2z"/>
	<g>
		<path d="M34.7,30.2v-21c-11.6,0-21,9.4-21,21c0,11.6,9.4,21,21,21c5.1,0,9.7-1.8,13.3-4.8L34.7,30.2z"/>
		<path d="M55.3,26.2C55.3,26.2,55.3,26.2,55.3,26.2C55.3,26.2,55.3,26.2,55.3,26.2z"/>
		<path d="M49.5,45.1C49.6,45.1,49.6,45,49.5,45.1C49.6,45,49.6,45.1,49.5,45.1z"/>
		<path d="M48.2,46.3C48.1,46.4,48.1,46.4,48.2,46.3C48.1,46.4,48.1,46.4,48.2,46.3z"/>
	</g>
	<path d="M41.4,30.2l19.5-7.7c0,0,6.1,13.7-6.2,23.9L41.4,30.2z"/>
</g>
</svg>
