<?xml version="1.0" encoding="utf-8"?>
<!-- Generator: Adobe Illustrator 21.0.2, SVG Export Plug-In . SVG Version: 6.00 Build 0)  -->
<svg version="1.1" xmlns="http://www.w3.org/2000/svg" xmlns:xlink="http://www.w3.org/1999/xlink" x="0px" y="0px"
	 viewBox="0 0 71 80" style="enable-background:new 0 0 71 80;" xml:space="preserve">
<g id="shortcut">
</g>
<g id="file">
	
		<polygon style="fill:#FFFFFF;stroke:#000000;stroke-width:1.9438;stroke-linecap:round;stroke-linejoin:round;stroke-miterlimit:10;" points="
		20.3,0.6 2.5,66.5 50.2,79.4 65.4,23.2 57.8,10.9 	"/>
	
		<polyline style="fill:#FFFFFF;stroke:#000000;stroke-width:2.039;stroke-linecap:round;stroke-linejoin:round;stroke-miterlimit:10;" points="
		65.1,23.1 53.9,20.1 56.4,11 	"/>
	
		<line style="fill:none;stroke:#000000;stroke-width:1.9443;stroke-linecap:round;stroke-linejoin:round;stroke-miterlimit:10;" x1="39.3" y1="20.3" x2="58.3" y2="25.5"/>
	
		<line style="fill:none;stroke:#000000;stroke-width:1.9443;stroke-linecap:round;stroke-linejoin:round;stroke-miterlimit:10;" x1="19.7" y1="27.4" x2="55.2" y2="37"/>
	
		<line style="fill:none;stroke:#000000;stroke-width:1.9443;stroke-linecap:round;stroke-linejoin:round;stroke-miterlimit:10;" x1="16.6" y1="39" x2="52.1" y2="48.6"/>
	
		<line style="fill:none;stroke:#000000;stroke-width:1.9443;stroke-linecap:round;stroke-linejoin:round;stroke-miterlimit:10;" x1="13.5" y1="50.5" x2="49" y2="60.1"/>
	
		<line style="fill:none;stroke:#000000;stroke-width:1.9443;stroke-linecap:round;stroke-linejoin:round;stroke-miterlimit:10;" x1="10.4" y1="62" x2="37.2" y2="69.3"/>
	<g>
		<path style="fill:#60439A;" d="M32.7,10.6l-3.2,11.7c0,0.1-0.1,0.3-0.1,0.4c0,0.1,0,0.2,0.1,0.3c0.1,0.1,0.2,0.2,0.3,0.3
			c0.1,0.1,0.4,0.2,0.6,0.3c0.2,0.1,0.3,0.3,0.2,0.5c0,0,0,0.1-0.1,0.2c0,0.1-0.1,0.2-0.1,0.2c-0.5-0.2-1-0.3-1.5-0.5
			c-0.5-0.2-1-0.3-1.4-0.4c-0.4-0.1-0.9-0.2-1.4-0.4c-0.5-0.1-1-0.2-1.5-0.3c0-0.1,0-0.1,0-0.2s0-0.2,0-0.2c0-0.1,0.1-0.2,0.1-0.2
			c0.1-0.1,0.2-0.1,0.3-0.1c0.6,0.1,0.9,0.1,1.1,0c0.2-0.1,0.3-0.3,0.4-0.6l3.2-11.7l-2-0.5c-0.4-0.1-0.8-0.2-1.1-0.2
			S26.2,9.2,26,9.3c-0.3,0.1-0.5,0.3-0.8,0.5s-0.5,0.5-0.8,0.8c-0.1,0.1-0.2,0.2-0.4,0.1c-0.1,0-0.2-0.1-0.3-0.1
			c-0.1-0.1-0.2-0.1-0.2-0.2c0.2-0.3,0.4-0.6,0.5-0.9s0.3-0.5,0.4-0.8c0.2-0.3,0.3-0.6,0.4-0.9c0.1-0.3,0.2-0.4,0.3-0.5
			c0.1-0.1,0.2-0.2,0.4-0.1c0.2,0,0.5,0.2,0.9,0.3c0.5,0.2,1,0.4,1.7,0.5l6.8,1.9c0.7,0.2,1.2,0.3,1.7,0.4s0.8,0.2,1,0.2
			c0.2,0,0.3,0.1,0.3,0.3c0,0.1,0,0.3-0.1,0.6s-0.1,0.6-0.1,0.9c0,0.3,0,0.6-0.1,0.9c0,0.3,0,0.6,0,1c-0.1,0-0.2,0-0.3,0
			c-0.1,0-0.2,0-0.3,0c-0.2,0-0.3-0.1-0.3-0.3c-0.1-0.4-0.2-0.8-0.2-1.1c-0.1-0.3-0.2-0.6-0.4-0.8c-0.2-0.2-0.4-0.4-0.7-0.6
			c-0.3-0.2-0.6-0.3-1-0.4L32.7,10.6z"/>
	</g>
</g>
</svg>
