<?xml version="1.0" encoding="utf-8"?>
<!-- Generator: Adobe Illustrator 21.0.2, SVG Export Plug-In . SVG Version: 6.00 Build 0)  -->
<svg version="1.1" xmlns="http://www.w3.org/2000/svg" xmlns:xlink="http://www.w3.org/1999/xlink" x="0px" y="0px"
	 viewBox="0 0 71 80" style="enable-background:new 0 0 71 80;" xml:space="preserve">
<g id="shortcut">
</g>
<g id="file">
	<rect y="56.4" style="fill:#E59B3A;" width="71" height="23"/>
	<g>
		<path style="fill:#FFFFFF;" d="M20.1,61.9h2.2c1.2,0,2,0.1,2.5,0.3c0.5,0.2,0.9,0.6,1.2,1.1c0.3,0.5,0.5,1.1,0.5,1.7
			c0,0.8-0.2,1.4-0.6,1.9c-0.4,0.5-0.9,0.8-1.6,1c-0.4,0.1-1.1,0.2-2.2,0.2v4.6h-2.1V61.9z M22.1,66.1h0.7c0.5,0,0.9,0,1.1-0.1
			c0.2-0.1,0.4-0.2,0.5-0.4c0.1-0.2,0.2-0.4,0.2-0.6c0-0.4-0.2-0.7-0.5-0.9c-0.2-0.1-0.7-0.2-1.3-0.2h-0.6V66.1z"/>
		<path style="fill:#FFFFFF;" d="M28.5,61.9h2.2c1.2,0,2,0.1,2.5,0.3c0.5,0.2,0.9,0.6,1.2,1.1c0.3,0.5,0.5,1.1,0.5,1.7
			c0,0.8-0.2,1.4-0.6,1.9c-0.4,0.5-0.9,0.8-1.6,1c-0.4,0.1-1.1,0.2-2.2,0.2v4.6h-2.1V61.9z M30.5,66.1h0.7c0.5,0,0.9,0,1.1-0.1
			c0.2-0.1,0.4-0.2,0.5-0.4c0.1-0.2,0.2-0.4,0.2-0.6c0-0.4-0.2-0.7-0.5-0.9c-0.2-0.1-0.7-0.2-1.3-0.2h-0.6V66.1z"/>
		<path style="fill:#FFFFFF;" d="M35.8,61.9h6v2h-2v8.8h-2.1V64h-1.9V61.9z"/>
		<path style="fill:#FFFFFF;" d="M42.5,61.9h2.3l2.3,3.5l2.3-3.5h2.3l-3.4,5.2l3.6,5.6h-2.3l-2.5-3.8l-2.5,3.8h-2.3l3.6-5.6
			L42.5,61.9z"/>
	</g>
	<g>
		<g>
			<path d="M64.4,40.7c-3.9,0-7.8,0-11.7,0.1L41,41c-7.8,0.2-15.6,0.2-23.3,0.1l-5.8-0.1l-2.9,0l-1.5,0l-0.7,0c-0.1,0-0.4,0-0.5-0.1
				c-0.2-0.1-0.3-0.2-0.4-0.3c-0.1-0.2-0.2-0.3-0.2-0.5c0-0.2,0-0.3,0-0.4l0-0.7l0-1.5l0.1-2.9l0-5.8c0-3.9,0-7.8,0-11.7
				c0-1.9,0-3.9-0.1-5.8l0-2.9l0-1.5l0-0.4c0-0.2,0-0.4,0.1-0.5c0.2-0.3,0.5-0.5,0.9-0.5C14.4,5.2,22.2,5.1,30,5.1
				C37.8,5,45.5,5,53.3,5l5.8,0l2.9,0l1.5,0l0.7,0l0.1,0c0.1,0,0.1,0,0.2,0c0.1,0,0.2,0.1,0.3,0.1c0.2,0.1,0.4,0.2,0.6,0.4
				c0.1,0.2,0.2,0.4,0.3,0.7c0,0.1,0,0.1,0,0.2l0,0.1l0,0.2l0,0.7l0,1.5l0,2.9l-0.1,5.8l-0.3,11.7c-0.1,1.9,0,3.9-0.1,5.8l0,2.9
				l0,1.5c0,0.2,0,0.5-0.1,0.8C64.9,40.5,64.6,40.7,64.4,40.7z M64.4,40.5c0.2,0,0.4-0.1,0.5-0.3C65,40,65,39.8,65,39.5l0-1.5l0-2.9
				c0-1.9,0-3.9-0.1-5.8l-0.3-11.7l-0.1-5.8l0-2.9l0-1.5l0-0.7l0-0.2l0-0.1c0,0,0,0,0,0c0,0,0,0,0,0l-11.1,0c-7.8,0-15.6,0-23.3-0.1
				c-7.8,0-15.6-0.1-23.3-0.3c-0.1,0-0.2,0.1-0.3,0.2c0,0.1,0,0.1,0,0.2l0,0.4l0,1.5l0,2.9c0,1.9,0,3.9-0.1,5.8c0,3.9,0,7.8,0,11.7
				l0,5.8l0.1,2.9l0,1.5l0,0.7c0,0.1,0,0.3,0,0.3c0,0.1,0,0.1,0.1,0.1c0.1,0.1,0.1,0.1,0.3,0.1l0.7,0l1.5,0l2.9,0l5.8-0.1
				c7.8-0.1,15.6,0,23.3,0.1l11.7,0.3C56.6,40.5,60.5,40.5,64.4,40.5z"/>
		</g>
		<line style="fill:none;stroke:#000000;stroke-width:0.4869;stroke-miterlimit:10;" x1="35.5" y1="40.6" x2="35.5" y2="48.6"/>
		<line style="fill:none;stroke:#000000;stroke-width:0.4869;stroke-miterlimit:10;" x1="24" y1="49" x2="46.5" y2="48.6"/>
		<g>
			<path style="fill:#E59B3A;" d="M15.2,10h1.9l3,11.9h-2.2l-0.6-2.5h-4.7L11.2,22H8.8L15.2,10z M16.7,17.3l-1-3.9l-2.1,3.9H16.7z"
				/>
			<path style="fill:#E59B3A;" d="M29.3,13.1h2.2L30.2,22h-2.1l0.1-0.9c-0.5,0.4-0.9,0.7-1.3,0.9s-0.9,0.3-1.4,0.3
				c-1.2,0-2.1-0.4-2.8-1.3s-1-1.9-1-3c0-0.9,0.2-1.7,0.7-2.5c0.4-0.8,1-1.4,1.8-1.8c0.7-0.4,1.5-0.7,2.3-0.7c0.5,0,1,0.1,1.5,0.4
				c0.5,0.3,0.8,0.6,1.1,1.1L29.3,13.1z M26.1,20.3c0.5,0,1-0.1,1.4-0.4c0.4-0.2,0.7-0.6,1-1.1s0.4-1,0.4-1.6c0-0.7-0.2-1.3-0.6-1.7
				c-0.4-0.4-0.9-0.6-1.6-0.6c-0.8,0-1.4,0.3-2,0.9c-0.5,0.6-0.8,1.3-0.8,2.2c0,0.7,0.2,1.2,0.6,1.7C24.9,20.1,25.4,20.3,26.1,20.3z
				"/>
		</g>
		<rect x="11.5" y="30.5" width="9.2" height="4.4"/>
		<rect x="23.7" y="30.5" style="fill:#E59B3A;" width="9.2" height="4.4"/>
		<rect x="36" y="30.5" width="9.2" height="4.4"/>
		<rect x="48.2" y="30.5" style="fill:#E59B3A;" width="9.2" height="4.4"/>
	</g>
</g>
</svg>
