<?xml version="1.0" encoding="utf-8"?>
<!-- Generator: Adobe Illustrator 21.0.2, SVG Export Plug-In . SVG Version: 6.00 Build 0)  -->
<svg version="1.1" xmlns="http://www.w3.org/2000/svg" xmlns:xlink="http://www.w3.org/1999/xlink" x="0px" y="0px"
	 viewBox="0 0 71 80" style="enable-background:new 0 0 71 80;" xml:space="preserve">
<g id="shortcut">
</g>
<g id="file">
	<g>
		
			<polygon style="fill:none;stroke:#000000;stroke-width:1.4276;stroke-linecap:round;stroke-linejoin:round;stroke-miterlimit:10;" points="
			47.2,9.4 44.1,22.6 59.6,26.2 		"/>
		
			<polygon style="fill:none;stroke:#000000;stroke-width:1.4276;stroke-linecap:round;stroke-linejoin:round;stroke-miterlimit:10;" points="
			47.5,9.4 17.9,2.5 3.5,64.5 48.3,74.9 59.8,25.6 		"/>
	</g>
	<rect y="57" style="fill:#128BC7;" width="71" height="23"/>
	<g>
		<path style="fill:#FFFFFF;" d="M18.4,62.5h2.1v4.1h3.6v-4.1h2.1v10.8h-2.1v-4.7h-3.6v4.7h-2.1V62.5z"/>
		<path style="fill:#FFFFFF;" d="M27.6,62.5h6v2h-2v8.8h-2.1v-8.8h-1.9V62.5z"/>
		<path style="fill:#FFFFFF;" d="M36,62.5h2l2.5,7.5l2.5-7.5h2l1.8,10.8h-2l-1.2-6.8l-2.3,6.8h-1.8l-2.3-6.8l-1.2,6.8h-2L36,62.5z"
			/>
		<path style="fill:#FFFFFF;" d="M48.4,62.5h2.1v8.8h3v2h-5V62.5z"/>
	</g>
	<g>
		<path style="fill:#128BC7;" d="M26.3,38.8l-0.6,2.5L17,33.6l0.6-2.2L28.8,29l-0.6,2.5l-8,1.8L26.3,38.8z"/>
		<path style="fill:#128BC7;" d="M26.2,45.4l11.1-15.9l1.9,0.5L28.2,45.9L26.2,45.4z"/>
		<path style="fill:#128BC7;" d="M39.8,34.5l0.6-2.5l8.6,7.6l-0.6,2.2l-11.2,2.5l0.6-2.5l8-1.8L39.8,34.5z"/>
	</g>
</g>
</svg>
