<?xml version="1.0" encoding="utf-8"?>
<!-- Generator: Adobe Illustrator 21.0.2, SVG Export Plug-In . SVG Version: 6.00 Build 0)  -->
<svg version="1.1" xmlns="http://www.w3.org/2000/svg" xmlns:xlink="http://www.w3.org/1999/xlink" x="0px" y="0px"
	 viewBox="0 0 71 80" style="enable-background:new 0 0 71 80;" xml:space="preserve">
<g id="shortcut">
</g>
<g id="file">
	<g>
		<g>
			
				<polygon style="fill:none;stroke:#000000;stroke-width:1.4276;stroke-linecap:round;stroke-linejoin:round;stroke-miterlimit:10;" points="
				56.2,11.5 51.2,24.2 66,30 			"/>
			
				<polygon style="fill:none;stroke:#000000;stroke-width:1.4276;stroke-linecap:round;stroke-linejoin:round;stroke-miterlimit:10;" points="
				56.5,11.6 28.2,0.5 5,59.8 47.7,76.6 66.2,29.4 			"/>
		</g>
		
			<line style="fill:none;stroke:#60439A;stroke-width:3;stroke-linejoin:round;stroke-miterlimit:10;stroke-dasharray:6;" x1="34.4" y1="3.7" x2="33.2" y2="7"/>
		
			<line style="fill:none;stroke:#60439A;stroke-width:3;stroke-linejoin:round;stroke-miterlimit:10;stroke-dasharray:6;" x1="32.3" y1="9.2" x2="31.1" y2="12.5"/>
		
			<line style="fill:none;stroke:#60439A;stroke-width:3;stroke-linejoin:round;stroke-miterlimit:10;stroke-dasharray:6;" x1="30.2" y1="14.8" x2="29" y2="18.1"/>
		
			<line style="fill:none;stroke:#60439A;stroke-width:3;stroke-linejoin:round;stroke-miterlimit:10;stroke-dasharray:6;" x1="37.3" y1="7.8" x2="36.1" y2="11.1"/>
		
			<line style="fill:none;stroke:#60439A;stroke-width:3;stroke-linejoin:round;stroke-miterlimit:10;stroke-dasharray:6;" x1="35.1" y1="13.7" x2="33.8" y2="16.9"/>
		
			<line style="fill:none;stroke:#60439A;stroke-width:3;stroke-linejoin:round;stroke-miterlimit:10;stroke-dasharray:6;" x1="33.3" y1="18.5" x2="32" y2="21.7"/>
		<path style="fill:#60439A;stroke:#60439A;stroke-width:1.0467;stroke-miterlimit:10;" d="M32.3,31.6l1.5-10.9
			c0-0.3-0.1-0.5-0.4-0.6l-4.9-1.8c-0.3-0.1-0.6,0-0.7,0.2l-6.2,8.2c-0.9,1.2-0.9,2.9,0,4.2c3.2,4.7,7,3.9,9.1,3
			C31.6,33.4,32.2,32.6,32.3,31.6z M25.3,33.5c-2.7-1-4.4-3.1-3.8-4.6s3.2-1.9,5.9-0.9c2.7,1,4.4,3.1,3.8,4.6
			C30.6,34.1,27.9,34.5,25.3,33.5z"/>
	</g>
	<rect y="57" style="fill:#60439A;" width="71" height="23"/>
	<g>
		<path style="fill:#FFFFFF;" d="M26.1,62.5h6.5l-3.8,8.8h3.6v2h-6.6l3.8-8.7h-3.5V62.5z"/>
		<path style="fill:#FFFFFF;" d="M34,62.5h2v10.8h-2V62.5z"/>
		<path style="fill:#FFFFFF;" d="M38.4,62.5h2.2c1.2,0,2,0.1,2.5,0.3c0.5,0.2,0.9,0.6,1.2,1.1c0.3,0.5,0.5,1.1,0.5,1.7
			c0,0.8-0.2,1.4-0.6,1.9c-0.4,0.5-0.9,0.8-1.6,1c-0.4,0.1-1.1,0.2-2.2,0.2v4.6h-2.1V62.5z M40.4,66.7h0.7c0.5,0,0.9,0,1.1-0.1
			c0.2-0.1,0.4-0.2,0.5-0.4c0.1-0.2,0.2-0.4,0.2-0.6c0-0.4-0.2-0.7-0.5-0.9c-0.2-0.1-0.7-0.2-1.3-0.2h-0.6V66.7z"/>
	</g>
</g>
</svg>
