<?xml version="1.0" encoding="utf-8"?>
<!-- Generator: Adobe Illustrator 21.0.2, SVG Export Plug-In . SVG Version: 6.00 Build 0)  -->
<svg version="1.1" xmlns="http://www.w3.org/2000/svg" xmlns:xlink="http://www.w3.org/1999/xlink" x="0px" y="0px"
	 viewBox="0 0 71 80" style="enable-background:new 0 0 71 80;" xml:space="preserve">
<g id="shortcut">
</g>
<g id="file">
	<rect y="57.5" style="fill:#E59B3A;" width="71" height="23"/>
	<g>
		<path style="fill:#FFFFFF;" d="M7.1,63h2.1l2.7,7.7l2.8-7.7h2.1l-3.9,10.8h-2L7.1,63z"/>
		<path style="fill:#FFFFFF;" d="M18.4,63h5.9v2h-3.8V67h3.8v2h-3.8v2.8h3.8v2h-5.9V63z"/>
		<path style="fill:#FFFFFF;" d="M36.1,64.9l-1.4,1.4c-1-1-2.1-1.5-3.3-1.5c-1,0-1.9,0.4-2.6,1.1c-0.7,0.7-1.1,1.6-1.1,2.6
			c0,0.7,0.2,1.4,0.5,1.9c0.3,0.6,0.8,1,1.3,1.3c0.6,0.3,1.2,0.5,1.9,0.5c0.6,0,1.1-0.1,1.6-0.3c0.5-0.2,1-0.6,1.6-1.2l1.4,1.5
			c-0.8,0.8-1.5,1.3-2.3,1.6c-0.7,0.3-1.5,0.5-2.4,0.5c-1.7,0-3-0.5-4.1-1.6c-1.1-1.1-1.6-2.4-1.6-4.1c0-1.1,0.2-2,0.7-2.9
			c0.5-0.8,1.2-1.5,2.1-2s1.9-0.8,2.9-0.8c0.9,0,1.7,0.2,2.6,0.6C34.8,63.7,35.5,64.2,36.1,64.9z"/>
		<path style="fill:#FFFFFF;" d="M36.9,63h6v2h-2v8.8h-2.1V65h-1.9V63z"/>
		<path style="fill:#FFFFFF;" d="M49.3,62.7c1.5,0,2.8,0.6,3.9,1.7c1.1,1.1,1.6,2.4,1.6,4c0,1.6-0.5,2.9-1.6,4
			c-1.1,1.1-2.4,1.6-3.9,1.6c-1.6,0-3-0.6-4-1.7c-1.1-1.1-1.6-2.4-1.6-4c0-1,0.2-2,0.7-2.8s1.2-1.5,2.1-2.1
			C47.4,63,48.3,62.7,49.3,62.7z M49.3,64.8c-1,0-1.8,0.3-2.5,1s-1,1.6-1,2.6c0,1.2,0.4,2.1,1.3,2.8c0.7,0.5,1.4,0.8,2.3,0.8
			c1,0,1.8-0.4,2.5-1.1c0.7-0.7,1-1.6,1-2.6c0-1-0.3-1.9-1-2.6C51.1,65.1,50.3,64.8,49.3,64.8z"/>
		<path style="fill:#FFFFFF;" d="M57,63h2.2c1.2,0,2,0.1,2.5,0.3c0.5,0.2,0.9,0.6,1.2,1.1s0.5,1.1,0.5,1.8c0,0.7-0.2,1.3-0.5,1.8
			c-0.3,0.5-0.9,0.8-1.5,1.1l2.6,4.8h-2.2l-2.4-4.6H59v4.6H57V63z M59,67.2h0.6c0.7,0,1.1-0.1,1.3-0.3c0.2-0.2,0.4-0.5,0.4-0.9
			c0-0.2-0.1-0.4-0.2-0.6s-0.3-0.3-0.5-0.4c-0.2-0.1-0.6-0.1-1.1-0.1H59V67.2z"/>
	</g>
	<path style="stroke:#000000;stroke-miterlimit:10;" d="M50.2,3.6l-4.7-1.8L40.8,0C31,12.3,21.7,13.3,21.7,13.3l5.2,30.7l0.9,0.4
		l4.8-12.3c-0.2-0.2-0.3-0.3-0.5-0.5c-0.5-0.7-0.6-1.7-0.3-2.6c0.6-1.4,2.2-2.2,3.6-1.6c1.4,0.6,2.2,2.2,1.6,3.6
		c-0.4,1.1-1.5,1.8-2.7,1.8L29.7,45l0.9,0.4l24.6-19C55.2,26.4,49,19.3,50.2,3.6z"/>
	<g>
		<path style="fill:#E59B3A;" d="M17,6c1,4.1,1.8,8.2,2.6,12.3c0.8,4.1,1.5,8.2,2,12.4l1.4,12.5c0.5,4.1,1.2,8.3,2.1,12.4l-0.8-0.3
			l5.1-4.3l5.2-4.3c3.5-2.8,7-5.6,10.5-8.4c3.6-2.7,7.1-5.4,10.8-8.1c3.6-2.6,7.3-5.2,11-7.7l0.1,0.2c-3.3,3-6.7,5.9-10.2,8.8
			c-3.4,2.9-6.9,5.7-10.4,8.5c-3.5,2.8-7.1,5.4-10.7,8.1l-5.4,4L24.9,56l-0.7,0.5l-0.1-0.8c-0.5-4.2-1.1-8.3-1.8-12.4L19.9,31
			c-0.7-4.1-1.3-8.3-1.8-12.4c-0.5-4.1-1-8.3-1.3-12.5L17,6z"/>
	</g>
</g>
</svg>
