<?xml version="1.0" encoding="utf-8"?>
<!-- Generator: Adobe Illustrator 22.1.0, SVG Export Plug-In . SVG Version: 6.00 Build 0)  -->
<svg version="1.1" xmlns="http://www.w3.org/2000/svg" xmlns:xlink="http://www.w3.org/1999/xlink" x="0px" y="0px"
	 viewBox="0 0 71 80" style="enable-background:new 0 0 71 80;" xml:space="preserve">
<g id="shortcut">
</g>
<g id="file">
	<g>
		<g>
			<path d="M21.9,0.7l-4.2,16.7c-1.4,5.5-2.8,11-4.3,16.5c-1.4,5.5-2.8,11-4.3,16.4c-1.5,5.4-3,10.9-4.6,16.3L4.2,66l11.9,3.4
				L28,72.7c8,2.1,15.9,4.2,23.9,6.2l-0.6,0.3c2.4-9.4,4.9-18.8,7.3-28.2L62.4,37l3.8-14l0.1,0.6c-2.5-4.1-5-8.2-7.5-12.3l0.4,0.3
				C53,9.8,46.9,8,40.7,6.2L21.9,0.7z M21.8,0.6l18.7,4.7c6.3,1.6,12.6,3.3,19,4.9c0.2,0,0.3,0.1,0.4,0.3l0,0
				c2.6,4.1,5.1,8.2,7.7,12.2c0.1,0.2,0.1,0.4,0.1,0.6l-3.8,14.1l-3.9,14c-2.6,9.4-5.2,18.7-7.9,28l0,0c-0.1,0.2-0.3,0.4-0.6,0.3
				c-7.9-2.3-15.8-4.5-23.8-6.7L15.9,70l-12-3.1c-0.2-0.1-0.4-0.3-0.3-0.6l0,0C5,60.8,6.4,55.3,7.9,49.7c1.5-5.6,3-11,4.6-16.6
				c1.5-5.5,3.1-11,4.7-16.4L21.8,0.6z"/>
		</g>
		<g>
			<path d="M66.7,23.1c-2-0.1-3.9-0.4-5.8-0.7C58.9,22,57,21.6,55.2,21l0,0c-0.5-0.1-0.8-0.7-0.7-1.2l0,0c0.4-1.5,0.9-3,1.5-4.5
				c0.3-0.7,0.6-1.5,0.9-2.2c0.3-0.7,0.7-1.4,1-2.2c0,0.8-0.1,1.6-0.2,2.4c-0.1,0.8-0.2,1.6-0.3,2.3c-0.3,1.6-0.6,3.1-1,4.6
				l-0.7-1.2c1.9,0.5,3.7,1,5.6,1.7C63.1,21.4,64.9,22.2,66.7,23.1z"/>
		</g>
		
			<line style="fill:none;stroke:#000000;stroke-width:1.5;stroke-linecap:round;stroke-linejoin:round;stroke-miterlimit:10;" x1="40.9" y1="20.3" x2="59.9" y2="25.5"/>
		
			<line style="fill:none;stroke:#000000;stroke-width:1.5;stroke-linecap:round;stroke-linejoin:round;stroke-miterlimit:10;" x1="21.3" y1="27.4" x2="56.8" y2="37"/>
		
			<line style="fill:none;stroke:#000000;stroke-width:1.5;stroke-linecap:round;stroke-linejoin:round;stroke-miterlimit:10;" x1="18.2" y1="39" x2="53.6" y2="48.6"/>
		
			<line style="fill:none;stroke:#000000;stroke-width:1.5;stroke-linecap:round;stroke-linejoin:round;stroke-miterlimit:10;" x1="15.1" y1="50.5" x2="50.5" y2="60.1"/>
		
			<line style="fill:none;stroke:#000000;stroke-width:1.9443;stroke-linecap:round;stroke-linejoin:round;stroke-miterlimit:10;" x1="11.9" y1="62" x2="38.7" y2="69.3"/>
		<g>
			
				<path style="fill:#E59B3A;stroke:#E59B3A;stroke-width:1.5;stroke-linecap:round;stroke-linejoin:round;stroke-miterlimit:10;" d="
				M34.2,10.6L31,22.3c0,0.1-0.1,0.3-0.1,0.4c0,0.1,0,0.2,0.1,0.3c0.1,0.1,0.2,0.2,0.3,0.3s0.4,0.2,0.6,0.3c0.2,0.1,0.3,0.3,0.2,0.5
				c0,0,0,0.1-0.1,0.2c0,0.1-0.1,0.2-0.1,0.2c-0.5-0.2-1-0.3-1.5-0.5c-0.5-0.2-1-0.3-1.4-0.4c-0.4-0.1-0.9-0.2-1.4-0.4
				c-0.5-0.1-1-0.2-1.5-0.3c0-0.1,0-0.1,0-0.2c0-0.1,0-0.2,0-0.2c0-0.1,0.1-0.2,0.1-0.2c0.1-0.1,0.2-0.1,0.3-0.1
				c0.6,0.1,0.9,0.1,1.1,0c0.2-0.1,0.3-0.3,0.4-0.6l3.2-11.7l-2-0.5c-0.4-0.1-0.8-0.2-1.1-0.2c-0.3,0-0.6,0.1-0.9,0.2
				c-0.3,0.1-0.5,0.3-0.8,0.5c-0.2,0.2-0.5,0.5-0.8,0.8c-0.1,0.1-0.2,0.2-0.4,0.1c-0.1,0-0.2-0.1-0.3-0.1c-0.1-0.1-0.2-0.1-0.2-0.2
				c0.2-0.3,0.4-0.6,0.5-0.9c0.1-0.3,0.3-0.5,0.4-0.8c0.2-0.3,0.3-0.6,0.4-0.9c0.1-0.3,0.2-0.4,0.3-0.5c0.1-0.1,0.2-0.2,0.4-0.1
				c0.2,0,0.5,0.2,0.9,0.3c0.5,0.2,1,0.4,1.7,0.5l6.8,1.9c0.7,0.2,1.2,0.3,1.7,0.4s0.8,0.2,1,0.2c0.2,0,0.3,0.1,0.3,0.3
				c0,0.1,0,0.3-0.1,0.6s-0.1,0.6-0.1,0.9c0,0.3,0,0.6-0.1,0.9c0,0.3,0,0.6,0,1c-0.1,0-0.2,0-0.3,0c-0.1,0-0.2,0-0.3,0
				c-0.2,0-0.3-0.1-0.3-0.3c-0.1-0.4-0.2-0.8-0.2-1.1c-0.1-0.3-0.2-0.6-0.4-0.8c-0.2-0.2-0.4-0.4-0.7-0.6c-0.3-0.2-0.6-0.3-1-0.4
				L34.2,10.6z"/>
		</g>
	</g>
</g>
</svg>
