<?xml version="1.0" encoding="utf-8"?>
<!-- Generator: Adobe Illustrator 22.1.0, SVG Export Plug-In . SVG Version: 6.00 Build 0)  -->
<svg version="1.1" xmlns="http://www.w3.org/2000/svg" xmlns:xlink="http://www.w3.org/1999/xlink" x="0px" y="0px"
	 viewBox="0 0 71 80" style="enable-background:new 0 0 71 80;" xml:space="preserve">
<g id="shortcut">
	<g>
		<g>
			<path d="M62.3,23.2l-0.1-3.3c0-0.6-0.1-1.1-0.5-1.4c-0.4-0.4-0.8-0.5-1.4-0.5c-2.2,0-4.5,0.1-6.7,0.2l-13.4,0.3l-6.7,0.1l-3.3,0
				l-1.7,0c-0.2,0-0.7,0-1-0.1c-0.4-0.1-0.7-0.3-1-0.6c-0.1-0.1-0.3-0.3-0.4-0.4L26,17.1l-0.4-0.7l-0.9-1.4c-0.3-0.5-0.6-1-0.8-1.2
				c-0.1-0.1-0.3-0.2-0.5-0.2c-0.1,0-0.2,0-0.3,0l-0.4,0l-3.3,0l-1.7,0l-0.8,0l-0.4,0c-0.1,0-0.2,0-0.3,0c-0.2,0-0.3,0.1-0.4,0.3
				c-0.1,0.1-0.1,0.1-0.2,0.2l-0.2,0.3l-0.9,1.4l-0.9,1.4c-0.1,0.2-0.3,0.6-0.6,0.8c-0.3,0.2-0.6,0.4-1,0.5c-0.2,0-0.4,0.1-0.6,0.1
				l-0.4,0l-0.8,0l-1.7,0l-1.7,0c-0.3,0-0.6,0-0.7,0c-0.2,0-0.3,0.1-0.5,0.2c-0.3,0.2-0.4,0.6-0.4,1l0,1.7l0,3.3l-0.1,6.7L4.9,58.4
				l-0.6-0.1c1.7-7.7,3.4-15.3,5-23l1.2-5.8l0.6-2.9l0.3-1.4c0.1-0.5,0.4-1.1,0.9-1.4c0.2-0.2,0.5-0.3,0.8-0.3c0.3-0.1,0.6,0,0.8,0
				l1.5,0l2.9,0l5.9-0.1l23.6-0.2L59.5,23l2.9,0l1.5,0l0.7,0c0.3,0,0.7,0.1,1,0.2c0.6,0.3,1.1,0.8,1.4,1.5c0.1,0.3,0.1,0.7,0.1,1
				c0,0.4-0.1,0.5-0.1,0.8l-0.5,2.9c-1.3,7.7-2.7,15.5-4.1,23.2l-1,5.8l-0.1,0.4c0,0.2-0.1,0.3-0.2,0.5c-0.1,0.3-0.4,0.6-0.6,0.8
				c-0.3,0.2-0.6,0.4-0.9,0.5c-0.2,0.1-0.3,0.1-0.5,0.1c-0.1,0-0.2,0-0.3,0l-0.2,0l-2.9,0l-11.8-0.1l-23.6-0.2L8.6,60.3l-1.5,0
				c-0.5,0-1.1-0.1-1.5-0.4c-0.5-0.2-0.9-0.6-1.1-1.1c0-0.1-0.1-0.3-0.1-0.4l0-0.4l0-0.7l0.1-5.9c0,0,0-0.1,0.1-0.1
				c0,0,0.1,0,0.1,0.1l0.1,5.9l0,0.7l0,0.4c0,0.1,0,0.2,0.1,0.3C5,59,5.4,59.3,5.8,59.5c0.4,0.2,0.8,0.3,1.3,0.3l1.5,0l11.8-0.2
				l23.6-0.2l11.8-0.1l2.9,0l0.2,0l0.1,0c0.1,0,0.1,0,0.2,0c0.1,0,0.3-0.1,0.4-0.2c0.1-0.1,0.2-0.2,0.2-0.3c0-0.1,0.1-0.1,0.1-0.2
				l0.1-0.3l1-5.8c1.3-7.7,2.7-15.5,4.1-23.2l0.5-2.9c0-0.2,0.1-0.5,0.1-0.7c0-0.1,0-0.3,0-0.4c-0.1-0.3-0.3-0.5-0.6-0.6
				c-0.1-0.1-0.3-0.1-0.4-0.1l-0.7,0l-1.5,0l-2.9,0l-11.8-0.1l-23.6-0.2L18.3,24l-2.9,0l-1.5,0c-0.5,0-0.9,0-1.2,0.3
				c-0.3,0.2-0.6,0.6-0.6,1.1l-0.3,1.4L11,29.6l-1.3,5.8c-1.7,7.7-3.3,15.4-4.9,23c0,0.2-0.2,0.3-0.3,0.2c-0.1,0-0.2-0.2-0.2-0.3
				L4,31.6L4,24.9l0-3.3l0-1.7c0-0.7,0.3-1.5,0.9-2c0.3-0.2,0.6-0.4,1-0.5c0.4-0.1,0.7,0,0.9-0.1l1.7,0l1.7,0l0.8,0l0.4,0
				c0.1,0,0.2,0,0.3,0c0.2,0,0.3-0.1,0.5-0.2c0.1-0.1,0.2-0.2,0.4-0.5l0.9-1.4l0.9-1.4l0.2-0.4c0.1-0.2,0.2-0.3,0.4-0.4
				c0.3-0.3,0.6-0.5,1-0.6c0.2-0.1,0.4-0.1,0.6-0.1l0.4,0l0.8,0l1.7,0l3.3,0l0.4,0c0.2,0,0.4,0,0.6,0.1c0.4,0.1,0.7,0.3,1,0.5
				c0.3,0.2,0.5,0.6,0.6,0.8l0.4,0.7l0.9,1.4l0.4,0.7l0.2,0.3c0,0.1,0.1,0.2,0.2,0.2c0.1,0.1,0.3,0.2,0.5,0.3
				c0.2,0.1,0.3,0.1,0.7,0.1l1.7,0l3.3,0l6.7,0l13.4,0.1c2.2,0,4.5,0,6.7,0.1c0.6,0,1.2,0.2,1.6,0.6c0.4,0.4,0.6,1.1,0.5,1.7
				l-0.1,3.3C62.4,23.2,62.4,23.2,62.3,23.2C62.3,23.2,62.3,23.2,62.3,23.2z"/>
		</g>
		<g>
			<path style="fill:#E59B3A;" d="M61.7,43.9c-2.6-2.5-6-3.8-9.6-3.7c-3.6,0.1-6.9,1.6-9.4,4.2c-2.5,2.6-3.8,6-3.7,9.6
				c0.1,3.6,1.6,6.9,4.2,9.4c2.6,2.5,6,3.8,9.6,3.7c3.6-0.1,6.9-1.6,9.4-4.2c2.5-2.6,3.8-6,3.7-9.6S64.4,46.4,61.7,43.9L61.7,43.9z
				 M64.7,52.7l-5.2,0.2c-0.1-2.1-0.5-4.1-1-5.8c1-0.5,1.9-1.2,2.7-2C63.2,47.1,64.5,49.7,64.7,52.7L64.7,52.7z M53.1,54.3l5.2-0.2
				c0,1.9-0.2,3.8-0.6,5.4c-1.4-0.5-2.9-0.8-4.5-0.8L53.1,54.3z M60.3,44.2c-0.7,0.6-1.4,1.2-2.2,1.7c-0.2-0.6-0.5-1.1-0.8-1.6
				c-0.6-1-1.2-1.8-1.8-2.5C57.3,42.2,58.9,43.1,60.3,44.2L60.3,44.2z M52.7,41.6c1.3,0.2,2.5,1.4,3.5,3.2c0.3,0.5,0.5,1,0.7,1.6
				c-1.3,0.6-2.6,0.9-4.1,1L52.7,41.6z M57.4,47.6c0.5,1.6,0.8,3.4,0.9,5.3l-5.2,0.2L53,48.7C54.5,48.6,56,48.2,57.4,47.6L57.4,47.6
				z M51.9,53.1l-5.2,0.2c0-1.9,0.2-3.7,0.6-5.4c1.4,0.5,2.9,0.8,4.5,0.8L51.9,53.1L51.9,53.1z M51.5,41.6l0.2,5.9
				c-1.4,0-2.8-0.3-4.1-0.8c0.2-0.6,0.4-1.1,0.6-1.7C49.1,43.1,50.3,42,51.5,41.6L51.5,41.6z M48.8,42c-0.6,0.7-1.2,1.5-1.7,2.6
				c-0.2,0.5-0.5,1.1-0.7,1.7c-0.8-0.4-1.6-0.9-2.3-1.5C45.5,43.5,47.1,42.5,48.8,42L48.8,42z M43.3,45.6c0.9,0.7,1.8,1.3,2.8,1.8
				c-0.5,1.8-0.7,3.8-0.7,5.9l-5.2,0.2C40.3,50.4,41.4,47.7,43.3,45.6L43.3,45.6z M40.3,54.7l5.2-0.2c0.1,2.1,0.5,4.1,1,5.9
				c-1,0.5-1.9,1.2-2.7,2C41.8,60.4,40.5,57.7,40.3,54.7L40.3,54.7z M44.7,63.2c0.7-0.6,1.4-1.2,2.2-1.6c0.2,0.6,0.5,1.1,0.7,1.6
				c0.6,1,1.2,1.8,1.8,2.5C47.7,65.2,46.1,64.3,44.7,63.2L44.7,63.2z M52.2,65.8c-1.3-0.2-2.5-1.4-3.5-3.2c-0.3-0.5-0.5-1-0.7-1.6
				c1.3-0.6,2.6-0.9,4.1-1L52.2,65.8z M47.6,59.8c-0.5-1.6-0.8-3.5-0.9-5.4l5.2-0.2l0.1,4.4C50.5,58.9,49,59.2,47.6,59.8L47.6,59.8z
				 M53.5,65.8l-0.2-5.8c1.4,0,2.8,0.3,4.1,0.8c-0.2,0.6-0.4,1.1-0.6,1.6C55.9,64.3,54.7,65.4,53.5,65.8L53.5,65.8z M56.2,65.4
				c0.6-0.7,1.2-1.5,1.7-2.6c0.2-0.5,0.5-1.1,0.7-1.6c0.8,0.4,1.6,0.9,2.3,1.5C59.5,63.9,57.9,64.9,56.2,65.4L56.2,65.4z M61.7,61.8
				c-0.9-0.7-1.8-1.3-2.8-1.8c0.5-1.8,0.7-3.8,0.7-5.9l5.2-0.2C64.7,57,63.6,59.7,61.7,61.8L61.7,61.8z M61.7,61.8"/>
		</g>
	</g>
</g>
<g id="file">
</g>
</svg>
