<?xml version="1.0" encoding="utf-8"?>
<!-- Generator: Adobe Illustrator 21.0.2, SVG Export Plug-In . SVG Version: 6.00 Build 0)  -->
<svg version="1.1" xmlns="http://www.w3.org/2000/svg" xmlns:xlink="http://www.w3.org/1999/xlink" x="0px" y="0px"
	 viewBox="0 0 71 80" style="enable-background:new 0 0 71 80;" xml:space="preserve">
<g id="shortcut">
</g>
<g id="file">
	<g>
		<path d="M66.3,15.9c-2.4,1.5-4.7,3-6.9,4.5c-2.2,1.5-4.4,2.9-6.5,4.2c-0.4,0.3-0.9,0.1-1.2-0.3c-0.1-0.1-0.1-0.3-0.1-0.4l0-0.1
			L51.2,14c0-1.3-0.7-2.5-1.8-3.2c-0.5-0.4-1.1-0.6-1.7-0.7c-0.2,0-0.3,0-0.5,0l-0.2,0l-0.3,0l-1.2,0C39,10.2,32.5,10.2,26,10
			l-9.8-0.3l-4.9-0.2l-1.2,0c-0.4,0-0.7,0-1.1,0.1c-0.7,0.1-1.4,0.4-2,0.8c-1.2,0.9-1.9,2.3-1.9,3.8l0,4.9c0,3.3,0,6.5,0.1,9.8
			c0,3.3,0.1,6.5,0.2,9.8l0.1,4.9c0,1.4,0.7,2.7,1.8,3.4c0.5,0.4,1.2,0.6,1.8,0.8c0.3,0,0.6,0.1,1,0l1.2,0l4.9-0.1
			c3.3-0.1,6.5-0.1,9.8-0.2l19.5-0.2l1.2,0l0.3,0l0.2,0c0.1,0,0.3,0,0.4,0c0.6-0.1,1.1-0.3,1.5-0.7c0.9-0.7,1.5-1.8,1.5-2.9l0.1-9.7
			l0,0c0-0.8,0.7-1.5,1.5-1.5c0.3,0,0.5,0.1,0.7,0.2c4.6,2.8,9.2,5.5,13.8,8.3l-1.7,1c0-2.1,0.1-4.2,0.2-6.3l0.3-6.4l0.3-6.6
			L66.3,15.9z M66.4,15.6l0.3,6.3l0.3,6.5l0.3,6.7c0.1,2.3,0.2,4.5,0.2,6.8c0,0.6-0.5,1.2-1.1,1.2c-0.2,0-0.4,0-0.6-0.1l-0.1,0
			c-4.7-2.6-9.4-5.2-14.1-7.8l2.2-1.3l0.1,9.8c0,2.1-1.1,4.2-2.8,5.4c-0.9,0.6-1.9,1.1-2.9,1.2c-0.3,0-0.5,0.1-0.8,0.1l-0.4,0
			l-0.3,0l-1.2,0L26,50.3c-3.3,0-6.5-0.1-9.8-0.2L11.3,50l-1.2,0c-0.4,0-1-0.1-1.4-0.2c-1-0.2-1.9-0.7-2.6-1.3
			c-1.5-1.2-2.4-3.2-2.3-5l0.1-4.9c0.1-3.3,0.2-6.5,0.2-9.8c0.1-3.3,0.1-6.5,0.1-9.8l0-4.9c-0.1-1.8,0.8-3.6,2.2-4.7
			c0.7-0.6,1.5-1,2.4-1.2c0.4-0.1,0.9-0.1,1.3-0.2l1.2,0l4.9-0.2L26,7.6c6.5-0.2,13-0.1,19.5-0.1l1.2,0l0.3,0l0.4,0
			c0.3,0,0.5,0,0.8,0.1c1,0.2,1.9,0.6,2.7,1.2c1.6,1.2,2.6,3.2,2.6,5.2c-0.1,3.3-0.2,6.5-0.2,9.8L51.9,23c2.5-1.3,5-2.6,7.4-3.8
			C61.8,18,64.2,16.8,66.4,15.6z"/>
	</g>
	<g>
		<path style="fill:#60439A;" d="M22.4,19.8c0.1,2.7,0.3,5.3,0.3,7.8c0,1.3,0.1,2.5,0.1,3.7c0,1.2-0.1,2.5-0.1,3.7l-0.5-0.3
			c1.4-0.6,2.8-1.1,4.2-1.8c1.4-0.6,2.8-1.3,4.1-2l4.1-2.1c1.4-0.7,2.7-1.3,4.1-2v0.9c-2.7-1.2-5.4-2.4-8.1-3.8L22.4,19.8z
			 M22.3,19.7l4.1,1.7l4.2,1.7c2.8,1.2,5.7,2.5,8.5,3.9l0,0c0.2,0.1,0.3,0.4,0.2,0.6c-0.1,0.1-0.1,0.2-0.2,0.2
			c-1.4,0.6-2.8,1.2-4.2,1.8l-4.2,1.8c-1.4,0.6-2.8,1.2-4.2,1.9s-2.7,1.4-4.1,2.1c-0.2,0.1-0.3,0-0.4-0.1c0,0,0-0.1,0-0.1l0,0
			c-0.1-1.3-0.1-2.6-0.1-3.9c0-1.3,0-2.6,0.1-3.9C22.1,24.6,22.2,22.1,22.3,19.7z"/>
	</g>
	<rect y="57" style="fill:#60439A;" width="71" height="23"/>
	<g>
		<path style="fill:#FFFFFF;" d="M27.1,62.5h2.1l4.1,10.8h-2.1l-0.8-2.2H26l-0.9,2.2H23L27.1,62.5z M28.2,65.4l-1.4,3.7h2.9
			L28.2,65.4z"/>
		<path style="fill:#FFFFFF;" d="M34.1,62.5h2.1l2.7,7.7l2.8-7.7h2.1l-3.9,10.8h-2L34.1,62.5z"/>
		<path style="fill:#FFFFFF;" d="M45.3,62.5h2v10.8h-2V62.5z"/>
	</g>
</g>
</svg>
