<?xml version="1.0" encoding="utf-8"?>
<!-- Generator: Adobe Illustrator 22.1.0, SVG Export Plug-In . SVG Version: 6.00 Build 0)  -->
<svg version="1.1" xmlns="http://www.w3.org/2000/svg" xmlns:xlink="http://www.w3.org/1999/xlink" x="0px" y="0px"
	 viewBox="0 0 71 80" style="enable-background:new 0 0 71 80;" xml:space="preserve">
<g id="shortcut">
</g>
<g id="file">
	<g>
		
			<circle style="fill:#128BC7;stroke:#128BC7;stroke-width:6.4418;stroke-linecap:round;stroke-miterlimit:10;" cx="35.5" cy="40" r="28.1"/>
		<g>
			<path style="opacity:0.78;fill:#4D4D4D;" d="M21,17.1v31c0,0,1,6.5,7.8,8.1c0.1,0,0.2,0,0.3,0h15.9c0.1,0,0.1,0,0.2,0
				c0.9-0.2,6.4-1.6,7.1-7.2V35.8c0,0,1.1-5.5-7.4-8.2c-0.1,0-0.2-0.1-0.3-0.1l-14.8,0.1c0,0-0.7,6.6,9,7.9h3.9c0,0,1-0.3,1.5,1.1
				c0.5,1.4,0.5,9.7,0.5,9.7s0.3,2.2-1.2,2.2c-1.5,0-12.3,0.1-12.3,0.1s-2.4,0.2-2.7-1.7c-0.2-2,0.1-21.5,0.1-21.5
				S27.6,16.2,21,17.1z"/>
			<path style="fill:#FFFFFF;" d="M19.7,18.4v31c0,0,1,6.5,7.8,8.1c0.1,0,0.2,0,0.3,0h15.9c0.1,0,0.1,0,0.2,0
				c0.9-0.2,6.4-1.6,7.1-7.2V37c0,0,1.1-5.5-7.4-8.2c-0.1,0-0.2-0.1-0.3-0.1l-14.8,0.1c0,0-0.7,6.6,9,7.9h3.9c0,0,1-0.3,1.5,1.1
				c0.5,1.4,0.5,9.7,0.5,9.7s0.3,2.2-1.2,2.2c-1.5,0-12.3,0.1-12.3,0.1s-2.4,0.2-2.7-1.7c-0.2-2,0.1-21.5,0.1-21.5
				S26.3,17.4,19.7,18.4z"/>
		</g>
	</g>
</g>
</svg>
