<svg id="a80e52ae-981b-41c0-b548-393f0eb7c576" data-name="data" xmlns="http://www.w3.org/2000/svg" viewBox="0 0 134 134">
  <defs>
    <style>
      .aabad61e-a65f-4ecd-b1e6-98e3b1e4c914 {
        fill: var(--secondary-color);
        stroke: var(--secondary-color);
      }

      .a4d6969f-0de1-4e5e-97cd-94da1121bc6d, .aabad61e-a65f-4ecd-b1e6-98e3b1e4c914 {
        stroke-miterlimit: 10;
        stroke-width: 4px;
      }

      .a4d6969f-0de1-4e5e-97cd-94da1121bc6d {
        fill: #fff;
        stroke: var(--primary-color);
      }
    </style>
  </defs>
  <g id="b62ff8e8-8b58-47a8-82bc-3ce122e54352" data-name="BlogPosts">
    <path class="aabad61e-a65f-4ecd-b1e6-98e3b1e4c914" d="M126.92,100.08l-.16-26.62q0-16.62-16.62-16.62h-9.85V31.6C100.29,20.52,87.06,7.28,76,7.28H26.42C15,7.28,2,20.36,2.11,31.6v76c0,11.07,13.23,24.31,24.31,24.31h69C116.6,132.24,126.91,120.09,126.92,100.08Z"/>
    <path class="a4d6969f-0de1-4e5e-97cd-94da1121bc6d" d="M131.74,66.58q0-16.2-16.21-16.2h-9.6V25.77C105.93,15,93,2.06,82.22,2.06H33.9C22.79,2.06,10,14.81,10.19,25.77V99.9c0,10.81,12.91,23.71,23.72,23.72h67.23c20.71.3,30.76-11.56,30.76-31.06ZM47.25,33.42H77.57c3.6,0,6.6,3,7.05,7,.15,3.76-3,6.61-7.05,7.06H47.26c-3.61,0-6.61-3-7.06-7.06C40.2,36.87,43.2,33.87,47.25,33.42Zm45,63.93L49.8,97.2c-5.1,0-9.6-4.5-9.45-9.45s4.5-9.61,9.45-9.46H92.12c5.11,0,9.61,4.5,9.46,9.46S97.23,97.2,92.27,97.35Z"/>
  </g>
</svg>
