<svg xmlns="http://www.w3.org/2000/svg" viewBox="0 0 71 80"><title>icones_ressources1</title><g id="file"><path d="M9.36,31.24v-.09h0a1.68,1.68,0,0,1,.93-.19l.94,0c.62,0,1.24.06,1.86.11,1.25.1,2.48.29,3.71.51a35.16,35.16,0,0,1,3.65.86c1.21.35,2.37.8,3.54,1.21l.08,0c.81.39,1.84.79,2.72,1.27s1.79,1,2.65,1.56a29.94,29.94,0,0,1,4.84,3.79c.74.71,1.45,1.43,2.14,2.17s1.32,1.59,1.93,2.4a37.89,37.89,0,0,1,3.22,5.19l0,0c.57,1.35,1.22,2.67,1.76,4s.92,2.8,1.3,4.22L45,59.42a4.82,4.82,0,0,1,.1.57c0,.2,0,.39,0,.56.06.69.19,1.44.28,2.16a38,38,0,0,1,.33,4.41v.1l-.09.08a.48.48,0,0,1-.32.09H44.1l-1.32,0-2.65,0-2.65,0-1.33,0H35a.74.74,0,0,1-.41-.11l-.21-.16,0-.25,0-.14V67a25.31,25.31,0,0,0-1.93-9.26,25.53,25.53,0,0,0-5.2-7.89A25.73,25.73,0,0,0,10.43,42h-.06c-.23-.08-.59,0-1-.09l-.15,0v-.16c0-1.74.1-3.48.11-5.22S9.37,33,9.36,31.24Zm.1,0c0,.86,0,1.74,0,2.6l0,2.62c0,1.74.07,3.48.11,5.22l-.15-.2c.24.08.57-.05,1,0h-.06A24.45,24.45,0,0,1,28.07,49.1,25.19,25.19,0,0,1,31.18,53c.44.71.82,1.42,1.22,2.14a21.5,21.5,0,0,1,1,2.24A25.07,25.07,0,0,1,35.27,67V67l0,.15-.17-.41a.13.13,0,0,0-.09,0h2.5l2.65,0,2.65,0,1.32,0h1a1,1,0,0,1,.17,0s0,0,0,0l-.09.17A31.69,31.69,0,0,0,45,62.75c-.09-.74-.2-1.43-.26-2.2a2.81,2.81,0,0,0-.07-1l-.25-1.07a35.92,35.92,0,0,0-1.33-4.16c-.57-1.35-1.22-2.66-1.85-4l0,0a39.3,39.3,0,0,0-3.39-5c-.63-.78-1.31-1.51-2-2.26s-1.42-1.44-2.15-2.12A38.43,38.43,0,0,0,29,37.23c-.83-.56-1.68-1.09-2.56-1.57s-1.73-.9-2.72-1.43l.08,0c-1.16-.48-2.29-1-3.47-1.39s-2.36-.74-3.56-1a28.67,28.67,0,0,0-3.67-.61c-.62-.06-1.24-.11-1.86-.14l-.93,0a1.63,1.63,0,0,0-.88.15l0,0Z"/><path d="M24.17,61.5a8.36,8.36,0,0,1-3.28,4.83,6.62,6.62,0,0,1-2.83,1.16A7.52,7.52,0,0,1,15,67.32a7.82,7.82,0,0,1-4.62-3.7,8.36,8.36,0,0,1-1-5.78,7.55,7.55,0,0,1,3.4-4.92,7.67,7.67,0,0,1,6-1,7.32,7.32,0,0,1,4.75,3.71A8.59,8.59,0,0,1,24.17,61.5Zm-.09,0a7.75,7.75,0,0,0,0-2.88A7,7,0,0,0,23,56a7.63,7.63,0,0,0-4.43-3,7.11,7.11,0,0,0-5.26.73A7.33,7.33,0,0,0,9.93,58a6.81,6.81,0,0,0,.73,5.49,6.92,6.92,0,0,0,4.54,3.05,8.68,8.68,0,0,0,2.74.11,8.45,8.45,0,0,0,2.63-.82A6.87,6.87,0,0,0,24.08,61.48Z" fill="#e59b3a"/><path d="M56.24,39.49l1,1.85.95,1.9,1,1.89c.31.64.53,1.31.81,2,.52,1.31,1.06,2.63,1.48,4s.81,2.74,1.17,4.06v0h0c.37,1.88.8,3.74,1,5.65a49.87,49.87,0,0,1,.43,5.73c0,.14,0,.19,0,.41a.72.72,0,0,1-.18.4.64.64,0,0,1-.41.18c-.32,0-.5,0-.76,0H61.35l-2.86,0H53.13a.75.75,0,0,1-.35,0,.63.63,0,0,1-.35-.41l0-.08v0c0-1,0-2.08-.08-3.11s-.24-2.07-.38-3.11-.28-2.07-.51-3.08-.47-2-.76-3l.13.17a1.15,1.15,0,0,1-.45-.72l-.19-.61-.41-1.23c-.29-.82-.6-1.62-.94-2.42a27.7,27.7,0,0,0-2.36-4.6l0,0v0a.51.51,0,0,0-.11-.3l-.2-.32-.41-.63-.82-1.26c-.57-.83-1.16-1.64-1.8-2.42s-1.29-1.53-2-2.29S39.74,36.5,39,35.81A40.47,40.47,0,0,0,34.34,32c-.83-.55-1.71-1.05-2.56-1.57l-1.29-.78-.65-.39c-.17-.13-.42-.13-.72-.39l.07.05a45.16,45.16,0,0,0-6.42-2.6c-1.1-.34-2.21-.65-3.33-.9-.56-.13-1.13-.25-1.69-.35l-.86-.15-.45-.08a1,1,0,0,1-.6-.37l.29.16-2.62-.25c-.87-.11-1.74-.12-2.61-.18h-.07a4.7,4.7,0,0,0-.67,0H9.62A.64.64,0,0,1,9.06,24L9,23.79v-.11l0-10.49c0-.06,0-.12,0-.22a.66.66,0,0,1,.28-.5.69.69,0,0,1,.43-.13h.85l1.32,0c.88,0,1.76.09,2.64.18,1.74.14,3.54.43,5.2.7h.06c2.12.5,4.27,1,6.37,1.65q1.57.51,3.12,1.11c1,.38,2.07.87,3,1.27l0,0c1.34.7,2.7,1.36,4,2.13.66.38,1.31.77,1.95,1.18l1.88,1.24,0,0h0c1.12.85,2.25,1.68,3.34,2.59s2.13,1.84,3.14,2.81,2,2,2.93,3.05,1.81,2.15,2.7,3.23h0l2,2.93c.34.49.7,1,1,1.48Zm-.08,0-1-1.5c-.31-.5-.68-1-1-1.46l-2.08-2.89h0c-.91-1.07-1.8-2.15-2.78-3.15s-2-2-3-2.93-2.11-1.83-3.22-2.68-2.26-1.64-3.4-2.45l0,0c-.68-.4-1.28-.8-1.93-1.18s-1.28-.77-1.94-1.13c-1.3-.72-2.67-1.34-4-2l.06,0L28.84,17c-1-.38-2-.74-3.05-1.07-2.05-.67-4.18-1.11-6.3-1.6h.06c-1.79-.29-3.44-.55-5.19-.69-.86-.07-1.72-.14-2.59-.18l-1.29,0-.66,0H9.69s0,0,.12-.06.14-.24.14-.21v.1L9.89,23.68l-.1-.28c0-.08-.25-.14-.23-.12h.58a4.84,4.84,0,0,1,.83,0H10.9c.89.07,1.79.09,2.67.21l2.65.31.17,0,.11.15s0,.05.13.07l.4.08.87.17q.86.16,1.71.39c1.14.28,2.27.61,3.37,1a44.85,44.85,0,0,1,6.45,2.76l.05,0,0,0c.08.11.36.17.6.33l.64.4L32,30c.85.55,1.72,1.07,2.55,1.64a44.46,44.46,0,0,1,4.66,3.89c.73.7,1.45,1.41,2.13,2.15s1.33,1.55,2,2.32,1.26,1.59,1.84,2.41L46,43.71l.41.64.2.31a1,1,0,0,1,.12.2c0,.1,0,.18,0,.2l0-.06a16.89,16.89,0,0,1,1.34,2.27c.41.78.79,1.56,1.16,2.36s.7,1.6,1,2.42l.45,1.23c.16.39.25.95.42,1l.09,0,0,.15c.32,1,.61,2,.85,3.06s.43,2.09.6,3.13.36,2.08.44,3.15A30.91,30.91,0,0,1,53.27,67l0-.13s0-.11-.13-.14,0,0,0,0h5.36l2.86,0h2.1s0,0-.08,0,0,.09,0,.07v-.3c0-1.89-.1-3.78-.29-5.67s-.53-3.75-.83-5.63v0c-.34-1.41-.64-2.76-1-4.12s-.85-2.68-1.37-4c-.26-.65-.48-1.33-.78-2L58.1,43.3l-.93-1.9Z"/></g></svg>