<svg id="shortcut" xmlns="http://www.w3.org/2000/svg" viewBox="0 0 71 80"><title>1</title><rect x="6.94" y="5.54" width="14.99" height="14.99" transform="translate(2.93 -2.65) rotate(11.65)" fill="none" stroke="#000" stroke-linecap="round" stroke-miterlimit="10" stroke-width="1.32"/><rect x="30.25" y="10.34" width="14.99" height="14.99" transform="translate(4.38 -7.26) rotate(11.65)" fill="none" stroke="#000" stroke-linecap="round" stroke-miterlimit="10" stroke-width="1.32"/><rect x="54.65" y="15.38" width="14.99" height="14.99" transform="matrix(0.98, 0.2, -0.2, 0.98, 5.9, -12.08)" fill="none" stroke="#000" stroke-linecap="round" stroke-miterlimit="10" stroke-width="1.32"/><rect x="1.72" y="28.09" width="14.99" height="14.99" transform="translate(7.38 -1.13) rotate(11.65)" fill="none" stroke="#000" stroke-linecap="round" stroke-miterlimit="10" stroke-width="1.32"/><rect x="49.98" y="38.05" width="14.99" height="14.99" transform="translate(10.38 -10.67) rotate(11.65)" fill="none" stroke="#000" stroke-linecap="round" stroke-miterlimit="10" stroke-width="1.32"/><rect x="26.12" y="33.13" width="14.99" height="14.99" transform="translate(8.9 -5.95) rotate(11.65)" fill="none" stroke="#000" stroke-linecap="round" stroke-miterlimit="10" stroke-width="1.32"/><rect x="21.62" y="54.96" width="14.99" height="14.99" transform="translate(13.21 -4.59) rotate(11.65)" fill="none" stroke="#000" stroke-linecap="round" stroke-miterlimit="10" stroke-width="1.32"/><rect x="-2.24" y="50.04" width="14.99" height="14.99" transform="translate(11.73 0.12) rotate(11.65)" fill="none" stroke="#000" stroke-linecap="round" stroke-miterlimit="10" stroke-width="1.32"/><rect x="45.56" y="59.47" width="14.99" height="14.99" transform="translate(14.62 -9.33) rotate(11.65)" fill="none" stroke="#000" stroke-linecap="round" stroke-miterlimit="10" stroke-width="1.32"/><path d="M9.22,7.09s4.13,8.44,3.53,10.75c0,0,3.08-8.32,7.71-9.23" fill="none" stroke="#98c03d" stroke-linecap="round" stroke-linejoin="round" stroke-width="1.61"/><path d="M29.11,35s4.13,8.44,3.53,10.75c0,0,3.08-8.32,7.71-9.23" fill="none" stroke="#98c03d" stroke-linecap="round" stroke-linejoin="round" stroke-width="1.61"/><path d="M54.41,40.42s3.68,4.52,4.14,9.44" fill="none" stroke="#c1272d" stroke-linecap="round" stroke-linejoin="round" stroke-width="1.61"/><path d="M62.18,40s-8.47,5.31-9.42,8.29" fill="none" stroke="#c1272d" stroke-linecap="round" stroke-linejoin="round" stroke-width="1.61"/><path d="M2.19,53.79s3.68,4.52,4.14,9.44" fill="none" stroke="#c1272d" stroke-linecap="round" stroke-linejoin="round" stroke-width="1.61"/><path d="M10,53.34S1.5,58.65.54,61.63" fill="none" stroke="#c1272d" stroke-linecap="round" stroke-linejoin="round" stroke-width="1.61"/></svg>