<?xml version="1.0" encoding="utf-8"?>
<!-- Generator: Adobe Illustrator 22.1.0, SVG Export Plug-In . SVG Version: 6.00 Build 0)  -->
<svg version="1.1" xmlns="http://www.w3.org/2000/svg" xmlns:xlink="http://www.w3.org/1999/xlink" x="0px" y="0px"
	 viewBox="0 0 71 80" style="enable-background:new 0 0 71 80;" xml:space="preserve">
<g id="shortcut">
	<g>
		<g>
			<path d="M0,69.2c7.6-0.9,15.1-2.2,22.4-4.2c3.6-1.1,7.3-2.1,10.8-3.6l1.3-0.5l1.3-0.6c0.8-0.5,1.7-0.9,2.5-1.4
				c1.6-1.1,3.2-2.1,4.6-3.4c1.5-1.2,2.8-2.6,3.8-4.1c1-1.6,1.7-3.3,1.9-5c0.4-3.6-1.4-7-3.2-10.3c-0.9-1.7-1.9-3.3-2.7-5.2
				c-0.4-0.9-0.6-2-0.8-3.1c-0.1-1.1,0-2.2,0.4-3.3c0.8-2.2,2.4-3.7,4.1-4.8c0.8-0.6,1.7-1.1,2.6-1.6l2.6-1.3l0.9,1.6l-2.5,1.5
				c-0.8,0.5-1.6,1-2.3,1.5c-1.4,1.1-2.7,2.4-3.2,3.9c-0.2,0.7-0.3,1.5-0.3,2.3c0.1,0.8,0.3,1.6,0.6,2.5c0.6,1.7,1.5,3.3,2.4,5.1
				c0.9,1.7,1.8,3.5,2.4,5.4c0.6,1.9,0.9,4,0.5,6.1c-0.4,2-1.4,3.9-2.6,5.4c-1.2,1.6-2.7,2.9-4.2,4.1c-1.4,1.3-3.1,2.3-4.6,3.5
				c-0.8,0.5-1.6,1-2.5,1.5L35,61.7l-1.3,0.7c-3.4,1.9-7,3.4-10.7,4.5c-3.7,1.1-7.6,1.8-11.4,2.2C7.7,69.5,3.9,69.7,0,69.4V69.2z"/>
			<g>
				<polygon points="65.2,10.1 50.6,28.1 50.9,18 42.2,12.7 				"/>
			</g>
		</g>
	</g>
	<g>
		<g>
			<path d="M-0.1,33.8c0.3-1,1-1.9,1.9-2.5l0.5,0.9c-0.4,0.2-0.8,0.4-1.2,0.7c-0.4,0.3-0.7,0.6-1,1L-0.1,33.8z"/>
			<path d="M7.2,29.8c0.9,0,1.9,0.2,2.8,0.4c0.9,0.2,1.8,0.5,2.6,0.8l-0.5,1.6c-0.8-0.2-1.7-0.5-2.5-0.7c-0.8-0.2-1.7-0.4-2.5-0.4
				L7.2,29.8z"/>
			<path d="M17.4,33.6c1.5,0.9,3,2,4.4,3.2l-0.5,0.5c-1.2-1.3-2.6-2.4-4.2-3.1L17.4,33.6z"/>
			<path d="M25.3,41c1,1.5,1.7,3.2,2.4,4.9l-1.8,0.7c-0.6-1.7-1.2-3.3-1.9-4.8L25.3,41z"/>
			<path d="M29.7,50.7c0.7,1.6,1.5,3,2.6,4.1l-1.2,1.3c-1.6-1.2-2.6-2.9-3.4-4.6L29.7,50.7z"/>
			<path d="M36.6,57.1c0.9,0.3,1.9,0.4,2.9,0.5l0,0.2c-1,0.2-2,0.3-3.1,0.3L36.6,57.1z"/>
		</g>
	</g>
	<g>
		<g>
			<path style="fill:#98C03D;" d="M49.2,42.7c-0.1,0.1-0.2,0.1-0.3,0.2c-0.1,0.1-0.2,0.2-0.1,0.2c0,0,0-0.1,0-0.1c0,0,0,0,0.1,0
				c0.1,0,0.2,0,0.3,0.1c0.5,0.1,0.9,0.1,1.4,0.1l3,0.1l-0.1,1.7c-1-0.1-2-0.3-3-0.5c-0.5-0.1-1-0.3-1.5-0.5
				c-0.1-0.1-0.3-0.1-0.4-0.2c-0.1-0.1-0.1-0.1-0.2-0.2c-0.1-0.1-0.1-0.3,0-0.5c0.2-0.2,0.3-0.2,0.4-0.3c0.1,0,0.3,0,0.4-0.1
				L49.2,42.7z"/>
			<path style="fill:#98C03D;" d="M59.6,43.7c1,0.3,2.1,0.8,2.8,1.6c0.8,0.8,1.2,1.8,1.4,2.9l-0.6,0.1c-0.2-0.9-0.6-1.8-1.3-2.4
				c-0.7-0.5-1.6-0.8-2.6-0.9L59.6,43.7z"/>
			<path style="fill:#98C03D;" d="M63.6,54.3c-0.3,2-0.7,4-1.1,5.9l-1.8-0.4c0.5-2,1.2-3.9,1.8-5.8L63.6,54.3z"/>
			<path style="fill:#98C03D;" d="M62.1,65.8c0.1,0.4,0.2,0.8,0.3,1.2c0.2,0.4,0.4,0.9,0.6,1.3c0.4,0.8,0.9,1.6,1.5,2.3l-1.3,1.2
				c-0.8-0.8-1.4-1.6-2-2.5c-0.3-0.5-0.5-0.9-0.7-1.4c-0.2-0.5-0.4-1.1-0.5-1.7L62.1,65.8z"/>
			<path style="fill:#98C03D;" d="M68.9,74.1c0.7,0.3,1.4,0.6,2.1,0.9l0,0.2c-0.8,0-1.6-0.1-2.3-0.3L68.9,74.1z"/>
		</g>
	</g>
</g>
<g id="file">
</g>
</svg>
