<svg id="a840bac1-fdd8-4d24-a0ca-9c1b8d672d93" data-name="resources" xmlns="http://www.w3.org/2000/svg" viewBox="0 0 134 134">
  <defs>
    <style>
      .f95c02e1-7b14-4ffa-b6ea-d7d5219a188c {
        fill: var(--secondary-color);
        stroke: var(--secondary-color);
      }

      .a059bb04-a90b-4116-bb4e-1f9013055a39, .f95c02e1-7b14-4ffa-b6ea-d7d5219a188c {
        stroke-miterlimit: 10;
        stroke-width: 4px;
      }

      .a059bb04-a90b-4116-bb4e-1f9013055a39 {
        fill: #fff;
        stroke: var(--primary-color);
      }
    </style>
  </defs>
  <g id="f2f71ddf-afba-4832-8fa2-c94c6780e9e0" data-name="Custom">
    <g id="e312ac6f-fe56-4eaf-bda8-5cba920169bd" data-name="RSS">
      <g>
        <path class="f95c02e1-7b14-4ffa-b6ea-d7d5219a188c" d="M2.07,115A16.89,16.89,0,1,0,19,98.15,16.89,16.89,0,0,0,2.07,115Z"/>
        <path class="f95c02e1-7b14-4ffa-b6ea-d7d5219a188c" d="M59.71,131.86A57.58,57.58,0,0,0,2.14,74.29V50.42a81.44,81.44,0,0,1,81.44,81.44Z"/>
        <path class="f95c02e1-7b14-4ffa-b6ea-d7d5219a188c" d="M2.14,8.27A123.59,123.59,0,0,1,125.73,131.86H101.64A99.51,99.51,0,0,0,2.14,32.35Z"/>
      </g>
      <g>
        <path class="a059bb04-a90b-4116-bb4e-1f9013055a39" d="M8.26,108.84A16.9,16.9,0,1,0,25.16,92,16.9,16.9,0,0,0,8.26,108.84Z"/>
        <path class="a059bb04-a90b-4116-bb4e-1f9013055a39" d="M65.91,125.66A57.58,57.58,0,0,0,8.34,68.09V44.22a81.44,81.44,0,0,1,81.44,81.44Z"/>
        <path class="a059bb04-a90b-4116-bb4e-1f9013055a39" d="M8.34,2.07A123.59,123.59,0,0,1,131.93,125.66H107.84a99.5,99.5,0,0,0-99.5-99.5Z"/>
      </g>
    </g>
  </g>
</svg>
