<?xml version="1.0" encoding="utf-8"?>
<!-- Generator: Adobe Illustrator 22.1.0, SVG Export Plug-In . SVG Version: 6.00 Build 0)  -->
<svg version="1.1" xmlns="http://www.w3.org/2000/svg" xmlns:xlink="http://www.w3.org/1999/xlink" x="0px" y="0px"
	 viewBox="0 0 71 80" style="enable-background:new 0 0 71 80;" xml:space="preserve">
<g id="shortcut">
</g>
<g id="file">
	<g>
		<g>
			<path style="fill:#E59B3A;" d="M62.6,39.9c1.6-0.6,2.9-1.7,3.8-3c0.9-1.3,1.4-2.9,1.4-4.5c0-1.6-0.5-3.1-1.5-4.5
				c-0.9-1.3-2.3-2.4-3.9-3c1.7,0.2,3.3,1.1,4.5,2.5c1.2,1.3,1.8,3.1,1.8,4.9c0,1.8-0.6,3.6-1.7,5C65.9,38.8,64.2,39.7,62.6,39.9z"
				/>
		</g>
		<g>
			<path d="M62.3,25c-0.2-2.8-0.3-5.6-0.5-8.3c-0.1-2.8-0.3-5.6-0.4-8.3l-0.2-4.2c0-0.3,0-0.1,0-0.1c0,0.1,0.1,0.1,0.1,0.1
				c0,0,0.1,0,0.2,0c0.1,0,0.2-0.1,0,0.1c-0.5,0.5-1,1-1.5,1.5c-2,2-4.1,3.9-6.3,5.7c-4.4,3.6-9.2,6.6-14.5,8.9
				c-2.7,1-5.4,2-8.3,2.4c-0.7,0.1-1.4,0.3-2.1,0.3l-2.2,0.1c-0.7,0.1-1.4,0-2.2,0L22.5,23l-0.1,0c-0.4,0-0.7-0.2-0.8-0.5
				c-0.2-0.4-0.5-0.7-0.9-0.9c-0.3-0.2-1-0.4-1.5-0.6c-1.1-0.4-2.2-0.6-3.4-0.8c-2.3-0.3-4.7-0.3-7,0.2c-0.6,0.1-1.2,0.3-1.7,0.4
				c-0.3,0.1-0.6,0.2-0.8,0.3c-0.3,0.1-0.6,0.2-0.8,0.3c-0.9,0.5-1.5,1.4-1.6,2.5c-0.3,2.4-0.5,4.9-0.6,7.3c-0.1,2.4-0.1,4.9,0,7.3
				c0.1,1.2,0.2,2.4,0.4,3.6c0.2,1.2,0.5,2.4,1.1,3.3c0.3,0.5,0.6,0.8,1.1,1c0.3,0.1,1.1,0.1,1.7,0.1c1.3,0.1,2.6,0.4,3.8,0.9
				c0.6,0.3,1.2,0.6,1.7,1c0.6,0.5,1,1.1,1.3,1.8c0.1,0.3,0.2,0.7,0.3,1.1l0.1,0.9l0.1,1.8c0.4,4.9,0.8,9.8,1.2,14.7l0.3,3.7
				c0,0.3,0,0.6,0.1,0.9c0,0.2,0.1,0.4,0.1,0.6c0.1,0.4,0.4,0.7,0.7,1c0.6,0.5,1.4,0.7,2.1,0.5c0.4-0.1,0.6-0.3,0.7-0.5
				c0.1-0.2,0.2-0.5,0.1-0.9c0-0.2-0.1-0.4-0.1-0.7c0-0.1-0.1-0.2-0.1-0.4l-0.1-0.5c-0.2-0.7-0.2-1.4-0.3-2.1
				c-0.1-0.7-0.1-1.3-0.1-1.9l0-1.9c0.1-2.5,0.4-5,0.7-7.5c0.3-2.5,0.7-4.9,1.2-7.3L22,48l0.4-1.8c0.1-0.4,0.1-0.4,0.1-0.6
				c0-0.1,0-0.5,0-0.8l0,0c0-0.9,0.7-1.6,1.5-1.7c0.1,0,0.1,0,0.2,0c5.5,0.5,11,1.5,16.3,3c5.3,1.6,10.5,3.7,15.1,7.1
				c1.1,0.8,2.2,1.8,3.2,2.8c1,1,1.9,2.2,2.7,3.4c0.2,0.3,0.4,0.6,0.5,0.9l0.3,0.4c0,0-0.1-0.1-0.1-0.1c-0.1,0-0.2,0-0.2,0.1
				c0,0,0,0.1,0,0.1c0,0,0,0,0,0l0-0.1l0-0.5l0.1-4.1c0-2.7,0.1-5.4,0.2-8.2c0.1-2.7,0.2-5.4,0.3-8.2c0-0.1,0.1-0.1,0.2-0.1
				c0.1,0,0.1,0.1,0.1,0.1c0.2,2.7,0.3,5.4,0.4,8.2c0.1,2.7,0.3,5.4,0.4,8.2l0.2,4.1l0,0.5l0,0.1c0,0.1,0,0.2,0,0.3
				c0,0.2-0.1,0.4-0.2,0.6c-0.4,0.7-1.2,1-2,0.8c-0.4-0.1-0.7-0.4-0.9-0.7l-0.3-0.4c-0.2-0.3-0.3-0.5-0.5-0.8
				c-1.5-2.1-3.5-3.8-5.6-5.3c-4.3-2.9-9.3-4.9-14.5-6.2c-5.1-1.4-10.5-2.2-15.8-2.7l1.7-1.7c0,0.3,0,0.5,0,1c0,0.4-0.1,1-0.2,1.2
				l-0.4,1.8l-0.7,3.6c-0.4,2.4-0.9,4.8-1.3,7.2c-0.4,2.4-0.7,4.8-0.8,7.2l-0.1,1.8c0,0.6,0,1.2,0,1.7c0.1,0.5,0.1,1.1,0.2,1.6
				l0.1,0.4c0,0.1,0.1,0.3,0.1,0.5c0.1,0.4,0.2,0.7,0.2,1.1c0.1,0.8,0,1.8-0.6,2.7c-0.6,0.9-1.4,1.3-2.2,1.6c-1.7,0.5-3.5,0-4.7-1.2
				c-0.6-0.6-1-1.3-1.3-2.1c-0.1-0.4-0.2-0.8-0.2-1.2c0-0.4,0-0.6,0-1l-0.1-3.7c-0.2-4.9-0.3-9.8-0.5-14.7l-0.1-1.8l0-0.9
				c0-0.2-0.1-0.5-0.1-0.7c-0.1-0.5-0.4-0.9-0.8-1.2c-0.4-0.4-0.9-0.7-1.4-0.9c-1-0.5-2.1-0.8-3.3-0.9c-0.3,0-0.6-0.1-0.9-0.1
				c-0.2,0-0.7,0-1.1-0.2c-0.8-0.3-1.3-0.9-1.6-1.5c-0.7-1.2-0.9-2.4-1.1-3.7c-0.2-1.2-0.3-2.5-0.4-3.7c-0.1-2.5-0.1-4.9,0-7.4
				c0.1-2.5,0.2-4.9,0.4-7.4c0-1.4,0.8-2.8,2.1-3.5C5,20.1,5.2,20.1,5.3,20l0.4-0.2c0.3-0.1,0.6-0.2,0.9-0.3
				c0.6-0.2,1.2-0.4,1.8-0.6c2.5-0.6,5-0.8,7.6-0.6c1.3,0.1,2.5,0.4,3.8,0.7c0.6,0.2,1.2,0.3,2,0.7c0.7,0.4,1.3,0.9,1.8,1.6
				l-0.9-0.5l2.1,0c0.7,0,1.3,0,2-0.1l2-0.2c0.7-0.1,1.3-0.2,2-0.3c1.3-0.2,2.6-0.6,3.9-0.9c0.7-0.2,1.3-0.4,1.9-0.6
				c0.6-0.2,1.3-0.4,1.9-0.7c5-2,9.7-4.9,14-8.2c2.2-1.7,4.3-3.4,6.3-5.3c0.5-0.5,1-0.9,1.5-1.4c0,0,0.4-0.4,0.8-0.6
				c0.4-0.1,0.8-0.1,1.2,0c0.4,0.2,0.7,0.4,0.9,0.8c0.2,0.4,0.2,0.9,0.2,0.9l-0.1,4.2c0,2.8-0.1,5.6-0.2,8.3
				c-0.1,2.8-0.2,5.6-0.3,8.3c0,0.1-0.1,0.1-0.2,0.1C62.3,25.1,62.3,25.1,62.3,25z"/>
		</g>
	</g>
</g>
</svg>
