<svg xmlns="http://www.w3.org/2000/svg" viewBox="0 0 134 134">
  <defs>
    <style>
      .f1a544b3-ce65-46f5-8292-7d14aae8a4f6 {
        fill: var(--secondary-color);
        stroke: var(--secondary-color);
      }

      .f1a544b3-ce65-46f5-8292-7d14aae8a4f6, .f44dd411-9c8d-4f8e-b0a2-0a04eb6238e1, .f8069cbb-ebf4-4b07-9f65-c5539501dadc {
        stroke-miterlimit: 10;
        stroke-width: 4px;
        fill-rule: evenodd;
      }

      .f44dd411-9c8d-4f8e-b0a2-0a04eb6238e1 {
        fill: #fff;
      }

      .f44dd411-9c8d-4f8e-b0a2-0a04eb6238e1, .f8069cbb-ebf4-4b07-9f65-c5539501dadc {
        stroke: var(--primary-color);
      }

      .f8069cbb-ebf4-4b07-9f65-c5539501dadc {
        fill: var(--primary-color);
      }
    </style>
  </defs>
  <g id="a29264fd-26dc-4665-a681-d0c7a545c41a" data-name="data">
    <g id="ab7aa18b-c9d9-4151-964f-62258815ee46" data-name="Events">
      <g>
        <path class="f1a544b3-ce65-46f5-8292-7d14aae8a4f6" d="M100,25.64H93.36v.28a7.71,7.71,0,1,1-15.41,0v-.28H47.79v.28a7.71,7.71,0,1,1-15.41,0v-.28H25.77A16.06,16.06,0,0,0,9.71,41.7v74.2A16.06,16.06,0,0,0,25.77,132H100A16.06,16.06,0,0,0,116,115.9V41.7A16.06,16.06,0,0,0,100,25.64Z"/>
        <path class="f1a544b3-ce65-46f5-8292-7d14aae8a4f6" d="M85.66,10.3A5.66,5.66,0,0,0,80,16v10a5.67,5.67,0,0,0,11.34,0V16A5.67,5.67,0,0,0,85.66,10.3Z"/>
        <path class="f1a544b3-ce65-46f5-8292-7d14aae8a4f6" d="M40.08,10.3A5.66,5.66,0,0,0,34.42,16v10a5.67,5.67,0,1,0,11.33,0V16A5.66,5.66,0,0,0,40.08,10.3Z"/>
      </g>
      <path class="f44dd411-9c8d-4f8e-b0a2-0a04eb6238e1" d="M108.23,17.38h-6.61v.29a7.71,7.71,0,0,1-15.41,0v-.29H56.05v.29a7.71,7.71,0,0,1-15.41,0v-.29H34A16.06,16.06,0,0,0,18,33.44v74.2A16.06,16.06,0,0,0,34,123.7h74.2a16.06,16.06,0,0,0,16.06-16.06V33.44A16.06,16.06,0,0,0,108.23,17.38Z"/>
      <path class="f44dd411-9c8d-4f8e-b0a2-0a04eb6238e1" d="M93.91,2a5.66,5.66,0,0,0-5.66,5.67v10a5.67,5.67,0,0,0,11.33,0v-10A5.67,5.67,0,0,0,93.91,2Z"/>
      <path class="f44dd411-9c8d-4f8e-b0a2-0a04eb6238e1" d="M48.35,2a5.67,5.67,0,0,0-5.67,5.67v10a5.67,5.67,0,0,0,11.33,0v-10A5.66,5.66,0,0,0,48.35,2Z"/>
      <path class="f8069cbb-ebf4-4b07-9f65-c5539501dadc" d="M29.27,47.61v59.94a4.23,4.23,0,0,0,4.23,4.23h75.26a4.23,4.23,0,0,0,4.23-4.23V47.61Z"/>
    </g>
  </g>
</svg>
