<svg xmlns="http://www.w3.org/2000/svg" viewBox="0 0 71 80"><title>icones_ressources1</title><g id="file"><rect x="43" y="29.94" width="23" height="20.13" fill="#fff"/><path d="M66,50.08c-3.76.08-7.58.15-11.43.19s-7.73.07-11.59,0h-.22v-.22c0-3.35.12-6.71.12-10.06,0-1.68,0-3.35,0-5l0-5v-.16H43l11.5-.12c3.83,0,7.67,0,11.5,0h.29v.29c0,3.39-.07,6.77-.11,10.14Zm0,0-.16-10.12c0-3.34-.12-6.67-.11-10l.29.29c-3.83,0-7.67,0-11.5,0L43,30.09l.16-.15,0,5c0,1.68,0,3.35,0,5,0,3.35.08,6.71.12,10.06L43,49.84c3.81-.05,7.6,0,11.41,0Z"/><rect x="5" y="29.94" width="23" height="20.13" fill="#fff"/><path d="M28,50.08c-3.76.08-7.58.15-11.43.19s-7.73.07-11.59,0H4.78v-.22c0-3.35.12-6.71.12-10.06,0-1.68,0-3.35,0-5l0-5v-.16H5l11.5-.12c3.83,0,7.67,0,11.5,0h.29v.29c0,3.39-.07,6.77-.11,10.14Zm0,0-.16-10.12c0-3.34-.12-6.67-.11-10l.29.29c-3.83,0-7.67,0-11.5,0L5,30.09l.16-.15,0,5c0,1.68,0,3.35,0,5,0,3.35.08,6.71.12,10.06L5,49.84c3.81-.05,7.6,0,11.41,0Z"/><rect x="31" y="26.44" width="31" height="27.13" fill="#fff"/><path d="M62,53.59l-7.66.15-7.75.1-7.8.07c-2.61,0-5.22,0-7.82,0h-.3v-.29c.06-4.52.16-9,.17-13.56s0-9-.08-13.56v-.21H31c5.17-.05,10.33-.15,15.5-.16S56.83,26,62,26h.39v.4c0,4.57-.08,9.13-.13,13.67ZM62,53.54l-.24-13.65c0-4.5-.13-9-.13-13.45l.4.39q-7.76,0-15.5,0c-5.17,0-10.33-.11-15.5-.16l.21-.21c-.06,4.52-.1,9-.08,13.56s.11,9,.17,13.56l-.3-.29c2.57-.05,5.13,0,7.68-.05l7.7.06,7.75.11Z"/><rect x="10" y="26.44" width="31" height="27.13" fill="#fff"/><path d="M41,53.59l-7.66.15-7.75.1-7.8.07c-2.61,0-5.22,0-7.82,0H9.7v-.29c.06-4.52.16-9,.17-13.56s0-9-.08-13.56v-.21H10c5.17-.05,10.33-.15,15.5-.16S35.83,26,41,26h.39v.4c0,4.57-.08,9.13-.13,13.67ZM41,53.54l-.24-13.65c0-4.5-.13-9-.13-13.45l.4.39q-7.76,0-15.5,0c-5.17,0-10.33-.11-15.5-.16l.21-.21c-.06,4.52-.1,9-.08,13.56s.11,9,.17,13.56l-.3-.29c2.57-.05,5.13,0,7.68-.05l7.7.06,7.75.11Z"/><rect x="16" y="22.5" width="40" height="35" fill="#fff"/><path d="M56,57.54l-9.89.18-10,.14-10.07.08c-3.36,0-6.72,0-10.08-.06h-.39V57.5c.08-5.83.2-11.67.21-17.5,0-2.92,0-5.83,0-8.75l-.09-8.75v-.27H16c6.67-.07,13.33-.19,20-.21L46,22l10,0h.51v.51c0,5.9-.12,11.78-.19,17.63l-.12,8.75ZM56,57.46l-.28-17.59c-.07-5.82-.21-11.6-.19-17.37L56,23,46,23,36,23c-6.67,0-13.33-.14-20-.21l.27-.27-.09,8.75c0,2.92-.05,5.83,0,8.75,0,5.83.13,11.67.21,17.5L16,57.12c3.31-.06,6.61,0,9.92-.06l9.93.08,10,.14Z"/><path d="M28,30.54c.13,3.38.27,6.56.34,9.67.05,1.57.08,3.1,0,4.64l-.18,4.65-.33-.19c1.36-.7,2.71-1.42,4-2.2s2.64-1.55,3.94-2.35c2.6-1.62,5.25-3.16,7.89-4.7l0,.87c-2.64-1.58-5.17-3.22-7.74-5Zm0-.08,8,4.59c2.76,1.57,5.56,3.27,8.26,5l.71.47-.73.4c-2.69,1.46-5.38,2.92-8.11,4.3-1.37.7-2.72,1.41-4.06,2.15s-2.67,1.5-4,2.3l-.31.19,0-.38-.18-4.85c0-1.63,0-3.26,0-4.86C27.71,36.56,27.85,33.41,28,30.46Z" fill="#60439a"/></g></svg>