<svg id="e78b65af-26e1-4c97-812e-fe6060e7d7a2" data-name="resources" xmlns="http://www.w3.org/2000/svg" viewBox="0 0 134 134">
  <defs>
    <style>
      .a7904b0c-9727-4b52-a2df-b7c3251e428d, .eb1fb6ab-2ac1-4d49-8125-ed8d96ec04de {
        fill: var(--secondary-color);
      }

      .eb1fb6ab-2ac1-4d49-8125-ed8d96ec04de {
        stroke: var(--secondary-color);
      }

      .a38cf43d-8c50-4889-b3d9-c35e2844972b, .eb1fb6ab-2ac1-4d49-8125-ed8d96ec04de {
        stroke-miterlimit: 10;
        stroke-width: 4px;
      }

      .a38cf43d-8c50-4889-b3d9-c35e2844972b {
        fill: #fff;
        stroke: var(--primary-color);
      }
    </style>
  </defs>
  <g id="bbefd2ee-628a-44a9-be66-c9ac3b11af88" data-name="Custom">
    <g id="a9875746-88de-47c0-9aaf-ef65f6f24cfe" data-name="URL">
      <path class="eb1fb6ab-2ac1-4d49-8125-ed8d96ec04de" d="M126.45,76.87c0,13.59-10.23,24.62-22.85,24.62H24.88C12.26,101.49,2,90.46,2,76.87V62.64H2C2,49.05,12.26,38,24.88,38H103.6c12.62,0,22.85,11,22.85,24.61h0Z"/>
      <g>
        <path class="a38cf43d-8c50-4889-b3d9-c35e2844972b" d="M132,70.32c0,13.22-10,24-22.23,24H33.11c-12.27,0-22.23-10.73-22.23-24V56.47h0c0-13.23,10-24,22.23-24h76.62c12.28,0,22.23,10.73,22.23,24h0Z"/>
        <g>
          <path class="a7904b0c-9727-4b52-a2df-b7c3251e428d" d="M116.22,81.88a15.27,15.27,0,0,0-1.68,1.23A17.63,17.63,0,0,1,105,85.87H74.8a16.62,16.62,0,0,1-12.74-5.53,15.15,15.15,0,0,1-4.29-10.28c-.15-4.14.15-8.13.15-12.12H69V68.53c0,3.68,2.3,6.14,6.13,6.14h30.07A5.47,5.47,0,0,0,111,68.84V57.79a5.51,5.51,0,0,0-5.83-5.67H95.51l-6.44-11.2h16.1a16.53,16.53,0,0,1,14.27,7.21,16,16,0,0,1,3.07,9.51v12A15,15,0,0,1,119,79.27c-.15.15-.3.46-.46.61C117.6,80.65,116.84,81.26,116.22,81.88Z"/>
          <path class="a7904b0c-9727-4b52-a2df-b7c3251e428d" d="M26.62,44.9c.47-.3,1.08-.76,1.69-1.22a17.63,17.63,0,0,1,9.51-2.76H68.05a16.58,16.58,0,0,1,12.73,5.52,15.18,15.18,0,0,1,4.3,10.28c.15,4.14-.16,8.13-.16,12.12h-11V58.25c0-3.68-2.3-6.13-6.14-6.13H37.67a5.47,5.47,0,0,0-5.83,5.82V69a5.52,5.52,0,0,0,5.83,5.68h9.67l6.44,11.2H37.67A16.56,16.56,0,0,1,23.4,78.66a16.05,16.05,0,0,1-3.07-9.52v-12a15,15,0,0,1,3.53-9.67c.16-.15.31-.46.46-.61A13.76,13.76,0,0,0,26.62,44.9Z"/>
        </g>
      </g>
    </g>
  </g>
</svg>
