<?xml version="1.0" encoding="utf-8"?>
<!-- Generator: Adobe Illustrator 21.0.2, SVG Export Plug-In . SVG Version: 6.00 Build 0)  -->
<svg version="1.1" xmlns="http://www.w3.org/2000/svg" xmlns:xlink="http://www.w3.org/1999/xlink" x="0px" y="0px"
	 viewBox="0 0 71 80" style="enable-background:new 0 0 71 80;" xml:space="preserve">
<g id="shortcut">
</g>
<g id="file">
	<g>
		<g>
			<path d="M49.6,7.5l-4.9,3.2L40,13.8c-1.5,1-3,2-4.5,3c-1.5,0.9-3,1.9-4.5,2.8c-0.3,0.2-0.6,0.2-0.8,0.1l-0.1,0
				c-0.1,0-0.1,0-0.1,0l-0.4,0l-0.8,0l-1.6,0c-1.1,0-2.2,0-3.3,0c-2.2,0-4.4-0.1-6.6-0.1l-1.6-0.1c-0.5,0-1.2-0.1-1.3,0
				c-0.2,0-0.5,0.2-0.6,0.5c0,0.1,0,0.1-0.1,0.2l0,0.1l0,0.2l0,0.8c-0.1,2.2-0.2,4.4-0.3,6.6c-0.1,2.2-0.1,4.4-0.1,6.6l0,0.8
				c0,0.3,0,0.6,0,0.7c0.1,0.4,0.4,0.8,0.7,0.9c0.2,0.1,0.4,0.1,0.6,0.1l0.8,0l1.6-0.1c4.4-0.3,8.7-0.6,13.1-0.9l-0.3,0
				c0.2,0,0.3-0.1,0.5-0.1c0.2,0,0.4,0,0.8,0.1c0.3,0.1,0.8,0.5,0.9,0.8l0,0.1l0,0l0,0l-0.1-0.1c-0.1-0.1-0.2-0.2-0.3-0.3
				c-0.1-0.1-0.3-0.2-0.6-0.2c-0.1,0-0.2,0-0.3,0c-0.1,0-0.2,0.1-0.2,0.1c-0.1,0-0.2,0.1-0.2,0.1c-0.3,0.3-0.1,0.1-0.1,0.1
				c-0.3,0.1-0.6-0.1-0.7-0.4s0.1-0.6,0.4-0.7c0.1,0,0.3,0,0.4,0l1.4,0.7c3.2,1.6,6.3,3.2,9.4,4.8l4.7,2.4c1.6,0.8,3.1,1.6,4.7,2.5
				l-2.3,1.3l0-4.8l0.1-4.8c0.1-3.2,0.2-6.4,0.4-9.7l0.5-10L49.6,7.5z M49.8,7.2l1,19.4c0.1,3.4,0.3,6.8,0.4,10.2l0.1,5.2l0,5.2
				c0,0.8-0.7,1.5-1.5,1.5c-0.3,0-0.5-0.1-0.7-0.2l0,0c-1.6-0.8-3.1-1.7-4.6-2.6l-4.6-2.6c-3.1-1.7-6.1-3.5-9.2-5.2l1.5-0.4
				c-0.1,0.1,0,0.1-0.3,0.4c-0.1,0.1-0.2,0.1-0.3,0.2c0,0-0.1,0-0.2,0.1c-0.1,0-0.2,0-0.3,0c-0.2,0-0.5-0.1-0.6-0.2
				c-0.1-0.1-0.2-0.2-0.3-0.3C30,37.8,30,37.8,30,37.8l0,0l0-0.1l0,0c0,0,0,0,0,0c0,0.1,0.3,0.4,0.4,0.4c0.1,0,0.2,0,0.1,0
				c0,0-0.1,0-0.1,0l-0.3,0C25.7,38,21.3,38,16.9,38l-1.6,0l-0.8,0c-0.4,0-0.7-0.1-1-0.2c-0.6-0.3-1.1-0.9-1.2-1.6
				c-0.1-0.4,0-0.6,0-0.9l0-0.8c0-2.2,0-4.4-0.1-6.6c-0.1-2.2-0.2-4.4-0.3-6.6l0-0.8l0-0.2l0-0.3c0-0.2,0.1-0.4,0.1-0.6
				c0.2-0.8,0.9-1.5,1.7-1.8c0.4-0.2,0.9-0.2,1.1-0.2l0.8,0l1.6-0.1c2.2-0.1,4.4-0.1,6.6-0.1c1.1,0,2.2,0,3.3,0l1.6,0l0.8,0l0.4,0
				c0.2,0,0.5,0,0.7,0.1l-0.9,0.1c1.7-1,3.4-1.9,5.2-2.8c1.7-0.9,3.5-1.8,5.1-2.6L49.8,7.2z"/>
		</g>
		<g>
			<path style="fill:#128BC7;" d="M52.4,22.6c1.2,0.3,2.3,1.1,2.9,2.2c0.3,0.6,0.5,1.2,0.7,1.7c0.2,0.6,0.3,1.2,0.4,1.8
				c0.2,1.2,0,2.6-0.6,3.7c-0.6,1.1-1.6,2-2.7,2.6c0,0,0,0,0,0c0,0,0,0,0,0c0.9-0.9,1.6-1.8,2.1-2.8c0.6-1,0.8-2.2,0.9-3.3
				c0-0.6-0.1-1.2-0.3-1.8c-0.2-0.6-0.6-1.1-0.9-1.5C54.2,24.2,53.4,23.4,52.4,22.6C52.4,22.6,52.4,22.6,52.4,22.6
				C52.4,22.6,52.4,22.6,52.4,22.6z"/>
		</g>
		<g>
			<path style="fill:#128BC7;" d="M50.8,23.4c1,0.3,2,1,2.6,1.9c0.3,0.5,0.4,1,0.6,1.5c0.2,0.5,0.3,1,0.4,1.6c0.2,1.1,0,2.2-0.5,3.2
				c-0.5,1-1.4,1.8-2.3,2.2c0,0,0,0,0,0c0,0,0,0,0,0c0.7-0.8,1.4-1.6,1.8-2.5c0.5-0.9,0.7-1.9,0.8-2.9c0-0.5-0.1-1-0.2-1.5
				c-0.2-0.5-0.5-0.9-0.8-1.3C52.4,24.8,51.7,24.1,50.8,23.4C50.8,23.4,50.8,23.4,50.8,23.4C50.8,23.4,50.8,23.4,50.8,23.4z"/>
		</g>
		<g>
			<path style="fill:#128BC7;" d="M54,22c1.3,0.4,2.5,1.3,3.2,2.4c0.3,0.6,0.6,1.3,0.8,1.9c0.2,0.6,0.4,1.3,0.5,2
				c0.2,1.4,0,2.8-0.7,4c-0.7,1.2-1.7,2.2-2.9,2.8c0,0,0,0,0,0c0,0,0,0,0,0c0.9-0.9,1.7-2,2.3-3.1c0.6-1.1,0.9-2.4,1-3.7
				c0-0.7-0.1-1.3-0.3-1.9c-0.2-0.6-0.6-1.2-1-1.7C56,23.8,55.1,22.9,54,22C54,22.1,54,22,54,22C54,22,54,22,54,22z"/>
		</g>
	</g>
	<rect y="56.4" style="fill:#128BC7;" width="71" height="23"/>
	<g>
		<path style="fill:#FFFFFF;" d="M20.8,61.9h2l1.6,6.9l1.9-6.9H28l2,6.9l1.5-6.9h2l-2.4,10.8h-2l-2-7l-1.9,7h-1.9L20.8,61.9z"/>
		<path style="fill:#FFFFFF;" d="M38.4,61.9h2.1l4.1,10.8h-2.1l-0.8-2.2h-4.4l-0.9,2.2h-2.1L38.4,61.9z M39.4,64.8L38,68.5h2.9
			L39.4,64.8z"/>
		<path style="fill:#FFFFFF;" d="M45.4,61.9h2.1l2.7,7.7l2.8-7.7H55l-3.9,10.8h-2L45.4,61.9z"/>
	</g>
</g>
</svg>
