<?xml version="1.0" encoding="utf-8"?>
<!-- Generator: Adobe Illustrator 21.0.2, SVG Export Plug-In . SVG Version: 6.00 Build 0)  -->
<svg version="1.1" xmlns="http://www.w3.org/2000/svg" xmlns:xlink="http://www.w3.org/1999/xlink" x="0px" y="0px"
	 viewBox="0 0 71 80" style="enable-background:new 0 0 71 80;" xml:space="preserve">
<g id="shortcut">
</g>
<g id="file">
	<g>
		<path d="M56.4,12.4l-6.9,4.5L43,21.2c-2.1,1.4-4.2,2.8-6.3,4.1c-2.1,1.3-4.2,2.7-6.3,3.9c-0.4,0.2-0.8,0.3-1.2,0.2l-0.1,0
			c-0.1,0-0.1,0-0.2,0l-0.6,0l-1.1,0l-2.3,0c-1.5,0-3.1,0-4.6,0c-3.1,0-6.1-0.1-9.2-0.2l-2.3-0.1c-0.7,0-1.7-0.1-1.8-0.1
			c-0.3,0.1-0.6,0.3-0.8,0.6c0,0.1-0.1,0.2-0.1,0.3l0,0.1l0,0.3L6,31.7c-0.2,3.1-0.3,6.1-0.4,9.2c-0.1,3.1-0.1,6.1-0.2,9.2l0,1.1
			l0,0.6c0,0.2,0,0.3,0,0.4c0.1,0.6,0.5,1.1,1,1.3c0.3,0.1,0.5,0.2,0.8,0.2l1.1-0.1l2.3-0.1c6.1-0.4,12.2-0.8,18.3-1.3l-0.4,0.1
			c0.2-0.1,0.4-0.1,0.7-0.2c0.3,0,0.6-0.1,1.1,0.1c0.2,0.1,0.5,0.2,0.8,0.4c0.2,0.2,0.4,0.5,0.5,0.7c0,0.1,0.1,0.2,0.1,0.1
			c0-0.1,0,0-0.1-0.1c0-0.1,0-0.1-0.1-0.2c-0.1-0.1-0.2-0.2-0.3-0.3c-0.5-0.4-1.2-0.3-1.5-0.1c-0.1,0-0.2,0.1-0.3,0.2l-0.1,0.1
			C29.2,53,29.2,53,29.2,53l0,0c0.3-0.7,1.2-1,1.9-0.6l0.2,0.1c4.4,2.2,8.8,4.4,13.1,6.7l6.5,3.4c2.2,1.1,4.4,2.2,6.5,3.4l-3.1,1.9
			l0-6.7l0.1-6.7c0.1-4.5,0.3-9,0.5-13.5l0.7-14l0.4-7.2L56.4,12.4z M56.6,12L58,39.1c0.2,4.7,0.4,9.5,0.5,14.3l0.1,7.2l0,7.2
			c0,1.2-1,2.1-2.1,2.1c-0.4,0-0.7-0.1-1-0.2l0,0c-2.2-1.2-4.3-2.4-6.4-3.6l-6.4-3.6c-4.3-2.4-8.6-4.8-12.8-7.3l2.1-0.5l-0.1,0.1
			c-0.1,0.1-0.1,0.1-0.3,0.4c0,0,0,0-0.1,0.1c-0.1,0.1-0.2,0.1-0.3,0.2c-0.3,0.2-1,0.3-1.5-0.1c-0.2-0.1-0.3-0.2-0.4-0.3
			c-0.1-0.1-0.1-0.1-0.1-0.2c-0.1-0.1-0.1-0.1-0.1-0.2c0-0.1,0-0.1,0-0.1c0,0.1,0.1,0.2,0.2,0.3c0.1,0.1,0.3,0.2,0.4,0.2
			c0.2,0,0.2,0,0.2,0c0,0-0.1,0-0.2,0l-0.3,0c0,0,0,0-0.1,0C23,55,16.9,54.9,10.8,54.9l-2.3,0l-1.1,0c-0.5,0-1-0.1-1.4-0.3
			c-0.9-0.4-1.5-1.3-1.7-2.2c0-0.2-0.1-0.5-0.1-0.7l0-0.6l0-1.1c0-3.1,0-6.1-0.2-9.2c-0.1-3.1-0.3-6.1-0.4-9.2l-0.1-1.1l0-0.3
			c0-0.1,0-0.3,0-0.4c0-0.3,0.1-0.6,0.2-0.9c0.3-1.1,1.2-2,2.4-2.4c0.5-0.2,1.3-0.2,1.6-0.2l1.1,0l2.3-0.1c3.1-0.1,6.1-0.2,9.2-0.2
			c1.5,0,3.1,0,4.6,0l2.3,0l1.1,0l0.6,0c0.3,0,0.7,0,0.9,0.1l-1.2,0.2c2.4-1.3,4.8-2.6,7.2-3.9c2.4-1.3,4.8-2.5,7.2-3.7L56.6,12z"/>
	</g>
	<g>
		<path style="fill:#128BC7;" d="M60.3,33.5c1.7,0.4,3.2,1.6,4.1,3.1c0.4,0.8,0.7,1.6,1,2.4c0.2,0.8,0.5,1.7,0.6,2.5
			c0.1,0.9,0.2,1.8,0,2.6c-0.1,0.9-0.4,1.7-0.9,2.5c-0.9,1.6-2.2,2.8-3.7,3.6c0,0-0.1,0-0.1,0c0,0,0,0,0-0.1c1.2-1.2,2.2-2.5,2.9-4
			c0.8-1.4,1.2-3,1.2-4.7c0-0.8-0.1-1.7-0.4-2.5c-0.3-0.8-0.8-1.5-1.3-2.1C62.8,35.7,61.6,34.5,60.3,33.5
			C60.2,33.5,60.2,33.5,60.3,33.5C60.2,33.5,60.2,33.4,60.3,33.5z"/>
	</g>
	<g>
		<path style="fill:#128BC7;" d="M58.1,34.5c1.5,0.4,2.8,1.4,3.6,2.7c0.4,0.7,0.6,1.4,0.8,2.1c0.2,0.7,0.4,1.4,0.5,2.2
			c0.1,0.7,0.1,1.5,0,2.3c-0.1,0.8-0.4,1.5-0.7,2.2c-0.8,1.3-1.9,2.5-3.3,3.1c0,0,0,0-0.1,0c0,0,0,0,0,0c1-1,1.9-2.2,2.5-3.5
			c0.7-1.2,1-2.6,1.1-4.1c0-0.7-0.1-1.5-0.3-2.1c-0.3-0.7-0.7-1.3-1.1-1.8C60.3,36.5,59.3,35.5,58.1,34.5C58,34.6,58,34.6,58.1,34.5
			C58,34.5,58.1,34.5,58.1,34.5z"/>
	</g>
	<g>
		<path style="fill:#128BC7;" d="M62.5,32.6c1.8,0.5,3.5,1.8,4.5,3.4c0.5,0.8,0.8,1.8,1.1,2.7c0.3,0.9,0.5,1.8,0.7,2.8
			c0.1,0.9,0.2,1.9,0,2.9c-0.2,1-0.5,1.9-0.9,2.8c-0.9,1.7-2.4,3.1-4.1,3.9c0,0-0.1,0-0.1,0c0,0,0,0,0-0.1c1.3-1.3,2.4-2.8,3.2-4.4
			c0.9-1.6,1.3-3.3,1.4-5.1c0-0.9-0.1-1.8-0.4-2.7c-0.3-0.9-0.9-1.6-1.4-2.3C65.3,35.1,64,33.8,62.5,32.6
			C62.5,32.7,62.5,32.7,62.5,32.6C62.5,32.6,62.5,32.6,62.5,32.6z"/>
	</g>
</g>
</svg>
