<svg id="bccf71b0-7efb-4a19-a08e-3903ccd5ad8c" data-name="data" xmlns="http://www.w3.org/2000/svg" xmlns:xlink="http://www.w3.org/1999/xlink" viewBox="0 0 134 134">
  <defs>
    <style>
      .af747f6d-0305-4937-8483-e69c2b5d7ca6 {
        fill: none;
        clip-rule: evenodd;
      }

      .a9752d69-f47a-414d-b002-8d4849acf9fa, .b7f9d74e-8b2d-40c3-95b9-07da55e3f27b, .bcad7447-12f1-447f-a874-a1c44d4d649d {
        fill: var(--secondary-color);
      }

      .a9752d69-f47a-414d-b002-8d4849acf9fa {
        stroke: var(--secondary-color);
        stroke-miterlimit: 10;
        stroke-width: 4px;
      }

      .a9752d69-f47a-414d-b002-8d4849acf9fa, .b7f9d74e-8b2d-40c3-95b9-07da55e3f27b, .f94f8883-04d2-484e-a741-147f03c17d73 {
        fill-rule: evenodd;
      }

      .a6647d09-e0cc-4d3d-9887-5de8439ef4ab {
        fill: #fff;
      }

      .efa22d28-773a-4ce0-9a1f-fc1826c03dcb {
        clip-path: url(#ad6f44ea-b485-473d-8d46-048bb56c4811);
      }

      .b99d38af-71cf-4de8-9655-431e8978338d, .f94f8883-04d2-484e-a741-147f03c17d73 {
        fill: var(--primary-color);
      }

      .b54bcb23-9ce4-4917-8f9c-772fb1326955 {
        clip-path: url(#add9f84e-ee8b-40b9-869e-d2bb8c56a110);
      }

      .f8de7f6a-4dd7-4386-b258-7b7caac34374 {
        clip-path: url(#ae670fe1-36e0-45ed-9988-963ad03ccae5);
      }

      .b5b5992d-5fb9-4b5c-af3f-aade4a2fced5 {
        clip-path: url(#ab823ef0-13d2-428b-b5e0-b96b89cbb3a1);
      }
    </style>
    <clipPath id="ad6f44ea-b485-473d-8d46-048bb56c4811">
      <path class="af747f6d-0305-4937-8483-e69c2b5d7ca6" d="M61.06,99.92a27,27,0,1,1-27-27A27,27,0,0,1,61.06,99.92Z"/>
    </clipPath>
    <clipPath id="add9f84e-ee8b-40b9-869e-d2bb8c56a110">
      <path class="af747f6d-0305-4937-8483-e69c2b5d7ca6" d="M129.82,99.92a27,27,0,1,1-27-27A27,27,0,0,1,129.82,99.92Z"/>
    </clipPath>
    <clipPath id="ae670fe1-36e0-45ed-9988-963ad03ccae5">
      <path class="af747f6d-0305-4937-8483-e69c2b5d7ca6" d="M61.06,31.16a27,27,0,1,1-27-27A27,27,0,0,1,61.06,31.16Z"/>
    </clipPath>
    <clipPath id="ab823ef0-13d2-428b-b5e0-b96b89cbb3a1">
      <path class="af747f6d-0305-4937-8483-e69c2b5d7ca6" d="M129.82,31.16a27,27,0,1,1-27-27A27,27,0,0,1,129.82,31.16Z"/>
    </clipPath>
  </defs>
  <g id="be2bea47-ccf7-4513-a3ed-2ad3453fe545" data-name="Users">
    <g>
      <path class="a9752d69-f47a-414d-b002-8d4849acf9fa" d="M56.2,104.78a27,27,0,1,1-27-27A27,27,0,0,1,56.2,104.78Z"/>
      <path class="a6647d09-e0cc-4d3d-9887-5de8439ef4ab" d="M34.08,71A28.93,28.93,0,1,0,63,99.92,29,29,0,0,0,34.08,71Z"/>
      <g class="efa22d28-773a-4ce0-9a1f-fc1826c03dcb">
        <g>
          <path class="f94f8883-04d2-484e-a741-147f03c17d73" d="M22.71,92.69a11.37,11.37,0,1,1,11.37,11.37A11.37,11.37,0,0,1,22.71,92.69Z"/>
          <path class="f94f8883-04d2-484e-a741-147f03c17d73" d="M53.91,123.9a17.51,17.51,0,0,0-1.48-6.46,15.41,15.41,0,0,0-7.76-7.72,17.06,17.06,0,0,0-7.11-1.43h-7a17.08,17.08,0,0,0-7.12,1.43,15.41,15.41,0,0,0-7.76,7.72,17.51,17.51,0,0,0-1.48,6.46,2.78,2.78,0,0,0,2.8,2.85c3.64,0,7.3,0,11,0H40.16c3.65,0,7.31,0,11,0A2.78,2.78,0,0,0,53.91,123.9Z"/>
        </g>
      </g>
      <path class="b99d38af-71cf-4de8-9655-431e8978338d" d="M34.08,128.85A28.93,28.93,0,1,1,63,99.92,29,29,0,0,1,34.08,128.85Zm0-54a25,25,0,1,0,25,25A25.06,25.06,0,0,0,34.08,74.89Z"/>
    </g>
    <g>
      <path class="a9752d69-f47a-414d-b002-8d4849acf9fa" d="M125,104.78a27,27,0,1,1-27-27A27,27,0,0,1,125,104.78Z"/>
      <path class="a6647d09-e0cc-4d3d-9887-5de8439ef4ab" d="M102.84,71a28.93,28.93,0,1,0,28.92,28.92A29,29,0,0,0,102.84,71Z"/>
      <g class="b54bcb23-9ce4-4917-8f9c-772fb1326955">
        <g>
          <path class="b7f9d74e-8b2d-40c3-95b9-07da55e3f27b" d="M91.47,92.69a11.37,11.37,0,1,1,11.37,11.37A11.37,11.37,0,0,1,91.47,92.69Z"/>
          <path class="b7f9d74e-8b2d-40c3-95b9-07da55e3f27b" d="M122.67,123.9a17.31,17.31,0,0,0-1.48-6.46,15.41,15.41,0,0,0-7.76-7.72,17,17,0,0,0-7.11-1.43h-7a17,17,0,0,0-7.11,1.43,15.37,15.37,0,0,0-7.76,7.72A17.31,17.31,0,0,0,83,123.9a2.76,2.76,0,0,0,2.79,2.85c3.65,0,7.3,0,11,0h12.18c3.65,0,7.3,0,10.95,0A2.76,2.76,0,0,0,122.67,123.9Z"/>
        </g>
      </g>
      <path class="b99d38af-71cf-4de8-9655-431e8978338d" d="M102.84,128.85a28.93,28.93,0,1,1,28.92-28.93A29,29,0,0,1,102.84,128.85Zm0-54a25,25,0,1,0,25,25A25.06,25.06,0,0,0,102.84,74.89Z"/>
    </g>
    <g>
      <path class="a9752d69-f47a-414d-b002-8d4849acf9fa" d="M56.2,36a27,27,0,1,1-27-27A27,27,0,0,1,56.2,36Z"/>
      <path class="a6647d09-e0cc-4d3d-9887-5de8439ef4ab" d="M34.08,2.24A28.92,28.92,0,1,0,63,31.16,29,29,0,0,0,34.08,2.24Z"/>
      <g class="f8de7f6a-4dd7-4386-b258-7b7caac34374">
        <g>
          <circle class="bcad7447-12f1-447f-a874-a1c44d4d649d" cx="34.08" cy="23.92" r="11.37" transform="translate(2.87 51.49) rotate(-76.53)"/>
          <path class="b7f9d74e-8b2d-40c3-95b9-07da55e3f27b" d="M53.91,55.13a17.55,17.55,0,0,0-1.48-6.46A15.39,15.39,0,0,0,44.67,41a16.91,16.91,0,0,0-7.11-1.43h-7A16.92,16.92,0,0,0,23.48,41a15.39,15.39,0,0,0-7.76,7.71,17.55,17.55,0,0,0-1.48,6.46A2.77,2.77,0,0,0,17,58c3.64,0,7.3,0,11,0H40.16c3.65,0,7.31,0,11,0A2.77,2.77,0,0,0,53.91,55.13Z"/>
        </g>
      </g>
      <path class="b99d38af-71cf-4de8-9655-431e8978338d" d="M34.08,60.08A28.92,28.92,0,1,1,63,31.16,29,29,0,0,1,34.08,60.08Zm0-54a25,25,0,1,0,25,25A25.07,25.07,0,0,0,34.08,6.12Z"/>
    </g>
    <g>
      <path class="a9752d69-f47a-414d-b002-8d4849acf9fa" d="M125,36A27,27,0,1,1,98,9,27,27,0,0,1,125,36Z"/>
      <path class="a6647d09-e0cc-4d3d-9887-5de8439ef4ab" d="M102.84,60.08A28.92,28.92,0,1,0,73.92,31.16,28.95,28.95,0,0,0,102.84,60.08Z"/>
      <g class="b5b5992d-5fb9-4b5c-af3f-aade4a2fced5">
        <g>
          <path class="f94f8883-04d2-484e-a741-147f03c17d73" d="M91.47,23.92a11.37,11.37,0,1,1,11.37,11.37A11.37,11.37,0,0,1,91.47,23.92Z"/>
          <path class="f94f8883-04d2-484e-a741-147f03c17d73" d="M122.67,55.13a17.35,17.35,0,0,0-1.48-6.46A15.39,15.39,0,0,0,113.43,41a16.84,16.84,0,0,0-7.11-1.43h-7A16.84,16.84,0,0,0,92.25,41a15.35,15.35,0,0,0-7.76,7.71A17.35,17.35,0,0,0,83,55.13,2.76,2.76,0,0,0,85.8,58c3.65,0,7.3,0,11,0h12.18c3.65,0,7.3,0,10.95,0A2.76,2.76,0,0,0,122.67,55.13Z"/>
        </g>
      </g>
      <path class="b99d38af-71cf-4de8-9655-431e8978338d" d="M102.84,60.08a28.92,28.92,0,1,1,28.92-28.92A28.95,28.95,0,0,1,102.84,60.08Zm0-54a25,25,0,1,0,25,25A25.07,25.07,0,0,0,102.84,6.12Z"/>
    </g>
  </g>
</svg>
