<?xml version="1.0" encoding="utf-8"?>
<!-- Generator: Adobe Illustrator 22.1.0, SVG Export Plug-In . SVG Version: 6.00 Build 0)  -->
<svg version="1.1" xmlns="http://www.w3.org/2000/svg" xmlns:xlink="http://www.w3.org/1999/xlink" x="0px" y="0px"
	 viewBox="0 0 71 80" style="enable-background:new 0 0 71 80;" xml:space="preserve">
<g id="shortcut">
	<g>
		<g>
			<path d="M34.3,23.9c0.2,3.1,0.3,6.3,0.4,9.5c0.1,3.2,0.2,6.4,0.2,9.6c0,3.2,0.1,6.4,0.1,9.7c0,3.2-0.1,6.5-0.2,9.7l0,0.9
				l-0.8-0.4c-2-1-4.2-1.8-6.3-2.5c-2.2-0.7-4.4-1.3-6.7-1.7c-2.3-0.4-4.5-0.8-6.8-1c-2.3-0.2-4.6-0.3-6.9-0.4l-0.4,0l0-0.4
				c-0.2-6.5-0.3-12.9-0.4-19.4c0-3.2-0.1-6.5-0.1-9.7c0-3.2,0-6.5,0-9.7l0-0.7l0.7-0.1c2.4-0.3,4.8-0.2,7.2-0.1
				c2.4,0.2,4.7,0.5,7,1.1c2.3,0.6,4.6,1.3,6.7,2.3c1.1,0.4,2.1,1,3.2,1.6C32.3,22.5,33.3,23.3,34.3,23.9z M34.1,24l-1.6-0.8
				c-0.5-0.3-1-0.5-1.5-0.7c-1.1-0.5-2.1-0.9-3.2-1.3c-2.2-0.8-4.4-1.4-6.7-1.8c-2.3-0.4-4.6-0.7-6.9-0.8c-2.3-0.1-4.6,0-6.8,0.3
				L8.1,18c0,3.2,0.1,6.5,0,9.7c0,3.2-0.1,6.5-0.1,9.7c0,6.5-0.2,12.9-0.4,19.4l-0.4-0.4l3.5,0.3c1.1,0.1,2.3,0.2,3.4,0.4
				c2.3,0.3,4.6,0.7,6.8,1.1c2.3,0.4,4.5,0.9,6.8,1.5c2.2,0.6,4.4,1.3,6.6,2.2l-0.8,0.5c-0.1-3.2-0.2-6.3-0.2-9.5
				c0-3.2,0-6.3,0.1-9.5c0-3.2,0.1-6.4,0.2-9.6C33.8,30.5,34,27.2,34.1,24z"/>
		</g>
		<g>
			<path d="M36.9,24c0.2,3.3,0.3,6.5,0.4,9.7c0.1,3.2,0.2,6.4,0.2,9.6c0,3.2,0.1,6.4,0.1,9.5c0,3.2-0.1,6.3-0.2,9.5l-0.8-0.5
				c2.2-1,4.4-1.6,6.6-2.2c2.2-0.6,4.5-1.1,6.8-1.5c2.3-0.4,4.5-0.8,6.8-1.1c1.1-0.2,2.3-0.3,3.4-0.4l3.5-0.3l-0.4,0.4
				c-0.2-6.5-0.3-12.9-0.4-19.4c0-3.2-0.1-6.5-0.1-9.7c0-3.2,0-6.5,0-9.7l0.7,0.8c-2.2-0.3-4.5-0.4-6.8-0.3
				c-2.3,0.1-4.6,0.4-6.9,0.8c-2.3,0.4-4.5,1-6.7,1.8c-1.1,0.4-2.2,0.8-3.2,1.3c-0.6,0.2-1,0.5-1.5,0.7L36.9,24z M36.7,23.9
				c1-0.6,2-1.3,3-1.9c1-0.6,2.1-1.1,3.2-1.6c2.2-1,4.4-1.7,6.7-2.3c2.3-0.6,4.6-0.9,7-1.1c2.4-0.2,4.7-0.2,7.2,0.1l0.7,0.1l0,0.7
				c0,3.2,0.1,6.5,0,9.7c0,3.2-0.1,6.5-0.1,9.7c0,6.5-0.2,12.9-0.4,19.4l0,0.4l-0.4,0c-2.3,0.1-4.6,0.1-6.9,0.4
				c-2.3,0.2-4.6,0.6-6.8,1c-2.2,0.5-4.5,1-6.7,1.7c-2.2,0.7-4.3,1.5-6.3,2.5l-0.8,0.4l0-0.9c-0.1-3.2-0.2-6.5-0.2-9.7
				c0-3.2,0-6.5,0.1-9.7c0-3.2,0.1-6.4,0.2-9.6C36.5,30.1,36.6,27,36.7,23.9z"/>
		</g>
		<path style="fill:none;stroke:#128BC7;stroke-linecap:round;stroke-miterlimit:10;" d="M41.8,33.8c0,0,6.7-4.6,16.5-3.3"/>
		<path style="fill:none;stroke:#128BC7;stroke-linecap:round;stroke-miterlimit:10;" d="M41.8,39c0,0,6.7-4.6,16.5-3.3"/>
		<path style="fill:none;stroke:#128BC7;stroke-linecap:round;stroke-miterlimit:10;" d="M42,44.2c0,0,6.7-4.6,16.5-3.3"/>
		<path style="fill:none;stroke:#128BC7;stroke-linecap:round;stroke-miterlimit:10;" d="M42,49.4c0,0,6.7-4.6,16.5-3.3"/>
		<path style="fill:none;stroke:#128BC7;stroke-linecap:round;stroke-miterlimit:10;" d="M42,54.7c0,0,6.7-4.6,16.5-3.3"/>
		<path style="fill:none;stroke:#128BC7;stroke-linecap:round;stroke-miterlimit:10;" d="M41.2,28.6c0,0,6.7-4.6,16.5-3.3"/>
		<path style="fill:none;stroke:#128BC7;stroke-linecap:round;stroke-miterlimit:10;" d="M28.8,33.7c0,0-6.7-4.6-16.5-3.3"/>
		<path style="fill:none;stroke:#128BC7;stroke-linecap:round;stroke-miterlimit:10;" d="M28.8,38.9c0,0-6.7-4.6-16.5-3.3"/>
		<path style="fill:none;stroke:#128BC7;stroke-linecap:round;stroke-miterlimit:10;" d="M28.7,44.1c0,0-6.7-4.6-16.5-3.3"/>
		<path style="fill:none;stroke:#128BC7;stroke-linecap:round;stroke-miterlimit:10;" d="M28.7,49.3c0,0-6.7-4.6-16.5-3.3"/>
		<path style="fill:none;stroke:#128BC7;stroke-linecap:round;stroke-miterlimit:10;" d="M28.7,54.5c0,0-6.7-4.6-16.5-3.3"/>
		<path style="fill:none;stroke:#128BC7;stroke-linecap:round;stroke-miterlimit:10;" d="M29.5,28.4c0,0-6.7-4.6-16.5-3.3"/>
	</g>
</g>
<g id="file">
</g>
</svg>
