<?xml version="1.0" encoding="utf-8"?>
<!-- Generator: Adobe Illustrator 22.1.0, SVG Export Plug-In . SVG Version: 6.00 Build 0)  -->
<svg version="1.1" xmlns="http://www.w3.org/2000/svg" xmlns:xlink="http://www.w3.org/1999/xlink" x="0px" y="0px"
	 viewBox="0 0 71 80" style="enable-background:new 0 0 71 80;" xml:space="preserve">
<g id="shortcut">
</g>
<g id="file">
	<g>
		<path style="fill:none;stroke:#000000;stroke-width:1.5;stroke-miterlimit:10;" d="M57.8,42.7c1.4,1.8,2.8,3.6,3.9,5.5l0,0
			c-1.9,1.2-3.8,2.5-5.6,3.9c-1.4,1.1-1.4,2.5-0.1,3c1,0.4,1.8,0.8,2.3,1c1.6,0.6,2.1,2.8,1.3,4.8c-0.8,2-2.8,3.2-4.3,2.5
			c-0.7-0.3-1.9-1.6-3-3.1c-1.1-1.4-2.7-1.7-3.8-0.3c-1.2,1.5-2.3,3.1-3.2,4.7l0,0c-1.2-1.9-2.5-3.8-3.9-5.5c-1.1-1.4-2.5-1.4-3-0.1
			c-0.4,1-0.8,1.8-1,2.3c-0.6,1.6-2.8,2.1-4.8,1.3c-2-0.8-3.2-2.8-2.5-4.3c0.3-0.7,1.6-1.9,3.1-3c1.4-1.1,1.7-2.7,0.3-3.8
			c-1.5-1.2-3.1-2.3-4.7-3.2l0,0c1-1.6,2.1-3.2,3.2-4.7c1.1-1.4,2.7-1.2,3.8,0.3c1.1,1.6,2.4,2.9,3,3.1c1.6,0.6,3.5-0.5,4.3-2.5
			c0.8-2,0.3-4.2-1.3-4.8c-0.5-0.2-1.3-0.6-2.3-1c-1.3-0.5-1.2-1.8,0.1-3c1.8-1.4,3.6-2.8,5.6-4l0,0c1.6,1,3.2,2.1,4.7,3.3
			c1.4,1.1,1.2,2.7-0.3,3.8c-1.6,1.1-2.9,2.4-3.1,3c-0.6,1.6,0.5,3.5,2.5,4.3c2,0.8,4.2,0.3,4.8-1.3c0.2-0.5,0.6-1.3,1-2.3
			C55.3,41.3,56.7,41.3,57.8,42.7z"/>
		<path style="fill:none;stroke:#000000;stroke-width:1.5;stroke-miterlimit:10;" d="M-0.4,53.8c-1.4-1.8-2.8-3.6-3.9-5.5l0,0
			c1.9-1.2,3.8-2.5,5.6-3.9c1.4-1.1,1.4-2.5,0.1-3c-1-0.4-1.8-0.8-2.3-1c-1.6-0.6-2.1-2.8-1.3-4.8c0.8-2,2.8-3.2,4.3-2.5
			c0.7,0.3,1.9,1.6,3,3.1c1.1,1.4,2.7,1.7,3.8,0.3c1.2-1.5,2.3-3.1,3.2-4.7l0,0c1.2,1.9,2.5,3.8,3.9,5.5c1.1,1.4,2.5,1.4,3,0.1
			c0.4-1,0.8-1.8,1-2.3c0.6-1.6,2.8-2.1,4.8-1.3c2,0.8,3.2,2.8,2.5,4.3c-0.3,0.7-1.6,1.9-3.1,3c-1.4,1.1-1.7,2.7-0.3,3.8
			c1.5,1.2,3.1,2.3,4.7,3.2l0,0c-1,1.6-2.1,3.2-3.2,4.7c-1.1,1.4-2.7,1.2-3.8-0.3c-1.1-1.6-2.4-2.9-3-3.1c-1.6-0.6-3.5,0.5-4.3,2.5
			c-0.8,2-0.3,4.2,1.3,4.8c0.5,0.2,1.3,0.6,2.3,1c1.3,0.5,1.2,1.8-0.1,3c-1.8,1.4-3.6,2.8-5.6,4l0,0c-1.6-1-3.2-2.1-4.7-3.3
			c-1.4-1.1-1.2-2.7,0.3-3.8c1.6-1.1,2.9-2.4,3.1-3c0.6-1.6-0.5-3.5-2.5-4.3c-2-0.8-4.2-0.3-4.8,1.3C3.3,52.2,3,53,2.6,54
			C2,55.2,0.7,55.2-0.4,53.8z"/>
		<path style="fill:none;stroke:#60439A;stroke-width:1.5;stroke-miterlimit:10;" d="M19.9,6.3c1.3-1.8,2.8-3.6,4.4-5.2l0,0
			c1.6,1.6,3.4,3.1,5.2,4.4c1.4,1.1,2.7,0.7,2.9-0.6c0.1-1,0.3-1.9,0.4-2.4C33,0.9,34.9-0.3,37.1,0c2.2,0.3,3.7,1.9,3.5,3.6
			c-0.1,0.7-1,2.2-2.3,3.7c-1.1,1.4-1,3,0.7,3.7c1.7,0.8,3.5,1.4,5.3,2l0,0c-1.6,1.6-3.1,3.4-4.4,5.2c-1.1,1.4-0.7,2.7,0.6,2.9
			c1,0.1,1.9,0.3,2.4,0.4c1.7,0.2,2.8,2.2,2.5,4.4c-0.3,2.2-1.9,3.7-3.6,3.5c-0.7-0.1-2.2-1-3.7-2.3c-1.4-1.1-3-1-3.7,0.7
			c-0.8,1.7-1.4,3.5-2,5.3l0,0c-1.8-0.6-3.6-1.2-5.3-2c-1.6-0.7-1.8-2.3-0.7-3.7c1.2-1.5,2.2-3,2.3-3.7c0.2-1.7-1.3-3.3-3.5-3.6
			c-2.2-0.3-4.1,0.8-4.4,2.5c-0.1,0.5-0.2,1.4-0.4,2.4c-0.2,1.3-1.5,1.7-2.9,0.6c-1.8-1.3-3.6-2.8-5.2-4.4l0,0
			c0.6-1.8,1.2-3.6,2-5.3c0.7-1.6,2.3-1.8,3.7-0.7c1.5,1.2,3,2.2,3.7,2.3c1.7,0.2,3.3-1.3,3.6-3.5c0.3-2.2-0.8-4.1-2.5-4.4
			c-0.5-0.1-1.4-0.2-2.4-0.4C19.1,9.1,18.8,7.8,19.9,6.3z"/>
		<path style="fill:none;stroke:#000000;stroke-width:1.5;stroke-miterlimit:10;" d="M34.3,77.4c-1.8,1.4-3.6,2.8-5.5,3.9l0,0
			c-1.2-1.9-2.5-3.8-3.9-5.6c-1.1-1.4-2.5-1.4-3-0.1c-0.4,1-0.8,1.8-1,2.3C20.2,79.4,18,80,16,79.2c-2-0.8-3.2-2.8-2.5-4.3
			c0.3-0.7,1.6-1.9,3.1-3c1.4-1.1,1.7-2.7,0.3-3.8c-1.5-1.2-3.1-2.3-4.7-3.2l0,0c1.9-1.2,3.8-2.5,5.5-3.9c1.4-1.1,1.4-2.5,0.1-3
			c-1-0.4-1.8-0.8-2.3-1c-1.6-0.6-2.1-2.8-1.3-4.8c0.8-2,2.8-3.2,4.3-2.5c0.7,0.3,1.9,1.6,3,3.1c1.1,1.4,2.7,1.7,3.8,0.3
			c1.2-1.5,2.3-3.1,3.2-4.7l0,0c1.6,1,3.2,2.1,4.7,3.2c1.4,1.1,1.2,2.7-0.3,3.8c-1.6,1.1-2.9,2.4-3.1,3c-0.6,1.6,0.5,3.5,2.5,4.3
			c2,0.8,4.2,0.3,4.8-1.3c0.2-0.5,0.6-1.3,1-2.3c0.5-1.3,1.8-1.2,3,0.1c1.4,1.8,2.8,3.6,4,5.6l0,0c-1,1.6-2.1,3.2-3.3,4.7
			c-1.1,1.4-2.7,1.2-3.8-0.3c-1.1-1.6-2.4-2.9-3-3.1c-1.6-0.6-3.5,0.5-4.3,2.5c-0.8,2-0.3,4.2,1.3,4.8c0.5,0.2,1.3,0.6,2.3,1
			C35.6,74.9,35.6,76.3,34.3,77.4z"/>
	</g>
</g>
</svg>
