<svg xmlns="http://www.w3.org/2000/svg" preserveAspectRatio="xMinYMin meet">
    <defs>
        <symbol id="logo-sm" viewBox="0 0 200.4 266.1">
            <g fill="var(--logo-default)">
                <path d="M114.7,0c-27,0-48.9,21.9-48.9,48.9s21.9,48.9,48.9,48.9c27,0,48.9-21.9,48.9-48.9S141.8,0,114.7,0z
                     M114.7,84.4c-19.6,0-35.5-15.9-35.5-35.5s15.9-35.5,35.5-35.5s35.5,15.9,35.5,35.5S134.3,84.4,114.7,84.4z"
                />

                <path d="M162,66.7c-7.9,0-15.3,2.4-21.4,6.5c-1.9,2-4,3.8-6.3,5.3c-6.6,6.9-10.7,16.2-10.7,26.6
                    c0,21.2,17.2,38.4,38.4,38.4c21.2,0,38.4-17.2,38.4-38.4S183.2,66.7,162,66.7z M162,128.2c-12.8,0-23.1-10.4-23.1-23.1
                    s10.4-23.1,23.1-23.1s23.1,10.4,23.1,23.1S174.8,128.2,162,128.2z"
                />

                <path d="M142.6,117.7c-4.2-2.7-9.2-4.3-14.6-4.3c-15,0-27.1,12.1-27.1,27.1c0,15,12.1,27.1,27.1,27.1
                    c15,0,27.1-12.1,27.1-27.1c0-5.8-1.8-11.1-4.9-15.6C147.1,123.2,144.6,120.7,142.6,117.7z M128,150.7c-5.6,0-10.1-4.5-10.1-10.1
                    s4.5-10.1,10.1-10.1s10.1,4.5,10.1,10.1S133.6,150.7,128,150.7z"
                />
            </g>

            <g fill="var(--logo-primary)">
                <path d="M131.5,179.3c0.3,2.2,0.4,4.3,0.4,6.6c0,28.6-23.1,51.7-51.7,51.7c-28.6,0-51.7-23.1-51.7-51.7
                    s23.1-51.7,51.7-51.7c3.2,0,6.3,0.3,9.3,0.8c1.5-10.4,7.1-19.5,15.2-25.6c-7.7-2.5-15.9-3.8-24.5-3.8C35.9,105.6,0,141.5,0,185.8
                    s35.9,80.3,80.3,80.3c44.3,0,80.3-35.9,80.3-80.3c0-7-0.9-13.9-2.6-20.4C151.5,173.1,142.1,178.3,131.5,179.3z"
                />
            </g>
        </symbol>
    </defs>
</svg>
