<svg xmlns="http://www.w3.org/2000/svg" viewBox="0 0 71 80" preserveAspectRatio="xMinYMin meet">
    <defs>
        <symbol id="users" viewBox="0 0 71 80">
            <g>
                <path
                    style="fill:#128BC7;"
                    d="M44.3,36.5c0,0.3,0.1,0.7,0.1,1c0,4.4-3.6,8.1-8.1,8.1c-4.4,0-8.1-3.6-8.1-8.1s3.6-8.1,8.1-8.1c0.5,0,1,0,1.4,0.1c0.2-1.6,1.1-3,2.4-4C39,25.2,37.7,25,36.4,25c-6.9,0-12.5,5.6-12.5,12.5S29.4,50,36.4,50s12.5-5.6,12.5-12.5c0-1.1-0.1-2.2-0.4-3.2C47.5,35.5,46,36.3,44.3,36.5z"
                />
                <path
                    style="fill:#128BC7;"
                    d="M44.4,36.5c0.3,1.6,0,3.4-0.8,4.9c-0.8,1.5-2.1,2.8-3.7,3.5c-3.1,1.6-7.2,0.9-9.6-1.7c-1.2-1.3-2-2.9-2.2-4.6c-0.2-1.7,0.1-3.5,0.9-5c0.9-1.5,2.2-2.8,3.7-3.5c1.6-0.8,3.3-0.9,5-0.6l-0.2,0.1c0.2-1.6,1.1-3.1,2.4-4.1l0,0.2c-2.6-0.8-5.5-0.7-8,0.2c-2.6,0.9-4.8,2.8-6.2,5.1c-1.5,2.3-2,5.1-1.8,7.7c0.3,2.7,1.4,5.2,3.3,7.2c1.9,1.9,4.3,3.3,7,3.6c2.7,0.4,5.4-0.1,7.8-1.4c2.4-1.3,4.3-3.4,5.4-5.8c1.1-2.5,1.3-5.3,0.7-8l0.2,0c-0.5,0.6-1.2,1.1-1.9,1.5c-0.4,0.2-0.7,0.3-1.1,0.4C45.2,36.4,44.7,36.5,44.4,36.5z M44.3,36.4c0.4-0.1,0.8-0.1,1.2-0.3c0.4-0.1,0.7-0.3,1.1-0.5c0.7-0.4,1.3-0.9,1.8-1.5l0.1-0.2l0.1,0.2c0.8,2.7,0.5,5.6-0.5,8.2c-1.1,2.6-3,4.8-5.5,6.2c-2.5,1.4-5.4,1.9-8.2,1.5c-2.8-0.4-5.4-1.8-7.4-3.9c-2-2-3.1-4.8-3.4-7.6c-0.2-2.8,0.4-5.7,2-8c1.5-2.4,3.8-4.2,6.4-5.1c2.6-1,5.5-1,8.2-0.1l0.2,0.1l-0.2,0.1c-1.2,0.9-2.1,2.4-2.3,3.9l0,0.1l-0.1,0c-1.6-0.2-3.4,0-4.8,0.7c-1.5,0.7-2.7,1.9-3.5,3.4c-0.7,1.4-1.1,3.1-0.8,4.7c0.2,1.6,0.9,3.1,2.1,4.3c2.2,2.4,6,3.1,9,1.7c1.5-0.7,2.7-1.9,3.6-3.3C44.1,39.8,44.5,38.2,44.3,36.4z"
                />
            </g>

            <path
                d="M41.7,8.5c-4.2,0-7.6,3.4-7.6,7.6s3.4,7.6,7.6,7.6c4.2,0,7.6-3.4,7.6-7.6S45.9,8.5,41.7,8.5z M41.7,21.7c-3.1,0-5.5-2.5-5.5-5.5s2.5-5.5,5.5-5.5s5.5,2.5,5.5,5.5S44.8,21.7,41.7,21.7z"
            />
            <path
                d="M46.1,26.9c-0.7-0.4-1.4-0.7-2.3-0.7c-2.3,0-4.2,1.9-4.2,4.2s1.9,4.2,4.2,4.2c2.3,0,4.2-1.9,4.2-4.2c0-0.9-0.3-1.7-0.8-2.4C46.8,27.7,46.4,27.3,46.1,26.9z M43.8,32c-0.9,0-1.6-0.7-1.6-1.6s0.7-1.6,1.6-1.6c0.9,0,1.6,0.7,1.6,1.6S44.7,32,43.8,32z"
            />
            <path
                d="M49.1,18.9c-1.2,0-2.4,0.4-3.3,1c-0.3,0.3-0.6,0.6-1,0.8c-1,1.1-1.7,2.5-1.7,4.1c0,3.3,2.7,6,6,6c3.3,0,6-2.7,6-6S52.4,18.9,49.1,18.9z M49.1,28.5c-2,0-3.6-1.6-3.6-3.6s1.6-3.6,3.6-3.6c2,0,3.6,1.6,3.6,3.6S51.1,28.5,49.1,28.5z"
            />

            <g>
                <path
                    style="stroke:#000000;stroke-width:0.941;stroke-miterlimit:10;"
                    d="M45.8,50.4c-2.5,2.2-5.8,3.5-9.4,3.5c-3.8,0-7.3-1.5-9.9-4c-7.1,3.9-12,12-12.1,21.6c0,1,0.1,2,0.2,3l42.2,0.2c0.1-1,0.2-2,0.2-3C57,62.4,52.5,54.4,45.8,50.4z"
                />
            </g>
        </symbol>

        <symbol id="resources" viewBox="0 0 71 80">
            <path
                style="fill:#98C03D;"
                d="M50.9,36c-0.8-0.6-4.4-0.1-5.4-0.1c-1.9,0-3.7,0-5.6,0.1c-4,0.1-8,0.4-12.1-0.1
                c-0.2,0-0.4-0.1-0.6-0.1c-1.6-0.2-2.7-1.2-3.1-2.5c-0.2-0.2-0.5-0.5-0.6-0.7c-0.3,0-0.6-0.1-0.8-0.1c-0.2,0-0.3,0-0.5,0
                c-2,0-4,0.1-6,0.1c-0.5,0-1-0.1-1.4-0.3c-0.4,0.5-0.9,0.9-1.5,1.2c-0.3,0.4-0.7,0.7-1.1,1c-0.5,1.3-1.7,2.3-3.6,2.3
                c-0.1,0-0.2,0-0.3,0c-0.4,0.3-1,0.5-1.6,0.5v28h46V36.9C52.2,36.8,51.5,36.5,50.9,36z"
            />
            <g>
                <g>
                    <defs>
                        <rect id="SVGID_1_" x="26" y="24.5" width="24" height="24.1"/>
                    </defs>
                    <clipPath id="SVGID_2_">
                        <use xlink:href="#SVGID_1_" style="overflow:visible;"/>
                    </clipPath>
                    <path
                        style="clip-path:url(#SVGID_2_);"
                        d="M49.1,38.6l-1.5-0.9c0.1-0.6,0.1-1.2,0-1.9l1.5-0.9c0.6-0.4,0.9-1.2,0.6-1.8L49,31
                        c-0.2-0.6-0.8-0.9-1.4-0.9c-0.1,0-0.2,0-0.3,0l-1.7,0.4c-0.4-0.5-0.8-0.9-1.3-1.3l0.4-1.8c0.2-0.7-0.2-1.4-0.9-1.7l-2-0.9
                        c-0.2-0.1-0.4-0.1-0.6-0.1c-0.5,0-1,0.3-1.3,0.7c0,0,0,0,0,0l-0.9,1.5c-0.6-0.1-1.2-0.1-1.8,0l-0.9-1.5c-0.3-0.4-0.8-0.7-1.3-0.7
                        c-0.2,0-0.4,0-0.6,0.1l-2,0.8c-0.7,0.3-1.1,1-0.9,1.7l0.4,1.7c-0.5,0.4-1,0.8-1.4,1.3l-1.7-0.4c-0.1,0-0.2,0-0.4,0
                        c-0.6,0-1.1,0.4-1.4,0.9l-0.9,2c-0.3,0.7,0,1.5,0.6,1.9l1.5,1c-0.1,0.6-0.1,1.2,0,1.9l-1.5,0.9c0,0,0,0,0,0
                        c-0.6,0.4-0.9,1.1-0.6,1.8c0,0,0,0,0,0l0.8,2c0.2,0.6,0.8,0.9,1.4,0.9c0.1,0,0.2,0,0.3,0l1.7-0.4c0.4,0.5,0.8,0.9,1.3,1.3
                        l-0.4,1.7c-0.2,0.7,0.2,1.4,0.9,1.7l2,0.9c0.2,0.1,0.4,0.1,0.6,0.1c0.5,0,1-0.3,1.3-0.7l1-1.5c0.6,0.1,1.2,0.1,1.9,0l0.9,1.5
                        c0.3,0.4,0.8,0.7,1.3,0.7c0.2,0,0.4,0,0.6-0.1l2-0.8c0.7-0.3,1.1-1,0.9-1.7l-0.4-1.7c0.5-0.4,0.9-0.8,1.3-1.2l1.7,0.4
                        c0.1,0,0.2,0,0.4,0c0.6,0,1.1-0.4,1.4-0.9l0.9-2C50,39.8,49.8,39,49.1,38.6L49.1,38.6z M48.5,39.9l-0.9,2c0,0.1-0.1,0.1-0.1,0.1
                        c0,0,0,0,0,0l-2.2-0.5c-0.3-0.1-0.5,0-0.7,0.2c-0.5,0.6-1,1.2-1.6,1.6c-0.2,0.2-0.3,0.4-0.3,0.7l0.5,2.1c0,0.1,0,0.2-0.1,0.2
                        l-2,0.8c0,0,0,0-0.1,0c0,0-0.1,0-0.1-0.1l-1.1-1.9c-0.1-0.2-0.3-0.3-0.6-0.3c0,0-0.1,0-0.1,0c-0.4,0-0.7,0.1-1.1,0.1
                        c-0.4,0-0.8,0-1.3-0.1c-0.3,0-0.5,0.1-0.7,0.3L34.8,47c0,0.1-0.1,0.1-0.2,0.1l-2-0.9c-0.1,0-0.1-0.1-0.1-0.2l0.5-2.1
                        c0.1-0.3,0-0.5-0.2-0.7c-0.6-0.5-1.2-1-1.6-1.7c-0.2-0.2-0.4-0.3-0.7-0.3l-2.1,0.5c0,0,0,0,0,0c-0.1,0-0.1,0-0.2-0.1l-0.8-2
                        c0-0.1,0-0.2,0.1-0.2l1.9-1.1c0.2-0.1,0.4-0.4,0.3-0.7c-0.1-0.8-0.1-1.6,0-2.4c0-0.3-0.1-0.5-0.3-0.7l-1.9-1.2
                        c-0.1,0-0.1-0.1-0.1-0.2l0.9-2c0-0.1,0.1-0.1,0.1-0.1c0,0,0,0,0,0l2.1,0.5c0.3,0.1,0.5,0,0.7-0.2c0.5-0.6,1.1-1.2,1.7-1.7
                        c0.2-0.2,0.3-0.4,0.3-0.7l-0.5-2.1c0-0.1,0-0.2,0.1-0.2l2-0.8c0,0,0,0,0.1,0c0,0,0.1,0,0.1,0.1l1.2,1.9c0.1,0.2,0.4,0.3,0.7,0.3
                        c0.7-0.1,1.5-0.1,2.3,0c0.3,0,0.5-0.1,0.7-0.3l1.2-1.8c0-0.1,0.1-0.1,0.2-0.1l2,0.9c0.1,0,0.1,0.1,0.1,0.2l-0.5,2.2
                        c-0.1,0.3,0,0.5,0.2,0.7c0.6,0.5,1.2,1.1,1.6,1.7c0.2,0.2,0.4,0.3,0.7,0.3l2.1-0.5c0,0,0,0,0,0c0.1,0,0.1,0,0.2,0.1l0.8,2
                        c0,0.1,0,0.2-0.1,0.2l-1.9,1.2c-0.2,0.1-0.3,0.4-0.3,0.7c0.1,0.7,0.1,1.5,0,2.3c0,0.3,0.1,0.5,0.3,0.7l1.8,1.2
                        C48.5,39.7,48.5,39.8,48.5,39.9L48.5,39.9z M48.5,39.9"
                    />
                </g>
                <path
                    d="M38,31.6L38,31.6c-1.4,0-2.6,0.5-3.6,1.4c-0.9,0.9-1.5,2.2-1.5,3.5c0,2.7,2.2,5,4.9,5h0.1c1.3,0,2.5-0.5,3.5-1.4
                    c0.9-0.9,1.5-2.2,1.5-3.5C42.9,33.9,40.7,31.6,38,31.6L38,31.6z M37.9,40.1L37.9,40.1c-2.1,0-3.7-1.7-3.6-3.7c0-2,1.7-3.6,3.6-3.6
                    h0.1c2,0,3.6,1.7,3.6,3.7C41.5,38.5,39.9,40.1,37.9,40.1L37.9,40.1z M37.9,40.1"
                />
            </g>

            <g>
                <g>
                    <defs>
                        <rect id="SVGID_3_" x="5.8" y="31.5" width="53.2" height="40.2"/>
                    </defs>
                    <clipPath id="SVGID_4_">
                        <use xlink:href="#SVGID_3_"  style="overflow:visible;"/>
                    </clipPath>
                    <path
                        style="clip-path:url(#SVGID_4_);"
                        d="M57.3,41h-2.9c-0.3,0-0.3-0.5-0.3-0.5v-1.5c0-1.9-1.6-3.5-3.5-3.5H26.7
                        c-0.2,0-0.4-0.3-0.7-1c-0.1-0.1-0.1-0.2-0.2-0.3c-1.2-2.3-2.8-2.8-3.9-2.8h-6.2c-1.6,0-2.5,0.9-3.6,2.7c-0.1,0.1-0.1,0.2-0.2,0.4
                        c-0.4,0.6-0.6,1-0.8,1H9.3c-1.9,0-3.5,1.6-3.5,3.5v29c0,1.7,1.2,3.1,2.8,3.4c0.2,0.1,0.4,0.1,0.6,0.1h42.5c1.1,0,2.3-0.9,2.5-2.1
                        L59,43.1C59.2,41.9,58.4,41,57.3,41L57.3,41z M9.3,38.4h1.8c1.8,0,2.7-1.4,3.2-2.4c0.1-0.1,0.1-0.2,0.2-0.3c0.6-0.9,1-1.4,1.5-1.4
                        H22c0.2,0,0.7,0,1.4,1.3c0,0.1,0.1,0.2,0.1,0.3c0.5,1,1.3,2.5,3.2,2.5h23.8c0.4,0,0.7,0.3,0.7,0.7v1.4c0,0,0,0.6-0.3,0.6H14.8
                        c-1.1,0-2.3,0.9-2.5,2.1L8.8,62.7c0,0-0.2,0.7-0.2-0.6V39.1C8.6,38.7,8.9,38.4,9.3,38.4L9.3,38.4z M9.3,38.4"
                    />
                </g>
            </g>
            <g>
                <g>
                    <defs>
                        <rect id="SVGID_5_" x="50.5" y="18" transform="matrix(1 -1.757526e-03 1.757526e-03 1 -4.258821e-02 9.978134e-02)" width="12.5" height="12.5"/>
                    </defs>
                    <clipPath id="SVGID_6_">
                        <use xlink:href="#SVGID_5_"  style="overflow:visible;"/>
                    </clipPath>
                    <path
                        style="clip-path:url(#SVGID_6_);"
                        d="M62.6,25.3l-0.8-0.5c0-0.3,0-0.6,0-1l0.8-0.5c0.3-0.2,0.5-0.6,0.3-1l-0.4-1.1
                        c-0.1-0.3-0.4-0.5-0.7-0.5c-0.1,0-0.1,0-0.2,0l-0.9,0.2c-0.2-0.3-0.4-0.5-0.7-0.7l0.2-0.9c0.1-0.4-0.1-0.8-0.5-0.9l-1-0.4
                        c-0.1,0-0.2-0.1-0.3-0.1c-0.3,0-0.5,0.1-0.7,0.4c0,0,0,0,0,0l-0.5,0.8c-0.3,0-0.6,0-1,0l-0.5-0.8c-0.1-0.2-0.4-0.4-0.7-0.4
                        c-0.1,0-0.2,0-0.3,0.1l-1.1,0.4c-0.4,0.1-0.6,0.5-0.5,0.9l0.2,0.9c-0.3,0.2-0.5,0.4-0.7,0.7l-0.9-0.2c-0.1,0-0.1,0-0.2,0
                        c-0.3,0-0.6,0.2-0.7,0.5l-0.4,1c-0.1,0.4,0,0.8,0.3,1l0.8,0.5c0,0.3,0,0.6,0,1l-0.8,0.5c0,0,0,0,0,0c-0.3,0.2-0.5,0.6-0.3,0.9
                        c0,0,0,0,0,0l0.4,1.1c0.1,0.3,0.4,0.5,0.7,0.5c0.1,0,0.1,0,0.2,0l0.9-0.2c0.2,0.3,0.4,0.5,0.7,0.7l-0.2,0.9
                        c-0.1,0.4,0.1,0.8,0.5,0.9l1,0.4c0.1,0,0.2,0.1,0.3,0.1c0.3,0,0.5-0.1,0.7-0.4l0.5-0.8c0.3,0,0.6,0,1,0l0.5,0.8
                        c0.1,0.2,0.4,0.4,0.7,0.4c0.1,0,0.2,0,0.3-0.1l1.1-0.4c0.4-0.1,0.6-0.5,0.5-0.9l-0.2-0.9c0.2-0.2,0.5-0.4,0.7-0.6l0.9,0.2
                        c0.1,0,0.1,0,0.2,0c0.3,0,0.6-0.2,0.7-0.5l0.4-1C63,26,62.9,25.6,62.6,25.3L62.6,25.3z M62.2,26l-0.4,1c0,0,0,0.1-0.1,0.1
                        c0,0,0,0,0,0l-1.1-0.3c-0.1,0-0.3,0-0.4,0.1c-0.2,0.3-0.5,0.6-0.9,0.8c-0.1,0.1-0.2,0.2-0.1,0.4l0.2,1.1c0,0,0,0.1-0.1,0.1
                        l-1.1,0.4c0,0,0,0,0,0c0,0-0.1,0-0.1,0l-0.6-1c-0.1-0.1-0.2-0.2-0.3-0.2c0,0,0,0,0,0c-0.2,0-0.4,0-0.6,0c-0.2,0-0.4,0-0.7-0.1
                        c-0.1,0-0.3,0-0.3,0.2l-0.6,1c0,0-0.1,0-0.1,0l-1-0.4c0,0-0.1-0.1,0-0.1l0.3-1.1c0-0.1,0-0.3-0.1-0.4c-0.3-0.2-0.6-0.5-0.9-0.9
                        c-0.1-0.1-0.2-0.2-0.4-0.1L51.7,27c0,0,0,0,0,0c0,0-0.1,0-0.1-0.1l-0.4-1c0,0,0-0.1,0-0.1l1-0.6c0.1-0.1,0.2-0.2,0.2-0.3
                        c-0.1-0.4-0.1-0.8,0-1.2c0-0.1,0-0.3-0.2-0.3l-1-0.6c0,0,0-0.1,0-0.1l0.4-1c0,0,0-0.1,0.1-0.1c0,0,0,0,0,0l1.1,0.3
                        c0.1,0,0.3,0,0.4-0.1c0.3-0.3,0.6-0.6,0.9-0.9c0.1-0.1,0.2-0.2,0.1-0.4l-0.2-1.1c0,0,0-0.1,0.1-0.1l1.1-0.4c0,0,0,0,0,0
                        c0,0,0.1,0,0.1,0l0.6,1c0.1,0.1,0.2,0.2,0.3,0.2c0.4,0,0.8,0,1.2,0c0.1,0,0.3,0,0.3-0.2l0.6-1c0,0,0.1,0,0.1,0l1,0.4
                        c0,0,0.1,0.1,0,0.1l-0.3,1.1c0,0.1,0,0.3,0.1,0.4c0.3,0.3,0.6,0.5,0.8,0.9c0.1,0.1,0.2,0.2,0.4,0.1l1.1-0.2c0,0,0,0,0,0
                        c0,0,0.1,0,0.1,0.1l0.4,1.1c0,0,0,0.1,0,0.1l-1,0.6c-0.1,0.1-0.2,0.2-0.2,0.3c0,0.4,0,0.8,0,1.2c0,0.1,0,0.3,0.2,0.3l1,0.6
                        C62.2,26,62.2,26,62.2,26L62.2,26z M62.2,26"
                    />
                </g>
                <path
                    d="M56.7,21.7L56.7,21.7c-0.7,0-1.4,0.3-1.9,0.7c-0.5,0.5-0.8,1.1-0.8,1.8c0,1.4,1.1,2.6,2.6,2.6l0,0c0.7,0,1.3-0.3,1.8-0.7
                    c0.5-0.5,0.8-1.1,0.8-1.8C59.3,22.9,58.2,21.7,56.7,21.7L56.7,21.7z M56.7,26.2L56.7,26.2c-1.1,0-1.9-0.9-1.9-1.9
                    c0-1,0.9-1.9,1.9-1.9l0,0c1,0,1.9,0.9,1.9,1.9C58.6,25.3,57.7,26.2,56.7,26.2L56.7,26.2z M56.7,26.2"
                />
            </g>
            <g>
                <g>
                    <defs>
                        <rect id="SVGID_7_" x="41.5" y="12" width="7.5" height="7.5"/>
                    </defs>
                    <clipPath id="SVGID_8_">
                        <use xlink:href="#SVGID_7_"  style="overflow:visible;"/>
                    </clipPath>
                    <path
                        style="clip-path:url(#SVGID_8_);"
                        d="M48.7,16.4l-0.5-0.3c0-0.2,0-0.4,0-0.6l0.5-0.3c0.2-0.1,0.3-0.4,0.2-0.6l-0.3-0.6
                        c-0.1-0.2-0.2-0.3-0.4-0.3c0,0-0.1,0-0.1,0l-0.5,0.1c-0.1-0.2-0.3-0.3-0.4-0.4l0.1-0.5c0.1-0.2-0.1-0.5-0.3-0.5l-0.6-0.3
                        c-0.1,0-0.1,0-0.2,0c-0.2,0-0.3,0.1-0.4,0.2c0,0,0,0,0,0l-0.3,0.5c-0.2,0-0.4,0-0.6,0l-0.3-0.5c-0.1-0.1-0.2-0.2-0.4-0.2
                        c-0.1,0-0.1,0-0.2,0l-0.6,0.3c-0.2,0.1-0.3,0.3-0.3,0.5l0.1,0.5c-0.2,0.1-0.3,0.3-0.4,0.4l-0.5-0.1c0,0-0.1,0-0.1,0
                        c-0.2,0-0.4,0.1-0.4,0.3l-0.3,0.6c-0.1,0.2,0,0.5,0.2,0.6l0.5,0.3c0,0.2,0,0.4,0,0.6l-0.5,0.3c0,0,0,0,0,0
                        c-0.2,0.1-0.3,0.4-0.2,0.6c0,0,0,0,0,0l0.3,0.6c0.1,0.2,0.2,0.3,0.4,0.3c0,0,0.1,0,0.1,0l0.5-0.1c0.1,0.2,0.3,0.3,0.4,0.4
                        l-0.1,0.5c-0.1,0.2,0.1,0.5,0.3,0.5l0.6,0.3c0.1,0,0.1,0,0.2,0c0.2,0,0.3-0.1,0.4-0.2l0.3-0.5c0.2,0,0.4,0,0.6,0l0.3,0.5
                        c0.1,0.1,0.2,0.2,0.4,0.2c0.1,0,0.1,0,0.2,0l0.6-0.3c0.2-0.1,0.3-0.3,0.3-0.5l-0.1-0.5c0.1-0.1,0.3-0.2,0.4-0.4l0.5,0.1
                        c0,0,0.1,0,0.1,0c0.2,0,0.4-0.1,0.4-0.3l0.3-0.6C49,16.8,48.9,16.6,48.7,16.4L48.7,16.4z M48.5,16.8l-0.3,0.6c0,0,0,0,0,0
                        c0,0,0,0,0,0l-0.7-0.2c-0.1,0-0.2,0-0.2,0.1c-0.1,0.2-0.3,0.4-0.5,0.5c-0.1,0-0.1,0.1-0.1,0.2l0.1,0.7c0,0,0,0,0,0.1l-0.6,0.3
                        c0,0,0,0,0,0c0,0,0,0,0,0l-0.4-0.6c0-0.1-0.1-0.1-0.2-0.1c0,0,0,0,0,0c-0.1,0-0.2,0-0.3,0c-0.1,0-0.3,0-0.4,0
                        c-0.1,0-0.2,0-0.2,0.1l-0.4,0.6c0,0,0,0-0.1,0l-0.6-0.3c0,0,0,0,0-0.1l0.2-0.7c0-0.1,0-0.2-0.1-0.2c-0.2-0.1-0.4-0.3-0.5-0.5
                        c0-0.1-0.1-0.1-0.2-0.1l-0.7,0.1c0,0,0,0,0,0c0,0,0,0,0,0l-0.3-0.6c0,0,0-0.1,0-0.1l0.6-0.4c0.1,0,0.1-0.1,0.1-0.2
                        c0-0.2,0-0.5,0-0.7c0-0.1,0-0.2-0.1-0.2L42,14.8c0,0,0,0,0-0.1l0.3-0.6c0,0,0,0,0,0c0,0,0,0,0,0l0.7,0.2c0.1,0,0.2,0,0.2-0.1
                        c0.2-0.2,0.3-0.4,0.5-0.5c0.1,0,0.1-0.1,0.1-0.2l-0.1-0.7c0,0,0,0,0-0.1l0.6-0.3c0,0,0,0,0,0c0,0,0,0,0,0l0.4,0.6
                        c0,0.1,0.1,0.1,0.2,0.1c0.2,0,0.5,0,0.7,0c0.1,0,0.2,0,0.2-0.1l0.4-0.6c0,0,0,0,0.1,0l0.6,0.3c0,0,0,0,0,0.1l-0.2,0.7
                        c0,0.1,0,0.2,0.1,0.2c0.2,0.2,0.4,0.3,0.5,0.5c0,0.1,0.1,0.1,0.2,0.1l0.7-0.1c0,0,0,0,0,0c0,0,0,0,0,0l0.3,0.6c0,0,0,0.1,0,0.1
                        l-0.6,0.4c-0.1,0-0.1,0.1-0.1,0.2c0,0.2,0,0.5,0,0.7c0,0.1,0,0.2,0.1,0.2L48.5,16.8C48.5,16.8,48.5,16.8,48.5,16.8L48.5,16.8z
                        M48.5,16.8"
                    />
                </g>
                <path
                    d="M45.2,14.2L45.2,14.2c-0.4,0-0.8,0.2-1.1,0.4c-0.3,0.3-0.5,0.7-0.5,1.1c0,0.9,0.7,1.6,1.5,1.6h0c0.4,0,0.8-0.2,1.1-0.4
                    c0.3-0.3,0.5-0.7,0.5-1.1C46.8,15,46.1,14.3,45.2,14.2L45.2,14.2z M45.2,16.9L45.2,16.9c-0.6,0-1.1-0.5-1.1-1.2
                    c0-0.6,0.5-1.1,1.1-1.1h0c0.6,0,1.1,0.5,1.1,1.1C46.3,16.4,45.8,16.9,45.2,16.9L45.2,16.9z M45.2,16.9"
                />
            </g>
        </symbol>

        <symbol id="workspaces" viewBox="0 0 71 80">

        </symbol>
    </defs>
</svg>
