<svg xmlns="http://www.w3.org/2000/svg" viewBox="0 0 71 80" preserveAspectRatio="xMinYMin meet">
    <defs>
        <symbol id="users" viewBox="0 0 71 80">
            <path d="M45.8,50.4c-1.2,1.2-2.8,2.2-4.5,2.8c-1.7,0.7-3.5,1-5.3,0.9c-1.8,0-3.6-0.4-5.3-1.1c-1.7-0.7-3.2-1.7-4.5-2.9l0.5,0.1
                c-2.1,1.2-3.9,2.6-5.5,4.4c-1.6,1.7-3,3.7-4,5.8c-1,2.1-1.8,4.4-2.2,6.8c-0.2,1.2-0.3,2.4-0.4,3.6c-0.1,1.2,0.1,2.4,0.1,3.6
                l-0.2-0.1c3.5,0,7,0,10.5-0.1l10.5-0.1l10.5,0c3.5,0,7,0,10.5,0.1l-0.5,0.5c0.1-1.1,0.2-2.3,0.2-3.4c0-1.1-0.1-2.3-0.2-3.4
                c-0.3-2.3-0.9-4.5-1.8-6.6c-0.9-2.1-2.1-4.1-3.5-5.9C49.5,53.3,47.7,51.7,45.8,50.4z M45.8,50.3c2.1,1.2,3.9,2.7,5.5,4.5
                c1.6,1.8,2.9,3.8,3.8,5.9c1,2.2,1.6,4.5,2,6.8c0.2,1.2,0.3,2.4,0.3,3.6c0,1.2-0.1,2.4-0.2,3.6l0,0.5l-0.5,0c-3.5,0-7,0-10.5,0
                l-10.5-0.1l-10.5-0.2c-3.5-0.1-7-0.1-10.5-0.2l-0.2,0l0-0.1l-0.1-1.8c0-0.6-0.1-1.2-0.1-1.8c0-1.2,0.1-2.4,0.3-3.6
                c0.4-2.4,1-4.8,2-7c1-2.2,2.3-4.3,4-6.1c1.6-1.8,3.6-3.4,5.7-4.6l0.3-0.1l0.2,0.2c2.4,2.4,5.8,3.8,9.2,4c1.7,0.1,3.5-0.2,5.1-0.7
                C42.9,52.3,44.4,51.4,45.8,50.3z"
            />

            <path d="M46.2,9.6c1.2,1.3,1.9,3.2,1.8,5c-0.1,1.8-0.8,3.7-2.2,5c-1.3,1.3-3.2,2.2-5.2,2.2c-1,0-2-0.2-2.9-0.6
                c-0.9-0.4-1.7-1-2.4-1.7c-1.4-1.5-2-3.6-1.8-5.5c0.2-2,1.3-3.8,2.7-5c1.5-1.2,3.4-1.8,5.2-1.7C43.2,7.4,45,8.2,46.2,9.6z M46.2,9.6
                c-1.2-1.3-3-2.1-4.8-2.1c-1.8,0-3.5,0.8-4.7,2c-2.5,2.4-2.6,6.6-0.4,8.9c2.1,2.4,6.2,2.8,8.9,0.5c1.3-1.1,2.3-2.7,2.5-4.5
                C48,12.8,47.4,10.9,46.2,9.6z"
            />

            <path d="M42.7,23.4c0-2.5,2.1-4.6,4.8-4.8c1.3-0.1,2.7,0.3,3.7,1.1c1.1,0.9,1.8,2.2,1.8,3.7c0,1.4-0.7,2.8-1.8,3.7
                c-1.1,0.9-2.4,1.3-3.7,1.1C44.9,28,42.7,25.8,42.7,23.4z M42.7,23.4c0,1.2,0.6,2.4,1.5,3.1c0.9,0.7,2.1,1.1,3.2,1
                c2.3-0.2,4-2.1,4-4.1c0-2-1.7-3.9-4-4.1c-1.1-0.1-2.3,0.2-3.2,1C43.3,21,42.7,22.2,42.7,23.4z"
            />

            <path d="M44.1,27.1c1,0,2,0.3,2.8,1c0.8,0.6,1.3,1.6,1.4,2.7c0.1,1.1-0.3,2.3-1.1,3.1c-0.8,0.9-2,1.3-3.1,1.3
                c-1.2,0-2.3-0.5-3.1-1.3c-0.8-0.8-1.2-2-1.1-3.1c0.1-1.1,0.7-2.1,1.5-2.7C42.1,27.4,43.1,27.1,44.1,27.1z M44.1,27.1
                c-1,0-2,0.4-2.6,1.1c-0.7,0.7-1,1.7-0.8,2.6c0.2,1.8,1.9,3,3.5,3c1.6,0,3.2-1.1,3.5-3c0.1-0.9-0.2-1.9-0.8-2.6
                C46.1,27.5,45.1,27.1,44.1,27.1z"
            />

            <path style="fill:#128BC7;" d="M40.5,27.6c-2.5-0.3-4.8,0.2-6.8,1.2c-1.9,1-3.4,2.6-4.4,4.3c-0.9,1.8-1.3,3.8-1,5.7
                c0.3,1.9,1.1,3.7,2.4,5c2.5,2.8,6.9,3.7,10.6,2.1c1.8-0.8,3.5-2.2,4.6-4.1c1.1-1.9,1.7-4.2,1.6-6.7c0.6,1.1,0.9,2.3,1.1,3.7
                c0.1,1.3,0,2.6-0.4,4c-0.8,2.6-2.5,5-4.9,6.6c-2.4,1.6-5.4,2.3-8.4,1.9c-1.5-0.2-2.9-0.6-4.2-1.3c-1.3-0.7-2.5-1.6-3.6-2.7
                c-1-1.1-1.9-2.3-2.5-3.7c-0.6-1.4-0.9-2.8-1-4.3c-0.2-2.9,0.7-5.9,2.4-8.2c1.7-2.3,4.2-4,6.9-4.5C35.6,25.9,38.4,26.3,40.5,27.6z"
            />
        </symbol>

        <symbol id="resources" viewBox="0 0 71 80">
            <clipPath id="SVGID_2_">
                <rect x="50.5" y="18" transform="matrix(1 -1.757526e-03 1.757526e-03 1 -4.258821e-02 9.978134e-02)" width="12.5" height="12.5" style="overflow:visible;"/>
            </clipPath>

            <path style="clip-path:url(#SVGID_2_);fill:#98C03D;" d="M62.6,25.3l-0.8-0.5c0-0.3,0-0.6,0-1l0.8-0.5c0.3-0.2,0.5-0.6,0.3-1
                l-0.4-1.1c-0.1-0.3-0.4-0.5-0.7-0.5c-0.1,0-0.1,0-0.2,0l-0.9,0.2c-0.2-0.3-0.4-0.5-0.7-0.7l0.2-0.9c0.1-0.4-0.1-0.8-0.5-0.9
                l-1-0.4c-0.1,0-0.2-0.1-0.3-0.1c-0.3,0-0.5,0.1-0.7,0.4c0,0,0,0,0,0l-0.5,0.8c-0.3,0-0.6,0-1,0l-0.5-0.8c-0.1-0.2-0.4-0.4-0.7-0.4
                c-0.1,0-0.2,0-0.3,0.1l-1.1,0.4c-0.4,0.1-0.6,0.5-0.5,0.9l0.2,0.9c-0.3,0.2-0.5,0.4-0.7,0.7l-0.9-0.2c-0.1,0-0.1,0-0.2,0
                c-0.3,0-0.6,0.2-0.7,0.5l-0.4,1c-0.1,0.4,0,0.8,0.3,1l0.8,0.5c0,0.3,0,0.6,0,1l-0.8,0.5c0,0,0,0,0,0c-0.3,0.2-0.5,0.6-0.3,0.9
                c0,0,0,0,0,0l0.4,1.1c0.1,0.3,0.4,0.5,0.7,0.5c0.1,0,0.1,0,0.2,0l0.9-0.2c0.2,0.3,0.4,0.5,0.7,0.7l-0.2,0.9
                c-0.1,0.4,0.1,0.8,0.5,0.9l1,0.4c0.1,0,0.2,0.1,0.3,0.1c0.3,0,0.5-0.1,0.7-0.4l0.5-0.8c0.3,0,0.6,0,1,0l0.5,0.8
                c0.1,0.2,0.4,0.4,0.7,0.4c0.1,0,0.2,0,0.3-0.1l1.1-0.4c0.4-0.1,0.6-0.5,0.5-0.9l-0.2-0.9c0.2-0.2,0.5-0.4,0.7-0.6l0.9,0.2
                c0.1,0,0.1,0,0.2,0c0.3,0,0.6-0.2,0.7-0.5l0.4-1C63,26,62.9,25.6,62.6,25.3L62.6,25.3z M62.2,26l-0.4,1c0,0,0,0.1-0.1,0.1
                c0,0,0,0,0,0l-1.1-0.3c-0.1,0-0.3,0-0.4,0.1c-0.2,0.3-0.5,0.6-0.9,0.8c-0.1,0.1-0.2,0.2-0.1,0.4l0.2,1.1c0,0,0,0.1-0.1,0.1
                l-1.1,0.4c0,0,0,0,0,0c0,0-0.1,0-0.1,0l-0.6-1c-0.1-0.1-0.2-0.2-0.3-0.2c0,0,0,0,0,0c-0.2,0-0.4,0-0.6,0c-0.2,0-0.4,0-0.7-0.1
                c-0.1,0-0.3,0-0.3,0.2l-0.6,1c0,0-0.1,0-0.1,0l-1-0.4c0,0-0.1-0.1,0-0.1l0.3-1.1c0-0.1,0-0.3-0.1-0.4c-0.3-0.2-0.6-0.5-0.9-0.9
                c-0.1-0.1-0.2-0.2-0.4-0.1L51.7,27c0,0,0,0,0,0c0,0-0.1,0-0.1-0.1l-0.4-1c0,0,0-0.1,0-0.1l1-0.6c0.1-0.1,0.2-0.2,0.2-0.3
                c-0.1-0.4-0.1-0.8,0-1.2c0-0.1,0-0.3-0.2-0.3l-1-0.6c0,0,0-0.1,0-0.1l0.4-1c0,0,0-0.1,0.1-0.1c0,0,0,0,0,0l1.1,0.3
                c0.1,0,0.3,0,0.4-0.1c0.3-0.3,0.6-0.6,0.9-0.9c0.1-0.1,0.2-0.2,0.1-0.4l-0.2-1.1c0,0,0-0.1,0.1-0.1l1.1-0.4c0,0,0,0,0,0
                c0,0,0.1,0,0.1,0l0.6,1c0.1,0.1,0.2,0.2,0.3,0.2c0.4,0,0.8,0,1.2,0c0.1,0,0.3,0,0.3-0.2l0.6-1c0,0,0.1,0,0.1,0l1,0.4
                c0,0,0.1,0.1,0,0.1l-0.3,1.1c0,0.1,0,0.3,0.1,0.4c0.3,0.3,0.6,0.5,0.8,0.9c0.1,0.1,0.2,0.2,0.4,0.1l1.1-0.2c0,0,0,0,0,0
                c0,0,0.1,0,0.1,0.1l0.4,1.1c0,0,0,0.1,0,0.1l-1,0.6c-0.1,0.1-0.2,0.2-0.2,0.3c0,0.4,0,0.8,0,1.2c0,0.1,0,0.3,0.2,0.3l1,0.6
                C62.2,26,62.2,26,62.2,26L62.2,26z M62.2,26"
            />

            <path style="fill:#98C03D;" d="M56.7,21.7L56.7,21.7c-0.7,0-1.4,0.3-1.9,0.7c-0.5,0.5-0.8,1.1-0.8,1.8c0,1.4,1.1,2.6,2.6,2.6l0,0
                c0.7,0,1.3-0.3,1.8-0.7c0.5-0.5,0.8-1.1,0.8-1.8C59.3,22.9,58.2,21.7,56.7,21.7L56.7,21.7z M56.7,26.2L56.7,26.2
                c-1.1,0-1.9-0.9-1.9-1.9c0-1,0.9-1.9,1.9-1.9l0,0c1,0,1.9,0.9,1.9,1.9C58.6,25.3,57.7,26.2,56.7,26.2L56.7,26.2z M56.7,26.2"
            />

            <clipPath id="SVGID_4_">
                <rect x="41.5" y="12" width="7.5" height="7.5" style="overflow:visible;"/>
            </clipPath>

            <path style="clip-path:url(#SVGID_4_);" d="M48.7,16.4l-0.5-0.3c0-0.2,0-0.4,0-0.6l0.5-0.3c0.2-0.1,0.3-0.4,0.2-0.6l-0.3-0.6
                c-0.1-0.2-0.2-0.3-0.4-0.3c0,0-0.1,0-0.1,0l-0.5,0.1c-0.1-0.2-0.3-0.3-0.4-0.4l0.1-0.5c0.1-0.2-0.1-0.5-0.3-0.5l-0.6-0.3
                c-0.1,0-0.1,0-0.2,0c-0.2,0-0.3,0.1-0.4,0.2c0,0,0,0,0,0l-0.3,0.5c-0.2,0-0.4,0-0.6,0l-0.3-0.5c-0.1-0.1-0.2-0.2-0.4-0.2
                c-0.1,0-0.1,0-0.2,0l-0.6,0.3c-0.2,0.1-0.3,0.3-0.3,0.5l0.1,0.5c-0.2,0.1-0.3,0.3-0.4,0.4l-0.5-0.1c0,0-0.1,0-0.1,0
                c-0.2,0-0.4,0.1-0.4,0.3l-0.3,0.6c-0.1,0.2,0,0.5,0.2,0.6l0.5,0.3c0,0.2,0,0.4,0,0.6l-0.5,0.3c0,0,0,0,0,0
                c-0.2,0.1-0.3,0.4-0.2,0.6c0,0,0,0,0,0l0.3,0.6c0.1,0.2,0.2,0.3,0.4,0.3c0,0,0.1,0,0.1,0l0.5-0.1c0.1,0.2,0.3,0.3,0.4,0.4
                l-0.1,0.5c-0.1,0.2,0.1,0.5,0.3,0.5l0.6,0.3c0.1,0,0.1,0,0.2,0c0.2,0,0.3-0.1,0.4-0.2l0.3-0.5c0.2,0,0.4,0,0.6,0l0.3,0.5
                c0.1,0.1,0.2,0.2,0.4,0.2c0.1,0,0.1,0,0.2,0l0.6-0.3c0.2-0.1,0.3-0.3,0.3-0.5l-0.1-0.5c0.1-0.1,0.3-0.2,0.4-0.4l0.5,0.1
                c0,0,0.1,0,0.1,0c0.2,0,0.4-0.1,0.4-0.3l0.3-0.6C49,16.8,48.9,16.6,48.7,16.4L48.7,16.4z M48.5,16.8l-0.3,0.6c0,0,0,0,0,0
                c0,0,0,0,0,0l-0.7-0.2c-0.1,0-0.2,0-0.2,0.1c-0.1,0.2-0.3,0.4-0.5,0.5c-0.1,0-0.1,0.1-0.1,0.2l0.1,0.7c0,0,0,0,0,0.1l-0.6,0.3
                c0,0,0,0,0,0c0,0,0,0,0,0l-0.4-0.6c0-0.1-0.1-0.1-0.2-0.1c0,0,0,0,0,0c-0.1,0-0.2,0-0.3,0c-0.1,0-0.3,0-0.4,0
                c-0.1,0-0.2,0-0.2,0.1l-0.4,0.6c0,0,0,0-0.1,0l-0.6-0.3c0,0,0,0,0-0.1l0.2-0.7c0-0.1,0-0.2-0.1-0.2c-0.2-0.1-0.4-0.3-0.5-0.5
                c0-0.1-0.1-0.1-0.2-0.1l-0.7,0.1c0,0,0,0,0,0c0,0,0,0,0,0l-0.3-0.6c0,0,0-0.1,0-0.1l0.6-0.4c0.1,0,0.1-0.1,0.1-0.2
                c0-0.2,0-0.5,0-0.7c0-0.1,0-0.2-0.1-0.2L42,14.8c0,0,0,0,0-0.1l0.3-0.6c0,0,0,0,0,0c0,0,0,0,0,0l0.7,0.2c0.1,0,0.2,0,0.2-0.1
                c0.2-0.2,0.3-0.4,0.5-0.5c0.1,0,0.1-0.1,0.1-0.2l-0.1-0.7c0,0,0,0,0-0.1l0.6-0.3c0,0,0,0,0,0c0,0,0,0,0,0l0.4,0.6
                c0,0.1,0.1,0.1,0.2,0.1c0.2,0,0.5,0,0.7,0c0.1,0,0.2,0,0.2-0.1l0.4-0.6c0,0,0,0,0.1,0l0.6,0.3c0,0,0,0,0,0.1l-0.2,0.7
                c0,0.1,0,0.2,0.1,0.2c0.2,0.2,0.4,0.3,0.5,0.5c0,0.1,0.1,0.1,0.2,0.1l0.7-0.1c0,0,0,0,0,0c0,0,0,0,0,0l0.3,0.6c0,0,0,0.1,0,0.1
                l-0.6,0.4c-0.1,0-0.1,0.1-0.1,0.2c0,0.2,0,0.5,0,0.7c0,0.1,0,0.2,0.1,0.2L48.5,16.8C48.5,16.8,48.5,16.8,48.5,16.8L48.5,16.8z
                 M48.5,16.8"
            />

            <path d="M45.2,14.2L45.2,14.2c-0.4,0-0.8,0.2-1.1,0.4c-0.3,0.3-0.5,0.7-0.5,1.1c0,0.9,0.7,1.6,1.5,1.6h0c0.4,0,0.8-0.2,1.1-0.4
                c0.3-0.3,0.5-0.7,0.5-1.1C46.8,15,46.1,14.3,45.2,14.2L45.2,14.2z M45.2,16.9L45.2,16.9c-0.6,0-1.1-0.5-1.1-1.2
                c0-0.6,0.5-1.1,1.1-1.1h0c0.6,0,1.1,0.5,1.1,1.1C46.3,16.4,45.8,16.9,45.2,16.9L45.2,16.9z M45.2,16.9"
            />

            <path d="M62.7,36.8l-0.1-3.3c0-0.6-0.1-1.1-0.5-1.4c-0.4-0.4-0.8-0.5-1.4-0.5c-2.2,0-4.5,0.1-6.7,0.2L40.7,32L34,32.1l-3.3,0
                l-1.7,0c-0.2,0-0.7,0-1-0.1c-0.4-0.1-0.7-0.3-1-0.6c-0.1-0.1-0.3-0.3-0.4-0.4l-0.2-0.4L26,30l-0.9-1.4c-0.3-0.5-0.6-1-0.8-1.2
                c-0.1-0.1-0.3-0.2-0.5-0.2c-0.1,0-0.2,0-0.3,0l-0.4,0l-3.3,0l-1.7,0l-0.8,0l-0.4,0c-0.1,0-0.2,0-0.3,0c-0.2,0-0.3,0.1-0.4,0.3
                c-0.1,0.1-0.1,0.1-0.2,0.2L15.8,28l-0.9,1.4l-0.9,1.4c-0.1,0.2-0.3,0.6-0.6,0.8c-0.3,0.2-0.6,0.4-1,0.5c-0.2,0-0.4,0.1-0.6,0.1
                l-0.4,0l-0.8,0l-1.7,0l-1.7,0c-0.3,0-0.6,0-0.7,0c-0.2,0-0.3,0.1-0.5,0.2c-0.3,0.2-0.4,0.6-0.4,1l0,1.7l0,3.3l-0.1,6.7L5.3,72
                l-0.6-0.1c1.7-7.7,3.4-15.3,5-23l1.2-5.8l0.6-2.9l0.3-1.4c0.1-0.5,0.4-1.1,0.9-1.4c0.2-0.2,0.5-0.3,0.8-0.3c0.3-0.1,0.6,0,0.8,0
                l1.5,0l2.9,0l5.9-0.1l23.6-0.2l11.8-0.1l2.9,0l1.5,0l0.7,0c0.3,0,0.7,0.1,1,0.2c0.6,0.3,1.1,0.8,1.4,1.5c0.1,0.3,0.1,0.7,0.1,1
                c0,0.4-0.1,0.5-0.1,0.8L66.9,43c-1.3,7.7-2.7,15.5-4.1,23.2l-1,5.8l-0.1,0.4c0,0.2-0.1,0.3-0.2,0.5c-0.1,0.3-0.4,0.6-0.6,0.8
                c-0.3,0.2-0.6,0.4-0.9,0.5c-0.2,0.1-0.3,0.1-0.5,0.1c-0.1,0-0.2,0-0.3,0l-0.2,0l-2.9,0l-11.8-0.1l-23.6-0.2L9,74l-1.5,0
                c-0.5,0-1.1-0.1-1.5-0.4c-0.5-0.2-0.9-0.6-1.1-1.1c0-0.1-0.1-0.3-0.1-0.4l0-0.4l0-0.7L4.9,65c0,0,0-0.1,0.1-0.1c0,0,0.1,0,0.1,0.1
                l0.1,5.9l0,0.7l0,0.4c0,0.1,0,0.2,0.1,0.3c0.2,0.4,0.5,0.7,0.9,0.9c0.4,0.2,0.8,0.3,1.3,0.3l1.5,0l11.8-0.2L44.4,73l11.8-0.1l2.9,0
                l0.2,0l0.1,0c0.1,0,0.1,0,0.2,0c0.1,0,0.3-0.1,0.4-0.2c0.1-0.1,0.2-0.2,0.2-0.3c0-0.1,0.1-0.1,0.1-0.2l0.1-0.3l1-5.8
                c1.3-7.7,2.7-15.5,4.1-23.2l0.5-2.9c0-0.2,0.1-0.5,0.1-0.7c0-0.1,0-0.3,0-0.4c-0.1-0.3-0.3-0.5-0.6-0.6c-0.1-0.1-0.3-0.1-0.4-0.1
                l-0.7,0l-1.5,0l-2.9,0L48.1,38l-23.6-0.2l-5.9-0.1l-2.9,0l-1.5,0c-0.5,0-0.9,0-1.2,0.3c-0.3,0.2-0.6,0.6-0.6,1.1l-0.3,1.4l-0.6,2.9
                L10.2,49c-1.7,7.7-3.3,15.4-4.9,23c0,0.2-0.2,0.3-0.3,0.2c-0.1,0-0.2-0.2-0.2-0.3L4.5,45.2l-0.1-6.7l0-3.3l0-1.7
                c0-0.7,0.3-1.5,0.9-2c0.3-0.2,0.6-0.4,1-0.5C6.7,31,7,31,7.2,31l1.7,0l1.7,0l0.8,0l0.4,0c0.1,0,0.2,0,0.3,0c0.2,0,0.3-0.1,0.5-0.2
                c0.1-0.1,0.2-0.2,0.4-0.5l0.9-1.4l0.9-1.4l0.2-0.4c0.1-0.2,0.2-0.3,0.4-0.4c0.3-0.3,0.6-0.5,1-0.6c0.2-0.1,0.4-0.1,0.6-0.1l0.4,0
                l0.8,0l1.7,0l3.3,0l0.4,0c0.2,0,0.4,0,0.6,0.1c0.4,0.1,0.7,0.3,1,0.5c0.3,0.2,0.5,0.6,0.6,0.8l0.4,0.7l0.9,1.4l0.4,0.7l0.2,0.3
                c0,0.1,0.1,0.2,0.2,0.2c0.1,0.1,0.3,0.2,0.5,0.3C28.5,31,28.7,31,29,31l1.7,0l3.3,0l6.7,0l13.4,0.1c2.2,0,4.5,0,6.7,0.1
                c0.6,0,1.2,0.2,1.6,0.6c0.4,0.4,0.6,1.1,0.5,1.7l-0.1,3.3C62.8,36.9,62.8,36.9,62.7,36.8C62.7,36.9,62.7,36.9,62.7,36.8z"
            />

            <path style="fill:none;stroke:#000000;stroke-miterlimit:10;" d="M36.9,36.4c0-1.3,0.5-2.5,1.5-3.5c0.9-0.9,2.2-1.4,3.5-1.4H42
                c2.7,0,4.9,2.3,4.9,5c0,0.1,0,0.3,0,0.4h3.5c0-0.5,0-1,0-1.5c0-0.3,0.1-0.5,0.3-0.7l1.9-1.2c0.1,0,0.1-0.1,0.1-0.2l-0.8-2
                c0-0.1-0.1-0.1-0.2-0.1c0,0,0,0,0,0l-2.1,0.5c-0.3,0.1-0.5,0-0.7-0.3c-0.5-0.6-1-1.2-1.6-1.7c-0.2-0.2-0.3-0.4-0.2-0.7l0.5-2.2
                c0-0.1,0-0.2-0.1-0.2l-2-0.9c-0.1,0-0.2,0-0.2,0.1L44,27.9c-0.1,0.2-0.4,0.3-0.7,0.3c-0.8-0.1-1.6-0.1-2.3,0
                c-0.3,0-0.5-0.1-0.7-0.3L39.2,26c0-0.1-0.1-0.1-0.1-0.1c0,0,0,0-0.1,0l-2,0.8c-0.1,0-0.1,0.1-0.1,0.2l0.5,2.1
                c0.1,0.3,0,0.5-0.3,0.7c-0.7,0.5-1.2,1-1.7,1.7c-0.2,0.2-0.4,0.3-0.7,0.2l-2.1-0.5c0,0,0,0,0,0c-0.1,0-0.1,0-0.1,0.1l-0.9,2
                c0,0.1,0,0.2,0.1,0.2l1.9,1.2c0.2,0.1,0.3,0.4,0.3,0.7c-0.1,0.6-0.1,1.2-0.1,1.8H37C36.9,36.8,36.9,36.6,36.9,36.4z"
            />
            <path style="fill:none;" d="M32.2,37c0-0.5,0-1,0-1.5l-1.5-1c-0.6-0.4-0.9-1.2-0.6-1.9l0.9-2c0.2-0.6,0.8-0.9,1.4-0.9
                c0.1,0,0.2,0,0.4,0l1.7,0.4c0.4-0.5,0.9-0.9,1.4-1.3l-0.4-1.7c-0.2-0.7,0.2-1.4,0.9-1.7l2-0.8c0.2-0.1,0.4-0.1,0.6-0.1
                c0.5,0,1,0.3,1.3,0.7l0.9,1.5c0.6,0,1.2,0,1.8,0l0.9-1.5c0,0,0,0,0,0c0.3-0.4,0.8-0.7,1.3-0.7c0.2,0,0.4,0,0.6,0.1l2,0.9
                c0.7,0.3,1,1,0.9,1.7l-0.4,1.8c0.5,0.4,0.9,0.8,1.3,1.3l1.7-0.4c0.1,0,0.2,0,0.3,0c0.6,0,1.2,0.4,1.4,0.9l0.8,2
                c0.3,0.7,0,1.5-0.6,1.8l-1.5,0.9c0,0.4,0,0.8,0,1.2H54V24.5H30V37H32.2z"
            />
            <path style="fill:none;" d="M45.5,36.6c0-2-1.6-3.7-3.6-3.7h-0.1c-2,0-3.6,1.6-3.6,3.6c0,0.2,0,0.4,0,0.5h7.2
                 C45.5,36.9,45.5,36.7,45.5,36.6z"
            />
        </symbol>

        <symbol id="workspaces" viewBox="0 0 71 80">
            <path d="M18.7,2.7c-1.1,5.6-2.1,11.1-3.2,16.5l-3.3,16.3c-1.1,5.4-2.2,10.8-3.4,16.1c-1.1,5.4-2.4,10.7-3.7,16l-0.5-0.8
                c8.1,1.9,16.2,3.9,24.3,5.7l12.2,2.6l12.2,2.5L52.7,78c2.1-10.9,4.4-21.7,6.7-32.5l3.4-16.2c1.2-5.4,2.4-10.8,3.6-16.2l0.8,1.2
                c-4-0.9-8-1.8-12-2.8l-12-2.8L18.7,2.7z M18.6,2.5l24.3,4.7l12.3,2.5c4.1,0.8,8.3,1.7,12.4,2.5l1,0.2l-0.2,1
                c-1.1,5.4-2.3,10.8-3.5,16.2l-3.6,16.2c-2.4,10.8-4.9,21.6-7.5,32.3l-0.1,0.5l-0.5-0.1L41,75.8l-12.2-2.7c-8.1-1.8-16.3-3.3-24.5-5
                L3.7,68l0.1-0.7c1.1-5.5,2.2-11,3.4-16.4c1.2-5.5,2.4-10.9,3.7-16.3c1.2-5.4,2.5-10.8,3.8-16.2C16,13,17.3,7.7,18.6,2.5z"
            />

            <path d="M4.6,67.4C4.5,67.3,4.6,67.4,4.6,67.4l0.1,0l0.2,0l0.4,0l0.8,0.1l1.6,0.1l3.2,0.3l6.4,0.6c4.3,0.4,8.5,0.7,12.8,1
                c4.3,0.3,8.5,0.5,12.7,0.4c1-0.1,2.1-0.1,3-0.4c0.2-0.1,0.4-0.1,0.5-0.2c0,0,0,0,0,0c0,0,0.1-0.1,0.1-0.1c0.1-0.1,0.2-0.2,0.2-0.2
                c0.3-0.3,0.5-0.7,0.7-1.1l1.7-6.1l7.3-24.7c1.2-4.1,2.3-8.3,3.4-12.4c1.1-4.1,2.2-8.3,3.3-12.4l0.4,0.6l-11.3-2.2L40.9,8.3
                L18.4,3.6l1.3-0.8c-1.1,5.3-2.3,10.7-3.5,16c-1.2,5.3-2.5,10.7-3.7,16l-1.9,8.1l-2,8.1L4.6,67.4z M4.4,67.5l3.1-16l1.6-8.1l1.6-8.2
                c1.1-5.5,2.2-10.9,3.3-16.4c1.1-5.5,2.3-11,3.6-16.4l0,0c0.1-0.6,0.7-0.9,1.2-0.8l0,0l22.4,5.1l11.2,2.6l11.2,2.7l0,0
                c0.3,0.1,0.4,0.3,0.3,0.6l0,0c-1.2,4.1-2.4,8.2-3.6,12.4c-1.2,4.1-2.3,8.3-3.4,12.4l-6.3,24.9l-0.8,3.1l-0.4,1.6
                c-0.2,0.5-0.2,1-0.5,1.6c-0.2,0.6-0.5,1.1-0.9,1.6c-0.1,0.1-0.2,0.2-0.3,0.4l-0.2,0.2c-0.1,0.1-0.2,0.2-0.3,0.2
                c-0.4,0.2-0.7,0.3-1,0.4c-1.2,0.3-2.3,0.4-3.4,0.4c-4.4,0.1-8.7-0.2-12.9-0.6c-4.3-0.4-8.5-1-12.8-1.5c-2.1-0.3-4.2-0.6-6.4-0.9
                l-3.2-0.5l-1.6-0.3l-0.8-0.1l-0.4-0.1l-0.2,0l-0.1,0C4.5,67.6,4.6,67.6,4.4,67.5z"
            />
            
            <line style="fill:none;stroke:#128BC7;stroke-width:2;stroke-linecap:round;stroke-miterlimit:10;" x1="26.1" y1="19.6" x2="51" y2="25.5"/>
            <line style="fill:none;stroke:#128BC7;stroke-width:2;stroke-linecap:round;stroke-miterlimit:10;" x1="23" y1="32.5" x2="47.9" y2="38.4"/>
            <line style="fill:none;stroke:#128BC7;stroke-width:2;stroke-linecap:round;stroke-miterlimit:10;" x1="29.6" y1="27.2" x2="44.4" y2="30.8"/>
        </symbol>

        <!-- TODO : the next ones are from plugins. This should be move inside the correct one. But for now, we can only access one icon file -->
        <symbol id="announcements" viewBox="0 0 71 80">
            <path style="fill:#E59B3A;" d="M62.6,39.9c1.6-0.6,2.9-1.7,3.8-3c0.9-1.3,1.4-2.9,1.4-4.5c0-1.6-0.5-3.1-1.5-4.5
                c-0.9-1.3-2.3-2.4-3.9-3c1.7,0.2,3.3,1.1,4.5,2.5c1.2,1.3,1.8,3.1,1.8,4.9c0,1.8-0.6,3.6-1.7,5C65.9,38.8,64.2,39.7,62.6,39.9z"
            />

            <path d="M62.3,25c-0.2-2.8-0.3-5.6-0.5-8.3c-0.1-2.8-0.3-5.6-0.4-8.3l-0.2-4.2c0-0.3,0-0.1,0-0.1c0,0.1,0.1,0.1,0.1,0.1
                c0,0,0.1,0,0.2,0c0.1,0,0.2-0.1,0,0.1c-0.5,0.5-1,1-1.5,1.5c-2,2-4.1,3.9-6.3,5.7c-4.4,3.6-9.2,6.6-14.5,8.9
                c-2.7,1-5.4,2-8.3,2.4c-0.7,0.1-1.4,0.3-2.1,0.3l-2.2,0.1c-0.7,0.1-1.4,0-2.2,0L22.5,23l-0.1,0c-0.4,0-0.7-0.2-0.8-0.5
                c-0.2-0.4-0.5-0.7-0.9-0.9c-0.3-0.2-1-0.4-1.5-0.6c-1.1-0.4-2.2-0.6-3.4-0.8c-2.3-0.3-4.7-0.3-7,0.2c-0.6,0.1-1.2,0.3-1.7,0.4
                c-0.3,0.1-0.6,0.2-0.8,0.3c-0.3,0.1-0.6,0.2-0.8,0.3c-0.9,0.5-1.5,1.4-1.6,2.5c-0.3,2.4-0.5,4.9-0.6,7.3c-0.1,2.4-0.1,4.9,0,7.3
                c0.1,1.2,0.2,2.4,0.4,3.6c0.2,1.2,0.5,2.4,1.1,3.3c0.3,0.5,0.6,0.8,1.1,1c0.3,0.1,1.1,0.1,1.7,0.1c1.3,0.1,2.6,0.4,3.8,0.9
                c0.6,0.3,1.2,0.6,1.7,1c0.6,0.5,1,1.1,1.3,1.8c0.1,0.3,0.2,0.7,0.3,1.1l0.1,0.9l0.1,1.8c0.4,4.9,0.8,9.8,1.2,14.7l0.3,3.7
                c0,0.3,0,0.6,0.1,0.9c0,0.2,0.1,0.4,0.1,0.6c0.1,0.4,0.4,0.7,0.7,1c0.6,0.5,1.4,0.7,2.1,0.5c0.4-0.1,0.6-0.3,0.7-0.5
                c0.1-0.2,0.2-0.5,0.1-0.9c0-0.2-0.1-0.4-0.1-0.7c0-0.1-0.1-0.2-0.1-0.4l-0.1-0.5c-0.2-0.7-0.2-1.4-0.3-2.1
                c-0.1-0.7-0.1-1.3-0.1-1.9l0-1.9c0.1-2.5,0.4-5,0.7-7.5c0.3-2.5,0.7-4.9,1.2-7.3L22,48l0.4-1.8c0.1-0.4,0.1-0.4,0.1-0.6
                c0-0.1,0-0.5,0-0.8l0,0c0-0.9,0.7-1.6,1.5-1.7c0.1,0,0.1,0,0.2,0c5.5,0.5,11,1.5,16.3,3c5.3,1.6,10.5,3.7,15.1,7.1
                c1.1,0.8,2.2,1.8,3.2,2.8c1,1,1.9,2.2,2.7,3.4c0.2,0.3,0.4,0.6,0.5,0.9l0.3,0.4c0,0-0.1-0.1-0.1-0.1c-0.1,0-0.2,0-0.2,0.1
                c0,0,0,0.1,0,0.1c0,0,0,0,0,0l0-0.1l0-0.5l0.1-4.1c0-2.7,0.1-5.4,0.2-8.2c0.1-2.7,0.2-5.4,0.3-8.2c0-0.1,0.1-0.1,0.2-0.1
                c0.1,0,0.1,0.1,0.1,0.1c0.2,2.7,0.3,5.4,0.4,8.2c0.1,2.7,0.3,5.4,0.4,8.2l0.2,4.1l0,0.5l0,0.1c0,0.1,0,0.2,0,0.3
                c0,0.2-0.1,0.4-0.2,0.6c-0.4,0.7-1.2,1-2,0.8c-0.4-0.1-0.7-0.4-0.9-0.7l-0.3-0.4c-0.2-0.3-0.3-0.5-0.5-0.8
                c-1.5-2.1-3.5-3.8-5.6-5.3c-4.3-2.9-9.3-4.9-14.5-6.2c-5.1-1.4-10.5-2.2-15.8-2.7l1.7-1.7c0,0.3,0,0.5,0,1c0,0.4-0.1,1-0.2,1.2
                l-0.4,1.8l-0.7,3.6c-0.4,2.4-0.9,4.8-1.3,7.2c-0.4,2.4-0.7,4.8-0.8,7.2l-0.1,1.8c0,0.6,0,1.2,0,1.7c0.1,0.5,0.1,1.1,0.2,1.6
                l0.1,0.4c0,0.1,0.1,0.3,0.1,0.5c0.1,0.4,0.2,0.7,0.2,1.1c0.1,0.8,0,1.8-0.6,2.7c-0.6,0.9-1.4,1.3-2.2,1.6c-1.7,0.5-3.5,0-4.7-1.2
                c-0.6-0.6-1-1.3-1.3-2.1c-0.1-0.4-0.2-0.8-0.2-1.2c0-0.4,0-0.6,0-1l-0.1-3.7c-0.2-4.9-0.3-9.8-0.5-14.7l-0.1-1.8l0-0.9
                c0-0.2-0.1-0.5-0.1-0.7c-0.1-0.5-0.4-0.9-0.8-1.2c-0.4-0.4-0.9-0.7-1.4-0.9c-1-0.5-2.1-0.8-3.3-0.9c-0.3,0-0.6-0.1-0.9-0.1
                c-0.2,0-0.7,0-1.1-0.2c-0.8-0.3-1.3-0.9-1.6-1.5c-0.7-1.2-0.9-2.4-1.1-3.7c-0.2-1.2-0.3-2.5-0.4-3.7c-0.1-2.5-0.1-4.9,0-7.4
                c0.1-2.5,0.2-4.9,0.4-7.4c0-1.4,0.8-2.8,2.1-3.5C5,20.1,5.2,20.1,5.3,20l0.4-0.2c0.3-0.1,0.6-0.2,0.9-0.3
                c0.6-0.2,1.2-0.4,1.8-0.6c2.5-0.6,5-0.8,7.6-0.6c1.3,0.1,2.5,0.4,3.8,0.7c0.6,0.2,1.2,0.3,2,0.7c0.7,0.4,1.3,0.9,1.8,1.6
                l-0.9-0.5l2.1,0c0.7,0,1.3,0,2-0.1l2-0.2c0.7-0.1,1.3-0.2,2-0.3c1.3-0.2,2.6-0.6,3.9-0.9c0.7-0.2,1.3-0.4,1.9-0.6
                c0.6-0.2,1.3-0.4,1.9-0.7c5-2,9.7-4.9,14-8.2c2.2-1.7,4.3-3.4,6.3-5.3c0.5-0.5,1-0.9,1.5-1.4c0,0,0.4-0.4,0.8-0.6
                c0.4-0.1,0.8-0.1,1.2,0c0.4,0.2,0.7,0.4,0.9,0.8c0.2,0.4,0.2,0.9,0.2,0.9l-0.1,4.2c0,2.8-0.1,5.6-0.2,8.3
                c-0.1,2.8-0.2,5.6-0.3,8.3c0,0.1-0.1,0.1-0.2,0.1C62.3,25.1,62.3,25.1,62.3,25z"/>
        </symbol>

        <symbol id="blog_posts" viewBox="0 0 71 80">
            <ellipse transform="matrix(0.373 -0.9278 0.9278 0.373 -5.2601 48.7747)" style="fill:#E59B3A;stroke:#E59B3A;stroke-width:1.0749;stroke-linecap:round;stroke-linejoin:round;stroke-miterlimit:10;" cx="33.5" cy="28.3" rx="3.3" ry="8.6"/>

            <ellipse transform="matrix(0.2505 -0.9681 0.9681 0.2505 -22.9711 70.3451)" style="fill:#E59B3A;stroke:#E59B3A;stroke-width:1.2662;stroke-linecap:round;stroke-linejoin:round;stroke-miterlimit:10;" cx="33.9" cy="50" rx="2.9" ry="13.7"/>

            <path d="M8.6,33.5l1.4-5.9l0.7-3c0.1-0.5,0.2-1,0.3-1.5l0.4-1.5c1.3-3.9,3.7-7.4,7.2-9.7c3.4-2.3,7.6-3.4,11.8-3.1
                c2.1,0.2,4.1,0.7,6,1.1l5.9,1.2c4.1,0.8,8,2.9,10.8,6.1c2.8,3.2,4.4,7.4,4.5,11.7c0.1,2.1-0.3,4.3-0.2,6c0.1,0.9,0.3,1.1,1,1.5
                c0.8,0.3,1.7,0.6,2.7,0.8c1,0.3,2,0.5,3.1,1.1c0.6,0.3,1.2,0.8,1.5,1.6c0.3,0.7,0.4,1.4,0.3,2c-0.1,1.2-0.3,2.2-0.6,3.2l-0.7,3
                l-1.3,5.9l-0.7,3c-0.3,1-0.6,2.1-1,3.1c-1.7,4-4.7,7.5-8.5,9.6c-3.8,2.1-8.4,2.9-12.7,2.1c-4-0.9-7.9-1.8-11.9-2.7l-5.9-1.4
                L20,67c-0.5-0.1-1-0.3-1.5-0.4c-0.5-0.2-1-0.3-1.5-0.6c-4-1.6-7.3-4.8-9.3-8.5c-1-1.9-1.7-3.9-2-6c-0.3-2.1-0.2-4.2,0.1-6.2
                c0.2-1,0.4-2,0.7-3l0.7-2.9L8.6,33.5z M8.9,33.6c-0.8,4-1.8,7.9-2.4,11.9C6,49.4,7,53.4,9,56.7c2.1,3.3,5.2,5.8,8.8,7
                c0.4,0.2,0.9,0.3,1.4,0.4c0.4,0.1,0.9,0.2,1.4,0.3l3,0.6l5.9,1.2c3.9,0.9,7.9,1.8,11.8,2.6c3.6,0.7,7.5,0.1,10.8-1.7
                c3.3-1.7,5.9-4.6,7.5-8.1c0.4-0.9,0.7-1.8,0.9-2.7l0.7-2.9l1.5-5.9l0.7-2.9c0.2-1,0.5-1.9,0.6-2.8c0-0.4,0-0.8-0.1-0.9
                c-0.1-0.2-0.2-0.4-0.6-0.6c-0.7-0.4-1.6-0.6-2.6-0.9c-1-0.3-2-0.5-3.1-1c-0.5-0.3-1.1-0.7-1.6-1.3c-0.4-0.6-0.5-1.3-0.6-1.9
                C55.4,34,55.5,33,55.6,32c0.1-0.5,0.1-1,0.1-1.5l0-0.7l0-0.7c0-3.8-1.4-7.7-3.9-10.6c-2.5-3-6-4.9-9.8-5.8l-5.9-1.4
                c-2-0.5-3.9-1-5.9-1.2c-3.9-0.5-8,0.4-11.3,2.5c-3.4,2.1-5.9,5.5-7.2,9.3l-0.4,1.4c-0.1,0.5-0.2,1-0.4,1.5l-0.7,3L8.9,33.6z"/>
            <path d="M33.2,53.2c2.5,0.6,5.1,1.1,7.6,1.6l1.9,0.3c0.6,0.1,1.2,0.1,1.8,0c1.1-0.2,1.9-1,2.1-2c0.3-1-0.1-2-0.9-2.6
                c-0.4-0.3-0.9-0.5-1.4-0.7c-0.5-0.1-1.2-0.3-1.9-0.4l-7.6-1.5l-7.6-1.4L25.3,46c-0.5-0.1-1-0.1-1.4-0.1c-0.8,0.1-1.3,0.5-1.5,1.3
                c-0.2,0.4-0.2,0.8-0.1,1.1c0.1,0.3,0.2,0.6,0.5,1c0.3,0.3,0.8,0.6,1.3,0.8c0.5,0.2,1.2,0.4,1.8,0.7
                C28.3,51.7,30.7,52.5,33.2,53.2z M33.2,53.5c-2.5-0.5-5.1-0.9-7.7-1.1c-0.7-0.1-1.3-0.1-2-0.2c-0.7-0.1-1.5-0.4-2.2-0.8
                c-0.7-0.5-1.4-1.2-1.7-2.1c-0.3-0.9-0.3-1.9-0.1-2.7c0.2-0.9,0.7-1.7,1.4-2.4c0.7-0.7,1.7-1,2.6-1.1c0.9-0.1,1.7,0,2.5,0.1
                l1.9,0.5l7.5,2l7.5,1.9c0.6,0.2,1.2,0.3,1.9,0.5c0.7,0.2,1.4,0.6,2,1.1c0.6,0.5,1.1,1.2,1.3,2c0.2,0.8,0.2,1.6,0,2.4
                c-0.2,0.7-0.7,1.4-1.3,1.9c-0.6,0.5-1.4,0.7-2.1,0.8c-0.7,0.1-1.4,0-2.1-0.2l-1.9-0.6C38.2,54.6,35.7,54,33.2,53.5z"/>
            <path d="M32.8,31.8c1.7,0.4,3.4,0.9,5.1,1c0.8,0.1,1.6-0.1,2.2-0.5c0.6-0.4,0.9-1,1-1.8c0.2-0.7,0.1-1.5-0.2-2
                c-0.3-0.5-0.8-0.9-1.5-1l-5.1-0.9c-1.7-0.3-3.4-0.6-5.1-0.9c-0.7-0.1-1.1,0-1.5,0.2c-0.3,0.2-0.6,0.5-0.8,1.1
                c-0.2,0.6-0.3,1.1-0.2,1.6c0.1,0.5,0.5,1,1.1,1.4C29.4,30.9,31.1,31.4,32.8,31.8z M32.7,32.1c-1.7-0.3-3.4-0.3-5.3-0.6
                c-1-0.2-2.1-0.7-2.8-1.8c-0.7-1.1-0.7-2.4-0.5-3.5c0.1-0.6,0.4-1.1,0.7-1.7c0.3-0.5,0.9-1,1.4-1.4c1.2-0.7,2.6-0.6,3.6-0.4
                c1.7,0.5,3.4,1,5.1,1.5l5.1,1.4c1,0.3,2,1.1,2.5,2.1c0.5,1.1,0.4,2.2,0.1,3.1c-0.3,0.9-0.9,1.9-1.9,2.4c-1,0.5-2,0.4-2.9,0.1
                C36,33,34.4,32.4,32.7,32.1z"/>
        </symbol>

        <symbol id="forum_messages" viewBox="0 0 71 80">
            <path d="M27,3.8l-7.3,0L12.3,4L8.6,4.1c-0.6,0-1.2,0-1.8,0.1C6.2,4.3,5.7,4.4,5.2,4.7c-1,0.5-1.8,1.4-2.1,2.4
                c-0.2,0.5-0.2,1-0.1,1.6L3,10.6L3.2,18l0,0.9c0,0.3,0,0.5,0.1,0.7c0.1,0.5,0.3,0.9,0.7,1.3c0.6,0.8,1.6,1.3,2.6,1.4
                c0.3,0,0.5,0.1,0.8,0.1c0.3,0,0.6,0,0.9,0l1.8,0l3.7,0l7.3,0.1l0.5,0l0.3,0.4c0.7,1.1,1.8,2,3,2.6c1.2,0.6,2.7,0.9,4.1,1.1
                l-0.4,1.4c-0.5-0.3-0.8-0.6-1.2-0.9c-0.4-0.3-0.8-0.6-1.2-1c-0.7-0.7-1.4-1.5-1.9-2.4l-0.5-0.9l1,0l1.7,0.1c0.6,0,1.1,0,1.6-0.1
                c1-0.2,2-0.7,2.7-1.5c0.3-0.4,0.6-0.9,0.8-1.4c0.2-0.5,0.2-1.1,0.2-1.6l0.1-3.5c0-2.3,0.1-4.6,0.1-7c-0.1-1.1-0.8-2.2-1.7-2.9
                C29.3,4.2,28.1,3.8,27,3.8z M27,3.8c1.2,0,2.3,0.3,3.3,1c0.9,0.7,1.6,1.7,1.8,2.9c0.1,2.3,0.1,4.6,0.2,7l0.1,3.5
                c0,0.6,0.1,1.2-0.1,1.8c-0.1,0.6-0.4,1.2-0.8,1.7c-0.8,1-1.9,1.7-3.1,2c-0.6,0.2-1.3,0.2-1.8,0.2l-1.7,0.1l0.5-0.8
                c0.4,0.7,1.1,1.4,1.8,2c0.4,0.3,0.7,0.6,1.1,0.8c0.4,0.3,0.8,0.5,1.2,0.7l2.9,1.6L28.8,28c-1.6-0.1-3.2-0.3-4.7-1
                c-1.5-0.6-2.9-1.7-3.9-3.1l0.8,0.4l-7.3,0.1l-3.7,0l-1.8,0c-0.3,0-0.6,0-0.9,0c-0.4,0-0.7-0.1-1.1-0.1c-1.4-0.3-2.7-1-3.6-2.2
                c-0.4-0.6-0.8-1.3-0.9-2c-0.1-0.4-0.1-0.8-0.1-1.1l0-0.9l0.2-7.3l0.1-1.8c0-0.6,0-1.3,0.3-2C2.6,5.5,3.6,4.5,4.8,4
                c0.6-0.3,1.2-0.4,1.9-0.5c0.7,0,1.3,0,1.9,0l3.7,0.1l7.3,0.1L27,3.8z"/>

            <path d="M41.5,13.3c5.5,0,11,0,16.6-0.1l4.1-0.1c0.7,0,1.4-0.1,2.1,0.1c0.7,0.1,1.4,0.4,2,0.8c1.2,0.8,2.2,2,2.6,3.5
                c0.1,0.4,0.1,0.7,0.1,1.1l0,1l0,2.1l0.2,8.3c0,0.7,0.1,1.3,0,2.2c-0.1,0.8-0.4,1.5-0.8,2.2c-0.8,1.3-2.2,2.3-3.7,2.7
                c-0.7,0.2-1.6,0.2-2.2,0.2l-2.1,0l-4.1,0l-8.3,0l0.6-0.3c-1,1.5-2.4,2.8-4.1,3.6c-1.6,0.8-3.4,1.1-5.2,1.2l-2.3,0.1l2-1.2
                c0.9-0.5,1.8-1.2,2.6-1.9c0.8-0.7,1.5-1.5,2-2.4l0.4,0.6l-2,0c-0.6,0-1.4,0-2.1-0.2c-1.4-0.4-2.6-1.3-3.4-2.4
                c-0.4-0.6-0.6-1.3-0.8-2c-0.1-0.7-0.1-1.4-0.1-2.1l0.1-4c0.1-2.7,0-5.4,0.1-8c0.1-1.3,0.8-2.6,1.9-3.5
                C38.8,13.8,40.1,13.3,41.5,13.3z M41.5,13.3c-1.3,0-2.7,0.5-3.7,1.4c-1,0.9-1.7,2.1-1.8,3.5c0,2.7,0,5.4,0.1,8l0.1,4
                c0,0.7,0,1.3,0.1,2c0.1,0.6,0.4,1.2,0.8,1.7c0.7,1,1.9,1.8,3.1,2.1c0.6,0.2,1.2,0.2,1.9,0.1l2,0l0.7,0l-0.3,0.6
                c-0.5,1.1-1.3,2-2.1,2.8c-0.8,0.8-1.7,1.5-2.7,2.1l-0.3-1c1.6-0.2,3.2-0.5,4.7-1.3c1.4-0.7,2.6-1.8,3.4-3.2l0.2-0.3l0.4,0l8.3,0
                l4.1,0l2.1,0c0.7,0,1.3,0,1.9-0.2c1.2-0.3,2.2-1,2.9-2c0.3-0.5,0.6-1.1,0.6-1.7c0.1-0.6,0.1-1.3,0.1-2l0.2-8.3l0-2.1l0-1
                c0-0.3,0-0.6-0.1-0.9c-0.2-1.3-1-2.4-2.1-3.1c-0.5-0.4-1.2-0.6-1.8-0.8c-0.6-0.2-1.3-0.1-2-0.2L58,13.5
                C52.5,13.4,47,13.3,41.5,13.3z"/>

            <path d="M42.4,43.3l-11.5,0l-11.5,0.1l-5.7,0.1l-2.9,0.1c-0.9,0-1.9,0.1-2.7,0.4c-1.8,0.5-3.4,1.5-4.4,2.9
                C3.3,47.7,3,48.5,3,49.4l0,2.8l0.2,11.5c0,1,0,1.7,0.4,2.5c0.3,0.7,0.9,1.4,1.5,1.9c1.3,1.1,3,1.6,4.8,1.7l0.7,0l0.7,0l1.4,0
                l2.9,0l5.7,0l11.5,0.1l0.5,0l0.3,0.4c1.3,1.7,3.2,3,5.3,3.8c2.1,0.8,4.4,1.3,6.7,1.5l-0.4,1.4c-1.4-0.7-2.6-1.5-3.8-2.5
                c-1.2-0.9-2.3-2-3.2-3.3l-0.5-0.9l1,0l2.6,0c0.9,0,1.7,0.1,2.5-0.1c1.6-0.2,3.3-0.8,4.5-1.8c1.3-1,2.1-2.6,2-4.3l0.1-5.2l0.1-5.2
                l0-2.6c0-0.9,0.1-1.7-0.1-2.6c-0.3-1.7-1.6-3.1-3.1-3.9C45.9,43.8,44.1,43.4,42.4,43.3z M42.4,43.3c1.7,0,3.5,0.4,5,1.3
                c1.5,0.8,2.8,2.2,3.1,3.9c0.2,0.9,0.1,1.7,0.1,2.6l0,2.6l0.1,5.2l0.1,5.2c0,0.9-0.1,1.8-0.4,2.6c-0.4,0.8-0.9,1.6-1.6,2.2
                c-1.4,1.2-3.1,1.9-4.9,2.2c-0.9,0.2-1.8,0.1-2.6,0.2l-2.6,0l0.5-0.8c0.8,1.1,1.9,2.1,3,2.9c1.2,0.8,2.4,1.6,3.7,2.2l3.1,1.5
                l-3.5-0.2c-2.4-0.1-4.9-0.4-7.2-1.3c-2.3-0.8-4.6-2.3-6.2-4.3l0.7,0.4l-11.5,0.1l-5.7,0l-2.9,0l-1.4,0l-0.7,0l-0.8,0
                c-2.1-0.2-4.1-0.9-5.8-2.2c-0.8-0.7-1.5-1.6-2-2.6c-0.1-0.3-0.2-0.5-0.3-0.8c-0.1-0.3-0.1-0.6-0.2-0.8c-0.1-0.6,0-1.1,0-1.5
                l0.2-11.5c0-1,0-1.9,0.1-2.9c0.1-1.1,0.5-2.1,1.1-2.9c1.2-1.7,3.1-2.7,5-3.1c1-0.2,2-0.3,2.9-0.3l2.9,0.1l5.7,0.1l11.5,0.1
                L42.4,43.3z"/>

            <path style="fill:#E59B3A;" d="M20.4,55.4c0.5,0,0.9,0.2,1.2,0.5c0.3,0.3,0.5,0.8,0.5,1.2S22,58,21.7,58.4s-0.8,0.5-1.2,0.5
                s-0.9-0.2-1.2-0.5s-0.5-0.8-0.5-1.2s0.2-0.9,0.5-1.2C19.5,55.6,19.9,55.4,20.4,55.4z"/>
            <path style="fill:#E59B3A;" d="M26.8,55.4c0.5,0,0.9,0.2,1.2,0.5c0.3,0.3,0.5,0.8,0.5,1.2s-0.2,0.9-0.5,1.2s-0.8,0.5-1.2,0.5
                s-0.9-0.2-1.2-0.5s-0.5-0.8-0.5-1.2s0.2-0.9,0.5-1.2C25.9,55.6,26.4,55.4,26.8,55.4z"/>
            <path style="fill:#E59B3A;" d="M33.3,55.4c0.5,0,0.9,0.2,1.2,0.5c0.3,0.3,0.5,0.8,0.5,1.2s-0.2,0.9-0.5,1.2s-0.8,0.5-1.2,0.5
                s-0.9-0.2-1.2-0.5s-0.5-0.8-0.5-1.2s0.2-0.9,0.5-1.2C32.4,55.6,32.8,55.4,33.3,55.4z"/>
        </symbol>
    </defs>
</svg>
