<svg xmlns="http://www.w3.org/2000/svg" viewBox="0 0 71 80" preserveAspectRatio="xMinYMin meet">
    <defs>
        <symbol id="simple" viewBox="0 0 71 80">
            <path d="M17.9,2.9l-4.2,16.7c-1.4,5.5-2.8,11-4.3,16.5c-1.4,5.5-2.8,11-4.3,16.4c-1.5,5.4-3,10.9-4.6,16.3l-0.3-0.6L12,71.7
                l11.9,3.3c8,2.1,15.9,4.2,23.9,6.2l-0.6,0.3c2.4-9.4,4.9-18.8,7.3-28.2l3.7-14.1l3.8-14l0.1,0.6c-2.5-4.1-5-8.2-7.5-12.3l0.4,0.3
                C49,12,42.8,10.3,36.6,8.5L17.9,2.9z M17.8,2.8l18.7,4.7c6.3,1.6,12.6,3.3,19,4.9c0.2,0,0.3,0.1,0.4,0.3l0,0
                c2.6,4.1,5.1,8.2,7.7,12.2c0.1,0.2,0.1,0.4,0.1,0.6l-3.8,14.1l-3.9,14c-2.6,9.4-5.2,18.7-7.9,28l0,0c-0.1,0.2-0.3,0.4-0.6,0.3
                c-7.9-2.3-15.8-4.5-23.8-6.7l-11.9-3.2l-12-3.1c-0.2-0.1-0.4-0.3-0.3-0.6l0,0C1,63.1,2.4,57.5,3.9,52c1.5-5.6,3-11,4.6-16.6
                c1.5-5.5,3.1-11,4.7-16.4L17.8,2.8z"
            />

            <polyline
                style="fill:none;stroke:#000000;stroke-width:2.039;stroke-linecap:round;stroke-linejoin:round;stroke-miterlimit:10;"
                points="62.6,25.3 51.4,22.3 53.9,13.2 "
            />

            <line style="fill:none;stroke:#000000;stroke-width:1.5;stroke-linecap:round;stroke-linejoin:round;stroke-miterlimit:10;" x1="36.8" y1="22.6" x2="55.9" y2="27.7"/>
            <line style="fill:none;stroke:#000000;stroke-width:1.5;stroke-linecap:round;stroke-linejoin:round;stroke-miterlimit:10;" x1="17.3" y1="29.7" x2="52.7" y2="39.3"/>
            <line style="fill:none;stroke:#000000;stroke-width:1.5;stroke-linecap:round;stroke-linejoin:round;stroke-miterlimit:10;" x1="14.2" y1="41.2" x2="49.6" y2="50.8"/>
            <line style="fill:none;stroke:#000000;stroke-width:1.5;stroke-linecap:round;stroke-linejoin:round;stroke-miterlimit:10;" x1="11" y1="52.7" x2="46.5" y2="62.3"/>
            <line style="fill:none;stroke:#000000;stroke-width:1.9443;stroke-linecap:round;stroke-linejoin:round;stroke-miterlimit:10;" x1="7.9" y1="64.3" x2="34.7" y2="71.5"/>

            <path style="fill:#60439A;" d="M30.2,12.8L27,24.5c0,0.1-0.1,0.3-0.1,0.4c0,0.1,0,0.2,0.1,0.3c0.1,0.1,0.2,0.2,0.3,0.3
                c0.1,0.1,0.4,0.2,0.6,0.3c0.2,0.1,0.3,0.3,0.2,0.5c0,0,0,0.1-0.1,0.2c0,0.1-0.1,0.2-0.1,0.2c-0.5-0.2-1-0.3-1.5-0.5
                c-0.5-0.2-1-0.3-1.4-0.4c-0.4-0.1-0.9-0.2-1.4-0.4c-0.5-0.1-1-0.2-1.5-0.3c0-0.1,0-0.1,0-0.2c0-0.1,0-0.2,0-0.2
                c0-0.1,0.1-0.2,0.1-0.2c0.1-0.1,0.2-0.1,0.3-0.1c0.6,0.1,0.9,0.1,1.1,0c0.2-0.1,0.3-0.3,0.4-0.6l3.2-11.7l-2-0.5
                c-0.4-0.1-0.8-0.2-1.1-0.2c-0.3,0-0.6,0.1-0.9,0.2c-0.3,0.1-0.5,0.3-0.8,0.5s-0.5,0.5-0.8,0.8C21.9,13,21.7,13,21.6,13
                c-0.1,0-0.2-0.1-0.3-0.1c-0.1-0.1-0.2-0.1-0.2-0.2c0.2-0.3,0.4-0.6,0.5-0.9s0.3-0.5,0.4-0.8c0.2-0.3,0.3-0.6,0.4-0.9
                c0.1-0.3,0.2-0.4,0.3-0.5c0.1-0.1,0.2-0.2,0.4-0.1c0.2,0,0.5,0.2,0.9,0.3c0.5,0.2,1,0.4,1.7,0.5l6.8,1.9c0.7,0.2,1.2,0.3,1.7,0.4
                s0.8,0.2,1,0.2c0.2,0,0.3,0.1,0.3,0.3c0,0.1,0,0.3-0.1,0.6s-0.1,0.6-0.1,0.9c0,0.3,0,0.6-0.1,0.9c0,0.3,0,0.6,0,1
                c-0.1,0-0.2,0-0.3,0c-0.1,0-0.2,0-0.3,0c-0.2,0-0.3-0.1-0.3-0.3c-0.1-0.4-0.2-0.8-0.2-1.1c-0.1-0.3-0.2-0.6-0.4-0.8
                c-0.2-0.2-0.4-0.4-0.7-0.6c-0.3-0.2-0.6-0.3-1-0.4L30.2,12.8z"
            />
        </symbol>

        <symbol id="list" viewBox="0 0 71 80">
            <path d="M14,11c4-0.4,8-0.6,12-0.7c4-0.2,8-0.2,12-0.2c4,0,8,0.1,12,0.2c4,0.1,8,0.3,12,0.7c-4,0.4-8,0.6-12,0.7
                c-4,0.2-8,0.2-12,0.2c-4,0-8-0.1-12-0.2C22,11.6,18,11.4,14,11z"
            />

            <path d="M14,19c4-0.4,8-0.6,12-0.7c4-0.2,8-0.2,12-0.2c4,0,8,0.1,12,0.2c4,0.1,8,0.3,12,0.7c-4,0.4-8,0.6-12,0.7
                c-4,0.2-8,0.2-12,0.2c-4,0-8-0.1-12-0.2C22,19.6,18,19.4,14,19z"
            />

            <path d="M14,27c4-0.4,8-0.6,12-0.7c4-0.2,8-0.2,12-0.2c4,0,8,0.1,12,0.2c4,0.1,8,0.3,12,0.7c-4,0.4-8,0.6-12,0.7
                c-4,0.2-8,0.2-12,0.2c-4,0-8-0.1-12-0.2C22,27.6,18,27.4,14,27z"
            />

            <path d="M21,53.5c-2.6,0-5.2,0.1-7.8,0.3c-1.3,0.1-2.6,0.1-3.9,0.1l-1.9,0c-0.2,0-0.3,0-0.5,0c-0.2,0-0.5-0.1-0.6-0.2
                c-0.4-0.3-0.6-0.7-0.6-1.2c0.1-2.6,0.2-5.2,0.3-7.8c0-1.3,0-2.6,0-3.9c0-0.6,0-1.3,0-1.9c0-0.2,0-0.3,0-0.5c0-0.2,0.1-0.4,0.2-0.6
                c0.2-0.3,0.6-0.6,1-0.6c2.6-0.1,5.2-0.2,7.8-0.2l3.9-0.1l1.9,0c0.2,0,0.3,0,0.5,0c0.2,0,0.5,0.1,0.7,0.3c0.4,0.3,0.7,0.8,0.7,1.3
                c0,2.6-0.1,5.2-0.2,7.8l-0.2,3.9c0,0.6,0,1.3-0.1,1.9c0,0.3,0,0.7-0.2,1C21.7,53.4,21.3,53.6,21,53.5z M21,53.5
                c0.3,0,0.6-0.2,0.8-0.4c0.2-0.3,0.2-0.6,0.1-0.9c0-0.6,0-1.3-0.1-1.9l-0.2-3.9c-0.1-2.6-0.2-5.2-0.2-7.8c0-0.1-0.1-0.3-0.2-0.4
                c-0.1,0-0.1-0.1-0.2-0.1c0,0-0.3,0-0.4,0l-1.9,0L14.8,38c-2.6,0-5.2-0.1-7.8-0.2c-0.2,0-0.5,0.1-0.6,0.3c-0.2,0.2-0.2,0.4-0.2,0.8
                c0,0.6,0,1.3,0,1.9c0,1.3,0,2.6,0,3.9c0,2.6,0.2,5.2,0.3,7.8c0,0.2,0.1,0.4,0.3,0.5c0.1,0,0.2,0.1,0.3,0.1c0.1,0,0.3,0,0.4,0l1.9,0
                c1.3,0,2.6,0.1,3.9,0.1C15.8,53.3,18.4,53.5,21,53.5z"
            />

            <path d="M41.5,53.5c-2.6,0-5.2,0.1-7.8,0.3c-1.3,0.1-2.6,0.1-3.9,0.1l-1.9,0c-0.2,0-0.3,0-0.5,0c-0.2,0-0.5-0.1-0.6-0.2
                c-0.4-0.3-0.6-0.7-0.6-1.2c0.1-2.6,0.2-5.2,0.3-7.8c0-1.3,0-2.6,0-3.9c0-0.6,0-1.3,0-1.9c0-0.2,0-0.3,0-0.5c0-0.2,0.1-0.4,0.2-0.6
                c0.2-0.3,0.6-0.6,1-0.6c2.6-0.1,5.2-0.2,7.8-0.2l3.9-0.1l1.9,0c0.2,0,0.3,0,0.5,0c0.2,0,0.5,0.1,0.7,0.3c0.4,0.3,0.7,0.8,0.7,1.3
                c0,2.6-0.1,5.2-0.2,7.8l-0.2,3.9c0,0.6,0,1.3-0.1,1.9c0,0.3,0,0.7-0.2,1C42.2,53.4,41.8,53.6,41.5,53.5z M41.5,53.5
                c0.3,0,0.6-0.2,0.8-0.4c0.2-0.3,0.2-0.6,0.1-0.9c0-0.6,0-1.3-0.1-1.9l-0.2-3.9C42,43.7,42,41.1,42,38.5c0-0.1-0.1-0.3-0.2-0.4
                c-0.1,0-0.1-0.1-0.2-0.1c0,0-0.3,0-0.4,0l-1.9,0L35.3,38c-2.6,0-5.2-0.1-7.8-0.2c-0.2,0-0.5,0.1-0.6,0.3c-0.2,0.2-0.2,0.4-0.2,0.8
                c0,0.6,0,1.3,0,1.9c0,1.3,0,2.6,0,3.9c0,2.6,0.2,5.2,0.3,7.8c0,0.2,0.1,0.4,0.3,0.5c0.1,0,0.2,0.1,0.3,0.1c0.1,0,0.3,0,0.4,0l1.9,0
                c1.3,0,2.6,0.1,3.9,0.1C36.3,53.3,38.9,53.5,41.5,53.5z"
            />

            <path d="M62,53.5c-2.6,0-5.2,0.1-7.8,0.3c-1.3,0.1-2.6,0.1-3.9,0.1l-1.9,0c-0.2,0-0.3,0-0.5,0c-0.2,0-0.5-0.1-0.6-0.2
                c-0.4-0.3-0.6-0.7-0.6-1.2c0.1-2.6,0.2-5.2,0.3-7.8c0-1.3,0-2.6,0-3.9c0-0.6,0-1.3,0-1.9c0-0.2,0-0.3,0-0.5c0-0.2,0.1-0.4,0.2-0.6
                c0.2-0.3,0.6-0.6,1-0.6c2.6-0.1,5.2-0.2,7.8-0.2l3.9-0.1l1.9,0c0.2,0,0.3,0,0.5,0c0.2,0,0.5,0.1,0.7,0.3c0.4,0.3,0.7,0.8,0.7,1.3
                c0,2.6-0.1,5.2-0.2,7.8l-0.2,3.9c0,0.6,0,1.3-0.1,1.9c0,0.3,0,0.7-0.2,1C62.7,53.4,62.3,53.6,62,53.5z M62,53.5
                c0.3,0,0.6-0.2,0.8-0.4c0.2-0.3,0.2-0.6,0.1-0.9c0-0.6,0-1.3-0.1-1.9l-0.2-3.9c-0.1-2.6-0.2-5.2-0.2-7.8c0-0.1-0.1-0.3-0.2-0.4
                c-0.1,0-0.1-0.1-0.2-0.1c0,0-0.3,0-0.4,0l-1.9,0L55.8,38c-2.6,0-5.2-0.1-7.8-0.2c-0.2,0-0.5,0.1-0.6,0.3c-0.2,0.2-0.2,0.4-0.2,0.8
                c0,0.6,0,1.3,0,1.9c0,1.3,0,2.6,0,3.9c0,2.6,0.2,5.2,0.3,7.8c0,0.2,0.1,0.4,0.3,0.5c0.1,0,0.2,0.1,0.3,0.1c0.1,0,0.3,0,0.4,0l1.9,0
                c1.3,0,2.6,0.1,3.9,0.1C56.8,53.3,59.4,53.5,62,53.5z"
            />

            <path d="M21,75.1c-2.6,0-5.2,0.1-7.8,0.3c-1.3,0.1-2.6,0.1-3.9,0.1l-1.9,0c-0.2,0-0.3,0-0.5,0c-0.2,0-0.5-0.1-0.6-0.2
                c-0.4-0.3-0.6-0.7-0.6-1.2c0.1-2.6,0.2-5.2,0.3-7.8c0-1.3,0-2.6,0-3.9c0-0.6,0-1.3,0-1.9c0-0.2,0-0.3,0-0.5c0-0.2,0.1-0.4,0.2-0.6
                c0.2-0.3,0.6-0.6,1-0.6c2.6-0.1,5.2-0.2,7.8-0.2l3.9-0.1l1.9,0c0.2,0,0.3,0,0.5,0c0.2,0,0.5,0.1,0.7,0.3c0.4,0.3,0.7,0.8,0.7,1.3
                c0,2.6-0.1,5.2-0.2,7.8l-0.2,3.9c0,0.6,0,1.3-0.1,1.9c0,0.3,0,0.7-0.2,1C21.7,74.9,21.3,75.1,21,75.1z M21,74.9
                c0.3,0,0.6-0.2,0.8-0.4c0.2-0.3,0.2-0.6,0.1-0.9c0-0.6,0-1.3-0.1-1.9l-0.2-3.9c-0.1-2.6-0.2-5.2-0.2-7.8c0-0.1-0.1-0.3-0.2-0.4
                c-0.1,0-0.1-0.1-0.2-0.1c0,0-0.3,0-0.4,0l-1.9,0l-3.9-0.1c-2.6,0-5.2-0.1-7.8-0.2c-0.2,0-0.5,0.1-0.6,0.3c-0.2,0.2-0.2,0.4-0.2,0.8
                c0,0.6,0,1.3,0,1.9c0,1.3,0,2.6,0,3.9c0,2.6,0.2,5.2,0.3,7.8c0,0.2,0.1,0.4,0.3,0.5c0.1,0,0.2,0.1,0.3,0.1c0.1,0,0.3,0,0.4,0l1.9,0
                c1.3,0,2.6,0.1,3.9,0.1C15.8,74.8,18.4,75,21,74.9z"
            />

            <path d="M41.5,75.1c-2.6,0-5.2,0.1-7.8,0.3c-1.3,0.1-2.6,0.1-3.9,0.1l-1.9,0c-0.2,0-0.3,0-0.5,0c-0.2,0-0.5-0.1-0.6-0.2
                c-0.4-0.3-0.6-0.7-0.6-1.2c0.1-2.6,0.2-5.2,0.3-7.8c0-1.3,0-2.6,0-3.9c0-0.6,0-1.3,0-1.9c0-0.2,0-0.3,0-0.5c0-0.2,0.1-0.4,0.2-0.6
                c0.2-0.3,0.6-0.6,1-0.6c2.6-0.1,5.2-0.2,7.8-0.2l3.9-0.1l1.9,0c0.2,0,0.3,0,0.5,0c0.2,0,0.5,0.1,0.7,0.3C42.8,59,43,59.5,43,60
                c0,2.6-0.1,5.2-0.2,7.8l-0.2,3.9c0,0.6,0,1.3-0.1,1.9c0,0.3,0,0.7-0.2,1C42.2,74.9,41.8,75.1,41.5,75.1z M41.5,74.9
                c0.3,0,0.6-0.2,0.8-0.4c0.2-0.3,0.2-0.6,0.1-0.9c0-0.6,0-1.3-0.1-1.9l-0.2-3.9C42,65.2,42,62.6,42,60c0-0.1-0.1-0.3-0.2-0.4
                c-0.1,0-0.1-0.1-0.2-0.1c0,0-0.3,0-0.4,0l-1.9,0l-3.9-0.1c-2.6,0-5.2-0.1-7.8-0.2c-0.2,0-0.5,0.1-0.6,0.3c-0.2,0.2-0.2,0.4-0.2,0.8
                c0,0.6,0,1.3,0,1.9c0,1.3,0,2.6,0,3.9c0,2.6,0.2,5.2,0.3,7.8c0,0.2,0.1,0.4,0.3,0.5c0.1,0,0.2,0.1,0.3,0.1c0.1,0,0.3,0,0.4,0l1.9,0
                c1.3,0,2.6,0.1,3.9,0.1C36.3,74.8,38.9,75,41.5,74.9z"
            />

            <path d="M62,75.1c-2.6,0-5.2,0.1-7.8,0.3c-1.3,0.1-2.6,0.1-3.9,0.1l-1.9,0c-0.2,0-0.3,0-0.5,0c-0.2,0-0.5-0.1-0.6-0.2
                c-0.4-0.3-0.6-0.7-0.6-1.2c0.1-2.6,0.2-5.2,0.3-7.8c0-1.3,0-2.6,0-3.9c0-0.6,0-1.3,0-1.9c0-0.2,0-0.3,0-0.5c0-0.2,0.1-0.4,0.2-0.6
                c0.2-0.3,0.6-0.6,1-0.6c2.6-0.1,5.2-0.2,7.8-0.2l3.9-0.1l1.9,0c0.2,0,0.3,0,0.5,0c0.2,0,0.5,0.1,0.7,0.3c0.4,0.3,0.7,0.8,0.7,1.3
                c0,2.6-0.1,5.2-0.2,7.8l-0.2,3.9c0,0.6,0,1.3-0.1,1.9c0,0.3,0,0.7-0.2,1C62.7,74.9,62.3,75.1,62,75.1z M62,74.9
                c0.3,0,0.6-0.2,0.8-0.4c0.2-0.3,0.2-0.6,0.1-0.9c0-0.6,0-1.3-0.1-1.9l-0.2-3.9c-0.1-2.6-0.2-5.2-0.2-7.8c0-0.1-0.1-0.3-0.2-0.4
                c-0.1,0-0.1-0.1-0.2-0.1c0,0-0.3,0-0.4,0l-1.9,0l-3.9-0.1c-2.6,0-5.2-0.1-7.8-0.2c-0.2,0-0.5,0.1-0.6,0.3c-0.2,0.2-0.2,0.4-0.2,0.8
                c0,0.6,0,1.3,0,1.9c0,1.3,0,2.6,0,3.9c0,2.6,0.2,5.2,0.3,7.8c0,0.2,0.1,0.4,0.3,0.5c0.1,0,0.2,0.1,0.3,0.1c0.1,0,0.3,0,0.4,0l1.9,0
                c1.3,0,2.6,0.1,3.9,0.1C56.8,74.8,59.4,75,62,74.9z"
            />
            
            <circle style="fill:#E59B3A;" cx="7.8" cy="11" r="1.8"/>
            <circle style="fill:#E59B3A;" cx="7.8" cy="19" r="1.8"/>
            <circle style="fill:#E59B3A;" cx="7.8" cy="27" r="1.8"/>
        </symbol>

        <symbol id="profile" viewBox="0 0 71 80">
            <path d="M45.8,50.4c-1.2,1.2-2.8,2.2-4.5,2.8c-1.7,0.7-3.5,1-5.3,0.9c-1.8,0-3.6-0.4-5.3-1.1c-1.7-0.7-3.2-1.7-4.5-2.9l0.5,0.1
                c-2.1,1.2-3.9,2.6-5.5,4.4c-1.6,1.7-3,3.7-4,5.8c-1,2.1-1.8,4.4-2.2,6.8c-0.2,1.2-0.3,2.4-0.4,3.6c-0.1,1.2,0.1,2.4,0.1,3.6
                l-0.2-0.1c3.5,0,7,0,10.5-0.1l10.5-0.1l10.5,0c3.5,0,7,0,10.5,0.1l-0.5,0.5c0.1-1.1,0.2-2.3,0.2-3.4c0-1.1-0.1-2.3-0.2-3.4
                c-0.3-2.3-0.9-4.5-1.8-6.6c-0.9-2.1-2.1-4.1-3.5-5.9C49.5,53.3,47.7,51.7,45.8,50.4z M45.8,50.3c2.1,1.2,3.9,2.7,5.5,4.5
                c1.6,1.8,2.9,3.8,3.8,5.9c1,2.2,1.6,4.5,2,6.8c0.2,1.2,0.3,2.4,0.3,3.6c0,1.2-0.1,2.4-0.2,3.6l0,0.5l-0.5,0c-3.5,0-7,0-10.5,0
                l-10.5-0.1l-10.5-0.2c-3.5-0.1-7-0.1-10.5-0.2l-0.2,0l0-0.1l-0.1-1.8c0-0.6-0.1-1.2-0.1-1.8c0-1.2,0.1-2.4,0.3-3.6
                c0.4-2.4,1-4.8,2-7c1-2.2,2.3-4.3,4-6.1c1.6-1.8,3.6-3.4,5.7-4.6l0.3-0.1l0.2,0.2c2.4,2.4,5.8,3.8,9.2,4c1.7,0.1,3.5-0.2,5.1-0.7
                C42.9,52.3,44.4,51.4,45.8,50.3z"
            />

            <path d="M46.2,9.6c1.2,1.3,1.9,3.2,1.8,5c-0.1,1.8-0.8,3.7-2.2,5c-1.3,1.3-3.2,2.2-5.2,2.2c-1,0-2-0.2-2.9-0.6
                c-0.9-0.4-1.7-1-2.4-1.7c-1.4-1.5-2-3.6-1.8-5.5c0.2-2,1.3-3.8,2.7-5c1.5-1.2,3.4-1.8,5.2-1.7C43.2,7.4,45,8.2,46.2,9.6z M46.2,9.6
                c-1.2-1.3-3-2.1-4.8-2.1c-1.8,0-3.5,0.8-4.7,2c-2.5,2.4-2.6,6.6-0.4,8.9c2.1,2.4,6.2,2.8,8.9,0.5c1.3-1.1,2.3-2.7,2.5-4.5
                C48,12.8,47.4,10.9,46.2,9.6z"
            />

            <path d="M42.7,23.4c0-2.5,2.1-4.6,4.8-4.8c1.3-0.1,2.7,0.3,3.7,1.1c1.1,0.9,1.8,2.2,1.8,3.7c0,1.4-0.7,2.8-1.8,3.7
                c-1.1,0.9-2.4,1.3-3.7,1.1C44.9,28,42.7,25.8,42.7,23.4z M42.7,23.4c0,1.2,0.6,2.4,1.5,3.1c0.9,0.7,2.1,1.1,3.2,1
                c2.3-0.2,4-2.1,4-4.1c0-2-1.7-3.9-4-4.1c-1.1-0.1-2.3,0.2-3.2,1C43.3,21,42.7,22.2,42.7,23.4z"
            />

            <path d="M44.1,27.1c1,0,2,0.3,2.8,1c0.8,0.6,1.3,1.6,1.4,2.7c0.1,1.1-0.3,2.3-1.1,3.1c-0.8,0.9-2,1.3-3.1,1.3
                c-1.2,0-2.3-0.5-3.1-1.3c-0.8-0.8-1.2-2-1.1-3.1c0.1-1.1,0.7-2.1,1.5-2.7C42.1,27.4,43.1,27.1,44.1,27.1z M44.1,27.1
                c-1,0-2,0.4-2.6,1.1c-0.7,0.7-1,1.7-0.8,2.6c0.2,1.8,1.9,3,3.5,3c1.6,0,3.2-1.1,3.5-3c0.1-0.9-0.2-1.9-0.8-2.6
                C46.1,27.5,45.1,27.1,44.1,27.1z"
            />

            <path style="fill:#128BC7;" d="M40.5,27.6c-2.5-0.3-4.8,0.2-6.8,1.2c-1.9,1-3.4,2.6-4.4,4.3c-0.9,1.8-1.3,3.8-1,5.7
                c0.3,1.9,1.1,3.7,2.4,5c2.5,2.8,6.9,3.7,10.6,2.1c1.8-0.8,3.5-2.2,4.6-4.1c1.1-1.9,1.7-4.2,1.6-6.7c0.6,1.1,0.9,2.3,1.1,3.7
                c0.1,1.3,0,2.6-0.4,4c-0.8,2.6-2.5,5-4.9,6.6c-2.4,1.6-5.4,2.3-8.4,1.9c-1.5-0.2-2.9-0.6-4.2-1.3c-1.3-0.7-2.5-1.6-3.6-2.7
                c-1-1.1-1.9-2.3-2.5-3.7c-0.6-1.4-0.9-2.8-1-4.3c-0.2-2.9,0.7-5.9,2.4-8.2c1.7-2.3,4.2-4,6.9-4.5C35.6,25.9,38.4,26.3,40.5,27.6z"
            />
        </symbol>

        <symbol id="resource" viewBox="0 0 71 80">
            <clipPath id="SVGID_2_">
                <rect x="50.5" y="18" transform="matrix(1 -1.757526e-03 1.757526e-03 1 -4.258821e-02 9.978134e-02)" width="12.5" height="12.5" style="overflow:visible;"/>
            </clipPath>

            <path style="clip-path:url(#SVGID_2_);fill:#98C03D;" d="M62.6,25.3l-0.8-0.5c0-0.3,0-0.6,0-1l0.8-0.5c0.3-0.2,0.5-0.6,0.3-1
                l-0.4-1.1c-0.1-0.3-0.4-0.5-0.7-0.5c-0.1,0-0.1,0-0.2,0l-0.9,0.2c-0.2-0.3-0.4-0.5-0.7-0.7l0.2-0.9c0.1-0.4-0.1-0.8-0.5-0.9
                l-1-0.4c-0.1,0-0.2-0.1-0.3-0.1c-0.3,0-0.5,0.1-0.7,0.4c0,0,0,0,0,0l-0.5,0.8c-0.3,0-0.6,0-1,0l-0.5-0.8c-0.1-0.2-0.4-0.4-0.7-0.4
                c-0.1,0-0.2,0-0.3,0.1l-1.1,0.4c-0.4,0.1-0.6,0.5-0.5,0.9l0.2,0.9c-0.3,0.2-0.5,0.4-0.7,0.7l-0.9-0.2c-0.1,0-0.1,0-0.2,0
                c-0.3,0-0.6,0.2-0.7,0.5l-0.4,1c-0.1,0.4,0,0.8,0.3,1l0.8,0.5c0,0.3,0,0.6,0,1l-0.8,0.5c0,0,0,0,0,0c-0.3,0.2-0.5,0.6-0.3,0.9
                c0,0,0,0,0,0l0.4,1.1c0.1,0.3,0.4,0.5,0.7,0.5c0.1,0,0.1,0,0.2,0l0.9-0.2c0.2,0.3,0.4,0.5,0.7,0.7l-0.2,0.9
                c-0.1,0.4,0.1,0.8,0.5,0.9l1,0.4c0.1,0,0.2,0.1,0.3,0.1c0.3,0,0.5-0.1,0.7-0.4l0.5-0.8c0.3,0,0.6,0,1,0l0.5,0.8
                c0.1,0.2,0.4,0.4,0.7,0.4c0.1,0,0.2,0,0.3-0.1l1.1-0.4c0.4-0.1,0.6-0.5,0.5-0.9l-0.2-0.9c0.2-0.2,0.5-0.4,0.7-0.6l0.9,0.2
                c0.1,0,0.1,0,0.2,0c0.3,0,0.6-0.2,0.7-0.5l0.4-1C63,26,62.9,25.6,62.6,25.3L62.6,25.3z M62.2,26l-0.4,1c0,0,0,0.1-0.1,0.1
                c0,0,0,0,0,0l-1.1-0.3c-0.1,0-0.3,0-0.4,0.1c-0.2,0.3-0.5,0.6-0.9,0.8c-0.1,0.1-0.2,0.2-0.1,0.4l0.2,1.1c0,0,0,0.1-0.1,0.1
                l-1.1,0.4c0,0,0,0,0,0c0,0-0.1,0-0.1,0l-0.6-1c-0.1-0.1-0.2-0.2-0.3-0.2c0,0,0,0,0,0c-0.2,0-0.4,0-0.6,0c-0.2,0-0.4,0-0.7-0.1
                c-0.1,0-0.3,0-0.3,0.2l-0.6,1c0,0-0.1,0-0.1,0l-1-0.4c0,0-0.1-0.1,0-0.1l0.3-1.1c0-0.1,0-0.3-0.1-0.4c-0.3-0.2-0.6-0.5-0.9-0.9
                c-0.1-0.1-0.2-0.2-0.4-0.1L51.7,27c0,0,0,0,0,0c0,0-0.1,0-0.1-0.1l-0.4-1c0,0,0-0.1,0-0.1l1-0.6c0.1-0.1,0.2-0.2,0.2-0.3
                c-0.1-0.4-0.1-0.8,0-1.2c0-0.1,0-0.3-0.2-0.3l-1-0.6c0,0,0-0.1,0-0.1l0.4-1c0,0,0-0.1,0.1-0.1c0,0,0,0,0,0l1.1,0.3
                c0.1,0,0.3,0,0.4-0.1c0.3-0.3,0.6-0.6,0.9-0.9c0.1-0.1,0.2-0.2,0.1-0.4l-0.2-1.1c0,0,0-0.1,0.1-0.1l1.1-0.4c0,0,0,0,0,0
                c0,0,0.1,0,0.1,0l0.6,1c0.1,0.1,0.2,0.2,0.3,0.2c0.4,0,0.8,0,1.2,0c0.1,0,0.3,0,0.3-0.2l0.6-1c0,0,0.1,0,0.1,0l1,0.4
                c0,0,0.1,0.1,0,0.1l-0.3,1.1c0,0.1,0,0.3,0.1,0.4c0.3,0.3,0.6,0.5,0.8,0.9c0.1,0.1,0.2,0.2,0.4,0.1l1.1-0.2c0,0,0,0,0,0
                c0,0,0.1,0,0.1,0.1l0.4,1.1c0,0,0,0.1,0,0.1l-1,0.6c-0.1,0.1-0.2,0.2-0.2,0.3c0,0.4,0,0.8,0,1.2c0,0.1,0,0.3,0.2,0.3l1,0.6
                C62.2,26,62.2,26,62.2,26L62.2,26z M62.2,26"
            />

            <path style="fill:#98C03D;" d="M56.7,21.7L56.7,21.7c-0.7,0-1.4,0.3-1.9,0.7c-0.5,0.5-0.8,1.1-0.8,1.8c0,1.4,1.1,2.6,2.6,2.6l0,0
                c0.7,0,1.3-0.3,1.8-0.7c0.5-0.5,0.8-1.1,0.8-1.8C59.3,22.9,58.2,21.7,56.7,21.7L56.7,21.7z M56.7,26.2L56.7,26.2
                c-1.1,0-1.9-0.9-1.9-1.9c0-1,0.9-1.9,1.9-1.9l0,0c1,0,1.9,0.9,1.9,1.9C58.6,25.3,57.7,26.2,56.7,26.2L56.7,26.2z M56.7,26.2"
            />

            <clipPath id="SVGID_4_">
                <rect x="41.5" y="12" width="7.5" height="7.5" style="overflow:visible;"/>
            </clipPath>

            <path style="clip-path:url(#SVGID_4_);" d="M48.7,16.4l-0.5-0.3c0-0.2,0-0.4,0-0.6l0.5-0.3c0.2-0.1,0.3-0.4,0.2-0.6l-0.3-0.6
                c-0.1-0.2-0.2-0.3-0.4-0.3c0,0-0.1,0-0.1,0l-0.5,0.1c-0.1-0.2-0.3-0.3-0.4-0.4l0.1-0.5c0.1-0.2-0.1-0.5-0.3-0.5l-0.6-0.3
                c-0.1,0-0.1,0-0.2,0c-0.2,0-0.3,0.1-0.4,0.2c0,0,0,0,0,0l-0.3,0.5c-0.2,0-0.4,0-0.6,0l-0.3-0.5c-0.1-0.1-0.2-0.2-0.4-0.2
                c-0.1,0-0.1,0-0.2,0l-0.6,0.3c-0.2,0.1-0.3,0.3-0.3,0.5l0.1,0.5c-0.2,0.1-0.3,0.3-0.4,0.4l-0.5-0.1c0,0-0.1,0-0.1,0
                c-0.2,0-0.4,0.1-0.4,0.3l-0.3,0.6c-0.1,0.2,0,0.5,0.2,0.6l0.5,0.3c0,0.2,0,0.4,0,0.6l-0.5,0.3c0,0,0,0,0,0
                c-0.2,0.1-0.3,0.4-0.2,0.6c0,0,0,0,0,0l0.3,0.6c0.1,0.2,0.2,0.3,0.4,0.3c0,0,0.1,0,0.1,0l0.5-0.1c0.1,0.2,0.3,0.3,0.4,0.4
                l-0.1,0.5c-0.1,0.2,0.1,0.5,0.3,0.5l0.6,0.3c0.1,0,0.1,0,0.2,0c0.2,0,0.3-0.1,0.4-0.2l0.3-0.5c0.2,0,0.4,0,0.6,0l0.3,0.5
                c0.1,0.1,0.2,0.2,0.4,0.2c0.1,0,0.1,0,0.2,0l0.6-0.3c0.2-0.1,0.3-0.3,0.3-0.5l-0.1-0.5c0.1-0.1,0.3-0.2,0.4-0.4l0.5,0.1
                c0,0,0.1,0,0.1,0c0.2,0,0.4-0.1,0.4-0.3l0.3-0.6C49,16.8,48.9,16.6,48.7,16.4L48.7,16.4z M48.5,16.8l-0.3,0.6c0,0,0,0,0,0
                c0,0,0,0,0,0l-0.7-0.2c-0.1,0-0.2,0-0.2,0.1c-0.1,0.2-0.3,0.4-0.5,0.5c-0.1,0-0.1,0.1-0.1,0.2l0.1,0.7c0,0,0,0,0,0.1l-0.6,0.3
                c0,0,0,0,0,0c0,0,0,0,0,0l-0.4-0.6c0-0.1-0.1-0.1-0.2-0.1c0,0,0,0,0,0c-0.1,0-0.2,0-0.3,0c-0.1,0-0.3,0-0.4,0
                c-0.1,0-0.2,0-0.2,0.1l-0.4,0.6c0,0,0,0-0.1,0l-0.6-0.3c0,0,0,0,0-0.1l0.2-0.7c0-0.1,0-0.2-0.1-0.2c-0.2-0.1-0.4-0.3-0.5-0.5
                c0-0.1-0.1-0.1-0.2-0.1l-0.7,0.1c0,0,0,0,0,0c0,0,0,0,0,0l-0.3-0.6c0,0,0-0.1,0-0.1l0.6-0.4c0.1,0,0.1-0.1,0.1-0.2
                c0-0.2,0-0.5,0-0.7c0-0.1,0-0.2-0.1-0.2L42,14.8c0,0,0,0,0-0.1l0.3-0.6c0,0,0,0,0,0c0,0,0,0,0,0l0.7,0.2c0.1,0,0.2,0,0.2-0.1
                c0.2-0.2,0.3-0.4,0.5-0.5c0.1,0,0.1-0.1,0.1-0.2l-0.1-0.7c0,0,0,0,0-0.1l0.6-0.3c0,0,0,0,0,0c0,0,0,0,0,0l0.4,0.6
                c0,0.1,0.1,0.1,0.2,0.1c0.2,0,0.5,0,0.7,0c0.1,0,0.2,0,0.2-0.1l0.4-0.6c0,0,0,0,0.1,0l0.6,0.3c0,0,0,0,0,0.1l-0.2,0.7
                c0,0.1,0,0.2,0.1,0.2c0.2,0.2,0.4,0.3,0.5,0.5c0,0.1,0.1,0.1,0.2,0.1l0.7-0.1c0,0,0,0,0,0c0,0,0,0,0,0l0.3,0.6c0,0,0,0.1,0,0.1
                l-0.6,0.4c-0.1,0-0.1,0.1-0.1,0.2c0,0.2,0,0.5,0,0.7c0,0.1,0,0.2,0.1,0.2L48.5,16.8C48.5,16.8,48.5,16.8,48.5,16.8L48.5,16.8z
                 M48.5,16.8"
            />

            <path d="M45.2,14.2L45.2,14.2c-0.4,0-0.8,0.2-1.1,0.4c-0.3,0.3-0.5,0.7-0.5,1.1c0,0.9,0.7,1.6,1.5,1.6h0c0.4,0,0.8-0.2,1.1-0.4
                c0.3-0.3,0.5-0.7,0.5-1.1C46.8,15,46.1,14.3,45.2,14.2L45.2,14.2z M45.2,16.9L45.2,16.9c-0.6,0-1.1-0.5-1.1-1.2
                c0-0.6,0.5-1.1,1.1-1.1h0c0.6,0,1.1,0.5,1.1,1.1C46.3,16.4,45.8,16.9,45.2,16.9L45.2,16.9z M45.2,16.9"
            />

            <path d="M62.7,36.8l-0.1-3.3c0-0.6-0.1-1.1-0.5-1.4c-0.4-0.4-0.8-0.5-1.4-0.5c-2.2,0-4.5,0.1-6.7,0.2L40.7,32L34,32.1l-3.3,0
                l-1.7,0c-0.2,0-0.7,0-1-0.1c-0.4-0.1-0.7-0.3-1-0.6c-0.1-0.1-0.3-0.3-0.4-0.4l-0.2-0.4L26,30l-0.9-1.4c-0.3-0.5-0.6-1-0.8-1.2
                c-0.1-0.1-0.3-0.2-0.5-0.2c-0.1,0-0.2,0-0.3,0l-0.4,0l-3.3,0l-1.7,0l-0.8,0l-0.4,0c-0.1,0-0.2,0-0.3,0c-0.2,0-0.3,0.1-0.4,0.3
                c-0.1,0.1-0.1,0.1-0.2,0.2L15.8,28l-0.9,1.4l-0.9,1.4c-0.1,0.2-0.3,0.6-0.6,0.8c-0.3,0.2-0.6,0.4-1,0.5c-0.2,0-0.4,0.1-0.6,0.1
                l-0.4,0l-0.8,0l-1.7,0l-1.7,0c-0.3,0-0.6,0-0.7,0c-0.2,0-0.3,0.1-0.5,0.2c-0.3,0.2-0.4,0.6-0.4,1l0,1.7l0,3.3l-0.1,6.7L5.3,72
                l-0.6-0.1c1.7-7.7,3.4-15.3,5-23l1.2-5.8l0.6-2.9l0.3-1.4c0.1-0.5,0.4-1.1,0.9-1.4c0.2-0.2,0.5-0.3,0.8-0.3c0.3-0.1,0.6,0,0.8,0
                l1.5,0l2.9,0l5.9-0.1l23.6-0.2l11.8-0.1l2.9,0l1.5,0l0.7,0c0.3,0,0.7,0.1,1,0.2c0.6,0.3,1.1,0.8,1.4,1.5c0.1,0.3,0.1,0.7,0.1,1
                c0,0.4-0.1,0.5-0.1,0.8L66.9,43c-1.3,7.7-2.7,15.5-4.1,23.2l-1,5.8l-0.1,0.4c0,0.2-0.1,0.3-0.2,0.5c-0.1,0.3-0.4,0.6-0.6,0.8
                c-0.3,0.2-0.6,0.4-0.9,0.5c-0.2,0.1-0.3,0.1-0.5,0.1c-0.1,0-0.2,0-0.3,0l-0.2,0l-2.9,0l-11.8-0.1l-23.6-0.2L9,74l-1.5,0
                c-0.5,0-1.1-0.1-1.5-0.4c-0.5-0.2-0.9-0.6-1.1-1.1c0-0.1-0.1-0.3-0.1-0.4l0-0.4l0-0.7L4.9,65c0,0,0-0.1,0.1-0.1c0,0,0.1,0,0.1,0.1
                l0.1,5.9l0,0.7l0,0.4c0,0.1,0,0.2,0.1,0.3c0.2,0.4,0.5,0.7,0.9,0.9c0.4,0.2,0.8,0.3,1.3,0.3l1.5,0l11.8-0.2L44.4,73l11.8-0.1l2.9,0
                l0.2,0l0.1,0c0.1,0,0.1,0,0.2,0c0.1,0,0.3-0.1,0.4-0.2c0.1-0.1,0.2-0.2,0.2-0.3c0-0.1,0.1-0.1,0.1-0.2l0.1-0.3l1-5.8
                c1.3-7.7,2.7-15.5,4.1-23.2l0.5-2.9c0-0.2,0.1-0.5,0.1-0.7c0-0.1,0-0.3,0-0.4c-0.1-0.3-0.3-0.5-0.6-0.6c-0.1-0.1-0.3-0.1-0.4-0.1
                l-0.7,0l-1.5,0l-2.9,0L48.1,38l-23.6-0.2l-5.9-0.1l-2.9,0l-1.5,0c-0.5,0-0.9,0-1.2,0.3c-0.3,0.2-0.6,0.6-0.6,1.1l-0.3,1.4l-0.6,2.9
                L10.2,49c-1.7,7.7-3.3,15.4-4.9,23c0,0.2-0.2,0.3-0.3,0.2c-0.1,0-0.2-0.2-0.2-0.3L4.5,45.2l-0.1-6.7l0-3.3l0-1.7
                c0-0.7,0.3-1.5,0.9-2c0.3-0.2,0.6-0.4,1-0.5C6.7,31,7,31,7.2,31l1.7,0l1.7,0l0.8,0l0.4,0c0.1,0,0.2,0,0.3,0c0.2,0,0.3-0.1,0.5-0.2
                c0.1-0.1,0.2-0.2,0.4-0.5l0.9-1.4l0.9-1.4l0.2-0.4c0.1-0.2,0.2-0.3,0.4-0.4c0.3-0.3,0.6-0.5,1-0.6c0.2-0.1,0.4-0.1,0.6-0.1l0.4,0
                l0.8,0l1.7,0l3.3,0l0.4,0c0.2,0,0.4,0,0.6,0.1c0.4,0.1,0.7,0.3,1,0.5c0.3,0.2,0.5,0.6,0.6,0.8l0.4,0.7l0.9,1.4l0.4,0.7l0.2,0.3
                c0,0.1,0.1,0.2,0.2,0.2c0.1,0.1,0.3,0.2,0.5,0.3C28.5,31,28.7,31,29,31l1.7,0l3.3,0l6.7,0l13.4,0.1c2.2,0,4.5,0,6.7,0.1
                c0.6,0,1.2,0.2,1.6,0.6c0.4,0.4,0.6,1.1,0.5,1.7l-0.1,3.3C62.8,36.9,62.8,36.9,62.7,36.8C62.7,36.9,62.7,36.9,62.7,36.8z"
            />

            <path style="fill:none;stroke:#000000;stroke-miterlimit:10;" d="M36.9,36.4c0-1.3,0.5-2.5,1.5-3.5c0.9-0.9,2.2-1.4,3.5-1.4H42
                c2.7,0,4.9,2.3,4.9,5c0,0.1,0,0.3,0,0.4h3.5c0-0.5,0-1,0-1.5c0-0.3,0.1-0.5,0.3-0.7l1.9-1.2c0.1,0,0.1-0.1,0.1-0.2l-0.8-2
                c0-0.1-0.1-0.1-0.2-0.1c0,0,0,0,0,0l-2.1,0.5c-0.3,0.1-0.5,0-0.7-0.3c-0.5-0.6-1-1.2-1.6-1.7c-0.2-0.2-0.3-0.4-0.2-0.7l0.5-2.2
                c0-0.1,0-0.2-0.1-0.2l-2-0.9c-0.1,0-0.2,0-0.2,0.1L44,27.9c-0.1,0.2-0.4,0.3-0.7,0.3c-0.8-0.1-1.6-0.1-2.3,0
                c-0.3,0-0.5-0.1-0.7-0.3L39.2,26c0-0.1-0.1-0.1-0.1-0.1c0,0,0,0-0.1,0l-2,0.8c-0.1,0-0.1,0.1-0.1,0.2l0.5,2.1
                c0.1,0.3,0,0.5-0.3,0.7c-0.7,0.5-1.2,1-1.7,1.7c-0.2,0.2-0.4,0.3-0.7,0.2l-2.1-0.5c0,0,0,0,0,0c-0.1,0-0.1,0-0.1,0.1l-0.9,2
                c0,0.1,0,0.2,0.1,0.2l1.9,1.2c0.2,0.1,0.3,0.4,0.3,0.7c-0.1,0.6-0.1,1.2-0.1,1.8H37C36.9,36.8,36.9,36.6,36.9,36.4z"
            />
            <path style="fill:none;" d="M32.2,37c0-0.5,0-1,0-1.5l-1.5-1c-0.6-0.4-0.9-1.2-0.6-1.9l0.9-2c0.2-0.6,0.8-0.9,1.4-0.9
                c0.1,0,0.2,0,0.4,0l1.7,0.4c0.4-0.5,0.9-0.9,1.4-1.3l-0.4-1.7c-0.2-0.7,0.2-1.4,0.9-1.7l2-0.8c0.2-0.1,0.4-0.1,0.6-0.1
                c0.5,0,1,0.3,1.3,0.7l0.9,1.5c0.6,0,1.2,0,1.8,0l0.9-1.5c0,0,0,0,0,0c0.3-0.4,0.8-0.7,1.3-0.7c0.2,0,0.4,0,0.6,0.1l2,0.9
                c0.7,0.3,1,1,0.9,1.7l-0.4,1.8c0.5,0.4,0.9,0.8,1.3,1.3l1.7-0.4c0.1,0,0.2,0,0.3,0c0.6,0,1.2,0.4,1.4,0.9l0.8,2
                c0.3,0.7,0,1.5-0.6,1.8l-1.5,0.9c0,0.4,0,0.8,0,1.2H54V24.5H30V37H32.2z"
            />
            <path style="fill:none;" d="M45.5,36.6c0-2-1.6-3.7-3.6-3.7h-0.1c-2,0-3.6,1.6-3.6,3.6c0,0.2,0,0.4,0,0.5h7.2
                 C45.5,36.9,45.5,36.7,45.5,36.6z"
            />
        </symbol>
    </defs>
</svg>
