<?xml version="1.0" encoding="utf-8"?>
<!-- Generator: Adobe Illustrator 21.0.2, SVG Export Plug-In . SVG Version: 6.00 Build 0)  -->
<svg version="1.1" xmlns="http://www.w3.org/2000/svg" xmlns:xlink="http://www.w3.org/1999/xlink" x="0px" y="0px"
	 viewBox="0 0 71 80" style="enable-background:new 0 0 71 80;" xml:space="preserve">
<g id="shortcut">
</g>
<g id="file">
	<g>
		<path d="M67,14.9c-2.4,1.5-4.7,3-6.9,4.5c-2.2,1.5-4.4,2.9-6.5,4.2c-0.4,0.3-0.9,0.1-1.2-0.3c-0.1-0.1-0.1-0.3-0.1-0.4l0-0.1
			L52,13.1c0-1.3-0.7-2.5-1.8-3.2c-0.5-0.4-1.1-0.6-1.7-0.7c-0.2,0-0.3,0-0.5,0l-0.2,0l-0.3,0l-1.2,0c-6.5,0.1-13,0.1-19.5-0.1
			L17,8.8l-4.9-0.2l-1.2,0c-0.4,0-0.7,0-1.1,0.1C9.1,8.7,8.4,9,7.8,9.4c-1.2,0.9-1.9,2.3-1.9,3.8l0,4.9c0,3.3,0,6.5,0.1,9.8
			c0,3.3,0.1,6.5,0.2,9.8l0.1,4.9c0,1.4,0.7,2.7,1.8,3.4c0.5,0.4,1.2,0.6,1.8,0.8c0.3,0,0.6,0.1,1,0l1.2,0l4.9-0.1
			c3.3-0.1,6.5-0.1,9.8-0.2l19.5-0.2l1.2,0l0.3,0l0.2,0c0.1,0,0.3,0,0.4,0c0.6-0.1,1.1-0.3,1.5-0.7c0.9-0.7,1.5-1.8,1.5-2.9l0.1-9.7
			l0,0c0-0.8,0.7-1.5,1.5-1.5c0.3,0,0.5,0.1,0.7,0.2c4.6,2.8,9.2,5.5,13.8,8.3L66,41c0-2.1,0.1-4.2,0.2-6.3l0.3-6.4l0.3-6.6L67,14.9
			z M67.2,14.6l0.3,6.3l0.3,6.5l0.3,6.7c0.1,2.3,0.2,4.5,0.2,6.8c0,0.6-0.5,1.2-1.1,1.2c-0.2,0-0.4,0-0.6-0.1l-0.1,0
			c-4.7-2.6-9.4-5.2-14.1-7.8l2.2-1.3l0.1,9.8c0,2.1-1.1,4.2-2.8,5.4c-0.9,0.6-1.9,1.1-2.9,1.2c-0.3,0-0.5,0.1-0.8,0.1l-0.4,0
			l-0.3,0l-1.2,0l-19.5-0.2c-3.3,0-6.5-0.1-9.8-0.2l-4.9-0.1l-1.2,0c-0.4,0-1-0.1-1.4-0.2c-1-0.2-1.9-0.7-2.6-1.3
			c-1.5-1.2-2.4-3.2-2.3-5l0.1-4.9c0.1-3.3,0.2-6.5,0.2-9.8c0.1-3.3,0.1-6.5,0.1-9.8l0-4.9c-0.1-1.8,0.8-3.6,2.2-4.7
			c0.7-0.6,1.5-1,2.4-1.2c0.4-0.1,0.9-0.1,1.3-0.2l1.2,0L17,6.9l9.8-0.3c6.5-0.2,13-0.1,19.5-0.1l1.2,0l0.3,0l0.4,0
			c0.3,0,0.5,0,0.8,0.1c1,0.2,1.9,0.6,2.7,1.2c1.6,1.2,2.6,3.2,2.6,5.2c-0.1,3.3-0.2,6.5-0.2,9.8l-1.3-0.8c2.5-1.3,5-2.6,7.4-3.8
			C62.6,17,64.9,15.8,67.2,14.6z"/>
	</g>
	<g>
		<path style="fill:#60439A;" d="M23.1,18.8c0.1,2.7,0.3,5.3,0.3,7.8c0,1.3,0.1,2.5,0.1,3.7c0,1.2-0.1,2.5-0.1,3.7L23,33.8
			c1.4-0.6,2.8-1.1,4.2-1.8c1.4-0.6,2.8-1.3,4.1-2l4.1-2.1c1.4-0.7,2.7-1.3,4.1-2v0.9c-2.7-1.2-5.4-2.4-8.1-3.8L23.1,18.8z
			 M23.1,18.8l4.1,1.7l4.2,1.7c2.8,1.2,5.7,2.5,8.5,3.9l0,0c0.2,0.1,0.3,0.4,0.2,0.6c-0.1,0.1-0.1,0.2-0.2,0.2
			c-1.4,0.6-2.8,1.2-4.2,1.8l-4.2,1.8c-1.4,0.6-2.8,1.2-4.2,1.9c-1.4,0.6-2.7,1.4-4.1,2.1c-0.2,0.1-0.3,0-0.4-0.1c0,0,0-0.1,0-0.1
			l0,0c-0.1-1.3-0.1-2.6-0.1-3.9c0-1.3,0-2.6,0.1-3.9C22.8,23.7,23,21.1,23.1,18.8z"/>
	</g>
	<rect y="57" style="fill:#60439A;" width="71" height="23"/>
	<g>
		<path style="fill:#FFFFFF;" d="M17.4,61.6h2l2.5,7.5l2.5-7.5h2l1.8,10.8h-2l-1.2-6.8l-2.3,6.8H21l-2.3-6.8l-1.2,6.8h-2L17.4,61.6z
			"/>
		<path style="fill:#FFFFFF;" d="M29.8,61.6H32c1.2,0,2,0.1,2.5,0.3c0.5,0.2,0.9,0.6,1.2,1.1c0.3,0.5,0.5,1.1,0.5,1.7
			c0,0.8-0.2,1.4-0.6,1.9c-0.4,0.5-0.9,0.8-1.6,1c-0.4,0.1-1.1,0.2-2.2,0.2v4.6h-2.1V61.6z M31.9,65.8h0.7c0.5,0,0.9,0,1.1-0.1
			c0.2-0.1,0.4-0.2,0.5-0.4c0.1-0.2,0.2-0.4,0.2-0.6c0-0.4-0.2-0.7-0.5-0.9c-0.2-0.1-0.7-0.2-1.3-0.2h-0.6V65.8z"/>
		<path style="fill:#FFFFFF;" d="M38.2,61.6h5.9v2h-3.8v1.9h3.8v2h-3.8v2.8h3.8v2h-5.9V61.6z"/>
		<path style="fill:#FFFFFF;" d="M56,63.3l-1.4,1.4c-0.9-1-2-1.5-3.2-1.5c-1.1,0-1.9,0.4-2.7,1.1c-0.7,0.7-1.1,1.6-1.1,2.6
			c0,1,0.4,1.9,1.1,2.6c0.7,0.7,1.7,1.1,2.7,1.1c0.7,0,1.3-0.1,1.8-0.4s0.9-0.8,1.2-1.4h-3.1v-1.9h5.4l0,0.5c0,0.9-0.2,1.8-0.7,2.7
			s-1.1,1.5-1.9,1.9s-1.7,0.7-2.7,0.7c-1.1,0-2.1-0.2-3-0.7c-0.9-0.5-1.6-1.2-2.1-2.1c-0.5-0.9-0.8-1.9-0.8-2.9
			c0-1.4,0.5-2.7,1.4-3.7c1.1-1.3,2.6-1.9,4.4-1.9c0.9,0,1.8,0.2,2.6,0.5C54.7,62.1,55.3,62.6,56,63.3z"/>
	</g>
</g>
</svg>
