<?xml version="1.0" encoding="utf-8"?>
<!-- Generator: Adobe Illustrator 22.1.0, SVG Export Plug-In . SVG Version: 6.00 Build 0)  -->
<svg version="1.1" xmlns="http://www.w3.org/2000/svg" xmlns:xlink="http://www.w3.org/1999/xlink" x="0px" y="0px"
	 viewBox="0 0 71 80" style="enable-background:new 0 0 71 80;" xml:space="preserve">
<g id="shortcut">
</g>
<g id="file">
	
		<ellipse transform="matrix(0.373 -0.9278 0.9278 0.373 -5.2601 48.7747)" style="fill:#E59B3A;stroke:#E59B3A;stroke-width:1.0749;stroke-linecap:round;stroke-linejoin:round;stroke-miterlimit:10;" cx="33.5" cy="28.3" rx="3.3" ry="8.6"/>
	
		<ellipse transform="matrix(0.2505 -0.9681 0.9681 0.2505 -22.9711 70.3451)" style="fill:#E59B3A;stroke:#E59B3A;stroke-width:1.2662;stroke-linecap:round;stroke-linejoin:round;stroke-miterlimit:10;" cx="33.9" cy="50" rx="2.9" ry="13.7"/>
	<g>
		<g>
			<path d="M8.6,33.5l1.4-5.9l0.7-3c0.1-0.5,0.2-1,0.3-1.5l0.4-1.5c1.3-3.9,3.7-7.4,7.2-9.7c3.4-2.3,7.6-3.4,11.8-3.1
				c2.1,0.2,4.1,0.7,6,1.1l5.9,1.2c4.1,0.8,8,2.9,10.8,6.1c2.8,3.2,4.4,7.4,4.5,11.7c0.1,2.1-0.3,4.3-0.2,6c0.1,0.9,0.3,1.1,1,1.5
				c0.8,0.3,1.7,0.6,2.7,0.8c1,0.3,2,0.5,3.1,1.1c0.6,0.3,1.2,0.8,1.5,1.6c0.3,0.7,0.4,1.4,0.3,2c-0.1,1.2-0.3,2.2-0.6,3.2l-0.7,3
				l-1.3,5.9l-0.7,3c-0.3,1-0.6,2.1-1,3.1c-1.7,4-4.7,7.5-8.5,9.6c-3.8,2.1-8.4,2.9-12.7,2.1c-4-0.9-7.9-1.8-11.9-2.7l-5.9-1.4
				L20,67c-0.5-0.1-1-0.3-1.5-0.4c-0.5-0.2-1-0.3-1.5-0.6c-4-1.6-7.3-4.8-9.3-8.5c-1-1.9-1.7-3.9-2-6c-0.3-2.1-0.2-4.2,0.1-6.2
				c0.2-1,0.4-2,0.7-3l0.7-2.9L8.6,33.5z M8.9,33.6c-0.8,4-1.8,7.9-2.4,11.9C6,49.4,7,53.4,9,56.7c2.1,3.3,5.2,5.8,8.8,7
				c0.4,0.2,0.9,0.3,1.4,0.4c0.4,0.1,0.9,0.2,1.4,0.3l3,0.6l5.9,1.2c3.9,0.9,7.9,1.8,11.8,2.6c3.6,0.7,7.5,0.1,10.8-1.7
				c3.3-1.7,5.9-4.6,7.5-8.1c0.4-0.9,0.7-1.8,0.9-2.7l0.7-2.9l1.5-5.9l0.7-2.9c0.2-1,0.5-1.9,0.6-2.8c0-0.4,0-0.8-0.1-0.9
				c-0.1-0.2-0.2-0.4-0.6-0.6c-0.7-0.4-1.6-0.6-2.6-0.9c-1-0.3-2-0.5-3.1-1c-0.5-0.3-1.1-0.7-1.6-1.3c-0.4-0.6-0.5-1.3-0.6-1.9
				C55.4,34,55.5,33,55.6,32c0.1-0.5,0.1-1,0.1-1.5l0-0.7l0-0.7c0-3.8-1.4-7.7-3.9-10.6c-2.5-3-6-4.9-9.8-5.8l-5.9-1.4
				c-2-0.5-3.9-1-5.9-1.2c-3.9-0.5-8,0.4-11.3,2.5c-3.4,2.1-5.9,5.5-7.2,9.3l-0.4,1.4c-0.1,0.5-0.2,1-0.4,1.5l-0.7,3L8.9,33.6z"/>
			<path d="M33.2,53.2c2.5,0.6,5.1,1.1,7.6,1.6l1.9,0.3c0.6,0.1,1.2,0.1,1.8,0c1.1-0.2,1.9-1,2.1-2c0.3-1-0.1-2-0.9-2.6
				c-0.4-0.3-0.9-0.5-1.4-0.7c-0.5-0.1-1.2-0.3-1.9-0.4l-7.6-1.5l-7.6-1.4L25.3,46c-0.5-0.1-1-0.1-1.4-0.1c-0.8,0.1-1.3,0.5-1.5,1.3
				c-0.2,0.4-0.2,0.8-0.1,1.1c0.1,0.3,0.2,0.6,0.5,1c0.3,0.3,0.8,0.6,1.3,0.8c0.5,0.2,1.2,0.4,1.8,0.7
				C28.3,51.7,30.7,52.5,33.2,53.2z M33.2,53.5c-2.5-0.5-5.1-0.9-7.7-1.1c-0.7-0.1-1.3-0.1-2-0.2c-0.7-0.1-1.5-0.4-2.2-0.8
				c-0.7-0.5-1.4-1.2-1.7-2.1c-0.3-0.9-0.3-1.9-0.1-2.7c0.2-0.9,0.7-1.7,1.4-2.4c0.7-0.7,1.7-1,2.6-1.1c0.9-0.1,1.7,0,2.5,0.1
				l1.9,0.5l7.5,2l7.5,1.9c0.6,0.2,1.2,0.3,1.9,0.5c0.7,0.2,1.4,0.6,2,1.1c0.6,0.5,1.1,1.2,1.3,2c0.2,0.8,0.2,1.6,0,2.4
				c-0.2,0.7-0.7,1.4-1.3,1.9c-0.6,0.5-1.4,0.7-2.1,0.8c-0.7,0.1-1.4,0-2.1-0.2l-1.9-0.6C38.2,54.6,35.7,54,33.2,53.5z"/>
			<path d="M32.8,31.8c1.7,0.4,3.4,0.9,5.1,1c0.8,0.1,1.6-0.1,2.2-0.5c0.6-0.4,0.9-1,1-1.8c0.2-0.7,0.1-1.5-0.2-2
				c-0.3-0.5-0.8-0.9-1.5-1l-5.1-0.9c-1.7-0.3-3.4-0.6-5.1-0.9c-0.7-0.1-1.1,0-1.5,0.2c-0.3,0.2-0.6,0.5-0.8,1.1
				c-0.2,0.6-0.3,1.1-0.2,1.6c0.1,0.5,0.5,1,1.1,1.4C29.4,30.9,31.1,31.4,32.8,31.8z M32.7,32.1c-1.7-0.3-3.4-0.3-5.3-0.6
				c-1-0.2-2.1-0.7-2.8-1.8c-0.7-1.1-0.7-2.4-0.5-3.5c0.1-0.6,0.4-1.1,0.7-1.7c0.3-0.5,0.9-1,1.4-1.4c1.2-0.7,2.6-0.6,3.6-0.4
				c1.7,0.5,3.4,1,5.1,1.5l5.1,1.4c1,0.3,2,1.1,2.5,2.1c0.5,1.1,0.4,2.2,0.1,3.1c-0.3,0.9-0.9,1.9-1.9,2.4c-1,0.5-2,0.4-2.9,0.1
				C36,33,34.4,32.4,32.7,32.1z"/>
		</g>
	</g>
</g>
</svg>
