<svg xmlns="http://www.w3.org/2000/svg">
    <defs>
        <symbol viewBox="0 0 448 512" id="icon-quiz-text">
            <path d="M0 84V44c0-8.837 7.163-16 16-16h416c8.837 0 16 7.163 16 16v40c0 8.837-7.163 16-16 16H16c-8.837 0-16-7.163-16-16zm16 144h416c8.837 0 16-7.163 16-16v-40c0-8.837-7.163-16-16-16H16c-8.837 0-16 7.163-16 16v40c0 8.837 7.163 16 16 16zm0 256h416c8.837 0 16-7.163 16-16v-40c0-8.837-7.163-16-16-16H16c-8.837 0-16 7.163-16 16v40c0 8.837 7.163 16 16 16zm0-128h416c8.837 0 16-7.163 16-16v-40c0-8.837-7.163-16-16-16H16c-8.837 0-16 7.163-16 16v40c0 8.837 7.163 16 16 16z"/>
        </symbol>

        <symbol viewBox="0 0 512 512" id="icon-quiz-video">
            <path d="M488 64h-8v20c0 6.6-5.4 12-12 12h-40c-6.6 0-12-5.4-12-12V64H96v20c0 6.6-5.4 12-12 12H44c-6.6 0-12-5.4-12-12V64h-8C10.7 64 0 74.7 0 88v336c0 13.3 10.7 24 24 24h8v-20c0-6.6 5.4-12 12-12h40c6.6 0 12 5.4 12 12v20h320v-20c0-6.6 5.4-12 12-12h40c6.6 0 12 5.4 12 12v20h8c13.3 0 24-10.7 24-24V88c0-13.3-10.7-24-24-24zM96 372c0 6.6-5.4 12-12 12H44c-6.6 0-12-5.4-12-12v-40c0-6.6 5.4-12 12-12h40c6.6 0 12 5.4 12 12v40zm0-96c0 6.6-5.4 12-12 12H44c-6.6 0-12-5.4-12-12v-40c0-6.6 5.4-12 12-12h40c6.6 0 12 5.4 12 12v40zm0-96c0 6.6-5.4 12-12 12H44c-6.6 0-12-5.4-12-12v-40c0-6.6 5.4-12 12-12h40c6.6 0 12 5.4 12 12v40zm272 208c0 6.6-5.4 12-12 12H156c-6.6 0-12-5.4-12-12v-96c0-6.6 5.4-12 12-12h200c6.6 0 12 5.4 12 12v96zm0-168c0 6.6-5.4 12-12 12H156c-6.6 0-12-5.4-12-12v-96c0-6.6 5.4-12 12-12h200c6.6 0 12 5.4 12 12v96zm112 152c0 6.6-5.4 12-12 12h-40c-6.6 0-12-5.4-12-12v-40c0-6.6 5.4-12 12-12h40c6.6 0 12 5.4 12 12v40zm0-96c0 6.6-5.4 12-12 12h-40c-6.6 0-12-5.4-12-12v-40c0-6.6 5.4-12 12-12h40c6.6 0 12 5.4 12 12v40zm0-96c0 6.6-5.4 12-12 12h-40c-6.6 0-12-5.4-12-12v-40c0-6.6 5.4-12 12-12h40c6.6 0 12 5.4 12 12v40z"/>
        </symbol>

        <symbol viewBox="0 0 576 512" id="icon-quiz-audio">
            <path d="M215.03 71.05L126.06 160H24c-13.26 0-24 10.74-24 24v144c0 13.25 10.74 24 24 24h102.06l88.97 88.95c15.03 15.03 40.97 4.47 40.97-16.97V88.02c0-21.46-25.96-31.98-40.97-16.97zm233.32-51.08c-11.17-7.33-26.18-4.24-33.51 6.95-7.34 11.17-4.22 26.18 6.95 33.51 66.27 43.49 105.82 116.6 105.82 195.58 0 78.98-39.55 152.09-105.82 195.58-11.17 7.32-14.29 22.34-6.95 33.5 7.04 10.71 21.93 14.56 33.51 6.95C528.27 439.58 576 351.33 576 256S528.27 72.43 448.35 19.97zM480 256c0-63.53-32.06-121.94-85.77-156.24-11.19-7.14-26.03-3.82-33.12 7.46s-3.78 26.21 7.41 33.36C408.27 165.97 432 209.11 432 256s-23.73 90.03-63.48 115.42c-11.19 7.14-14.5 22.07-7.41 33.36 6.51 10.36 21.12 15.14 33.12 7.46C447.94 377.94 480 319.54 480 256zm-141.77-76.87c-11.58-6.33-26.19-2.16-32.61 9.45-6.39 11.61-2.16 26.2 9.45 32.61C327.98 228.28 336 241.63 336 256c0 14.38-8.02 27.72-20.92 34.81-11.61 6.41-15.84 21-9.45 32.61 6.43 11.66 21.05 15.8 32.61 9.45 28.23-15.55 45.77-45 45.77-76.88s-17.54-61.32-45.78-76.86z"/>
        </symbol>

        <symbol viewBox="0 0 512 512" id="icon-quiz-image">
            <path d="M464 448H48c-26.51 0-48-21.49-48-48V112c0-26.51 21.49-48 48-48h416c26.51 0 48 21.49 48 48v288c0 26.51-21.49 48-48 48zM112 120c-30.928 0-56 25.072-56 56s25.072 56 56 56 56-25.072 56-56-25.072-56-56-56zM64 384h384V272l-87.515-87.515c-4.686-4.686-12.284-4.686-16.971 0L208 320l-55.515-55.515c-4.686-4.686-12.284-4.686-16.971 0L64 336v48z"/>
        </symbol>

        <symbol viewBox="0 0 16 16" id="icon-quiz-resource">
            <path class="st2" d="M14.4,12.34v-6.9c0-0.47-0.38-0.85-0.85-0.85h-5.2c-0.22,0-0.44-0.09-0.6-0.25l-1.1-1.1
                C6.49,3.09,6.27,3,6.05,3h-3.6C1.98,3,1.6,3.38,1.6,3.85v8.99C1.6,12.93,1.67,13,1.77,13h11.98C14.11,13,14.4,12.71,14.4,12.34z"/>

        </symbol>

        <symbol viewBox="0 0 32 32" id="icon-quiz-caption">
            <g>
                <path d="m31.496087 31.5v-8.5l-6.456251-6.5-10.429331 10.5-4.469713-4.5-8.939426 9z" fill-rule="evenodd"/>
                <path d="m1 1v12h14.779432l7.238504-1.781554-.017932-8.4268357-7.177271-1.7916103z" fill="none" stroke-width="2"/>
                <ellipse cx="17" cy="7" fill="none" rx="2.4000006" ry="2.3999999" stroke-linecap="square" stroke-width="1.20000005"/>
            </g>
        </symbol>

        <symbol viewBox="0 0 32 32" id="icon-quiz-choice">
            <g>
                <g stroke-linecap="square">
                    <rect height="2" stroke-width="2" width="18" x="13" y="7"/>
                    <rect height="2" stroke-width="2" width="18" x="13" y="17"/>
                    <rect height="2" stroke-width="2" width="18" x="13" y="27"/>
                    <circle cx="6" cy="18" fill="none" r="3.25" stroke-width="1.5"/>
                    <circle cx="6" cy="28" fill="none" r="3.25" stroke-width="1.5"/>
                </g>
                <path d="m1.7002834 6.9655451 2.9899036 2.6325719 6.500659-7.1837134" fill="none" stroke-width="2.7"/>
            </g>
        </symbol>

        <symbol viewBox="0 0 32 32" id="icon-quiz-cloze">
            <g stroke-linecap="square">
                <rect height="3" width="3" x=".5" y="4.5"/>
                <rect height="3" width="13" x="18.5" y="4.5"/>
                <rect height="3" width="3" x="28.5" y="24.5"/>
                <rect height="3" width="13" x=".5" y="24.5"/>
                <rect height="3" width="31" x=".5" y="14.5"/>
                <rect fill="none" height="6" ry="1" stroke-width="2" width="12" x="5" y="3"/>
                <rect fill="none" height="6" rx="1" stroke-width="2" width="12" x="15" y="23"/>
            </g>
        </symbol>

        <symbol viewBox="0 0 32 32" id="icon-quiz-graphic">
            <g>
                <path d="m31.498534 31.5v-8.5l-6.456252-6.5-10.42933 10.5-4.469713-4.5-8.9394258 9z" fill-rule="evenodd"/>
                <g stroke-linecap="square" stroke-width="2">
                    <rect height=".025" transform="scale(1 -1)" width="6" x="6" y="-9"/>
                    <rect height=".025" transform="matrix(0 1 1 0 0 0)" width="6" x="6" y="9"/>
                    <ellipse cx="9" cy="9" fill="none" rx="8" ry="8"/>
                </g>
            </g>
        </symbol>

        <symbol viewBox="0 0 32 32" id="icon-quiz-grid">
            <path d="m3.2390284 2.000005c-1.7947108 0-3.2390234 1.0356-3.2390234 2.3219506v23.3560894c0 1.286352 1.4443128 2.32195 3.2390234 2.32195h25.6390156c1.794709 0 3.239022-1.035598 3.239022-2.32195v-23.3560894c0-1.2863506-1.444313-2.3219506-3.239022-2.3219506h-25.6390156zm.7258533 4.109267h4.1014621c1.1008246 0 1.9863412.8605031 1.9863412 1.9317068v2.1541462c0 1.071203-.8855166 1.935609-1.9863412 1.935609h-4.1014621c-1.1008238 0-1.9863407-.864406-1.9863407-1.935609v-2.1541462c0-1.0712037.8855169-1.9317068 1.9863407-1.9317068zm20.0234073.011709h4.101461c1.100825 0 1.986342.8644054 1.986342 1.9356092v2.1541458c0 1.071203-.885517 1.931706-1.986342 1.931706h-4.101461c-1.100825 0-1.986342-.860503-1.986342-1.931706v-2.1541458c0-1.0712038.885517-1.9356092 1.986342-1.9356092zm-9.974629.042926h4.101461c1.100825 0 1.986341.860503 1.986341 1.9317068v2.1541452c0 1.071204-.885516 1.935609-1.986341 1.935609h-4.101461c-1.100825 0-1.986342-.864405-1.986342-1.935609v-2.1541452c0-1.0712038.885517-1.9317068 1.986342-1.9317068zm-9.8692661 7.79707h4.1014625c1.1008226 0 1.9863396.860503 1.9863396 1.931707v2.158048c0 1.071203-.885517 1.931707-1.9863396 1.931707h-4.1014625c-1.100824 0-1.9863411-.860504-1.9863407-1.931707v-2.158048c0-1.071204.8855167-1.931707 1.9863407-1.931707zm20.0234071.01171h4.105364c1.100824 0 1.986341.864405 1.986341 1.935609v2.154145c0 1.071204-.885517 1.93561-1.986341 1.93561h-4.105364c-1.100824 0-1.986341-.864406-1.986341-1.93561v-2.154145c0-1.071204.885517-1.935609 1.986341-1.935609zm-9.974631.04293h4.101464c1.100822 0 1.990241.860503 1.990241 1.931707v2.158047c0 1.071204-.889419 1.931705-1.990241 1.931705h-4.101464c-1.100822 0-1.986339-.860501-1.986339-1.931705v-2.158047c0-1.071204.885517-1.931707 1.986339-1.931707zm-10.0995077 7.976582h4.1014617c1.1008246 0 1.986341.864405 1.986341 1.935609v2.154145c0 1.071204-.8855164 1.931707-1.986341 1.931707h-4.1014617c-1.1008244 0-1.9902433-.860503-1.9902433-1.931707v-2.154145c0-1.071204.8894193-1.935609 1.9902433-1.935609zm20.0234067.01558h4.101463c1.100823 0 1.98634.860504 1.98634 1.931707v2.154146c0 1.071204-.885517 1.935609-1.98634 1.935609h-4.101463c-1.100825 0-1.986342-.864405-1.986342-1.935609v-2.154146c0-1.071203.885517-1.931707 1.986342-1.931707zm-9.974629.03902h4.101461c1.100825 0 1.986341.864406 1.986341 1.935609v2.154146c0 1.071204-.885516 1.931707-1.986341 1.931707h-4.101461c-1.100825 0-1.986342-.860503-1.986342-1.931707v-2.154146c0-1.071203.885517-1.935609 1.986342-1.935609z"/>
        </symbol>

        <symbol viewBox="0 0 32 32" id="icon-quiz-insertion">
            <path d="m-.027533 10.499639h22.88997" fill="none"/>
            <g stroke-linecap="square">
                <rect height="2" stroke-width="2" width="21.999998" x=".99999994" y="3"/>
                <rect height="2" stroke-width="1.99999988" width="18" x="1" y="11"/>
                <rect height="2" stroke-width="1.99999988" width="14" x="1" y="19"/>
                <rect height="1" width="5" x="22.5" y="10.5"/>
                <rect height="1" width="5" x="22.5" y="28.5"/>
                <rect height="14.999999" width="1" x="24.5" y="12.500001"/>
            </g>
        </symbol>

        <symbol viewBox="0 0 32 32" id="icon-quiz-match">
            <g stroke-linecap="square">
                <g fill="none" stroke-width="1.50000036">
                    <circle cx="4" cy="4" r="3.25"/>
                    <circle cx="4" cy="16" r="3.25"/>
                    <circle cx="4" cy="28" r="3.25"/>
                    <circle cx="28" cy="4" r="3.25"/>
                    <circle cx="28" cy="16" r="3.25"/>
                    <circle cx="28" cy="28" r="3.25"/>
                </g>
                <rect height="2" stroke-width="2" width="16" x="8" y="3"/>
                <rect height="2" stroke-width="2.00005698" transform="matrix(.9036224 -.42832996 .4186162 .90816324 0 0)" width="18.932318" x="-4.2520313" y="25.642975"/>
            </g>
        </symbol>

        <symbol viewBox="0 0 32 32" id="icon-quiz-open">
            <g stroke-linecap="square" stroke-width="2">
                <rect height="2" width="10" x="1" y="25"/>
                <rect height="2" width="14" x="1" y="15"/>
                <rect height="2" width="18" x="1" y="5"/>
            </g>
            <g transform="matrix(.38319446 -.92366769 .92366769 .38319446 -10.538078 22.089682)">
                <rect height="4.502048" stroke-linecap="square" stroke-width="1.99999988" transform="matrix(.9999992 .0012663 -.00085628157 .99999963 0 0)" width="1.9626539" x="29.101677" y="26.497034"/>
                <path d="m25.853553 31.521242v-5.441942l-17.0662908.0221-5.9887379 2.676774 5.5909903 2.720971z" fill-rule="evenodd"/>
            </g>
        </symbol>

        <symbol viewBox="0 0 32 32" id="icon-quiz-ordering">
            <g>
                <g stroke-linecap="square">
                    <rect height="2" stroke-width="1.99999988" width="16" x="15" y="27"/>
                    <rect height="2.0013549" ry="0" stroke-width="2" width="12" x="15" y="19"/>
                    <rect height="1.9580517" stroke-width="2" width="8.0175915" x="14.982409" y="11.041948"/>
                    <rect height="18" stroke-width="2" width="2" x="5" y="3"/>
                    <rect height="2" stroke-width="2" width="4" x="15" y="3"/>
                </g>
                <path d="m5.9999999 29.065972-4.0968836-6.565972h8.1937677z" fill-rule="evenodd" stroke-width=".99999994"/>
            </g>
        </symbol>

        <symbol viewBox="0 0 32 32" id="icon-quiz-pair">
            <g>
                <g stroke-linecap="square">
                    <rect height="1" width="1" x=".5" y="28.5"/>
                    <rect height="1" width="1" x="4.5" y="28.5"/>
                    <rect height="1" width="1" x="8.5" y="28.5"/>
                    <rect height="1" width="1" x="12.5" y="28.5"/>
                    <rect height="1" width="1" x="12.5" y="24.5"/>
                    <rect height="1" width="1" x="12.5" y="20.5"/>
                    <rect height="1" width="1" x="12.5" y="16.5"/>
                    <rect height="1" width="1" x="12.5" y="12.5"/>
                    <rect height="1" width="1" x="8.5" y="12.5"/>
                    <rect height="1" width="1" x="4.5" y="12.5"/>
                    <rect height="1" width="1" x=".5" y="12.5"/>
                    <rect height="1" stroke-width="1.1" width="1" x=".5" y="16.5"/>
                    <rect height="1" width="1" x=".5" y="20.5"/>
                    <rect height="1" width="1" x=".5" y="24.5"/>
                    <rect fill="none" height="16" stroke-width="2" width="12" x="19" y="13"/>
                </g>
                <path d="m5.0000094 7.0272534c7.1102506-5.1866626 14.4279716-5.5496417 21.9999996 0" fill="none" stroke-linecap="round" stroke-width="2"/>
            </g>
        </symbol>

        <symbol viewBox="0 0 32 32" id="icon-quiz-selection">
            <g stroke-linecap="square" stroke-width="2">
                <rect height="2" width="22" x="1" y="1"/>
                <rect height="2" width="18" x="1" y="9"/>
                <rect height="2" width="10" x="1" y="17"/>
            </g>
            <path d="m19.80291 31.273278c-1.330678-3.086234-3.638722-5.686653-5.15291-8.703653.01972-1.552241.992744-1.77824 1.991882-1.255751l2.598105 2.94452.0433-9.526387c.105831-.835113 1.648897-1.910943 2.511502-.0866v6.365359l.0433-2.338295c.196919-1.125984 1.76704-1.631921 2.424898-.0866l.0433 3.204331.000002-2.338295c.0491-.63033 1.677514-1.927143 2.4682-.0433l.0433 3.247632v-2.035183c.198937-1.186304 2.047808-1.702563 2.4682-.0433l.0433 5.456022-1.428958 5.239513z" fill="none" stroke-linejoin="round" stroke-opacity=".94117647" stroke-width="1.3"/>
        </symbol>

        <symbol viewBox="0 0 32 32" id="icon-quiz-set">
            <g>
                <g stroke-linecap="square">
                    <rect height="1" width="1" x="2.5" y="2.5"/>
                    <rect height="1" width="1" x="6.5" y="2.5"/>
                    <rect height="1" width="1" x="10.5" y="2.5"/>
                    <rect height="1" width="1" x="2.5" y="6.5"/>
                    <rect height="1" width="1" x="2.5" y="10.5"/>
                    <rect height="1" width="1" x="2.5" y="14.5"/>
                    <rect height="1" width="1" x="10.5" y="14.5"/>
                    <rect height="1" width="1" x="6.5" y="14.5"/>
                    <rect height="1" width="1" x="10.5" y="10.5"/>
                    <rect height="1" width="1" x="10.5" y="6.5"/>
                    <rect fill="none" height="10" stroke-width="2" width="8" x="21" y="19"/>
                </g>
                <path d="m15.040022 2.894116c5.26309.105884 8.329088 2.105884 8.366861 7.0000003l0 0" fill="none" stroke-width="1.20000005"/>
                <rect height="5" stroke-linecap="square" stroke-width=".99999988" width="1" x="24.5" y="12.5"/>
                <rect height="1" stroke-linecap="square" stroke-width=".99999994" width="7" x="16.5" y="12.5"/>
                <rect height="9" stroke-linecap="square" width="1" x="16.5" y="14.5"/>
                <rect height="1" stroke-linecap="square" width="1" x="18.5" y="22.5"/>
            </g>
        </symbol>

        <symbol viewBox="0 0 32 32" id="icon-quiz-words">
            <path d="m23.797983 8.2583321a6.0129229 6.0129229 0 0 0 -3.234024 9.4688099l-5.063959 7.817311.650263 2.764946 2.815844-.371411-.729655-1.95924 2.148286-.0081-.782143-1.959909 2.075183-.02008 2.4519-4.057023a5.9466978 5.9466978 0 0 0 2.720534-.06434 6.0129229 6.0129229 0 1 0 -3.055786-11.6261368zm4.56619 2.9182269a2.0539601 2.0539601 0 1 1 -2.505352-1.476761 2.0539601 2.0539601 0 0 1  2.505352 1.476761z"/>
            <g stroke-linecap="square" stroke-width="2">
                <rect height="2" width="18" x="1" y="5"/>
                <rect height="2" width="14" x="1" y="15"/>
                <rect height="2" width="10" x="1" y="25"/>
            </g>
        </symbol>

        <symbol viewBox="0 0 16 16" id="icon-quiz-waveform">
            <polyline fill="none" stroke-width="1" stroke-linecap="round" stroke-linejoin="round" stroke-miterlimit="10" points="-0.5,8.5 1.5,8.5 3.5,5.5 5.5,13.5 8.5,2.5 10.5,10.5 12.5,5.5 16.5,5.5 "/>
        </symbol>
    </defs>
</svg>
