<svg id="a4afffd6-fc98-4b42-b020-c860dfe1969b" data-name="data" xmlns="http://www.w3.org/2000/svg" viewBox="0 0 134 134">
  <defs>
    <style>
      .bb546712-9bad-4a0f-844d-3b8c21b5ccd5 {
        fill: var(--secondary-color);
        stroke: var(--secondary-color);
      }

      .bb546712-9bad-4a0f-844d-3b8c21b5ccd5, .f8d882e7-32a0-4e24-9d69-1d2e726dc634 {
        stroke-miterlimit: 10;
        stroke-width: 4px;
      }

      .a466f5ab-4a70-4379-80ad-c93a0a866dfe, .bb546712-9bad-4a0f-844d-3b8c21b5ccd5, .f8d882e7-32a0-4e24-9d69-1d2e726dc634 {
        fill-rule: evenodd;
      }

      .f8d882e7-32a0-4e24-9d69-1d2e726dc634 {
        fill: #fff;
        stroke: var(--primary-color);
      }

      .a466f5ab-4a70-4379-80ad-c93a0a866dfe, .bb51be33-5022-4b55-805d-728bfe407689 {
        fill: var(--primary-color);
      }
    </style>
  </defs>
  <g id="bca385f5-e975-43c5-9540-e65eec76d6f5" data-name="TrainingSessions">
    <g>
      <path class="bb546712-9bad-4a0f-844d-3b8c21b5ccd5" d="M100,25.64H93.36v.28a7.71,7.71,0,1,1-15.41,0v-.28H47.79v.28a7.71,7.71,0,1,1-15.41,0v-.28H25.77A16.06,16.06,0,0,0,9.71,41.7v74.2A16.06,16.06,0,0,0,25.77,132H100A16.06,16.06,0,0,0,116,115.9V41.7A16.06,16.06,0,0,0,100,25.64Z"/>
      <path class="bb546712-9bad-4a0f-844d-3b8c21b5ccd5" d="M85.66,10.3A5.66,5.66,0,0,0,80,16v10a5.67,5.67,0,0,0,11.34,0V16A5.67,5.67,0,0,0,85.66,10.3Z"/>
      <path class="bb546712-9bad-4a0f-844d-3b8c21b5ccd5" d="M40.08,10.3A5.66,5.66,0,0,0,34.42,16v10a5.67,5.67,0,1,0,11.33,0V16A5.66,5.66,0,0,0,40.08,10.3Z"/>
    </g>
    <path class="f8d882e7-32a0-4e24-9d69-1d2e726dc634" d="M108.23,17.38h-6.61v.29a7.71,7.71,0,0,1-15.41,0v-.29H56.05v.29a7.71,7.71,0,0,1-15.41,0v-.29H34A16.06,16.06,0,0,0,18,33.44v74.2A16.06,16.06,0,0,0,34,123.7h74.2a16.06,16.06,0,0,0,16.06-16.06V33.44A16.06,16.06,0,0,0,108.23,17.38Z"/>
    <g>
      <path class="a466f5ab-4a70-4379-80ad-c93a0a866dfe" d="M41.23,111.78H33.5a4.23,4.23,0,0,1-4.23-4.23V98.44h12Z"/>
      <rect class="bb51be33-5022-4b55-805d-728bfe407689" x="47.21" y="98.44" width="11.96" height="13.33"/>
      <rect class="bb51be33-5022-4b55-805d-728bfe407689" x="65.15" y="98.44" width="11.96" height="13.33"/>
      <rect class="bb51be33-5022-4b55-805d-728bfe407689" x="83.09" y="98.44" width="11.96" height="13.33"/>
      <path class="a466f5ab-4a70-4379-80ad-c93a0a866dfe" d="M113,107.55a4.23,4.23,0,0,1-4.23,4.23H101V98.44h12Z"/>
    </g>
    <g>
      <rect class="bb51be33-5022-4b55-805d-728bfe407689" x="29.27" y="77.09" width="11.96" height="13.3"/>
      <rect class="bb51be33-5022-4b55-805d-728bfe407689" x="47.21" y="77.09" width="11.96" height="13.3"/>
      <rect class="bb51be33-5022-4b55-805d-728bfe407689" x="65.15" y="77.09" width="11.96" height="13.3"/>
      <rect class="bb51be33-5022-4b55-805d-728bfe407689" x="83.09" y="77.09" width="11.96" height="13.3"/>
      <rect class="bb51be33-5022-4b55-805d-728bfe407689" x="101.03" y="77.09" width="11.96" height="13.3"/>
    </g>
    <g>
      <rect class="bb51be33-5022-4b55-805d-728bfe407689" x="29.27" y="55.7" width="11.96" height="13.3"/>
      <rect class="bb51be33-5022-4b55-805d-728bfe407689" x="47.21" y="55.7" width="11.96" height="13.3"/>
      <rect class="bb51be33-5022-4b55-805d-728bfe407689" x="65.15" y="55.7" width="11.96" height="13.3"/>
      <rect class="bb51be33-5022-4b55-805d-728bfe407689" x="83.09" y="55.7" width="11.96" height="13.3"/>
      <rect class="bb51be33-5022-4b55-805d-728bfe407689" x="101.03" y="55.7" width="11.96" height="13.3"/>
    </g>
    <g>
      <path class="a466f5ab-4a70-4379-80ad-c93a0a866dfe" d="M41.23,47.61h-12V38.54a4.23,4.23,0,0,1,4.23-4.23h7.73Z"/>
      <rect class="bb51be33-5022-4b55-805d-728bfe407689" x="47.21" y="34.31" width="11.96" height="13.3"/>
      <rect class="bb51be33-5022-4b55-805d-728bfe407689" x="65.15" y="34.31" width="11.96" height="13.3"/>
      <rect class="bb51be33-5022-4b55-805d-728bfe407689" x="83.09" y="34.31" width="11.96" height="13.3"/>
      <path class="a466f5ab-4a70-4379-80ad-c93a0a866dfe" d="M113,47.61H101V34.31h7.73A4.23,4.23,0,0,1,113,38.54Z"/>
    </g>
    <path class="f8d882e7-32a0-4e24-9d69-1d2e726dc634" d="M93.91,2a5.66,5.66,0,0,0-5.66,5.67v10a5.67,5.67,0,0,0,11.33,0v-10A5.67,5.67,0,0,0,93.91,2Z"/>
    <path class="f8d882e7-32a0-4e24-9d69-1d2e726dc634" d="M48.35,2a5.67,5.67,0,0,0-5.67,5.67v10a5.67,5.67,0,0,0,11.33,0v-10A5.66,5.66,0,0,0,48.35,2Z"/>
  </g>
</svg>
