<svg id="aa6bd77f-e2a4-4533-bf81-774f15a40706" data-name="data" xmlns="http://www.w3.org/2000/svg" viewBox="0 0 134 134">
  <defs>
    <style>
      .e4809a98-bce8-46fe-b38b-3af8bfde1b12 {
        fill: var(--secondary-color);
        stroke: var(--secondary-color);
      }

      .a602013e-5f0b-47bd-a055-ff45e89e2544, .e4809a98-bce8-46fe-b38b-3af8bfde1b12 {
        stroke-miterlimit: 10;
        stroke-width: 4px;
      }

      .a602013e-5f0b-47bd-a055-ff45e89e2544, .bc820d04-f301-439a-baf4-f2b8119c0ef4, .e4809a98-bce8-46fe-b38b-3af8bfde1b12 {
        fill-rule: evenodd;
      }

      .a602013e-5f0b-47bd-a055-ff45e89e2544 {
        fill: #fff;
        stroke: var(--primary-color);
      }

      .ad14270c-aff0-448c-8c3a-6b5783a9895d, .bc820d04-f301-439a-baf4-f2b8119c0ef4 {
        fill: var(--primary-color);
      }
    </style>
  </defs>
  <g id="a0bb4d4a-f6cc-4e4f-b334-d1c5aaebe36b" data-name="MyTrainingSessions">
    <g>
      <g>
        <path class="e4809a98-bce8-46fe-b38b-3af8bfde1b12" d="M13.78,84.52a15.87,15.87,0,1,1,15.86,15.86A15.86,15.86,0,0,1,13.78,84.52Z"/>
        <path class="e4809a98-bce8-46fe-b38b-3af8bfde1b12" d="M57.33,128.08a24.39,24.39,0,0,0-2.07-9A21.43,21.43,0,0,0,44.43,108.3a23.56,23.56,0,0,0-9.93-2H24.79a23.5,23.5,0,0,0-9.93,2A21.39,21.39,0,0,0,4,119.06a24.39,24.39,0,0,0-2.07,9,3.85,3.85,0,0,0,3.89,4c5.1,0,10.2,0,15.3,0h17c5.1,0,10.2,0,15.29,0A3.86,3.86,0,0,0,57.33,128.08Z"/>
      </g>
      <g>
        <path class="a602013e-5f0b-47bd-a055-ff45e89e2544" d="M18.89,79.4A15.87,15.87,0,1,1,34.76,95.27,15.86,15.86,0,0,1,18.89,79.4Z"/>
        <path class="a602013e-5f0b-47bd-a055-ff45e89e2544" d="M62.44,123a24.39,24.39,0,0,0-2.07-9,21.45,21.45,0,0,0-10.83-10.77,23.7,23.7,0,0,0-9.93-2H29.9a23.67,23.67,0,0,0-9.93,2A21.45,21.45,0,0,0,9.14,114a24.39,24.39,0,0,0-2.07,9,3.86,3.86,0,0,0,3.89,4c5.1,0,10.2,0,15.3,0h17c5.1,0,10.2,0,15.29,0A3.86,3.86,0,0,0,62.44,123Z"/>
      </g>
    </g>
    <g>
      <g>
        <path class="e4809a98-bce8-46fe-b38b-3af8bfde1b12" d="M115.64,17.87h-4.46v.19a5.2,5.2,0,0,1-10.4,0v-.19H80.43v.19a5.2,5.2,0,0,1-10.4,0v-.19H65.57A10.83,10.83,0,0,0,54.74,28.71V78.78A10.83,10.83,0,0,0,65.57,89.61h50.07a10.84,10.84,0,0,0,10.84-10.83V28.71A10.84,10.84,0,0,0,115.64,17.87Z"/>
        <path class="e4809a98-bce8-46fe-b38b-3af8bfde1b12" d="M106,7.52a3.82,3.82,0,0,0-3.82,3.83v6.71a3.83,3.83,0,1,0,7.65,0V11.35A3.83,3.83,0,0,0,106,7.52Z"/>
        <path class="e4809a98-bce8-46fe-b38b-3af8bfde1b12" d="M75.23,7.52a3.82,3.82,0,0,0-3.82,3.83v6.71a3.83,3.83,0,1,0,7.65,0V11.35A3.83,3.83,0,0,0,75.23,7.52Z"/>
      </g>
      <path class="a602013e-5f0b-47bd-a055-ff45e89e2544" d="M121.21,12.3h-4.46v.19a5.2,5.2,0,1,1-10.39,0V12.3H86v.19a5.2,5.2,0,1,1-10.39,0V12.3H71.15A10.84,10.84,0,0,0,60.31,23.14V73.2A10.84,10.84,0,0,0,71.15,84h50.06A10.84,10.84,0,0,0,132.05,73.2V23.14A10.84,10.84,0,0,0,121.21,12.3Z"/>
      <g>
        <path class="bc820d04-f301-439a-baf4-f2b8119c0ef4" d="M76,76H70.79a2.85,2.85,0,0,1-2.86-2.85V67H76Z"/>
        <rect class="ad14270c-aff0-448c-8c3a-6b5783a9895d" x="80.04" y="67" width="8.07" height="9"/>
        <rect class="ad14270c-aff0-448c-8c3a-6b5783a9895d" x="92.14" y="67" width="8.07" height="9"/>
        <rect class="ad14270c-aff0-448c-8c3a-6b5783a9895d" x="104.25" y="67" width="8.07" height="9"/>
        <path class="bc820d04-f301-439a-baf4-f2b8119c0ef4" d="M124.42,73.14A2.84,2.84,0,0,1,121.57,76h-5.22V67h8.07Z"/>
      </g>
      <g>
        <rect class="ad14270c-aff0-448c-8c3a-6b5783a9895d" x="67.93" y="52.59" width="8.07" height="8.97"/>
        <rect class="ad14270c-aff0-448c-8c3a-6b5783a9895d" x="80.04" y="52.59" width="8.07" height="8.97"/>
        <rect class="ad14270c-aff0-448c-8c3a-6b5783a9895d" x="92.14" y="52.59" width="8.07" height="8.97"/>
        <rect class="ad14270c-aff0-448c-8c3a-6b5783a9895d" x="104.25" y="52.59" width="8.07" height="8.97"/>
        <rect class="ad14270c-aff0-448c-8c3a-6b5783a9895d" x="116.35" y="52.59" width="8.07" height="8.97"/>
      </g>
      <g>
        <rect class="ad14270c-aff0-448c-8c3a-6b5783a9895d" x="67.93" y="38.15" width="8.07" height="8.98"/>
        <rect class="ad14270c-aff0-448c-8c3a-6b5783a9895d" x="80.04" y="38.15" width="8.07" height="8.98"/>
        <rect class="ad14270c-aff0-448c-8c3a-6b5783a9895d" x="92.14" y="38.15" width="8.07" height="8.98"/>
        <rect class="ad14270c-aff0-448c-8c3a-6b5783a9895d" x="104.25" y="38.15" width="8.07" height="8.98"/>
        <rect class="ad14270c-aff0-448c-8c3a-6b5783a9895d" x="116.35" y="38.15" width="8.07" height="8.98"/>
      </g>
      <g>
        <path class="bc820d04-f301-439a-baf4-f2b8119c0ef4" d="M76,32.7H67.93V26.57a2.86,2.86,0,0,1,2.86-2.85H76Z"/>
        <rect class="ad14270c-aff0-448c-8c3a-6b5783a9895d" x="80.04" y="23.72" width="8.07" height="8.98"/>
        <rect class="ad14270c-aff0-448c-8c3a-6b5783a9895d" x="92.14" y="23.72" width="8.07" height="8.98"/>
        <rect class="ad14270c-aff0-448c-8c3a-6b5783a9895d" x="104.25" y="23.72" width="8.07" height="8.98"/>
        <path class="bc820d04-f301-439a-baf4-f2b8119c0ef4" d="M124.42,32.7h-8.07v-9h5.22a2.85,2.85,0,0,1,2.85,2.85Z"/>
      </g>
      <path class="a602013e-5f0b-47bd-a055-ff45e89e2544" d="M111.55,2a3.82,3.82,0,0,0-3.82,3.82v6.72a3.83,3.83,0,0,0,7.65,0V5.77A3.82,3.82,0,0,0,111.55,2Z"/>
      <path class="a602013e-5f0b-47bd-a055-ff45e89e2544" d="M80.81,2A3.82,3.82,0,0,0,77,5.77v6.72a3.83,3.83,0,0,0,7.65,0V5.77A3.82,3.82,0,0,0,80.81,2Z"/>
    </g>
  </g>
</svg>
