<svg id="ad1b937b-a7fd-42e8-8a57-83df2882472c" data-name="data" xmlns="http://www.w3.org/2000/svg" viewBox="0 0 134 134">
  <defs>
    <style>
      .a85725fb-862a-4c65-9259-ef8e48b6060b {
        fill: var(--secondary-color);
        stroke: var(--secondary-color);
      }

      .a85725fb-862a-4c65-9259-ef8e48b6060b, .b58da253-4325-4276-b8ec-5d6b372433a1 {
        stroke-miterlimit: 10;
        stroke-width: 4px;
        fill-rule: evenodd;
      }

      .b58da253-4325-4276-b8ec-5d6b372433a1 {
        fill: #fff;
        stroke: var(--primary-color);
      }

      .b51467de-989f-4387-bb25-1db1f342578c {
        fill: var(--primary-color);
      }
    </style>
  </defs>
  <g id="ea864088-5329-4558-8323-f1008fee7fd3" data-name="MyTrainingEvents">
    <g>
      <g>
        <path class="a85725fb-862a-4c65-9259-ef8e48b6060b" d="M13.78,84.42a15.87,15.87,0,1,1,15.87,15.87A15.86,15.86,0,0,1,13.78,84.42Z"/>
        <path class="a85725fb-862a-4c65-9259-ef8e48b6060b" d="M57.33,128a24.15,24.15,0,0,0-2.07-9A21.41,21.41,0,0,0,44.43,108.2a23.49,23.49,0,0,0-9.93-2H24.79a23.55,23.55,0,0,0-9.93,2A21.45,21.45,0,0,0,4,119,24.34,24.34,0,0,0,2,128a3.86,3.86,0,0,0,3.9,4c5.09,0,10.19,0,15.29,0h17c5.1,0,10.2,0,15.3,0A3.85,3.85,0,0,0,57.33,128Z"/>
      </g>
      <g>
        <path class="b58da253-4325-4276-b8ec-5d6b372433a1" d="M18.89,79.31A15.87,15.87,0,1,1,34.76,95.18,15.88,15.88,0,0,1,18.89,79.31Z"/>
        <path class="b58da253-4325-4276-b8ec-5d6b372433a1" d="M62.44,122.87a24.28,24.28,0,0,0-2.06-9,21.41,21.41,0,0,0-10.83-10.77,23.57,23.57,0,0,0-9.94-2h-9.7a23.57,23.57,0,0,0-9.94,2A21.41,21.41,0,0,0,9.14,113.86a24.29,24.29,0,0,0-2.07,9,3.87,3.87,0,0,0,3.9,4c5.1,0,10.19,0,15.29,0h17c5.09,0,10.19,0,15.29,0A3.86,3.86,0,0,0,62.44,122.87Z"/>
      </g>
    </g>
    <g>
      <g>
        <path class="a85725fb-862a-4c65-9259-ef8e48b6060b" d="M54.73,78.87A10.84,10.84,0,0,0,65.56,89.71h50.08a10.84,10.84,0,0,0,10.83-10.84V41.57H54.73Z"/>
        <path class="a85725fb-862a-4c65-9259-ef8e48b6060b" d="M115.64,18h-4.47v.18a5.2,5.2,0,1,1-10.39,0V18H80.43v.18a5.2,5.2,0,0,1-10.4,0V18H65.56A10.83,10.83,0,0,0,54.73,28.8V35h71.74V28.8A10.83,10.83,0,0,0,115.64,18Z"/>
        <path class="a85725fb-862a-4c65-9259-ef8e48b6060b" d="M106,22a3.82,3.82,0,0,0,3.82-3.83V11.44a3.83,3.83,0,1,0-7.65,0v6.71A3.82,3.82,0,0,0,106,22Z"/>
        <path class="a85725fb-862a-4c65-9259-ef8e48b6060b" d="M75.23,22a3.82,3.82,0,0,0,3.82-3.83V11.44a3.83,3.83,0,1,0-7.65,0v6.71A3.82,3.82,0,0,0,75.23,22Z"/>
      </g>
      <g>
        <path class="b58da253-4325-4276-b8ec-5d6b372433a1" d="M60.3,73.3A10.84,10.84,0,0,0,71.14,84.13h50.07A10.83,10.83,0,0,0,132,73.3V36H60.3Z"/>
        <rect class="b51467de-989f-4387-bb25-1db1f342578c" x="67.93" y="49.01" width="56.49" height="22.12"/>
        <path class="b58da253-4325-4276-b8ec-5d6b372433a1" d="M121.21,12.39h-4.46v.19a5.2,5.2,0,0,1-10.4,0v-.19H86v.19a5.2,5.2,0,0,1-10.4,0v-.19H71.14A10.85,10.85,0,0,0,60.3,23.23v6.19H132V23.23A10.84,10.84,0,0,0,121.21,12.39Z"/>
        <path class="b58da253-4325-4276-b8ec-5d6b372433a1" d="M111.55,16.41a3.82,3.82,0,0,0,3.82-3.83V5.86a3.82,3.82,0,0,0-7.64,0v6.72A3.82,3.82,0,0,0,111.55,16.41Z"/>
        <path class="b58da253-4325-4276-b8ec-5d6b372433a1" d="M80.8,16.41a3.82,3.82,0,0,0,3.82-3.83V5.86a3.83,3.83,0,0,0-7.65,0v6.72A3.83,3.83,0,0,0,80.8,16.41Z"/>
      </g>
    </g>
  </g>
</svg>
