<svg id="e87c7f1e-e9d0-40d0-b1af-69eea8a9e2d2" data-name="data" xmlns="http://www.w3.org/2000/svg" viewBox="0 0 134 134">
  <defs>
    <style>
      .e9c1598f-63b9-40be-879a-9e0cb01d69fc {
        fill: var(--secondary-color);
        stroke: var(--secondary-color);
      }

      .a79ee741-db42-41c4-8936-95af027c2b0e, .e9c1598f-63b9-40be-879a-9e0cb01d69fc {
        stroke-miterlimit: 10;
        stroke-width: 4px;
        fill-rule: evenodd;
      }

      .a79ee741-db42-41c4-8936-95af027c2b0e {
        fill: #fff;
        stroke: var(--primary-color);
      }

      .faff1faf-b793-426e-884c-a0b0ea100385 {
        fill: var(--primary-color);
      }
    </style>
  </defs>
  <g id="f120f6d3-b58b-4941-b1d1-7479b963c04c" data-name="TrainingEvents">
    <g>
      <path class="e9c1598f-63b9-40be-879a-9e0cb01d69fc" d="M9.71,115.9A16.06,16.06,0,0,0,25.77,132H100A16.06,16.06,0,0,0,116,115.9V60.62H9.71Z"/>
      <path class="e9c1598f-63b9-40be-879a-9e0cb01d69fc" d="M100,25.64H93.36v.28a7.71,7.71,0,0,1-15.41,0v-.28H47.79v.28a7.71,7.71,0,0,1-15.41,0v-.28H25.77A16.06,16.06,0,0,0,9.71,41.7v9.17H116V41.7A16.06,16.06,0,0,0,100,25.64Z"/>
      <path class="e9c1598f-63b9-40be-879a-9e0cb01d69fc" d="M85.66,31.59a5.67,5.67,0,0,0,5.67-5.67V16A5.67,5.67,0,0,0,80,16v10A5.67,5.67,0,0,0,85.66,31.59Z"/>
      <path class="e9c1598f-63b9-40be-879a-9e0cb01d69fc" d="M40.08,31.59a5.67,5.67,0,0,0,5.67-5.67V16a5.67,5.67,0,1,0-11.33,0v10A5.66,5.66,0,0,0,40.08,31.59Z"/>
    </g>
    <g>
      <path class="a79ee741-db42-41c4-8936-95af027c2b0e" d="M18,107.64A16.06,16.06,0,0,0,34,123.7h74.2a16.06,16.06,0,0,0,16.06-16.06V52.36H18Z"/>
      <rect class="faff1faf-b793-426e-884c-a0b0ea100385" x="29.27" y="71.64" width="83.72" height="32.78"/>
      <path class="a79ee741-db42-41c4-8936-95af027c2b0e" d="M108.23,17.38h-6.61v.29a7.71,7.71,0,0,1-15.41,0v-.29H56.05v.29a7.71,7.71,0,0,1-15.41,0v-.29H34A16.06,16.06,0,0,0,18,33.44v9.17H124.29V33.44A16.06,16.06,0,0,0,108.23,17.38Z"/>
      <path class="a79ee741-db42-41c4-8936-95af027c2b0e" d="M93.91,23.33a5.67,5.67,0,0,0,5.67-5.66v-10a5.67,5.67,0,1,0-11.33,0v10A5.66,5.66,0,0,0,93.91,23.33Z"/>
      <path class="a79ee741-db42-41c4-8936-95af027c2b0e" d="M48.35,23.33A5.66,5.66,0,0,0,54,17.67v-10a5.67,5.67,0,1,0-11.33,0v10A5.66,5.66,0,0,0,48.35,23.33Z"/>
    </g>
  </g>
</svg>
