<svg id="b58dd80d-157a-490d-b6b2-95292cc897a4" data-name="widgets" xmlns="http://www.w3.org/2000/svg" viewBox="0 0 134 134">
  <defs>
    <style>
      .b82ed634-e632-46d2-a4d2-1ed52ae31330 {
        fill: var(--secondary-color);
      }

      .a5357cc1-0a58-499f-8e93-ca7ef3d0820c, .b82ed634-e632-46d2-a4d2-1ed52ae31330 {
        stroke: var(--secondary-color);
      }

      .a5357cc1-0a58-499f-8e93-ca7ef3d0820c, .b82ed634-e632-46d2-a4d2-1ed52ae31330, .bafd691f-5e25-4fc0-ada4-d879cd5d19fe {
        stroke-miterlimit: 10;
      }

      .b82ed634-e632-46d2-a4d2-1ed52ae31330, .bafd691f-5e25-4fc0-ada4-d879cd5d19fe {
        stroke-width: 4px;
      }

      .bafd691f-5e25-4fc0-ada4-d879cd5d19fe {
        fill: #fff;
        stroke: var(--primary-color);
      }

      .a5357cc1-0a58-499f-8e93-ca7ef3d0820c {
        fill: none;
      }
    </style>
  </defs>
  <g id="a12bbf7d-230e-41fc-b0da-2495775bd72b" data-name="List">
    <g>
      <polygon class="b82ed634-e632-46d2-a4d2-1ed52ae31330" points="24 24.66 14.57 59.83 40.02 66.65 48.05 36.67 44.02 30.03 24 24.66"/>
      <polygon class="bafd691f-5e25-4fc0-ada4-d879cd5d19fe" points="28.61 22 19.18 57.17 44.63 63.99 52.66 34.01 48.63 27.37 28.61 22"/>
      <g>
        <line class="a5357cc1-0a58-499f-8e93-ca7ef3d0820c" x1="31.61" y1="29.98" x2="47.68" y2="34.29"/>
        <line class="a5357cc1-0a58-499f-8e93-ca7ef3d0820c" x1="29.51" y1="37.8" x2="45.59" y2="42.1"/>
        <line class="a5357cc1-0a58-499f-8e93-ca7ef3d0820c" x1="27.36" y1="45.82" x2="43.44" y2="50.13"/>
        <line class="a5357cc1-0a58-499f-8e93-ca7ef3d0820c" x1="25.34" y1="53.39" x2="41.41" y2="57.71"/>
      </g>
    </g>
    <g>
      <polygon class="b82ed634-e632-46d2-a4d2-1ed52ae31330" points="63.41 24.66 53.98 59.83 79.43 66.65 87.46 36.67 83.44 30.03 63.41 24.66"/>
      <polygon class="bafd691f-5e25-4fc0-ada4-d879cd5d19fe" points="68.02 22 58.59 57.17 84.04 63.99 92.07 34.01 88.05 27.37 68.02 22"/>
      <g>
        <line class="a5357cc1-0a58-499f-8e93-ca7ef3d0820c" x1="71.02" y1="29.98" x2="87.1" y2="34.29"/>
        <line class="a5357cc1-0a58-499f-8e93-ca7ef3d0820c" x1="68.93" y1="37.8" x2="85" y2="42.1"/>
        <line class="a5357cc1-0a58-499f-8e93-ca7ef3d0820c" x1="66.78" y1="45.82" x2="82.85" y2="50.13"/>
        <line class="a5357cc1-0a58-499f-8e93-ca7ef3d0820c" x1="64.75" y1="53.39" x2="80.82" y2="57.71"/>
      </g>
    </g>
    <g>
      <polygon class="b82ed634-e632-46d2-a4d2-1ed52ae31330" points="102.82 24.66 93.4 59.83 118.84 66.65 126.88 36.67 122.85 30.03 102.82 24.66"/>
      <polygon class="bafd691f-5e25-4fc0-ada4-d879cd5d19fe" points="107.43 22 98.01 57.17 123.45 63.99 131.49 34.01 127.46 27.37 107.43 22"/>
      <g>
        <line class="a5357cc1-0a58-499f-8e93-ca7ef3d0820c" x1="110.43" y1="29.98" x2="126.51" y2="34.29"/>
        <line class="a5357cc1-0a58-499f-8e93-ca7ef3d0820c" x1="108.34" y1="37.8" x2="124.42" y2="42.1"/>
        <line class="a5357cc1-0a58-499f-8e93-ca7ef3d0820c" x1="106.19" y1="45.82" x2="122.26" y2="50.13"/>
        <line class="a5357cc1-0a58-499f-8e93-ca7ef3d0820c" x1="104.16" y1="53.39" x2="120.23" y2="57.71"/>
      </g>
    </g>
    <g>
      <polygon class="b82ed634-e632-46d2-a4d2-1ed52ae31330" points="11.94 70.01 2.52 105.18 27.96 112 35.99 82.02 31.97 75.38 11.94 70.01"/>
      <polygon class="bafd691f-5e25-4fc0-ada4-d879cd5d19fe" points="16.55 67.35 7.12 102.52 32.57 109.34 40.6 79.36 36.58 72.71 16.55 67.35"/>
      <g>
        <line class="a5357cc1-0a58-499f-8e93-ca7ef3d0820c" x1="19.55" y1="75.33" x2="35.63" y2="79.64"/>
        <line class="a5357cc1-0a58-499f-8e93-ca7ef3d0820c" x1="17.46" y1="83.14" x2="33.53" y2="87.45"/>
        <line class="a5357cc1-0a58-499f-8e93-ca7ef3d0820c" x1="15.31" y1="91.17" x2="31.38" y2="95.48"/>
        <line class="a5357cc1-0a58-499f-8e93-ca7ef3d0820c" x1="13.28" y1="98.74" x2="29.35" y2="103.06"/>
      </g>
    </g>
    <g>
      <polygon class="b82ed634-e632-46d2-a4d2-1ed52ae31330" points="51.35 70.01 41.93 105.18 67.38 112 75.41 82.02 71.38 75.38 51.35 70.01"/>
      <polygon class="bafd691f-5e25-4fc0-ada4-d879cd5d19fe" points="55.96 67.35 46.54 102.52 71.98 109.34 80.02 79.36 75.99 72.71 55.96 67.35"/>
      <g>
        <line class="a5357cc1-0a58-499f-8e93-ca7ef3d0820c" x1="58.97" y1="75.33" x2="75.04" y2="79.64"/>
        <line class="a5357cc1-0a58-499f-8e93-ca7ef3d0820c" x1="56.87" y1="83.14" x2="72.95" y2="87.45"/>
        <line class="a5357cc1-0a58-499f-8e93-ca7ef3d0820c" x1="54.72" y1="91.17" x2="70.79" y2="95.48"/>
        <line class="a5357cc1-0a58-499f-8e93-ca7ef3d0820c" x1="52.69" y1="98.74" x2="68.76" y2="103.06"/>
      </g>
    </g>
    <g>
      <polygon class="b82ed634-e632-46d2-a4d2-1ed52ae31330" points="90.77 70.01 81.34 105.18 106.79 112 114.82 82.02 110.79 75.38 90.77 70.01"/>
      <polygon class="bafd691f-5e25-4fc0-ada4-d879cd5d19fe" points="95.38 67.35 85.95 102.52 111.4 109.34 119.43 79.36 115.4 72.71 95.38 67.35"/>
      <g>
        <line class="a5357cc1-0a58-499f-8e93-ca7ef3d0820c" x1="98.38" y1="75.33" x2="114.45" y2="79.64"/>
        <line class="a5357cc1-0a58-499f-8e93-ca7ef3d0820c" x1="96.28" y1="83.14" x2="112.36" y2="87.45"/>
        <line class="a5357cc1-0a58-499f-8e93-ca7ef3d0820c" x1="94.13" y1="91.17" x2="110.21" y2="95.48"/>
        <line class="a5357cc1-0a58-499f-8e93-ca7ef3d0820c" x1="92.11" y1="98.74" x2="108.18" y2="103.06"/>
      </g>
    </g>
  </g>
</svg>
