<svg id="e9fd4c7d-a2fb-418a-be26-6ddec497d65e" data-name="widgets" xmlns="http://www.w3.org/2000/svg" viewBox="0 0 134 134">
  <defs>
    <style>
      .eaf9e2c1-4b78-4a0b-b45a-d9f95ad15932 {
        fill: var(--secondary-color);
        stroke: var(--secondary-color);
      }

      .e39cf663-8937-4a86-9d2f-e9794c975594, .eaf9e2c1-4b78-4a0b-b45a-d9f95ad15932 {
        stroke-miterlimit: 10;
        stroke-width: 4px;
        fill-rule: evenodd;
      }

      .e39cf663-8937-4a86-9d2f-e9794c975594 {
        fill: #fff;
        stroke: var(--primary-color);
      }
    </style>
  </defs>
  <g id="e2a531e2-64ec-4865-9d56-1784e268cd91" data-name="Resource">
    <path class="eaf9e2c1-4b78-4a0b-b45a-d9f95ad15932" d="M47.75,111.48H13.91a11.47,11.47,0,0,1-8.31-3.22,11.26,11.26,0,0,1-3.5-7.52C2,99.92,2,99.09,2,98.27Q2,70.8,2,43.35A11.53,11.53,0,0,1,6.8,33.61a11.25,11.25,0,0,1,6.84-2.21c6.87,0,40.37,0,40.37,0L71.13,42.86s31.56-.06,40.24,0A11.61,11.61,0,0,1,123.1,54.69q0,22.46,0,44.93a11.46,11.46,0,0,1-8.84,11.5,13.37,13.37,0,0,1-3.16.35C99.83,111.49,59,111.48,47.75,111.48Z"/>
    <path class="e39cf663-8937-4a86-9d2f-e9794c975594" d="M56.61,102.61H22.77a11.44,11.44,0,0,1-8.3-3.22A11.19,11.19,0,0,1,11,91.87c-.06-.82-.08-1.65-.08-2.47q0-27.47,0-54.92a11.54,11.54,0,0,1,4.77-9.74,11.32,11.32,0,0,1,6.84-2.21c6.87,0,40.36,0,40.36,0L80,34s31.57-.06,40.24,0a11.27,11.27,0,0,1,10.59,6.56A11.51,11.51,0,0,1,132,45.82q0,22.47,0,44.94a11.45,11.45,0,0,1-8.84,11.49,13.37,13.37,0,0,1-3.16.35C108.69,102.62,67.89,102.61,56.61,102.61Z"/>
  </g>
</svg>
