<?xml version="1.0" encoding="utf-8"?>
<!-- Generator: Adobe Illustrator 22.1.0, SVG Export Plug-In . SVG Version: 6.00 Build 0)  -->
<svg version="1.1" xmlns="http://www.w3.org/2000/svg" xmlns:xlink="http://www.w3.org/1999/xlink" x="0px" y="0px"
	 viewBox="0 0 71 80" style="enable-background:new 0 0 71 80;" xml:space="preserve">
<g id="shortcut">
	<g>
		<g>
			<path d="M40.2,26.3c-5.1,0-10.1,0.8-14.8,2.4c-4.7,1.6-9.1,4.2-12.4,7.8c-1.7,1.8-3.1,3.9-4.1,6.1c-0.3,0.5-0.6,1.1-0.8,1.7
				c-0.2,0.6-0.5,1.1-0.7,1.7c-0.4,1.2-0.8,2.3-1,3.6c-1.1,4.8-1.4,9.9-1,14.9l-0.7-0.2c2-3.2,4.2-6.1,6.6-8.9
				c2.4-2.8,5.1-5.4,8-7.7c3-2.2,6.2-4.2,9.9-5.2c1.8-0.5,3.7-0.8,5.6-0.8c1.9,0,3.8,0.4,5.6,1c0.2,0.1,0.4,0.3,0.4,0.5l0,0
				l0.1,13.9l-1.2-0.5l5.2-5.3c1.7-1.8,3.5-3.5,5.2-5.3l10.5-10.5v1.1c-3.4-3.4-6.8-6.9-10.2-10.4c-3.4-3.5-6.7-7-10.1-10.5l0.6-0.2
				L40.2,26.3z M40.1,26.2l0.1-10.6c0-0.2,0.2-0.4,0.4-0.4c0.1,0,0.2,0,0.2,0.1l0,0c3.5,3.4,7,6.7,10.5,10.1
				c3.5,3.4,6.9,6.8,10.4,10.2c0.3,0.3,0.3,0.8,0,1.1l0,0L51.2,47.2c-1.7,1.8-3.5,3.5-5.3,5.2l-5.3,5.2l0,0c-0.3,0.3-0.7,0.3-1,0
				c-0.1-0.1-0.2-0.3-0.2-0.5l0.1-13.9l0.4,0.5c-1.7-0.6-3.4-1-5.2-1.1c-1.8-0.1-3.6,0.1-5.4,0.5c-1.8,0.4-3.5,1.1-5.1,1.9
				c-1.6,0.8-3.2,1.8-4.6,2.9c-2.9,2.2-5.6,4.8-7.9,7.6c-2.4,2.8-4.5,5.8-6.4,9c-0.1,0.2-0.3,0.2-0.5,0.1c-0.1-0.1-0.2-0.2-0.2-0.3
				l0,0c-0.6-5-0.6-10.2,0.5-15.2c1-5,3.3-9.9,6.9-13.6c1.8-1.9,3.8-3.5,6-4.8c2.2-1.3,4.6-2.3,7-3.1c2.4-0.7,4.9-1.3,7.5-1.5
				c1.3-0.1,2.5-0.2,3.8-0.2C37.6,26,39,26,40.1,26.2z"/>
		</g>
		<g>
			<path style="fill:#98C03D;" d="M49.2,52.9c1.2-1.6,2.5-3.1,3.9-4.6c1.4-1.5,2.7-2.9,4.2-4.3c1.5-1.3,3.1-2.6,4.5-4
				c1.5-1.4,2.8-2.9,4.1-4.4l0,0.6c-1.5-1.3-3-2.6-4.4-4c-1.4-1.4-2.9-2.7-4.2-4.1c-1.4-1.4-2.7-2.8-4-4.3c-1.3-1.5-2.6-3-3.8-4.5
				c0,0,0-0.1,0-0.1c0,0,0.1,0,0.1,0c1.6,1.2,3.1,2.5,4.5,3.8c1.5,1.3,2.9,2.7,4.3,4c1.4,1.4,2.8,2.8,4.1,4.2c1.4,1.4,2.7,2.9,4,4.4
				l0,0c0.1,0.2,0.1,0.4,0,0.6c-1.5,1.3-3,2.7-4.4,4.1c-1.4,1.4-2.7,3-4,4.5c-1.4,1.5-2.8,2.9-4.3,4.2c-1.5,1.4-3,2.7-4.6,3.9
				C49.2,53.1,49.2,53.1,49.2,52.9C49.1,53,49.1,53,49.2,52.9z"/>
		</g>
	</g>
</g>
<g id="file">
</g>
</svg>
