<?xml version="1.0" encoding="utf-8"?>
<!-- Generator: Adobe Illustrator 22.1.0, SVG Export Plug-In . SVG Version: 6.00 Build 0)  -->
<svg version="1.1" xmlns="http://www.w3.org/2000/svg" xmlns:xlink="http://www.w3.org/1999/xlink" x="0px" y="0px"
	 viewBox="0 0 71 80" style="enable-background:new 0 0 71 80;" xml:space="preserve">
<g id="shortcut">
	<g>
		<g>
			<defs>
				<rect id="SVGID_1_" x="-10.8" y="3.8" width="92.6" height="72.4"/>
			</defs>
			<clipPath id="SVGID_2_">
				<use xlink:href="#SVGID_1_"  style="overflow:visible;"/>
			</clipPath>
			<path style="clip-path:url(#SVGID_2_);" d="M64.8,28.7c-0.3-2.1-0.3-5.7,1.6-6.9c0,0,0.1-0.1,0.1-0.1c1.6-0.5,2.7-1.2,1.8-2.2
				l-23.6-7.1L6.6,17.6c0,0-4.4,0.6-4,7.4C2.9,28.8,4,30.6,5,31.5l-3.1,0.9c-0.9,1,0.2,1.7,1.8,2.2c0,0,0.1,0.1,0.1,0.1
				c2,1.2,1.9,4.8,1.6,7c-7,2-4.5,2.6-4.5,2.6l1.5,0.4c-1.1,1-2.2,2.8-2,6.4c0.4,6.8,4,7.3,4,7.3l25,8.1l37.7-9.1
				c0,0,2.5-0.7-4.5-2.6c-0.3-2.1-0.3-5.7,1.6-6.9c0,0,0.1-0.1,0.1-0.1c1.6-0.5,2.7-1.2,1.8-2.2l-1.6-0.5c1.1-0.7,2.7-2.4,3-6.9
				c0.2-3.1-0.6-4.9-1.6-5.9l3.2-0.8C69.3,31.3,71.8,30.7,64.8,28.7L64.8,28.7z M33.3,28.6l6.3-1.3L61,22.9l3.2-0.7
				c-1,1.9-1,4.4-0.8,6.1c0,0.4,0.1,0.7,0.1,1l-3.5,0.9l-27,6.7L33.3,28.6z M6,35.2l3.2,0.7l20.6,4.2l1.8,0.4l5.4,1.1l0.3,8.3
				L9.5,42.9l-2.7-0.7c0-0.3,0.1-0.6,0.1-1C7,39.6,7.1,37.1,6,35.2L6,35.2z M4.8,24.7c0-1.8,0.3-3.1,0.9-3.8
				c0.4-0.4,0.9-0.5,1.2-0.5c0.2,0,0.3,0,0.3,0l16.4,5.4l8.2,2.7l-0.3,8.3l-23-6.5L7.4,30c0,0-0.1,0-0.2,0C7.2,30,4.9,29.8,4.8,24.7
				L4.8,24.7z M29.6,62.8L5.3,56c0,0-0.1,0-0.2,0c-0.1,0-2.4-0.2-2.5-5.3c0-1.8,0.3-3.1,0.9-3.8c0.4-0.4,0.9-0.5,1.2-0.5
				c0.2,0,0.3,0,0.3,0c0,0,0,0,0,0l24.7,8L29.6,62.8z M61.3,54.2c0,0.4,0.1,0.7,0.1,1l-30.5,7.6l0.3-8.3l6.5-1.3l1,0.2l3.6-1.2
				l16.7-3.4l3.2-0.7C61.1,50,61.2,52.6,61.3,54.2L61.3,54.2z M63,43c-0.1,0-0.1,0-0.2,0l-2.3,0.6l-21.9,6.1l-0.3-8.3l7.2-2.3
				L63,33.5c0,0,0.9-0.2,1.6,0.5c0.6,0.7,1,2,0.9,3.8C65.4,42.8,63.1,43,63,43L63,43z M63,43"/>
		</g>
	</g>
</g>
<g id="file">
</g>
</svg>
