<svg id="fdfd78dc-2d23-4bf1-b4cb-d05cd4cdd2bf" data-name="resources" xmlns="http://www.w3.org/2000/svg" viewBox="0 0 134 134">
  <defs>
    <style>
      .e94d292c-e068-4c23-a1bc-7b8799eb3516 {
        fill: var(--secondary-color);
        stroke: var(--secondary-color);
      }

      .a7f3762f-6394-4360-839c-5ec72b6b7ede, .e94d292c-e068-4c23-a1bc-7b8799eb3516 {
        stroke-miterlimit: 10;
        stroke-width: 4px;
        fill-rule: evenodd;
      }

      .a7f3762f-6394-4360-839c-5ec72b6b7ede {
        fill: #fff;
        stroke: var(--primary-color);
      }

      .bfa34ff8-2122-4458-bd60-f8e31f5d1bd8 {
        fill: var(--primary-color);
      }
    </style>
  </defs>
  <g id="b3114813-bb4b-44b0-92c5-92a0f5bd79e2" data-name="Custom">
    <g id="aa064bc8-dfb8-4ca1-84a4-3a009ac2f90f" data-name="Scorm">
      <g>
        <path class="e94d292c-e068-4c23-a1bc-7b8799eb3516" d="M47.75,111.48H13.91a11.45,11.45,0,0,1-8.31-3.22,11.26,11.26,0,0,1-3.5-7.52C2,99.92,2,99.09,2,98.27Q2,70.8,2,43.35A11.5,11.5,0,0,1,6.8,33.62a11.2,11.2,0,0,1,6.84-2.22c6.87,0,40.36,0,40.36,0L71.13,42.86s31.56-.06,40.24,0A11.6,11.6,0,0,1,123.1,54.69q0,22.46,0,44.93a11.46,11.46,0,0,1-8.84,11.5,13.37,13.37,0,0,1-3.16.35C99.83,111.49,59,111.48,47.75,111.48Z"/>
        <path class="a7f3762f-6394-4360-839c-5ec72b6b7ede" d="M56.61,102.62H22.77a11.45,11.45,0,0,1-8.3-3.23A11.19,11.19,0,0,1,11,91.87c-.06-.82-.08-1.65-.08-2.47q0-27.47,0-54.92a11.54,11.54,0,0,1,4.77-9.74,11.3,11.3,0,0,1,6.84-2.21c6.87,0,40.36,0,40.36,0L80,34s31.56-.06,40.24,0a11.28,11.28,0,0,1,10.59,6.56A11.51,11.51,0,0,1,132,45.82q0,22.46,0,44.94a11.45,11.45,0,0,1-8.84,11.49,13.37,13.37,0,0,1-3.16.35C108.69,102.62,67.89,102.62,56.61,102.62Z"/>
      </g>
      <g>
        <path class="bfa34ff8-2122-4458-bd60-f8e31f5d1bd8" d="M37.92,60.15l-2.65,2.34q-1.41-2-2.85-2a1.71,1.71,0,0,0-1.15.38,1.12,1.12,0,0,0-.46.85,1.43,1.43,0,0,0,.33.9,24.89,24.89,0,0,0,2.62,2.42q2.06,1.71,2.49,2.16a7.51,7.51,0,0,1,1.55,2.1,5.34,5.34,0,0,1,.45,2.2,5,5,0,0,1-1.6,3.83,5.88,5.88,0,0,1-4.18,1.51,6.17,6.17,0,0,1-3.5-1,7.78,7.78,0,0,1-2.56-3.1l3-1.81c.91,1.66,1.95,2.49,3.13,2.49A2.36,2.36,0,0,0,34.11,73a1.65,1.65,0,0,0,.62-1.25,2.2,2.2,0,0,0-.47-1.28,14.11,14.11,0,0,0-2.09-2,21.15,21.15,0,0,1-4-3.87,4.88,4.88,0,0,1-.89-2.72,4.45,4.45,0,0,1,1.49-3.36,5.18,5.18,0,0,1,3.68-1.4,5.9,5.9,0,0,1,2.69.65A9.77,9.77,0,0,1,37.92,60.15Z"/>
        <path class="bfa34ff8-2122-4458-bd60-f8e31f5d1bd8" d="M55.68,65.3l-2.91,1.6a5.15,5.15,0,0,0-1.62-1.19,4.93,4.93,0,0,0-1.88-.33,4.38,4.38,0,0,0-3.17,1.17,4,4,0,0,0-1.21,3,3.88,3.88,0,0,0,1.16,2.9,4.24,4.24,0,0,0,3.07,1.12A4.44,4.44,0,0,0,52.77,72l2.75,1.89a7.51,7.51,0,0,1-6.32,2.91,7.58,7.58,0,0,1-5.75-2.17A7.25,7.25,0,0,1,45.2,63.1a8.42,8.42,0,0,1,4-1A8.21,8.21,0,0,1,53,63,7.12,7.12,0,0,1,55.68,65.3Z"/>
        <path class="bfa34ff8-2122-4458-bd60-f8e31f5d1bd8" d="M66.13,62.13a7.29,7.29,0,0,1,3.71,1,7.07,7.07,0,0,1,2.7,2.67,7.15,7.15,0,0,1,1,3.65,7.38,7.38,0,0,1-1,3.69,7.13,7.13,0,0,1-2.67,2.67,7.34,7.34,0,0,1-3.73,1A6.93,6.93,0,0,1,61,74.64,7.38,7.38,0,0,1,61.3,64,7,7,0,0,1,66.13,62.13Zm.06,3.29a3.64,3.64,0,0,0-2.72,1.13,4,4,0,0,0-1.08,2.9,4.09,4.09,0,0,0,1.07,2.94,3.56,3.56,0,0,0,2.71,1.13,3.6,3.6,0,0,0,2.73-1.14,4.46,4.46,0,0,0,0-5.84A3.59,3.59,0,0,0,66.19,65.42Z"/>
        <path class="bfa34ff8-2122-4458-bd60-f8e31f5d1bd8" d="M76.31,62.49h3v1.75a3.72,3.72,0,0,1,1.3-1.57,3.08,3.08,0,0,1,1.77-.54,3.28,3.28,0,0,1,1.42.36l-1.09,3a2.35,2.35,0,0,0-1-.31,1.6,1.6,0,0,0-1.37,1,9.1,9.1,0,0,0-.56,3.91l0,.68v5.63H76.31Z"/>
        <path class="bfa34ff8-2122-4458-bd60-f8e31f5d1bd8" d="M86.25,62.49h3.49v1.6a6.08,6.08,0,0,1,2-1.48,5.83,5.83,0,0,1,2.39-.48,4.41,4.41,0,0,1,2.35.64,4.6,4.6,0,0,1,1.69,1.87,5.7,5.7,0,0,1,2-1.87,5.48,5.48,0,0,1,2.64-.64,4.89,4.89,0,0,1,2.61.69,3.89,3.89,0,0,1,1.62,1.8,9.67,9.67,0,0,1,.5,3.63v8.16h-3.52V69.35a6.08,6.08,0,0,0-.59-3.21,2,2,0,0,0-1.77-.84,2.65,2.65,0,0,0-1.61.52,3,3,0,0,0-1,1.41,8.78,8.78,0,0,0-.35,2.9v6.28H95.18V69.67A9.7,9.7,0,0,0,94.91,67a2.51,2.51,0,0,0-.83-1.25,2.19,2.19,0,0,0-1.33-.41,2.66,2.66,0,0,0-1.59.52,3.09,3.09,0,0,0-1.06,1.46,8.77,8.77,0,0,0-.36,2.94v6.19H86.25Z"/>
      </g>
    </g>
  </g>
</svg>
