<svg id="f8424978-ec55-45b8-adc6-d962e02c7fdd" data-name="data" xmlns="http://www.w3.org/2000/svg" viewBox="0 0 134 134">
  <defs>
    <style>
      .ab742eca-9467-4fc0-9a1d-36301d13f840 {
        fill: var(--secondary-color);
      }

      .b8b418b7-7f39-4884-a052-dd40d5a4df51 {
        fill: #fff;
      }

      .f25b79bd-e928-4425-a2d3-11055b87a8a6 {
        fill: var(--primary-color);
      }
    </style>
  </defs>
  <g id="a49418d5-d949-4f17-b700-7b235e54cd14" data-name="Default">
    <g>
      <path class="ab742eca-9467-4fc0-9a1d-36301d13f840" d="M62.06,4a23,23,0,1,0,23,23,23,23,0,0,0-23-23m0,39.6A16.64,16.64,0,1,1,78.69,26.93,16.64,16.64,0,0,1,62.06,43.57"/>
      <path class="ab742eca-9467-4fc0-9a1d-36301d13f840" d="M91.67,80.76a18.33,18.33,0,0,1-7.13,7,16.24,16.24,0,0,1-1.63.78l-.84.33a8.18,8.18,0,0,1-.79.23l.63,1.78a10.2,10.2,0,0,1,.53,1.78c.14.63.28,1.26.39,1.89l.2,1.91a26.15,26.15,0,0,1-.66,7.68,24.84,24.84,0,0,1-22.62,18.59,26.5,26.5,0,0,1-7.83-.78,26.05,26.05,0,0,1-7.19-3.2,23.74,23.74,0,0,1-5.88-5.25,23.35,23.35,0,0,1-3.92-6.85,24.69,24.69,0,0,1,7.88-28.37,23.61,23.61,0,0,1,6.77-3.78,13.44,13.44,0,0,1,1.86-.6c.62-.16,1.24-.37,1.88-.48a24.29,24.29,0,0,1,3.4-.42,18.69,18.69,0,0,1,3.91-12.6,34.87,34.87,0,0,0-11.5,1.19l-3,.88-2.84,1.16a10.33,10.33,0,0,0-1.38.67L40.6,65c-.44.25-.91.46-1.33.75L38,66.6A36.49,36.49,0,0,0,29.17,75a38.06,38.06,0,0,0-5.56,10.78,36.74,36.74,0,0,0,6.11,34.3c.65.76,1.23,1.59,2,2.3l2.13,2.12,2.32,1.92c.78.63,1.65,1.14,2.47,1.72a38.33,38.33,0,0,0,11,4.77,35.13,35.13,0,0,0,11.91.95A35.4,35.4,0,0,0,73.1,131a38.83,38.83,0,0,0,10.1-6.45,37.41,37.41,0,0,0,11.58-20.76A38,38,0,0,0,91.67,80.76Z"/>
      <path class="ab742eca-9467-4fc0-9a1d-36301d13f840" d="M81.77,56.1A12.7,12.7,0,1,0,90,65.15a12,12,0,0,0-4-6.3,11.24,11.24,0,0,1-4.18-2.75M78.7,72.72A4.76,4.76,0,1,1,82.22,67a4.77,4.77,0,0,1-3.52,5.73"/>
      <path class="ab742eca-9467-4fc0-9a1d-36301d13f840" d="M85.06,30.69A17.74,17.74,0,0,0,76,35.82,18.4,18.4,0,0,1,73.56,39a18.17,18.17,0,1,0,11.5-8.35m6.7,28.09a10.86,10.86,0,1,1,8-13.08,10.86,10.86,0,0,1-8,13.08"/>
    </g>
    <g>
      <path class="b8b418b7-7f39-4884-a052-dd40d5a4df51" d="M67,0A23,23,0,1,0,90,23,23,23,0,0,0,67,0m0,39.6A16.64,16.64,0,1,1,83.64,23,16.63,16.63,0,0,1,67,39.61"/>
      <path class="f25b79bd-e928-4425-a2d3-11055b87a8a6" d="M96.62,76.81a18.82,18.82,0,0,1-4.14,4.92,18.3,18.3,0,0,1-3,2c-.54.29-1.08.55-1.63.79l-.84.33-.79.23.63,1.77a10.05,10.05,0,0,1,.53,1.79c.13.62.28,1.25.38,1.88l.2,1.92a26.11,26.11,0,0,1-.65,7.67,24.86,24.86,0,0,1-22.63,18.6,26.44,26.44,0,0,1-7.82-.78,26.86,26.86,0,0,1-7.2-3.2,24.16,24.16,0,0,1-5.88-5.26,23.76,23.76,0,0,1-3.92-6.84,24.72,24.72,0,0,1,7.88-28.37,23.58,23.58,0,0,1,6.78-3.79,13.27,13.27,0,0,1,1.85-.59c.63-.17,1.24-.37,1.88-.49A28.1,28.1,0,0,1,61.67,69a18.65,18.65,0,0,1,3.91-12.59,34.55,34.55,0,0,0-11.5,1.18l-2.95.88-2.84,1.17a9.72,9.72,0,0,0-1.38.66L45.55,61a13.34,13.34,0,0,0-1.33.75L43,62.64A36.72,36.72,0,0,0,34.11,71a38,38,0,0,0-5.55,10.79,37.19,37.19,0,0,0,.28,23.79,38.19,38.19,0,0,0,5.82,10.51c.66.76,1.24,1.59,2,2.29l2.14,2.13,2.32,1.91c.78.64,1.65,1.14,2.47,1.72a38.12,38.12,0,0,0,11,4.77,35,35,0,0,0,11.92,1A35.48,35.48,0,0,0,78.05,127a38.26,38.26,0,0,0,10.09-6.45A37.4,37.4,0,0,0,99.73,99.82,38.09,38.09,0,0,0,96.62,76.81Z"/>
      <path class="b8b418b7-7f39-4884-a052-dd40d5a4df51" d="M86.72,52.14a12.71,12.71,0,1,0,8.18,9,11.94,11.94,0,0,0-4-6.29,11.35,11.35,0,0,1-4.17-2.76M83.64,68.77A4.76,4.76,0,1,1,87.17,63a4.75,4.75,0,0,1-3.53,5.74"/>
      <path class="b8b418b7-7f39-4884-a052-dd40d5a4df51" d="M90,26.73a17.84,17.84,0,0,0-9.09,5.14,17.5,17.5,0,0,1-2.41,3.21A18.17,18.17,0,1,0,90,26.73m6.7,28.09a10.86,10.86,0,1,1,8-13.08,10.86,10.86,0,0,1-8,13.08"/>
    </g>
  </g>
</svg>
