<svg id="bb364873-562b-4293-9f7b-a295426449db" data-name="data" xmlns="http://www.w3.org/2000/svg" viewBox="0 0 134 134">
  <defs>
    <style>
      .f29e7295-ee3a-4f81-91cf-b90cbd78641d {
        fill: var(--secondary-color);
        stroke: var(--secondary-color);
      }

      .b0680161-28ba-4c2c-b738-04c20ca23eec, .bf8372a3-5c49-409e-b6fa-a321ad0f3469, .ee804aa5-746e-4e93-b495-2ff3c0a56b25, .f29e7295-ee3a-4f81-91cf-b90cbd78641d {
        stroke-miterlimit: 10;
        stroke-width: 4px;
      }

      .aa0ee483-7966-4922-bb16-0bbbe7a90d32, .b0680161-28ba-4c2c-b738-04c20ca23eec, .bf8372a3-5c49-409e-b6fa-a321ad0f3469, .ee804aa5-746e-4e93-b495-2ff3c0a56b25, .f29e7295-ee3a-4f81-91cf-b90cbd78641d {
        fill-rule: evenodd;
      }

      .ee804aa5-746e-4e93-b495-2ff3c0a56b25 {
        fill: #fff;
      }

      .b0680161-28ba-4c2c-b738-04c20ca23eec, .bf8372a3-5c49-409e-b6fa-a321ad0f3469, .ee804aa5-746e-4e93-b495-2ff3c0a56b25 {
        stroke: var(--primary-color);
      }

      .bf8372a3-5c49-409e-b6fa-a321ad0f3469 {
        fill: none;
      }

      .aa0ee483-7966-4922-bb16-0bbbe7a90d32, .b0680161-28ba-4c2c-b738-04c20ca23eec {
        fill: var(--primary-color);
      }
    </style>
  </defs>
  <g id="ef876248-bd2f-4e58-945d-54cace436be0" data-name="MyWorkspaces">
    <g>
      <g>
        <path class="f29e7295-ee3a-4f81-91cf-b90cbd78641d" d="M14.26,84.46a15.87,15.87,0,1,1,15.86,15.87A15.86,15.86,0,0,1,14.26,84.46Z"/>
        <path class="f29e7295-ee3a-4f81-91cf-b90cbd78641d" d="M57.81,128a24.39,24.39,0,0,0-2.07-9,21.49,21.49,0,0,0-10.83-10.77,23.7,23.7,0,0,0-9.93-2H25.27a23.64,23.64,0,0,0-9.93,2A21.45,21.45,0,0,0,4.51,119a24.19,24.19,0,0,0-2.07,9,3.85,3.85,0,0,0,3.89,4c5.1,0,10.2,0,15.3,0h17c5.1,0,10.2,0,15.29,0A3.86,3.86,0,0,0,57.81,128Z"/>
      </g>
      <g>
        <path class="ee804aa5-746e-4e93-b495-2ff3c0a56b25" d="M19.37,79.35A15.87,15.87,0,1,1,35.23,95.22,15.86,15.86,0,0,1,19.37,79.35Z"/>
        <path class="ee804aa5-746e-4e93-b495-2ff3c0a56b25" d="M62.92,122.92a24.34,24.34,0,0,0-2.07-9A21.45,21.45,0,0,0,50,103.13a23.49,23.49,0,0,0-9.93-2H30.38a23.55,23.55,0,0,0-9.93,2A21.45,21.45,0,0,0,9.62,113.9a24.34,24.34,0,0,0-2.07,9,3.86,3.86,0,0,0,3.9,4c5.09,0,10.19,0,15.29,0h17c5.1,0,10.2,0,15.3,0A3.86,3.86,0,0,0,62.92,122.92Z"/>
      </g>
    </g>
    <g>
      <path class="f29e7295-ee3a-4f81-91cf-b90cbd78641d" d="M122.06,66.19v9.89a13.91,13.91,0,0,1,1.66.35A4.78,4.78,0,0,1,127,81.74,4.65,4.65,0,0,1,122.75,86a13.9,13.9,0,0,1-1.44.08q-24.3,0-48.61,0a14.94,14.94,0,0,1-9.34-3,14.33,14.33,0,0,1-5.68-9.51,22.92,22.92,0,0,1-.23-3.31q0-24.21,0-48.41a15,15,0,0,1,2.22-8.24A14.3,14.3,0,0,1,69.93,6.81a22.82,22.82,0,0,1,3.31-.23h48.35a7.83,7.83,0,0,1,2.17.27A4.6,4.6,0,0,1,127,11.11c0,.19,0,.38,0,.57q0,24.69,0,49.37a5,5,0,0,1-1.7,4A4.88,4.88,0,0,1,122.06,66.19Z"/>
      <path class="ee804aa5-746e-4e93-b495-2ff3c0a56b25" d="M126.63,61.62V71.5a16.4,16.4,0,0,1,1.67.35,4.81,4.81,0,0,1,3.24,5.32,4.67,4.67,0,0,1-4.22,4.25c-.48,0-1,.07-1.43.08q-24.31,0-48.61,0a15,15,0,0,1-9.34-3A14.33,14.33,0,0,1,62.25,69,23,23,0,0,1,62,65.67q0-24.2,0-48.4A15,15,0,0,1,64.25,9,14.24,14.24,0,0,1,74.5,2.24,21.62,21.62,0,0,1,77.82,2Q102,2,126.17,2a7.55,7.55,0,0,1,2.17.27,4.6,4.6,0,0,1,3.21,4.26c0,.19,0,.37,0,.56V56.48a4.81,4.81,0,0,1-4.93,5.14Z"/>
      <path class="bf8372a3-5c49-409e-b6fa-a321ad0f3469" d="M126.63,61.6H71.51a9.13,9.13,0,0,0-8.63,5,11.52,11.52,0,0,0-.82,1.93"/>
      <path class="aa0ee483-7966-4922-bb16-0bbbe7a90d32" d="M99.32,36.79c4.86,0,9.71,0,14.56,0a3.81,3.81,0,0,0,1.25-.21,2.47,2.47,0,0,0,0-4.59,4.44,4.44,0,0,0-1.36-.21H84.43a2.42,2.42,0,0,0-2.55,2.39,2.37,2.37,0,0,0,2.27,2.59,3.6,3.6,0,0,0,.66,0Z"/>
      <path class="aa0ee483-7966-4922-bb16-0bbbe7a90d32" d="M99.27,26.84c4.89,0,9.78,0,14.66,0a2.58,2.58,0,0,0,2.16-.86,2.55,2.55,0,0,0,.3-2.84,2.39,2.39,0,0,0-2.37-1.3H84.7a4,4,0,0,0-1.45.27,2.34,2.34,0,0,0-1.35,2.56,2.27,2.27,0,0,0,1.85,2.06,6.36,6.36,0,0,0,1.07.1C89.64,26.85,94.46,26.84,99.27,26.84Z"/>
      <path class="b0680161-28ba-4c2c-b738-04c20ca23eec" d="M126.63,71.58v-10H76.84a4.56,4.56,0,0,0-4.3,2.48,5.07,5.07,0,0,0,.12,5.23,4.81,4.81,0,0,0,4.43,2.27C90.08,71.57,126.63,71.58,126.63,71.58Z"/>
      <polyline class="ee804aa5-746e-4e93-b495-2ff3c0a56b25" points="126.63 73.57 126.63 61.62 118.46 61.62 118.46 73.57"/>
    </g>
  </g>
</svg>
