<svg id="bd856222-fa46-422d-961b-0f5645c4c900" data-name="data" xmlns="http://www.w3.org/2000/svg" viewBox="0 0 134 134">
  <defs>
    <style>
      .e8a1e138-1304-424e-bffe-e347e19e0de4 {
        fill: var(--secondary-color);
        stroke: var(--secondary-color);
      }

      .b1d66cfb-7579-454e-bdfc-f95b257abfa3, .e8a1e138-1304-424e-bffe-e347e19e0de4 {
        stroke-miterlimit: 10;
        stroke-width: 4px;
        fill-rule: evenodd;
      }

      .b1d66cfb-7579-454e-bdfc-f95b257abfa3 {
        fill: #fff;
        stroke: var(--primary-color);
      }
    </style>
  </defs>
  <g id="aba2230d-546a-49da-8047-6d889acad63b" data-name="Resource">
    <path class="e8a1e138-1304-424e-bffe-e347e19e0de4" d="M47.75,111.48H13.91a11.44,11.44,0,0,1-8.3-3.22,11.22,11.22,0,0,1-3.51-7.52C2,99.92,2,99.09,2,98.27Q2,70.8,2,43.35A11.53,11.53,0,0,1,6.8,33.61a11.25,11.25,0,0,1,6.84-2.21c6.87,0,40.37,0,40.37,0L71.13,42.86s31.56-.06,40.24,0A11.61,11.61,0,0,1,123.1,54.69q0,22.46,0,44.93a11.46,11.46,0,0,1-8.84,11.5,13.37,13.37,0,0,1-3.16.35C99.83,111.49,59,111.48,47.75,111.48Z"/>
    <path class="b1d66cfb-7579-454e-bdfc-f95b257abfa3" d="M56.61,102.62H22.77a11.45,11.45,0,0,1-8.3-3.23A11.19,11.19,0,0,1,11,91.87c-.06-.82-.07-1.65-.07-2.47q0-27.47,0-54.92a11.54,11.54,0,0,1,4.77-9.74,11.32,11.32,0,0,1,6.84-2.21c6.87,0,40.36,0,40.36,0L80,34s31.57-.06,40.25,0a11.27,11.27,0,0,1,10.58,6.56A11.51,11.51,0,0,1,132,45.82q0,22.47,0,44.94a11.45,11.45,0,0,1-8.84,11.49,13.37,13.37,0,0,1-3.16.35C108.69,102.62,67.89,102.62,56.61,102.62Z"/>
  </g>
</svg>
