<svg id="f8f31fda-2d27-4345-b171-b05dbd89a10b" data-name="data" xmlns="http://www.w3.org/2000/svg" viewBox="0 0 134 134">
  <defs>
    <style>
      .b1810661-b8ca-4cbb-bf0b-adb95ea2e4b9 {
        fill: var(--secondary-color);
        stroke: var(--secondary-color);
      }

      .a5197f94-f06f-4967-99a5-970ed521711e, .b1810661-b8ca-4cbb-bf0b-adb95ea2e4b9 {
        stroke-miterlimit: 10;
        stroke-width: 4px;
        fill-rule: evenodd;
      }

      .a5197f94-f06f-4967-99a5-970ed521711e {
        fill: #fff;
        stroke: var(--primary-color);
      }
    </style>
  </defs>
  <g id="bfd435a7-56b2-428a-a27c-ea70047cc49f" data-name="Resources">
    <path class="b1810661-b8ca-4cbb-bf0b-adb95ea2e4b9" d="M47.75,111.48H13.91a11.44,11.44,0,0,1-8.3-3.22,11.22,11.22,0,0,1-3.51-7.52C2,99.92,2,99.09,2,98.27Q2,70.8,2,43.35A11.53,11.53,0,0,1,6.8,33.61a11.25,11.25,0,0,1,6.84-2.21c6.87,0,40.37,0,40.37,0L71.13,42.86s31.56-.06,40.24,0A11.61,11.61,0,0,1,123.1,54.69q0,22.46,0,44.93a11.46,11.46,0,0,1-8.84,11.5,13.37,13.37,0,0,1-3.16.35C99.83,111.49,59,111.48,47.75,111.48Z"/>
    <path class="a5197f94-f06f-4967-99a5-970ed521711e" d="M56.61,102.61H22.77a11.44,11.44,0,0,1-8.3-3.22A11.19,11.19,0,0,1,11,91.87c-.06-.82-.07-1.65-.07-2.47q0-27.47,0-54.92a11.54,11.54,0,0,1,4.77-9.74,11.32,11.32,0,0,1,6.84-2.21c6.87,0,40.36,0,40.36,0L80,34s31.57-.06,40.25,0a11.27,11.27,0,0,1,10.58,6.56A11.51,11.51,0,0,1,132,45.82q0,22.47,0,44.94a11.45,11.45,0,0,1-8.84,11.49,13.37,13.37,0,0,1-3.16.35C108.69,102.62,67.89,102.61,56.61,102.61Z"/>
  </g>
</svg>
