<svg id="ac316069-522b-46c4-b3ad-9be65b3aea90" data-name="data" xmlns="http://www.w3.org/2000/svg" viewBox="0 0 134 134">
  <defs>
    <style>
      .b6c96211-8dda-46cf-a228-264db527ece5 {
        fill: var(--secondary-color);
      }

      .a829f61a-e2ac-46e1-8d84-c3a4a349c40c, .b6c96211-8dda-46cf-a228-264db527ece5, .f122309d-a19e-44bc-8843-cf770a6acfe9 {
        fill-rule: evenodd;
      }

      .a829f61a-e2ac-46e1-8d84-c3a4a349c40c {
        fill: var(--primary-color);
      }

      .f122309d-a19e-44bc-8843-cf770a6acfe9 {
        fill: #fff;
      }
    </style>
  </defs>
  <g id="f1d3f406-fcff-4d0b-b28e-2ad9bc7d76d2" data-name="Tools">
    <path class="b6c96211-8dda-46cf-a228-264db527ece5" d="M43,68c-.14-.14-.25-.27-.37-.4q-5.74-5.73-11.47-11.48a.91.91,0,0,0-.92-.3,19.16,19.16,0,0,1-5.07.26A25.74,25.74,0,0,1,8.81,49a25.46,25.46,0,0,1-8-16.34A25.63,25.63,0,0,1,2.29,21.2c.34-.94.67-1.89,1-2.84.06-.16.13-.32.22-.54.19.17.34.29.48.43l12.5,12.49c.61.62.82.62,1.43,0l9.26-9.26c.58-.58.58-.8,0-1.4L14.64,7.57c-.13-.13-.25-.27-.39-.42A.92.92,0,0,1,14.43,7a46.63,46.63,0,0,1,7.49-2.3,25.9,25.9,0,0,1,5.56-.4,25.61,25.61,0,0,1,17.36,7.5A25.27,25.27,0,0,1,52,25.07a24.65,24.65,0,0,1,.48,6.06c0,.91-.15,1.82-.25,2.73a.88.88,0,0,0,.27.81q9.19,9.18,18.38,18.39c.29.28.44.25.69,0L95.33,29.22a1.9,1.9,0,0,0,.43-.74c.91-2.87,1.8-5.74,2.72-8.61a1.43,1.43,0,0,1,.52-.69q9.7-6.35,19.41-12.65a.58.58,0,0,1,.88.09q4.51,4.56,9.07,9.07a.51.51,0,0,1,.08.77Q122.1,26.21,115.74,36a1.32,1.32,0,0,1-.67.49c-2.82.9-5.64,1.76-8.45,2.66a2.68,2.68,0,0,0-1.05.63Q93.8,51.51,82.05,63.26l-.47.5.36.4L98.5,80.73a1,1,0,0,0,.84.29,42,42,0,0,1,4.61-.25,25.77,25.77,0,0,1,24.67,22.28,31.52,31.52,0,0,1,.22,4.86,25.45,25.45,0,0,1-1.86,8.6c-.3.79-.56,1.59-.87,2.46-.2-.17-.36-.29-.49-.42q-6.25-6.24-12.49-12.49c-.63-.63-.82-.63-1.44,0l-9.28,9.29c-.56.56-.56.77,0,1.33l12.49,12.5.46.49c-.08.06-.11.11-.16.12a55.27,55.27,0,0,1-7.11,2.23,25.1,25.1,0,0,1-6.8.47,26,26,0,0,1-24-23.32,22.34,22.34,0,0,1,.15-6.22.84.84,0,0,0-.27-.81q-4.92-4.91-9.81-9.82c-.32-.33-.51-.29-.8,0-.63.67-1.31,1.32-2,2l-37,37a9.23,9.23,0,0,1-6.86,2.84,8.79,8.79,0,0,1-6.26-2.56Q8.88,126,3.35,120.43A8.81,8.81,0,0,1,.88,115.2a9.08,9.08,0,0,1,2.75-7.84c3.3-3.35,6.63-6.65,10-10L42.52,68.45Z"/>
    <path class="a829f61a-e2ac-46e1-8d84-c3a4a349c40c" d="M47.42,63.52c-.14-.14-.25-.28-.37-.4q-5.73-5.73-11.47-11.48a.91.91,0,0,0-.92-.3,18.74,18.74,0,0,1-5.07.26,25.8,25.8,0,0,1-16.35-7.08,25.46,25.46,0,0,1-8-16.35,25.44,25.44,0,0,1,1.44-11.4c.34-.94.67-1.89,1-2.84.06-.16.13-.32.22-.54.19.17.35.29.48.43l12.5,12.49c.62.62.82.62,1.43,0l9.26-9.25c.58-.58.58-.8,0-1.4L19.07,3.14c-.13-.13-.25-.28-.39-.43a1.36,1.36,0,0,1,.18-.12A47.69,47.69,0,0,1,26.35.28a26.55,26.55,0,0,1,5.56-.39,25.57,25.57,0,0,1,17.35,7.5,25.15,25.15,0,0,1,7.12,13.25,24.65,24.65,0,0,1,.48,6.06c0,.91-.14,1.82-.25,2.73a.88.88,0,0,0,.27.81q9.19,9.18,18.38,18.39c.28.28.44.24.7,0l23.8-23.82a2.12,2.12,0,0,0,.43-.74c.91-2.87,1.8-5.74,2.73-8.61a1.35,1.35,0,0,1,.51-.69c6.47-4.23,12.94-8.43,19.41-12.66a.58.58,0,0,1,.88.1q4.52,4.56,9.07,9.07a.51.51,0,0,1,.08.77q-6.36,9.75-12.7,19.52a1.32,1.32,0,0,1-.67.49c-2.81.89-5.64,1.75-8.45,2.66a2.68,2.68,0,0,0-1,.63Q98.23,47.06,86.48,58.83l-.47.5c.13.15.24.27.36.39Q94.65,68,102.93,76.3a1,1,0,0,0,.85.29,39.39,39.39,0,0,1,4.6-.25,25.75,25.75,0,0,1,24.67,22.28,31.52,31.52,0,0,1,.22,4.86,25.5,25.5,0,0,1-1.86,8.6c-.3.79-.56,1.58-.87,2.46-.2-.17-.35-.29-.49-.42q-6.26-6.24-12.49-12.5c-.63-.62-.82-.62-1.43,0l-9.29,9.29c-.56.56-.56.77,0,1.33l12.5,12.49.45.49c-.08.07-.11.12-.16.13a55.13,55.13,0,0,1-7.1,2.23,24.78,24.78,0,0,1-6.81.47,26,26,0,0,1-24-23.33,22.67,22.67,0,0,1,.15-6.21.87.87,0,0,0-.27-.82q-4.92-4.89-9.81-9.81c-.32-.33-.5-.29-.79,0-.64.67-1.32,1.32-2,2q-18.49,18.5-37,37a9.27,9.27,0,0,1-6.86,2.84,8.81,8.81,0,0,1-6.26-2.56Q13.33,121.61,7.78,116a8.81,8.81,0,0,1-2.47-5.23,9.09,9.09,0,0,1,2.75-7.85c3.3-3.34,6.63-6.64,10-10Q32.49,78.49,47,64Z"/>
    <g>
      <path class="f122309d-a19e-44bc-8843-cf770a6acfe9" d="M62.08,62.45l.45-.42,9-9c.5-.5.5-.5,0-1L51.73,32.23a1.43,1.43,0,0,1-.49-1.57,18.39,18.39,0,0,0,.47-6.4A27.58,27.58,0,0,0,51.29,21a20.79,20.79,0,0,0-21.57-16c-.48,0-.95.09-1.52.15.2.22.32.36.45.49,2.3,2.31,4.63,4.58,6.89,6.93a5.66,5.66,0,0,1-.11,7.85c-3.27,3.27-6.52,6.55-9.81,9.8a5.62,5.62,0,0,1-8-.06L10.8,23.31,10.39,23a2.35,2.35,0,0,0-.12.45,43.43,43.43,0,0,0,0,4.42,20.47,20.47,0,0,0,6.8,13.42A20.31,20.31,0,0,0,30,46.55a21.81,21.81,0,0,0,6.13-.62,1.14,1.14,0,0,1,1.2.34C41.91,50.86,46.48,55.42,51,60a.77.77,0,0,0,1,.2,8.59,8.59,0,0,1,4.7-.52,8.85,8.85,0,0,1,4.52,2C61.51,61.93,61.77,62.17,62.08,62.45Z"/>
      <path class="f122309d-a19e-44bc-8843-cf770a6acfe9" d="M70.29,79.67a3.78,3.78,0,0,0-1.18-3q-5.39-5.42-10.8-10.79a4.12,4.12,0,0,0-1.49-.95A4.26,4.26,0,0,0,52,66L11.73,106.36c-.17.17-.34.35-.5.54a4.24,4.24,0,0,0,.19,5.62q5.46,5.52,11,11a4,4,0,0,0,3.24,1.12,4.87,4.87,0,0,0,3.12-1.57q20-20,39.95-40c.12-.11.23-.22.34-.34A4,4,0,0,0,70.29,79.67Z"/>
      <path class="f122309d-a19e-44bc-8843-cf770a6acfe9" d="M110.29,122.84c-.21-.23-.33-.37-.46-.5L103,115.56a5.54,5.54,0,0,1-1.66-3.87A5.45,5.45,0,0,1,103,107.6q4.92-4.93,9.85-9.84a4.5,4.5,0,0,1,.66-.57,5.7,5.7,0,0,1,7.41.68c2.25,2.23,4.48,4.48,6.72,6.72l.41.39a1.8,1.8,0,0,0,.08-.32,20.09,20.09,0,0,0,.06-4.52,20.55,20.55,0,0,0-7-13.63,20.09,20.09,0,0,0-12.42-5.13,19.67,19.67,0,0,0-6.39.59,1.13,1.13,0,0,1-1.27-.36Q92,72.44,82.84,63.31c-.42-.42-.42-.42-.84,0q-4.57,4.56-9.13,9.13c-.13.13-.25.27-.37.41.1.13.18.21.26.3a9.09,9.09,0,0,1,2,9.78.81.81,0,0,0,.23,1L87,96a.91.91,0,0,1,.27,1,30.54,30.54,0,0,0-.66,3.9,22.52,22.52,0,0,0,.19,4.26,20.87,20.87,0,0,0,17.41,17.7,19.63,19.63,0,0,0,4.9.2C109.48,123,109.82,122.9,110.29,122.84Z"/>
      <path class="f122309d-a19e-44bc-8843-cf770a6acfe9" d="M101.9,28.57,65.15,65.32l4.54,4.54.41-.39,35.84-35.84a3.57,3.57,0,0,1,.28-.27c.19-.17.19-.32,0-.51L102,28.66A.87.87,0,0,0,101.9,28.57Z"/>
      <path class="f122309d-a19e-44bc-8843-cf770a6acfe9" d="M127.9,12.19c-.1-.12-.19-.24-.29-.35-1.5-1.51-3-3-4.5-4.52a.51.51,0,0,0-.77-.06l-15.49,10.1a1.36,1.36,0,0,0-.5.66c-.71,2.18-1.38,4.38-2.08,6.57a.63.63,0,0,0,.18.76c1.7,1.68,3.39,3.36,5.06,5.06a.76.76,0,0,0,.91.23c1.91-.62,3.82-1.24,5.75-1.78a3,3,0,0,0,1.86-1.4c3.16-4.94,6.38-9.86,9.58-14.78Z"/>
    </g>
  </g>
</svg>
