<svg id="b123f4c1-de09-4f13-9203-d051828b1eb8" data-name="data" xmlns="http://www.w3.org/2000/svg" viewBox="0 0 134 134">
  <defs>
    <style>
      .bac600e9-bcef-4311-8641-eb7baa4b8b2a {
        fill: var(--secondary-color);
        stroke: var(--secondary-color);
      }

      .a010718b-7b78-4728-a745-45db9a7e3a95, .a322b792-465f-48e6-9aca-2d5d9716015d, .bac600e9-bcef-4311-8641-eb7baa4b8b2a, .f6ef0609-6238-49a4-8f6b-9d14371c8fd2 {
        stroke-miterlimit: 10;
        stroke-width: 4px;
      }

      .a010718b-7b78-4728-a745-45db9a7e3a95, .a322b792-465f-48e6-9aca-2d5d9716015d, .b94c7a1c-6ab6-4af1-a555-1155e1d8aa26, .bac600e9-bcef-4311-8641-eb7baa4b8b2a, .f6ef0609-6238-49a4-8f6b-9d14371c8fd2 {
        fill-rule: evenodd;
      }

      .a322b792-465f-48e6-9aca-2d5d9716015d {
        fill: #fff;
      }

      .a010718b-7b78-4728-a745-45db9a7e3a95, .a322b792-465f-48e6-9aca-2d5d9716015d, .f6ef0609-6238-49a4-8f6b-9d14371c8fd2 {
        stroke: var(--primary-color);
      }

      .f6ef0609-6238-49a4-8f6b-9d14371c8fd2 {
        fill: none;
      }

      .a010718b-7b78-4728-a745-45db9a7e3a95, .b94c7a1c-6ab6-4af1-a555-1155e1d8aa26 {
        fill: var(--primary-color);
      }
    </style>
  </defs>
  <g id="e1d6dbf9-5f8c-4c5c-9097-1bca0fd22202" data-name="Workspaces">
    <path class="bac600e9-bcef-4311-8641-eb7baa4b8b2a" d="M109.6,101.25v15.29c.89.19,1.76.29,2.57.54,3.44,1.1,5.41,4.35,5,8.22a7.18,7.18,0,0,1-6.52,6.57,20.46,20.46,0,0,1-2.21.12q-37.59,0-75.17,0a23.11,23.11,0,0,1-14.44-4.62,22.15,22.15,0,0,1-8.78-14.7,33.85,33.85,0,0,1-.35-5.13q0-37.43,0-74.85a23.06,23.06,0,0,1,3.44-12.74A22.05,22.05,0,0,1,29,9.44a36.65,36.65,0,0,1,5.13-.36q37.38,0,74.76,0a11.87,11.87,0,0,1,3.36.42,7.11,7.11,0,0,1,5,6.58c0,.29,0,.58,0,.87q0,38.19,0,76.35a7.73,7.73,0,0,1-2.63,6.21A7.53,7.53,0,0,1,109.6,101.25Z"/>
    <path class="a322b792-465f-48e6-9aca-2d5d9716015d" d="M116.67,94.18v15.29a25,25,0,0,1,2.58.54c3.43,1.09,5.4,4.35,5,8.22a7.2,7.2,0,0,1-6.53,6.57,20.27,20.27,0,0,1-2.2.12q-37.59,0-75.17,0a23.18,23.18,0,0,1-14.45-4.62,22.21,22.21,0,0,1-8.78-14.71,33.85,33.85,0,0,1-.35-5.13q0-37.43,0-74.84a23.17,23.17,0,0,1,3.44-12.75A22,22,0,0,1,36.06,2.37,35.2,35.2,0,0,1,41.19,2Q78.57,2,116,2a11.75,11.75,0,0,1,3.35.42,7.13,7.13,0,0,1,5,6.59c0,.29,0,.58,0,.87q0,38.18,0,76.36a7.41,7.41,0,0,1-7.62,7.93Z"/>
    <path class="f6ef0609-6238-49a4-8f6b-9d14371c8fd2" d="M116.67,94.16s-44.43,0-85.23,0c-5.89,0-10.57,2.48-13.34,7.71a19.25,19.25,0,0,0-1.28,3"/>
    <path class="b94c7a1c-6ab6-4af1-a555-1155e1d8aa26" d="M74.44,55.8c7.51,0,15,0,22.52,0a6.1,6.1,0,0,0,1.93-.32,3.81,3.81,0,0,0,0-7.1,7.13,7.13,0,0,0-2.1-.32Q74.35,48,51.9,48h-.48c-2.39.13-3.82,1.48-3.94,3.71s1.13,3.63,3.5,4a7,7,0,0,0,1,.06Z"/>
    <path class="b94c7a1c-6ab6-4af1-a555-1155e1d8aa26" d="M74.37,40.42H97a4,4,0,0,0,3.34-1.34,3.94,3.94,0,0,0,.45-4.39,3.63,3.63,0,0,0-3.66-2q-22.68,0-45.34,0a6.35,6.35,0,0,0-2.24.41,3.62,3.62,0,0,0-2.08,4,3.5,3.5,0,0,0,2.86,3.18,10.13,10.13,0,0,0,1.65.16Z"/>
    <path class="a010718b-7b78-4728-a745-45db9a7e3a95" d="M116.67,109.59V94.16h-77A7.05,7.05,0,0,0,33,98a7.82,7.82,0,0,0,.19,8.08c1.53,2.53,4,3.51,6.85,3.51C60.16,109.58,116.67,109.59,116.67,109.59Z"/>
    <polyline class="a322b792-465f-48e6-9aca-2d5d9716015d" points="116.67 111.59 116.67 94.18 104.03 94.18 104.03 111.59"/>
  </g>
</svg>
