<svg id="ef6186a0-7cce-4388-8224-568be01c2674" data-name="resources" xmlns="http://www.w3.org/2000/svg" viewBox="0 0 134 134">
  <defs>
    <style>
      .a2bcdd72-8860-4985-af28-953a78e7ddf5 {
        fill: #fff;
      }

      .a2bcdd72-8860-4985-af28-953a78e7ddf5, .bf248b56-0da7-441e-a11c-29918221c462 {
        stroke: var(--primary-color);
      }

      .a2bcdd72-8860-4985-af28-953a78e7ddf5, .a8d51d86-934b-46b1-9610-e0a0174dc345, .bf248b56-0da7-441e-a11c-29918221c462 {
        stroke-miterlimit: 10;
      }

      .a2bcdd72-8860-4985-af28-953a78e7ddf5, .a8d51d86-934b-46b1-9610-e0a0174dc345 {
        stroke-width: 4px;
      }

      .a8d51d86-934b-46b1-9610-e0a0174dc345, .b4fb48cc-82b4-44fa-9bfc-6a1448c0c42e {
        fill: var(--secondary-color);
      }

      .a8d51d86-934b-46b1-9610-e0a0174dc345 {
        stroke: var(--secondary-color);
      }

      .be3435a7-f756-46f3-ab56-d874d3e2d9d3 {
        fill: var(--primary-color);
      }

      .bf248b56-0da7-441e-a11c-29918221c462 {
        fill: none;
      }
    </style>
  </defs>
  <g id="a068c29d-8a0c-423a-898e-b5fe7a80e6ed" data-name="Custom">
    <g id="b2008cac-d321-4aaf-861e-c654e8c2dd49" data-name="ClacoForm">
      <g>
        <polygon class="a2bcdd72-8860-4985-af28-953a78e7ddf5" points="52.52 2.5 25.3 104.11 98.82 123.81 122.02 37.2 110.39 18 52.52 2.5"/>
        <g>
          <polygon class="a8d51d86-934b-46b1-9610-e0a0174dc345" points="39.2 10.19 11.98 111.8 85.5 131.5 108.71 44.89 97.07 25.69 39.2 10.19"/>
          <polygon class="a2bcdd72-8860-4985-af28-953a78e7ddf5" points="52.52 2.5 25.3 104.11 98.82 123.81 122.02 37.2 110.39 18 52.52 2.5"/>
        </g>
      </g>
      <g>
        <path class="b4fb48cc-82b4-44fa-9bfc-6a1448c0c42e" d="M113,45.2a1.74,1.74,0,0,1-2.14,1.24L65.55,34.31a1.75,1.75,0,0,1-1.24-2.14h0a1.75,1.75,0,0,1,2.14-1.24l45.26,12.13A1.74,1.74,0,0,1,113,45.2Z"/>
        <path class="be3435a7-f756-46f3-ab56-d874d3e2d9d3" d="M58.23,30.54a2,2,0,1,1-1.44-2.49A2,2,0,0,1,58.23,30.54Z"/>
        <path class="b4fb48cc-82b4-44fa-9bfc-6a1448c0c42e" d="M54.39,44.88A2,2,0,1,1,53,42.39,2,2,0,0,1,54.39,44.88Z"/>
        <path class="bf248b56-0da7-441e-a11c-29918221c462" d="M108.56,62.12a2.29,2.29,0,0,1-2.8,1.62L61.4,51.86a2.29,2.29,0,0,1-1.61-2.81L61.15,44A2.28,2.28,0,0,1,64,42.35l44.36,11.88A2.3,2.3,0,0,1,109.93,57Z"/>
        <path class="b4fb48cc-82b4-44fa-9bfc-6a1448c0c42e" d="M105.27,73.88a1.77,1.77,0,0,1-2.15,1.24L57.86,63a1.75,1.75,0,0,1-1.24-2.14h0a1.77,1.77,0,0,1,2.15-1.24L104,71.74a1.76,1.76,0,0,1,1.24,2.14Z"/>
        <path class="be3435a7-f756-46f3-ab56-d874d3e2d9d3" d="M50.54,59.22a2,2,0,1,1-1.43-2.49A2,2,0,0,1,50.54,59.22Z"/>
        <path class="b4fb48cc-82b4-44fa-9bfc-6a1448c0c42e" d="M97.58,102.56a1.74,1.74,0,0,1-2.14,1.24L50.18,91.68a1.76,1.76,0,0,1-1.24-2.15h0a1.76,1.76,0,0,1,2.15-1.24l45.25,12.13a1.74,1.74,0,0,1,1.24,2.14Z"/>
        <path class="be3435a7-f756-46f3-ab56-d874d3e2d9d3" d="M42.86,87.9a2,2,0,1,1-1.44-2.49A2,2,0,0,1,42.86,87.9Z"/>
        <path class="b4fb48cc-82b4-44fa-9bfc-6a1448c0c42e" d="M46.7,73.56a2,2,0,1,1-1.44-2.49A2,2,0,0,1,46.7,73.56Z"/>
        <path class="bf248b56-0da7-441e-a11c-29918221c462" d="M100.88,90.8a2.3,2.3,0,0,1-2.81,1.62L53.72,80.54a2.3,2.3,0,0,1-1.62-2.81l1.36-5.08A2.3,2.3,0,0,1,56.27,71l44.35,11.88a2.29,2.29,0,0,1,1.62,2.81Z"/>
      </g>
    </g>
  </g>
</svg>
