<?xml version="1.0" encoding="utf-8"?>
<!-- Generator: Adobe Illustrator 21.0.2, SVG Export Plug-In . SVG Version: 6.00 Build 0)  -->
<svg version="1.1" xmlns="http://www.w3.org/2000/svg" xmlns:xlink="http://www.w3.org/1999/xlink" x="0px" y="0px"
	 viewBox="0 0 71 80" style="enable-background:new 0 0 71 80;" xml:space="preserve">
<g id="shortcut">
</g>
<g id="file">
	<g>
		
			<polygon style="fill:none;stroke:#000000;stroke-width:1.4276;stroke-linecap:round;stroke-linejoin:round;stroke-miterlimit:10;" points="
			50.7,10.3 47.6,23.5 63.1,27.1 		"/>
		
			<polygon style="fill:none;stroke:#000000;stroke-width:1.4276;stroke-linecap:round;stroke-linejoin:round;stroke-miterlimit:10;" points="
			51,10.3 21.5,3.4 7,65.4 51.8,75.8 63.3,26.5 		"/>
	</g>
	<rect y="56.3" style="fill:#98C03D;" width="71" height="23"/>
	<g>
		<path style="fill:#FFFFFF;" d="M31.4,63.6l-1.4,1.4c-0.9-1-2-1.5-3.2-1.5c-1.1,0-1.9,0.4-2.7,1.1c-0.7,0.7-1.1,1.6-1.1,2.6
			c0,1,0.4,1.9,1.1,2.6s1.7,1.1,2.7,1.1c0.7,0,1.3-0.1,1.8-0.4c0.5-0.3,0.9-0.8,1.2-1.4h-3.1v-1.9h5.4l0,0.5c0,0.9-0.2,1.8-0.7,2.7
			c-0.5,0.8-1.1,1.5-1.9,1.9c-0.8,0.4-1.7,0.7-2.7,0.7c-1.1,0-2.1-0.2-3-0.7c-0.9-0.5-1.6-1.2-2.1-2.1c-0.5-0.9-0.8-1.9-0.8-2.9
			c0-1.4,0.5-2.7,1.4-3.7c1.1-1.3,2.6-1.9,4.4-1.9c0.9,0,1.8,0.2,2.6,0.5C30,62.4,30.7,62.9,31.4,63.6z"/>
		<path style="fill:#FFFFFF;" d="M33.9,61.9h2v10.8h-2V61.9z"/>
		<path style="fill:#FFFFFF;" d="M38.3,61.9h5.3v2h-3.3v2h3.3v2h-3.3v4.8h-2V61.9z"/>
	</g>
	<g>
		<polygon style="fill:#98C03D;" points="20.1,37.3 28.6,32.2 32.3,37.5 44.2,30.5 52.2,44.2 49.4,54.5 17.5,46.2 18.3,43.1 		"/>
		
			<ellipse transform="matrix(0.2538 -0.9673 0.9673 0.2538 -3.3046 47.8093)" style="fill:#98C03D;" cx="29.3" cy="26" rx="3.7" ry="3.7"/>
	</g>
</g>
</svg>
