<?xml version="1.0" encoding="utf-8"?>
<!-- Generator: Adobe Illustrator 21.0.2, SVG Export Plug-In . SVG Version: 6.00 Build 0)  -->
<svg version="1.1" xmlns="http://www.w3.org/2000/svg" xmlns:xlink="http://www.w3.org/1999/xlink" x="0px" y="0px"
	 viewBox="0 0 71 80" style="enable-background:new 0 0 71 80;" xml:space="preserve">
<g id="shortcut">
</g>
<g id="file">
	<g>
		
			<polygon style="fill:none;stroke:#000000;stroke-width:1.4276;stroke-linecap:round;stroke-linejoin:round;stroke-miterlimit:10;" points="
			50.7,10.8 47.6,24 63.1,27.6 		"/>
		
			<polygon style="fill:none;stroke:#000000;stroke-width:1.4276;stroke-linecap:round;stroke-linejoin:round;stroke-miterlimit:10;" points="
			51,10.8 21.5,3.9 7,65.9 51.8,76.3 63.3,27 		"/>
	</g>
	<rect y="56.8" style="fill:#98C03D;" width="71" height="23"/>
	<g>
		<path style="fill:#FFFFFF;" d="M21.4,73.2V62.4h1.7c1,0,1.7,0.1,2.2,0.2c0.6,0.2,1.2,0.5,1.5,1c0.4,0.5,0.6,1,0.6,1.6
			c0,0.4-0.1,0.8-0.3,1.1c-0.2,0.3-0.5,0.6-0.8,0.9c0.7,0.3,1.1,0.7,1.4,1.2c0.3,0.5,0.5,1,0.5,1.6c0,0.6-0.2,1.2-0.5,1.7
			c-0.3,0.5-0.7,0.9-1.2,1.1c-0.5,0.2-1.2,0.4-2,0.4H21.4z M23.5,64.3v2.3h0.4c0.5,0,0.9-0.1,1.1-0.3c0.2-0.2,0.4-0.5,0.4-0.9
			c0-0.3-0.1-0.6-0.3-0.8c-0.2-0.2-0.6-0.3-1.1-0.3H23.5z M23.5,68.4v2.8H24c0.9,0,1.4-0.1,1.7-0.3c0.3-0.2,0.4-0.5,0.4-0.9
			c0-0.5-0.2-0.8-0.5-1.1s-0.9-0.4-1.7-0.4H23.5z"/>
		<path style="fill:#FFFFFF;" d="M31.2,62.4h2l2.5,7.5l2.5-7.5h2L42,73.2h-2l-1.2-6.8l-2.3,6.8h-1.8l-2.3-6.8l-1.2,6.8h-2L31.2,62.4
			z"/>
		<path style="fill:#FFFFFF;" d="M43.6,62.4h2.2c1.2,0,2,0.1,2.5,0.3c0.5,0.2,0.9,0.6,1.2,1.1c0.3,0.5,0.5,1.1,0.5,1.7
			c0,0.8-0.2,1.4-0.6,1.9c-0.4,0.5-0.9,0.8-1.6,1c-0.4,0.1-1.1,0.2-2.2,0.2v4.6h-2.1V62.4z M45.7,66.6h0.7c0.5,0,0.9,0,1.1-0.1
			c0.2-0.1,0.4-0.2,0.5-0.4c0.1-0.2,0.2-0.4,0.2-0.6c0-0.4-0.2-0.7-0.5-0.9c-0.2-0.1-0.7-0.2-1.3-0.2h-0.6V66.6z"/>
	</g>
	<g>
		<polygon style="fill:#98C03D;" points="20.1,37.8 28.6,32.7 32.3,38 44.2,31 52.2,44.7 49.4,55 17.5,46.7 18.3,43.6 		"/>
		
			<ellipse transform="matrix(0.2538 -0.9673 0.9673 0.2538 -3.7929 48.186)" style="fill:#98C03D;" cx="29.3" cy="26.6" rx="3.7" ry="3.7"/>
	</g>
</g>
</svg>
