<?xml version="1.0" encoding="utf-8"?>
<!-- Generator: Adobe Illustrator 21.0.2, SVG Export Plug-In . SVG Version: 6.00 Build 0)  -->
<svg version="1.1" xmlns="http://www.w3.org/2000/svg" xmlns:xlink="http://www.w3.org/1999/xlink" x="0px" y="0px"
	 viewBox="0 0 71 80" style="enable-background:new 0 0 71 80;" xml:space="preserve">
<g id="shortcut">
</g>
<g id="file">
	<g>
		
			<polygon style="fill:none;stroke:#000000;stroke-width:1.4276;stroke-linecap:round;stroke-linejoin:round;stroke-miterlimit:10;" points="
			51.1,10.6 48,23.8 63.5,27.4 		"/>
		
			<polygon style="fill:none;stroke:#000000;stroke-width:1.4276;stroke-linecap:round;stroke-linejoin:round;stroke-miterlimit:10;" points="
			51.4,10.6 21.8,3.8 7.4,65.7 52.1,76.2 63.6,26.8 		"/>
	</g>
	<rect x="0.3" y="56.7" style="fill:#98C03D;" width="71" height="23"/>
	<g>
		<path style="fill:#FFFFFF;" d="M21.8,62.2h2.1v7.1c0,1.1-0.1,1.9-0.3,2.4s-0.5,0.8-0.9,1.1c-0.4,0.3-0.9,0.4-1.5,0.4
			c-1.2,0-2.2-0.5-3-1.6l1.5-1.4c0.3,0.4,0.6,0.6,0.8,0.7s0.5,0.2,0.7,0.2c0.2,0,0.4-0.1,0.5-0.3s0.2-0.6,0.2-1.2V62.2z"/>
		<path style="fill:#FFFFFF;" d="M26.3,62.2h2.2c1.2,0,2,0.1,2.5,0.3c0.5,0.2,0.9,0.6,1.2,1.1c0.3,0.5,0.5,1.1,0.5,1.7
			c0,0.8-0.2,1.4-0.6,1.9c-0.4,0.5-0.9,0.8-1.6,1c-0.4,0.1-1.1,0.2-2.2,0.2V73h-2.1V62.2z M28.3,66.4H29c0.5,0,0.9,0,1.1-0.1
			c0.2-0.1,0.4-0.2,0.5-0.4c0.1-0.2,0.2-0.4,0.2-0.6c0-0.4-0.2-0.7-0.5-0.9c-0.2-0.1-0.7-0.2-1.3-0.2h-0.6V66.4z"/>
		<path style="fill:#FFFFFF;" d="M34.7,62.2h5.9v2h-3.8v1.9h3.8v2h-3.8v2.8h3.8v2h-5.9V62.2z"/>
		<path style="fill:#FFFFFF;" d="M52.4,63.9L51,65.4c-0.9-1-2-1.5-3.2-1.5c-1.1,0-1.9,0.4-2.7,1.1S44,66.5,44,67.5
			c0,1,0.4,1.9,1.1,2.6c0.7,0.7,1.7,1.1,2.8,1.1c0.7,0,1.3-0.1,1.8-0.4s0.9-0.8,1.2-1.4h-3.1v-1.9h5.4l0,0.5c0,0.9-0.2,1.8-0.7,2.7
			s-1.1,1.5-1.9,1.9s-1.7,0.7-2.7,0.7c-1.1,0-2.1-0.2-3-0.7c-0.9-0.5-1.6-1.2-2.1-2.1c-0.5-0.9-0.8-1.9-0.8-2.9
			c0-1.4,0.5-2.7,1.4-3.7c1.1-1.3,2.6-1.9,4.4-1.9c0.9,0,1.8,0.2,2.6,0.5C51.1,62.7,51.8,63.2,52.4,63.9z"/>
	</g>
	<g>
		<polygon style="fill:#98C03D;" points="20.5,37.6 29,32.6 32.6,37.8 44.5,30.8 52.5,44.5 49.8,54.8 17.8,46.5 18.6,43.5 		"/>
		
			<ellipse transform="matrix(0.2538 -0.9673 0.9673 0.2538 -3.3535 48.374)" style="fill:#98C03D;" cx="29.7" cy="26.4" rx="3.7" ry="3.7"/>
	</g>
</g>
</svg>
