<?xml version="1.0" encoding="utf-8"?>
<!-- Generator: Adobe Illustrator 22.1.0, SVG Export Plug-In . SVG Version: 6.00 Build 0)  -->
<svg version="1.1" xmlns="http://www.w3.org/2000/svg" xmlns:xlink="http://www.w3.org/1999/xlink" x="0px" y="0px"
	 viewBox="0 0 71 80" style="enable-background:new 0 0 71 80;" xml:space="preserve">
<g id="shortcut">
</g>
<g id="file">
	<path style="display:none;fill:#98C03D;" d="M58.2,20.9c-0.9-0.8-5.3-0.1-6.6-0.1c-2.3,0-4.6,0-6.8,0.1c-5,0.2-9.9,0.4-14.8-0.2
		c-0.2,0-0.5-0.1-0.7-0.1c-2-0.2-3.3-1.5-3.8-3.1c-0.3-0.3-0.6-0.6-0.8-0.9c-0.4,0-0.7-0.1-1-0.2c-0.2,0-0.4,0-0.6,0
		c-2.4,0-4.9,0.1-7.3,0.1c-0.6,0-1.2-0.1-1.7-0.3c-0.5,0.6-1.1,1.1-1.8,1.5c-0.4,0.5-0.8,0.9-1.4,1.2c-0.7,1.6-2.1,2.8-4.4,2.8
		c-0.1,0-0.3,0-0.4,0c-0.6,0.3-1.2,0.6-2,0.7v34.4h56.6V22C59.8,21.8,59,21.5,58.2,20.9z"/>
	<g style="display:none;">
		<g style="display:inline;">
			<defs>
				<rect id="SVGID_3_" x="2.8" y="15.3" width="65.3" height="49.4"/>
			</defs>
			<clipPath id="SVGID_2_">
				<use xlink:href="#SVGID_3_"  style="overflow:visible;"/>
			</clipPath>
			<path style="clip-path:url(#SVGID_2_);" d="M66,27h-3.6c-0.4,0-0.3-0.6-0.3-0.6v-1.8c0-2.4-1.9-4.3-4.3-4.3H28.5
				c-0.2,0-0.4-0.4-0.9-1.2c-0.1-0.1-0.1-0.2-0.2-0.4c-1.5-2.8-3.4-3.4-4.8-3.4h-7.6c-1.9,0-3.1,1.1-4.4,3.3
				c-0.1,0.1-0.2,0.3-0.3,0.4c-0.4,0.7-0.8,1.3-1,1.3H7.1c-2.4,0-4.3,1.9-4.3,4.3v35.6c0,2.1,1.5,3.8,3.5,4.2
				c0.2,0.1,0.5,0.1,0.8,0.1h52.2c1.4,0,2.8-1.1,3-2.5l5.8-32.5C68.4,28.1,67.4,27,66,27L66,27z M7.1,23.7h2.2c2.2,0,3.3-1.8,4-2.9
				c0.1-0.1,0.2-0.3,0.2-0.4c0.7-1.1,1.2-1.7,1.9-1.7h7.2c0.2,0,0.9,0,1.8,1.6c0.1,0.1,0.1,0.2,0.2,0.3c0.6,1.2,1.6,3.1,3.9,3.1
				h29.3c0.5,0,0.9,0.4,0.9,0.9v1.7c0,0,0.1,0.7-0.3,0.7H13.8c-1.4,0-2.8,1.1-3,2.5L6.5,53.7c0,0-0.2,0.8-0.2-0.7V24.6
				C6.3,24.1,6.7,23.7,7.1,23.7L7.1,23.7z M7.1,23.7"/>
		</g>
	</g>
	<g>
		<g>
			<path style="fill:#98C03D;" d="M62.4,26.8l0-3.3c0-0.6-0.1-1.1-0.5-1.5c-0.4-0.4-0.9-0.5-1.5-0.5c-2.2,0-4.5,0.1-6.7,0.1
				l-13.4,0.2l-6.7,0.1l-3.3,0.1l-1.7,0c-0.3,0-0.6,0-0.9-0.1c-0.3-0.1-0.6-0.3-0.9-0.5c-0.1-0.1-0.2-0.3-0.3-0.4l-0.2-0.4l-0.4-0.7
				l-0.9-1.4c-0.3-0.5-0.6-1-0.9-1.3c-0.2-0.1-0.4-0.2-0.6-0.3c-0.1,0-0.2,0-0.3,0l-0.4,0l-3.3,0l-1.7,0l-0.8,0l-0.4,0
				c-0.1,0-0.2,0-0.3,0c-0.2,0.1-0.4,0.2-0.5,0.3c-0.1,0.1-0.1,0.1-0.2,0.2l-0.2,0.3l-0.9,1.4l-0.9,1.4c-0.1,0.2-0.3,0.6-0.6,0.8
				c-0.3,0.2-0.6,0.4-0.9,0.5c-0.2,0-0.4,0.1-0.5,0.1l-0.4,0l-0.8,0l-1.7,0l-1.7,0c-0.6,0-0.9,0-1.2,0.3c-0.3,0.3-0.5,0.6-0.4,1
				l0.1,1.7l0,3.3l0.1,6.7C5.3,44.1,5.2,53,4.6,62C3.9,53,3.9,44.1,3.8,35.2l0.1-6.7l0-3.3L4,23.5c0-0.7,0.3-1.5,0.9-1.9
				c0.3-0.2,0.6-0.4,1-0.5c0.4-0.1,0.7,0,0.9,0l1.7,0l1.7,0l0.8,0l0.4,0c0.1,0,0.2,0,0.3,0c0.2,0,0.4-0.1,0.5-0.3
				c0.2-0.1,0.2-0.3,0.4-0.5l0.9-1.4l0.9-1.4l0.2-0.4c0.1-0.1,0.2-0.3,0.3-0.4c0.3-0.2,0.6-0.4,0.9-0.5c0.2,0,0.3-0.1,0.5-0.1l0.4,0
				l0.8,0l1.7,0l3.3,0l0.4,0c0.2,0,0.3,0,0.5,0.1c0.3,0.1,0.7,0.2,0.9,0.5c0.3,0.2,0.5,0.6,0.6,0.8l0.4,0.7l0.9,1.4l0.4,0.7l0.2,0.4
				c0.1,0.1,0.1,0.2,0.2,0.3c0.2,0.2,0.3,0.3,0.6,0.3c0.2,0.1,0.4,0.1,0.7,0.1l1.7,0l3.3,0l6.7,0l13.4,0c2.2,0,4.5,0,6.7,0
				c0.6,0,1.2,0.2,1.6,0.6c0.4,0.4,0.5,1,0.5,1.6L62.4,26.8z"/>
		</g>
		<g>
			<path d="M4.5,61.9C4.7,60,5,58.1,5.3,56.3l0.5-2.8l0.5-2.8c0.7-3.7,1.5-7.4,2.5-11.1c1-3.7,1.9-7.3,2.6-11.1
				c0.1-0.5,0.5-1,0.9-1.3c0.5-0.3,1.1-0.3,1.5-0.3l2.8,0l5.7-0.1l22.7-0.2l11.3-0.1l5.7,0l1.4,0l0.7,0l0.4,0c0.1,0,0.3,0,0.5,0
				c0.7,0.1,1.3,0.5,1.6,1c0.4,0.5,0.5,1.3,0.4,1.9c-1.3,7.5-2.6,14.9-3.9,22.4l-1,5.6l-0.5,2.8l-0.2,1.4l-0.1,0.7
				c-0.1,0.3-0.2,0.6-0.4,0.9c-0.4,0.6-1,0.9-1.7,1c-0.4,0-0.6,0-0.8,0l-0.7,0l-2.8,0l-5.7,0l-22.7-0.2L15.2,64l-5.7-0.1
				c-1,0-1.9,0-2.9-0.1c-0.5-0.1-1-0.3-1.4-0.6C4.9,62.9,4.5,62.4,4.5,61.9C4.5,61.9,4.5,61.8,4.5,61.9c0.1-0.1,0.1,0,0.1,0
				c0,0.4,0.4,0.8,0.8,1c0.4,0.2,0.8,0.4,1.3,0.4l2.8,0l5.7-0.1L26.5,63l22.7-0.2l5.7,0l2.8,0l0.7,0c0.2,0,0.5,0,0.6,0
				c0.3,0,0.5-0.2,0.7-0.4c0.1-0.1,0.1-0.2,0.2-0.4l0.1-0.7l0.2-1.4l0.5-2.8l1-5.6c1.3-7.5,2.6-14.9,4-22.3c0.1-0.6-0.3-1.2-0.8-1.3
				c-0.1,0-0.1,0-0.2,0l-0.4,0l-0.7,0l-1.4,0l-5.7,0l-11.3-0.1l-22.7-0.2l-5.7-0.1l-2.8,0c-0.5,0-0.9,0-1.2,0.2
				c-0.3,0.2-0.6,0.5-0.7,0.9c-0.9,3.7-1.6,7.4-2.2,11.1c-0.6,3.7-1.3,7.4-2.2,11.1l-0.6,2.8l-0.7,2.7c-0.5,1.8-1,3.7-1.5,5.5
				C4.6,62,4.6,62,4.5,61.9C4.5,62,4.5,61.9,4.5,61.9z"/>
		</g>
	</g>
</g>
</svg>
