<?xml version="1.0" encoding="utf-8"?>
<!-- Generator: Adobe Illustrator 21.0.2, SVG Export Plug-In . SVG Version: 6.00 Build 0)  -->
<svg version="1.1" xmlns="http://www.w3.org/2000/svg" xmlns:xlink="http://www.w3.org/1999/xlink" x="0px" y="0px"
	 viewBox="0 0 71 80" style="enable-background:new 0 0 71 80;" xml:space="preserve">
<g id="shortcut">
</g>
<g id="file">
	<g>
		<g>
			
				<polygon style="fill:none;stroke:#000000;stroke-width:1.4276;stroke-linecap:round;stroke-linejoin:round;stroke-miterlimit:10;" points="
				55.7,11.2 50.8,23.9 65.6,29.7 			"/>
			
				<polygon style="fill:none;stroke:#000000;stroke-width:1.4276;stroke-linecap:round;stroke-linejoin:round;stroke-miterlimit:10;" points="
				56,11.4 27.8,0.3 4.5,59.5 47.3,76.3 65.8,29.1 			"/>
		</g>
		
			<line style="fill:none;stroke:#60439A;stroke-width:3;stroke-linejoin:round;stroke-miterlimit:10;stroke-dasharray:6;" x1="34" y1="3.4" x2="32.7" y2="6.7"/>
		
			<line style="fill:none;stroke:#60439A;stroke-width:3;stroke-linejoin:round;stroke-miterlimit:10;stroke-dasharray:6;" x1="31.9" y1="8.9" x2="30.7" y2="12.2"/>
		
			<line style="fill:none;stroke:#60439A;stroke-width:3;stroke-linejoin:round;stroke-miterlimit:10;stroke-dasharray:6;" x1="29.8" y1="14.5" x2="28.5" y2="17.8"/>
		
			<line style="fill:none;stroke:#60439A;stroke-width:3;stroke-linejoin:round;stroke-miterlimit:10;stroke-dasharray:6;" x1="36.9" y1="7.5" x2="35.6" y2="10.8"/>
		
			<line style="fill:none;stroke:#60439A;stroke-width:3;stroke-linejoin:round;stroke-miterlimit:10;stroke-dasharray:6;" x1="34.6" y1="13.4" x2="33.4" y2="16.7"/>
		
			<line style="fill:none;stroke:#60439A;stroke-width:3;stroke-linejoin:round;stroke-miterlimit:10;stroke-dasharray:6;" x1="32.8" y1="18.2" x2="31.6" y2="21.5"/>
		<path style="fill:#60439A;stroke:#60439A;stroke-width:1.0467;stroke-miterlimit:10;" d="M31.9,31.3l1.5-10.9
			c0-0.3-0.1-0.5-0.4-0.6l-4.9-1.8c-0.3-0.1-0.6,0-0.7,0.2l-6.2,8.2c-0.9,1.2-0.9,2.9,0,4.2c3.2,4.7,7,3.9,9.1,3
			C31.1,33.1,31.8,32.3,31.9,31.3z M24.8,33.2c-2.7-1-4.4-3.1-3.8-4.6c0.6-1.5,3.2-1.9,5.9-0.9c2.7,1,4.4,3.1,3.8,4.6
			C30.1,33.8,27.5,34.2,24.8,33.2z"/>
	</g>
	<rect x="-0.4" y="56.7" style="fill:#60439A;" width="71" height="23"/>
	<g>
		<path style="fill:#FFFFFF;" d="M7.5,62.2h2.1L13.7,73h-2.1l-0.8-2.2H6.3L5.4,73H3.3L7.5,62.2z M8.5,65.1l-1.4,3.7H10L8.5,65.1z"/>
		<path style="fill:#FFFFFF;" d="M15.4,62.2h2.2c1.2,0,2,0.1,2.5,0.3c0.5,0.2,0.9,0.6,1.2,1.1c0.3,0.5,0.5,1.1,0.5,1.8
			c0,0.7-0.2,1.3-0.5,1.8c-0.3,0.5-0.9,0.8-1.5,1.1l2.6,4.8h-2.2l-2.4-4.6h-0.2V73h-2.1V62.2z M17.5,66.4h0.6c0.7,0,1.1-0.1,1.3-0.3
			c0.2-0.2,0.4-0.5,0.4-0.9c0-0.2-0.1-0.4-0.2-0.6c-0.1-0.2-0.3-0.3-0.5-0.4s-0.6-0.1-1.1-0.1h-0.6V66.4z"/>
		<path style="fill:#FFFFFF;" d="M33.9,64.1l-1.4,1.4c-1-1-2.1-1.5-3.3-1.5c-1,0-1.9,0.4-2.6,1.1c-0.7,0.7-1.1,1.6-1.1,2.6
			c0,0.7,0.2,1.4,0.5,1.9c0.3,0.6,0.8,1,1.3,1.3c0.6,0.3,1.2,0.5,1.9,0.5c0.6,0,1.1-0.1,1.6-0.3c0.5-0.2,1-0.6,1.6-1.2l1.4,1.5
			c-0.8,0.8-1.5,1.3-2.3,1.6c-0.7,0.3-1.5,0.5-2.4,0.5c-1.7,0-3-0.5-4.1-1.6c-1.1-1.1-1.6-2.4-1.6-4.1c0-1.1,0.2-2,0.7-2.9
			c0.5-0.8,1.2-1.5,2.1-2c0.9-0.5,1.9-0.8,2.9-0.8c0.9,0,1.7,0.2,2.6,0.6C32.6,62.9,33.3,63.4,33.9,64.1z"/>
		<path style="fill:#FFFFFF;" d="M35.7,62.2h2.1v4.1h3.6v-4.1h2.1V73h-2.1v-4.7h-3.6V73h-2.1V62.2z"/>
		<path style="fill:#FFFFFF;" d="M45.7,62.2h2V73h-2V62.2z"/>
		<path style="fill:#FFFFFF;" d="M49.3,62.2h2.1l2.7,7.7l2.8-7.7h2.1L55.1,73h-2L49.3,62.2z"/>
		<path style="fill:#FFFFFF;" d="M60.6,62.2h5.9v2h-3.8v1.9h3.8v2h-3.8V71h3.8v2h-5.9V62.2z"/>
	</g>
</g>
</svg>
