<?xml version="1.0" encoding="utf-8"?>
<!-- Generator: Adobe Illustrator 21.0.2, SVG Export Plug-In . SVG Version: 6.00 Build 0)  -->
<svg version="1.1" xmlns="http://www.w3.org/2000/svg" xmlns:xlink="http://www.w3.org/1999/xlink" x="0px" y="0px"
	 viewBox="0 0 71 80" style="enable-background:new 0 0 71 80;" xml:space="preserve">
<g id="shortcut">
</g>
<g id="file">
	<g>
		<g>
			
				<polygon style="fill:none;stroke:#000000;stroke-width:1.4276;stroke-linecap:round;stroke-linejoin:round;stroke-miterlimit:10;" points="
				55.2,11.2 50.3,23.9 65.1,29.7 			"/>
			
				<polygon style="fill:none;stroke:#000000;stroke-width:1.4276;stroke-linecap:round;stroke-linejoin:round;stroke-miterlimit:10;" points="
				55.5,11.4 27.3,0.3 4,59.5 46.8,76.3 65.3,29.1 			"/>
		</g>
		
			<line style="fill:none;stroke:#60439A;stroke-width:3;stroke-linejoin:round;stroke-miterlimit:10;stroke-dasharray:6;" x1="33.5" y1="3.4" x2="32.3" y2="6.7"/>
		
			<line style="fill:none;stroke:#60439A;stroke-width:3;stroke-linejoin:round;stroke-miterlimit:10;stroke-dasharray:6;" x1="31.4" y1="8.9" x2="30.2" y2="12.2"/>
		
			<line style="fill:none;stroke:#60439A;stroke-width:3;stroke-linejoin:round;stroke-miterlimit:10;stroke-dasharray:6;" x1="29.3" y1="14.5" x2="28.1" y2="17.8"/>
		
			<line style="fill:none;stroke:#60439A;stroke-width:3;stroke-linejoin:round;stroke-miterlimit:10;stroke-dasharray:6;" x1="36.4" y1="7.5" x2="35.2" y2="10.8"/>
		
			<line style="fill:none;stroke:#60439A;stroke-width:3;stroke-linejoin:round;stroke-miterlimit:10;stroke-dasharray:6;" x1="34.2" y1="13.4" x2="32.9" y2="16.7"/>
		
			<line style="fill:none;stroke:#60439A;stroke-width:3;stroke-linejoin:round;stroke-miterlimit:10;stroke-dasharray:6;" x1="32.3" y1="18.2" x2="31.1" y2="21.5"/>
		<path style="fill:#60439A;stroke:#60439A;stroke-width:1.0467;stroke-miterlimit:10;" d="M31.4,31.3l1.5-10.9
			c0-0.3-0.1-0.5-0.4-0.6l-4.9-1.8c-0.3-0.1-0.6,0-0.7,0.2l-6.2,8.2c-0.9,1.2-0.9,2.9,0,4.2c3.2,4.7,7,3.9,9.1,3
			C30.7,33.1,31.3,32.3,31.4,31.3z M24.3,33.2c-2.7-1-4.4-3.1-3.8-4.6s3.2-1.9,5.9-0.9c2.7,1,4.4,3.1,3.8,4.6
			C29.6,33.8,27,34.2,24.3,33.2z"/>
	</g>
	<rect y="57" style="fill:#60439A;" width="71" height="23"/>
	<g>
		<path style="fill:#FFFFFF;" d="M24.7,62.2h6v2h-2V73h-2.1v-8.8h-1.9V62.2z"/>
		<path style="fill:#FFFFFF;" d="M35.3,62.2h2.1L41.6,73h-2.1l-0.8-2.2h-4.4L33.3,73h-2.1L35.3,62.2z M36.4,65.1L35,68.8h2.9
			L36.4,65.1z"/>
		<path style="fill:#FFFFFF;" d="M43.3,62.2h2.2c1.2,0,2,0.1,2.5,0.3c0.5,0.2,0.9,0.6,1.2,1.1s0.5,1.1,0.5,1.8
			c0,0.7-0.2,1.3-0.5,1.8c-0.3,0.5-0.9,0.8-1.5,1.1l2.6,4.8H48l-2.4-4.6h-0.2V73h-2.1V62.2z M45.3,66.4H46c0.7,0,1.1-0.1,1.3-0.3
			c0.2-0.2,0.4-0.5,0.4-0.9c0-0.2-0.1-0.4-0.2-0.6s-0.3-0.3-0.5-0.4c-0.2-0.1-0.6-0.1-1.1-0.1h-0.6V66.4z"/>
	</g>
</g>
</svg>
