<?xml version="1.0" encoding="utf-8"?>
<!-- Generator: Adobe Illustrator 21.0.2, SVG Export Plug-In . SVG Version: 6.00 Build 0)  -->
<svg version="1.1" xmlns="http://www.w3.org/2000/svg" xmlns:xlink="http://www.w3.org/1999/xlink" x="0px" y="0px"
	 viewBox="0 0 71 80" style="enable-background:new 0 0 71 80;" xml:space="preserve">
<g id="shortcut">
</g>
<g id="file">
	<g>
		
			<polygon style="fill:#FFFFFF;stroke:#000000;stroke-width:1.7618;stroke-linecap:round;stroke-linejoin:round;stroke-miterlimit:10;" points="
			23.2,4.3 7,64 50.2,75.7 64,24.7 57.1,13.6 		"/>
		
			<polyline style="fill:#FFFFFF;stroke:#000000;stroke-width:1.8481;stroke-linecap:round;stroke-linejoin:round;stroke-miterlimit:10;" points="
			63.7,24.6 53.6,21.9 55.8,13.7 		"/>
		
			<line style="fill:none;stroke:#000000;stroke-width:1.7622;stroke-linecap:round;stroke-linejoin:round;stroke-miterlimit:10;" x1="40.4" y1="22.1" x2="57.6" y2="26.8"/>
		
			<line style="fill:none;stroke:#000000;stroke-width:1.7622;stroke-linecap:round;stroke-linejoin:round;stroke-miterlimit:10;" x1="22.6" y1="28.6" x2="54.8" y2="37.3"/>
		
			<line style="fill:none;stroke:#000000;stroke-width:1.7622;stroke-linecap:round;stroke-linejoin:round;stroke-miterlimit:10;" x1="19.8" y1="39" x2="51.9" y2="47.7"/>
		
			<line style="fill:none;stroke:#000000;stroke-width:1.7622;stroke-linecap:round;stroke-linejoin:round;stroke-miterlimit:10;" x1="17" y1="49.5" x2="49.1" y2="58.2"/>
		
			<line style="fill:none;stroke:#000000;stroke-width:1.7622;stroke-linecap:round;stroke-linejoin:round;stroke-miterlimit:10;" x1="14.1" y1="59.9" x2="38.4" y2="66.5"/>
		<g>
			<path style="fill:#128BC7;" d="M34.3,13.3l-2.9,10.6c0,0.1-0.1,0.2-0.1,0.3s0,0.2,0.1,0.3c0.1,0.1,0.2,0.2,0.3,0.3
				c0.1,0.1,0.3,0.2,0.6,0.3c0.2,0.1,0.3,0.2,0.2,0.4c0,0,0,0.1-0.1,0.2c0,0.1-0.1,0.1-0.1,0.2c-0.4-0.1-0.9-0.3-1.4-0.4
				c-0.5-0.2-0.9-0.3-1.3-0.4c-0.4-0.1-0.8-0.2-1.3-0.3c-0.5-0.1-0.9-0.2-1.4-0.3c0-0.1,0-0.1,0-0.2c0-0.1,0-0.1,0-0.2
				c0-0.1,0.1-0.2,0.1-0.2c0-0.1,0.2-0.1,0.3-0.1c0.5,0.1,0.9,0.1,1,0c0.2-0.1,0.3-0.3,0.3-0.5l2.9-10.6L30,12.1
				C29.7,12,29.3,12,29,12c-0.3,0-0.5,0.1-0.8,0.2c-0.2,0.1-0.5,0.3-0.7,0.5c-0.2,0.2-0.5,0.5-0.7,0.8c-0.1,0.1-0.2,0.1-0.4,0.1
				c-0.1,0-0.2-0.1-0.3-0.1c-0.1-0.1-0.2-0.1-0.2-0.2c0.2-0.3,0.3-0.6,0.5-0.8s0.3-0.5,0.4-0.7c0.1-0.3,0.3-0.6,0.3-0.8
				c0.1-0.2,0.2-0.4,0.2-0.5c0.1-0.1,0.2-0.1,0.4-0.1c0.1,0,0.4,0.1,0.9,0.3c0.4,0.2,0.9,0.3,1.6,0.5l6.2,1.7
				c0.6,0.2,1.1,0.3,1.6,0.4c0.4,0.1,0.8,0.1,0.9,0.2c0.1,0,0.2,0.1,0.3,0.3c0,0.1,0,0.3-0.1,0.5c0,0.2-0.1,0.5-0.1,0.9
				c0,0.3,0,0.5-0.1,0.8c0,0.3,0,0.6,0,0.9c-0.1,0-0.2,0-0.3,0c-0.1,0-0.2,0-0.3,0c-0.1,0-0.2-0.1-0.3-0.3c-0.1-0.4-0.1-0.7-0.2-1
				s-0.2-0.5-0.4-0.7c-0.2-0.2-0.3-0.4-0.6-0.5c-0.2-0.1-0.5-0.3-0.9-0.4L34.3,13.3z"/>
		</g>
	</g>
	<rect y="56.9" style="fill:#128BC7;" width="71" height="23"/>
	<g>
		<path style="fill:#FFFFFF;" d="M14.2,62.5h2.4c1.6,0,2.7,0.2,3.5,0.6c0.8,0.4,1.4,1,1.9,1.9c0.5,0.9,0.7,1.9,0.7,3.1
			c0,0.8-0.1,1.6-0.4,2.3c-0.3,0.7-0.7,1.3-1.1,1.7s-1,0.8-1.6,1c-0.6,0.2-1.5,0.3-2.9,0.3h-2.5V62.5z M16.3,64.4v6.8h1
			c0.9,0,1.6-0.1,2-0.3c0.4-0.2,0.8-0.6,1-1.1s0.4-1.1,0.4-1.9c0-1.1-0.3-2-1-2.7c-0.6-0.6-1.5-0.9-2.8-0.9H16.3z"/>
		<path style="fill:#FFFFFF;" d="M29.8,62.2c1.5,0,2.8,0.6,3.9,1.7s1.6,2.4,1.6,4c0,1.6-0.5,2.9-1.6,4c-1.1,1.1-2.4,1.6-3.9,1.6
			c-1.6,0-3-0.6-4-1.7s-1.6-2.4-1.6-4c0-1,0.2-2,0.7-2.8c0.5-0.9,1.2-1.5,2.1-2.1C27.9,62.4,28.8,62.2,29.8,62.2z M29.8,64.2
			c-1,0-1.8,0.3-2.5,1c-0.7,0.7-1,1.6-1,2.6c0,1.2,0.4,2.1,1.3,2.8c0.7,0.5,1.4,0.8,2.3,0.8c1,0,1.8-0.4,2.5-1.1
			c0.7-0.7,1-1.6,1-2.6c0-1-0.3-1.9-1-2.6C31.6,64.6,30.8,64.2,29.8,64.2z"/>
		<path style="fill:#FFFFFF;" d="M47.2,64.4l-1.4,1.4c-1-1-2.1-1.5-3.3-1.5c-1,0-1.9,0.4-2.6,1.1c-0.7,0.7-1.1,1.6-1.1,2.6
			c0,0.7,0.2,1.4,0.5,1.9c0.3,0.6,0.8,1,1.3,1.3c0.6,0.3,1.2,0.5,1.9,0.5c0.6,0,1.1-0.1,1.6-0.3c0.5-0.2,1-0.6,1.6-1.2l1.4,1.5
			c-0.8,0.8-1.5,1.3-2.3,1.6s-1.5,0.5-2.4,0.5c-1.7,0-3-0.5-4.1-1.6c-1.1-1.1-1.6-2.4-1.6-4.1c0-1.1,0.2-2,0.7-2.9
			c0.5-0.8,1.2-1.5,2.1-2c0.9-0.5,1.9-0.8,2.9-0.8c0.9,0,1.7,0.2,2.6,0.6C45.9,63.1,46.6,63.7,47.2,64.4z"/>
		<path style="fill:#FFFFFF;" d="M48.3,62.5h2.3l2.3,3.5l2.3-3.5h2.3l-3.4,5.2l3.6,5.6h-2.3l-2.5-3.8l-2.5,3.8h-2.3l3.6-5.6
			L48.3,62.5z"/>
	</g>
</g>
</svg>
