<?xml version="1.0" encoding="utf-8"?>
<!-- Generator: Adobe Illustrator 21.0.2, SVG Export Plug-In . SVG Version: 6.00 Build 0)  -->
<svg version="1.1" xmlns="http://www.w3.org/2000/svg" xmlns:xlink="http://www.w3.org/1999/xlink" x="0px" y="0px"
	 viewBox="0 0 71 80" style="enable-background:new 0 0 71 80;" xml:space="preserve">
<g id="shortcut">
</g>
<g id="file">
	<rect y="57" style="fill:#E59B3A;" width="71" height="23"/>
	<g>
		<path style="fill:#FFFFFF;" d="M26.1,62.2c1.5,0,2.8,0.6,3.9,1.7c1.1,1.1,1.6,2.4,1.6,4c0,1.6-0.5,2.9-1.6,4
			c-1.1,1.1-2.4,1.6-3.9,1.6c-1.6,0-3-0.6-4-1.7c-1.1-1.1-1.6-2.4-1.6-4c0-1,0.2-2,0.7-2.8s1.2-1.5,2.1-2.1
			C24.1,62.5,25.1,62.2,26.1,62.2z M26,64.2c-1,0-1.8,0.3-2.5,1s-1,1.6-1,2.6c0,1.2,0.4,2.1,1.3,2.8c0.7,0.5,1.4,0.8,2.3,0.8
			c1,0,1.8-0.4,2.5-1.1c0.7-0.7,1-1.6,1-2.6c0-1-0.3-1.9-1-2.6C27.9,64.6,27,64.2,26,64.2z"/>
		<path style="fill:#FFFFFF;" d="M33.6,62.5H36c1.6,0,2.7,0.2,3.5,0.6c0.8,0.4,1.4,1,1.9,1.9s0.7,1.9,0.7,3.1c0,0.8-0.1,1.6-0.4,2.3
			c-0.3,0.7-0.7,1.3-1.1,1.7s-1,0.8-1.6,1s-1.5,0.3-2.9,0.3h-2.5V62.5z M35.6,64.5v6.8h1c0.9,0,1.6-0.1,2-0.3c0.4-0.2,0.8-0.6,1-1.1
			c0.3-0.5,0.4-1.1,0.4-1.9c0-1.1-0.3-2-1-2.7c-0.6-0.6-1.5-0.9-2.8-0.9H35.6z"/>
		<path style="fill:#FFFFFF;" d="M44.1,62.5h2.2c1.2,0,2,0.1,2.5,0.3c0.5,0.2,0.9,0.6,1.2,1.1c0.3,0.5,0.5,1.1,0.5,1.7
			c0,0.8-0.2,1.4-0.6,1.9c-0.4,0.5-0.9,0.8-1.6,1c-0.4,0.1-1.1,0.2-2.2,0.2v4.6h-2.1V62.5z M46.1,66.7h0.7c0.5,0,0.9,0,1.1-0.1
			c0.2-0.1,0.4-0.2,0.5-0.4c0.1-0.2,0.2-0.4,0.2-0.6c0-0.4-0.2-0.7-0.5-0.9c-0.2-0.1-0.7-0.2-1.3-0.2h-0.6V66.7z"/>
	</g>
	<g>
		<g>
			<path d="M64.4,44.2c-3.9,0-7.8,0-11.7,0.1L41,44.6c-7.8,0.2-15.6,0.2-23.3,0.1l-5.8-0.1l-2.9,0l-1.5,0l-0.7,0
				c-0.1,0-0.4,0-0.5-0.1c-0.2-0.1-0.3-0.2-0.4-0.3c-0.1-0.2-0.2-0.3-0.2-0.5c0-0.2,0-0.3,0-0.4l0-0.7l0-1.5L5.7,38l0-5.8
				c0-3.9,0-7.8,0-11.7c0-1.9,0-3.9-0.1-5.8l0-2.9l0-1.5l0-0.4c0-0.2,0-0.4,0.1-0.5c0.2-0.3,0.5-0.5,0.9-0.5
				C14.4,8.7,22.2,8.7,30,8.6c7.8-0.1,15.6-0.1,23.3-0.1l5.8,0l2.9,0l1.5,0l0.7,0l0.1,0c0.1,0,0.1,0,0.2,0c0.1,0,0.2,0.1,0.3,0.1
				c0.2,0.1,0.4,0.2,0.6,0.4c0.1,0.2,0.2,0.4,0.3,0.7c0,0.1,0,0.1,0,0.2l0,0.1l0,0.2l0,0.7l0,1.5l0,2.9l-0.1,5.8l-0.3,11.7
				c-0.1,1.9,0,3.9-0.1,5.8l0,2.9l0,1.5c0,0.2,0,0.5-0.1,0.8C64.9,44.1,64.6,44.2,64.4,44.2z M64.4,44.1c0.2,0,0.4-0.1,0.5-0.3
				c0.1-0.2,0.1-0.4,0.1-0.7l0-1.5l0-2.9c0-1.9,0-3.9-0.1-5.8l-0.3-11.7l-0.1-5.8l0-2.9l0-1.5l0-0.7l0-0.2l0-0.1c0,0,0,0,0,0
				c0,0,0,0,0,0l-11.1,0c-7.8,0-15.6,0-23.3-0.1c-7.8,0-15.6-0.1-23.3-0.3c-0.1,0-0.2,0.1-0.3,0.2c0,0.1,0,0.1,0,0.2l0,0.4l0,1.5
				l0,2.9c0,1.9,0,3.9-0.1,5.8c0,3.9,0,7.8,0,11.7l0,5.8L6.3,41l0,1.5l0,0.7c0,0.1,0,0.3,0,0.3c0,0.1,0,0.1,0.1,0.1
				c0.1,0.1,0.1,0.1,0.3,0.1l0.7,0l1.5,0l2.9,0l5.8-0.1c7.8-0.1,15.6,0,23.3,0.1l11.7,0.3C56.6,44,60.5,44,64.4,44.1z"/>
		</g>
		<line style="fill:none;stroke:#000000;stroke-width:0.4869;stroke-miterlimit:10;" x1="35.5" y1="44.1" x2="35.5" y2="52.2"/>
		<line style="fill:none;stroke:#000000;stroke-width:0.4869;stroke-miterlimit:10;" x1="24" y1="52.5" x2="46.5" y2="52.1"/>
		<g>
			<path style="fill:#E59B3A;" d="M15.2,13.6h1.9l3,11.9h-2.2L17.3,23h-4.7l-1.4,2.5H8.8L15.2,13.6z M16.7,20.9l-1-3.9l-2.1,3.9
				H16.7z"/>
			<path style="fill:#E59B3A;" d="M29.3,16.7h2.2l-1.2,8.8h-2.1l0.1-0.9c-0.5,0.4-0.9,0.7-1.3,0.9s-0.9,0.3-1.4,0.3
				c-1.2,0-2.1-0.4-2.8-1.3s-1-1.9-1-3c0-0.9,0.2-1.7,0.7-2.5c0.4-0.8,1-1.4,1.8-1.8c0.7-0.4,1.5-0.7,2.3-0.7c0.5,0,1,0.1,1.5,0.4
				c0.5,0.3,0.8,0.6,1.1,1.1L29.3,16.7z M26.1,23.8c0.5,0,1-0.1,1.4-0.4c0.4-0.2,0.7-0.6,1-1.1s0.4-1,0.4-1.6c0-0.7-0.2-1.3-0.6-1.7
				c-0.4-0.4-0.9-0.6-1.6-0.6c-0.8,0-1.4,0.3-2,0.9s-0.8,1.3-0.8,2.2c0,0.7,0.2,1.2,0.6,1.7C24.9,23.6,25.4,23.8,26.1,23.8z"/>
		</g>
		<rect x="11.5" y="34" width="9.2" height="4.4"/>
		<rect x="23.7" y="34" style="fill:#E59B3A;" width="9.2" height="4.4"/>
		<rect x="36" y="34" width="9.2" height="4.4"/>
		<rect x="48.2" y="34" style="fill:#E59B3A;" width="9.2" height="4.4"/>
	</g>
</g>
</svg>
