<?xml version="1.0" encoding="utf-8"?>
<!-- Generator: Adobe Illustrator 21.0.2, SVG Export Plug-In . SVG Version: 6.00 Build 0)  -->
<svg version="1.1" xmlns="http://www.w3.org/2000/svg" xmlns:xlink="http://www.w3.org/1999/xlink" x="0px" y="0px"
	 viewBox="0 0 71 80" style="enable-background:new 0 0 71 80;" xml:space="preserve">
<g id="shortcut">
</g>
<g id="file">
	<g>
		
			<polygon style="fill:#FFFFFF;stroke:#000000;stroke-width:1.7618;stroke-linecap:round;stroke-linejoin:round;stroke-miterlimit:10;" points="
			23.2,5 7,64.7 50.2,76.4 64,25.4 57.1,14.3 		"/>
		
			<polyline style="fill:#FFFFFF;stroke:#000000;stroke-width:1.8481;stroke-linecap:round;stroke-linejoin:round;stroke-miterlimit:10;" points="
			63.7,25.4 53.6,22.6 55.8,14.4 		"/>
		
			<line style="fill:none;stroke:#000000;stroke-width:1.7622;stroke-linecap:round;stroke-linejoin:round;stroke-miterlimit:10;" x1="40.4" y1="22.9" x2="57.6" y2="27.5"/>
		
			<line style="fill:none;stroke:#000000;stroke-width:1.7622;stroke-linecap:round;stroke-linejoin:round;stroke-miterlimit:10;" x1="22.6" y1="29.3" x2="54.8" y2="38"/>
		
			<line style="fill:none;stroke:#000000;stroke-width:1.7622;stroke-linecap:round;stroke-linejoin:round;stroke-miterlimit:10;" x1="19.8" y1="39.7" x2="51.9" y2="48.4"/>
		
			<line style="fill:none;stroke:#000000;stroke-width:1.7622;stroke-linecap:round;stroke-linejoin:round;stroke-miterlimit:10;" x1="17" y1="50.2" x2="49.1" y2="58.9"/>
		
			<line style="fill:none;stroke:#000000;stroke-width:1.7622;stroke-linecap:round;stroke-linejoin:round;stroke-miterlimit:10;" x1="14.1" y1="60.7" x2="38.4" y2="67.2"/>
		<g>
			<path style="fill:#128BC7;" d="M34.3,14l-2.9,10.6c0,0.1-0.1,0.2-0.1,0.3c0,0.1,0,0.2,0.1,0.3c0.1,0.1,0.2,0.2,0.3,0.3
				c0.1,0.1,0.3,0.2,0.6,0.3c0.2,0.1,0.3,0.2,0.2,0.4c0,0,0,0.1-0.1,0.2c0,0.1-0.1,0.1-0.1,0.2c-0.4-0.1-0.9-0.3-1.4-0.4
				c-0.5-0.2-0.9-0.3-1.3-0.4c-0.4-0.1-0.8-0.2-1.3-0.3c-0.5-0.1-0.9-0.2-1.4-0.3c0-0.1,0-0.1,0-0.2c0-0.1,0-0.1,0-0.2
				c0-0.1,0.1-0.2,0.1-0.2c0-0.1,0.2-0.1,0.3-0.1c0.5,0.1,0.9,0.1,1,0c0.2-0.1,0.3-0.3,0.3-0.5l2.9-10.6L30,12.9
				c-0.4-0.1-0.7-0.2-1-0.2c-0.3,0-0.5,0.1-0.8,0.2c-0.2,0.1-0.5,0.3-0.7,0.5c-0.2,0.2-0.5,0.5-0.7,0.8c-0.1,0.1-0.2,0.1-0.4,0.1
				c-0.1,0-0.2-0.1-0.3-0.1c-0.1-0.1-0.2-0.1-0.2-0.2c0.2-0.3,0.3-0.6,0.5-0.8c0.1-0.2,0.3-0.5,0.4-0.7c0.1-0.3,0.3-0.6,0.3-0.8
				c0.1-0.2,0.2-0.4,0.2-0.5c0.1-0.1,0.2-0.1,0.4-0.1c0.1,0,0.4,0.1,0.9,0.3c0.4,0.2,0.9,0.3,1.6,0.5l6.2,1.7
				c0.6,0.2,1.1,0.3,1.6,0.4c0.4,0.1,0.8,0.1,0.9,0.2c0.1,0,0.2,0.1,0.3,0.3c0,0.1,0,0.3-0.1,0.5c0,0.2-0.1,0.5-0.1,0.9
				c0,0.3,0,0.5-0.1,0.8c0,0.3,0,0.6,0,0.9c-0.1,0-0.2,0-0.3,0c-0.1,0-0.2,0-0.3,0c-0.1,0-0.2-0.1-0.3-0.3c-0.1-0.4-0.1-0.7-0.2-1
				s-0.2-0.5-0.4-0.7c-0.2-0.2-0.3-0.4-0.6-0.5c-0.2-0.1-0.5-0.3-0.9-0.4L34.3,14z"/>
		</g>
	</g>
	<rect x="0" y="57.7" style="fill:#128BC7;" width="71" height="23"/>
	<g>
		<path style="fill:#FFFFFF;" d="M25.2,62.9c1.5,0,2.8,0.6,3.9,1.7c1.1,1.1,1.6,2.4,1.6,4c0,1.6-0.5,2.9-1.6,4
			c-1.1,1.1-2.4,1.6-3.9,1.6c-1.6,0-3-0.6-4-1.7c-1.1-1.1-1.6-2.4-1.6-4c0-1,0.2-2,0.7-2.8s1.2-1.5,2.1-2.1
			C23.2,63.2,24.2,62.9,25.2,62.9z M25.1,64.9c-1,0-1.8,0.3-2.5,1s-1,1.6-1,2.6c0,1.2,0.4,2.1,1.3,2.8c0.7,0.5,1.4,0.8,2.3,0.8
			c1,0,1.8-0.4,2.5-1.1c0.7-0.7,1-1.6,1-2.6c0-1-0.3-1.9-1-2.6C27,65.3,26.1,64.9,25.1,64.9z"/>
		<path style="fill:#FFFFFF;" d="M32.7,63.2h2.4c1.6,0,2.7,0.2,3.5,0.6c0.8,0.4,1.4,1,1.9,1.9s0.7,1.9,0.7,3.1
			c0,0.8-0.1,1.6-0.4,2.3c-0.3,0.7-0.7,1.3-1.1,1.7s-1,0.8-1.6,1S36.5,74,35.2,74h-2.5V63.2z M34.7,65.2V72h1c0.9,0,1.6-0.1,2-0.3
			c0.4-0.2,0.8-0.6,1-1.1s0.4-1.1,0.4-1.9c0-1.1-0.3-2-1-2.7c-0.6-0.6-1.5-0.9-2.8-0.9H34.7z"/>
		<path style="fill:#FFFFFF;" d="M42.1,63.2h6v2h-2V74H44v-8.8h-1.9V63.2z"/>
	</g>
</g>
</svg>
