<?xml version="1.0" encoding="utf-8"?>
<!-- Generator: Adobe Illustrator 21.0.2, SVG Export Plug-In . SVG Version: 6.00 Build 0)  -->
<svg version="1.1" xmlns="http://www.w3.org/2000/svg" xmlns:xlink="http://www.w3.org/1999/xlink" x="0px" y="0px"
	 viewBox="0 0 71 80" style="enable-background:new 0 0 71 80;" xml:space="preserve">
<g id="shortcut">
</g>
<g id="file">
	<g>
		<g>
			
				<polygon style="fill:none;stroke:#000000;stroke-width:1.4276;stroke-linecap:round;stroke-linejoin:round;stroke-miterlimit:10;" points="
				56.2,11.2 51.2,23.9 66,29.7 			"/>
			
				<polygon style="fill:none;stroke:#000000;stroke-width:1.4276;stroke-linecap:round;stroke-linejoin:round;stroke-miterlimit:10;" points="
				56.5,11.4 28.2,0.3 5,59.5 47.7,76.3 66.2,29.1 			"/>
		</g>
		
			<line style="fill:none;stroke:#60439A;stroke-width:3;stroke-linejoin:round;stroke-miterlimit:10;stroke-dasharray:6;" x1="34.4" y1="3.4" x2="33.2" y2="6.7"/>
		
			<line style="fill:none;stroke:#60439A;stroke-width:3;stroke-linejoin:round;stroke-miterlimit:10;stroke-dasharray:6;" x1="32.3" y1="8.9" x2="31.1" y2="12.2"/>
		
			<line style="fill:none;stroke:#60439A;stroke-width:3;stroke-linejoin:round;stroke-miterlimit:10;stroke-dasharray:6;" x1="30.2" y1="14.5" x2="29" y2="17.8"/>
		
			<line style="fill:none;stroke:#60439A;stroke-width:3;stroke-linejoin:round;stroke-miterlimit:10;stroke-dasharray:6;" x1="37.3" y1="7.5" x2="36.1" y2="10.8"/>
		
			<line style="fill:none;stroke:#60439A;stroke-width:3;stroke-linejoin:round;stroke-miterlimit:10;stroke-dasharray:6;" x1="35.1" y1="13.4" x2="33.8" y2="16.7"/>
		
			<line style="fill:none;stroke:#60439A;stroke-width:3;stroke-linejoin:round;stroke-miterlimit:10;stroke-dasharray:6;" x1="33.3" y1="18.2" x2="32" y2="21.5"/>
		<path style="fill:#60439A;stroke:#60439A;stroke-width:1.0467;stroke-miterlimit:10;" d="M32.3,31.3l1.5-10.9
			c0-0.3-0.1-0.5-0.4-0.6l-4.9-1.8c-0.3-0.1-0.6,0-0.7,0.2l-6.2,8.2c-0.9,1.2-0.9,2.9,0,4.2c3.2,4.7,7,3.9,9.1,3
			C31.6,33.1,32.2,32.3,32.3,31.3z M25.3,33.2c-2.7-1-4.4-3.1-3.8-4.6s3.2-1.9,5.9-0.9c2.7,1,4.4,3.1,3.8,4.6
			C30.6,33.8,27.9,34.2,25.3,33.2z"/>
	</g>
	<rect x="0" y="56.7" style="fill:#60439A;" width="71" height="23"/>
	<g>
		<path style="fill:#FFFFFF;" d="M22.6,62.2h2.2c1.2,0,2,0.1,2.5,0.3c0.5,0.2,0.9,0.6,1.2,1.1s0.5,1.1,0.5,1.8
			c0,0.7-0.2,1.3-0.5,1.8c-0.3,0.5-0.9,0.8-1.5,1.1l2.6,4.8h-2.2l-2.4-4.6h-0.2V73h-2.1V62.2z M24.7,66.4h0.6c0.7,0,1.1-0.1,1.3-0.3
			c0.2-0.2,0.4-0.5,0.4-0.9c0-0.2-0.1-0.4-0.2-0.6s-0.3-0.3-0.5-0.4c-0.2-0.1-0.6-0.1-1.1-0.1h-0.6V66.4z"/>
		<path style="fill:#FFFFFF;" d="M34.5,62.2h2.1L40.7,73h-2.1l-0.8-2.2h-4.4L32.4,73h-2.1L34.5,62.2z M35.5,65.1l-1.4,3.7H37
			L35.5,65.1z"/>
		<path style="fill:#FFFFFF;" d="M42.4,62.2h2.2c1.2,0,2,0.1,2.5,0.3c0.5,0.2,0.9,0.6,1.2,1.1s0.5,1.1,0.5,1.8
			c0,0.7-0.2,1.3-0.5,1.8c-0.3,0.5-0.9,0.8-1.5,1.1l2.6,4.8h-2.2l-2.4-4.6h-0.2V73h-2.1V62.2z M44.5,66.4h0.6c0.7,0,1.1-0.1,1.3-0.3
			c0.2-0.2,0.4-0.5,0.4-0.9c0-0.2-0.1-0.4-0.2-0.6s-0.3-0.3-0.5-0.4c-0.2-0.1-0.6-0.1-1.1-0.1h-0.6V66.4z"/>
	</g>
</g>
</svg>
