<svg id="acb57ce1-812c-4ea9-a3d6-a755fab3767b" data-name="resources" xmlns="http://www.w3.org/2000/svg" viewBox="0 0 134 134">
  <defs>
    <style>
      .a763361d-3fa7-4c82-bbb7-8cb512a7fd89 {
        fill: var(--secondary-color);
        stroke: var(--secondary-color);
      }

      .a763361d-3fa7-4c82-bbb7-8cb512a7fd89, .af7426b9-d3ef-47b3-a429-a713cb3d950c {
        stroke-miterlimit: 10;
        stroke-width: 4px;
        fill-rule: evenodd;
      }

      .af7426b9-d3ef-47b3-a429-a713cb3d950c {
        fill: #fff;
        stroke: var(--primary-color);
      }

      .e167d3f9-7f29-477d-b27b-a3ff8e566f3d {
        fill: var(--primary-color);
      }
    </style>
  </defs>
  <g id="e4d95f44-9ece-43fd-bbe0-e4061485415f" data-name="Custom">
    <g id="fa1252bb-fb9f-4b88-b92f-7fd15cde70c4" data-name="WebResource">
      <g>
        <path class="a763361d-3fa7-4c82-bbb7-8cb512a7fd89" d="M47.75,111.48H13.91a11.47,11.47,0,0,1-8.31-3.22,11.26,11.26,0,0,1-3.5-7.52C2,99.92,2,99.09,2,98.27Q2,70.8,2,43.35A11.5,11.5,0,0,1,6.8,33.62a11.2,11.2,0,0,1,6.84-2.22c6.87,0,40.37,0,40.37,0L71.13,42.86s31.56-.06,40.24,0A11.6,11.6,0,0,1,123.1,54.69q0,22.46,0,44.93a11.46,11.46,0,0,1-8.84,11.5,13.37,13.37,0,0,1-3.16.35C99.83,111.49,59,111.48,47.75,111.48Z"/>
        <path class="af7426b9-d3ef-47b3-a429-a713cb3d950c" d="M56.61,102.62H22.77a11.45,11.45,0,0,1-8.3-3.23A11.19,11.19,0,0,1,11,91.87c-.06-.82-.07-1.65-.07-2.47q0-27.47,0-54.92a11.54,11.54,0,0,1,4.77-9.74,11.32,11.32,0,0,1,6.84-2.21c6.87,0,40.36,0,40.36,0L80,34s31.56-.06,40.25,0a11.27,11.27,0,0,1,10.58,6.56A11.51,11.51,0,0,1,132,45.82q0,22.46,0,44.94a11.45,11.45,0,0,1-8.84,11.49,13.37,13.37,0,0,1-3.16.35C108.69,102.62,67.89,102.62,56.61,102.62Z"/>
      </g>
      <path class="e167d3f9-7f29-477d-b27b-a3ff8e566f3d" d="M79.87,40.45A29.38,29.38,0,0,0,40.5,54.2a29.78,29.78,0,0,0-1.41,22.45A29.48,29.48,0,0,0,94.8,57.37,28.69,28.69,0,0,0,79.87,40.45ZM92,56.9,81.17,60.67a53.48,53.48,0,0,0-6-11.52,31.35,31.35,0,0,0,4.35-6A27.3,27.3,0,0,1,92,56.9ZM68.83,67.83l10.81-3.76a45.16,45.16,0,0,1,2.23,11.64A27.66,27.66,0,0,0,72,76.88Zm8.46-25.62a24.83,24.83,0,0,1-3.76,4.94,15.36,15.36,0,0,0-2.7-2.82,19.59,19.59,0,0,0-5.53-3.88,23.48,23.48,0,0,1,12,1.76Zm-17.63-.7c2.7-.35,6.11,1.29,9.4,4.47.94.93,1.77,1.87,2.71,2.81a28.7,28.7,0,0,1-7.88,4.94Zm13.51,9.64a51.38,51.38,0,0,1,5.41,10.46L67.77,65.37l-3.06-9.05a32.82,32.82,0,0,0,8.46-5.17Zm-7.75,15L54.49,70a48,48,0,0,1-2.23-11.64,27.72,27.72,0,0,0,9.87-1.17l3.29,9ZM57.19,42.45l4.23,12.22a26.8,26.8,0,0,1-9.16,1.06,21.21,21.21,0,0,1,.35-3.88c.59-4.7,2.23-7.87,4.58-9.4Zm-5.41,2.47a20.82,20.82,0,0,0-1.88,6.46c-.23,1.29-.23,2.7-.35,3.88a25.15,25.15,0,0,1-5.87-1.65,28.42,28.42,0,0,1,8.1-8.69ZM42.5,56.08a29.3,29.3,0,0,0,7.17,2,46.49,46.49,0,0,0,2.47,12.69L41.33,74.53A26.93,26.93,0,0,1,42.5,56.08ZM42.15,77,53,73.24a54.94,54.94,0,0,0,6,11.63,28.22,28.22,0,0,0-4.34,6A27,27,0,0,1,42.15,77ZM57,91.93A24.47,24.47,0,0,1,60.6,87a30.59,30.59,0,0,0,2.7,2.82,22.85,22.85,0,0,0,5.53,4A28.74,28.74,0,0,1,57,91.93Zm17.51.47c-2.7.35-6.11-1.3-9.4-4.47a19,19,0,0,1-2.59-2.82,25.91,25.91,0,0,1,7.87-4.82ZM61,83a53.31,53.31,0,0,1-5.4-10.58l10.69-3.76,3.17,9.17A27.19,27.19,0,0,0,61,83Zm16,8.46-4.12-12A27.07,27.07,0,0,1,82,78.41a22.13,22.13,0,0,1-.35,3.88c-.71,4.47-2.24,7.76-4.7,9.17ZM82.34,89a17.51,17.51,0,0,0,1.76-6.47,21.12,21.12,0,0,0,.36-3.87,27.27,27.27,0,0,1,5.87,1.64,24.61,24.61,0,0,1-8,8.7Zm9.29-11a25,25,0,0,0-7.17-1.88A52.9,52.9,0,0,0,82,63.25L92.8,59.49A26.31,26.31,0,0,1,91.63,77.94Z"/>
    </g>
  </g>
</svg>
