<svg id="e9513e41-3dd1-4511-9704-31c7c36135d9" data-name="resources" xmlns="http://www.w3.org/2000/svg" viewBox="0 0 134 134">
  <defs>
    <style>
      .e2510812-3003-4d6e-b93b-5344ef04cd35 {
        fill: var(--secondary-color);
      }

      .e4f9bb99-dfe8-4833-815e-7fe956d651b4 {
        fill: #fff;
      }

      .ebe6ad3f-c2e8-40d2-8cb9-4274e1ef728d {
        fill: var(--primary-color);
      }
    </style>
  </defs>
  <g id="af61a671-bde3-44c2-90a0-c6ca15b14f61" data-name="Files">
    <g>
      <g>
        <polygon class="e2510812-3003-4d6e-b93b-5344ef04cd35" points="87.95 134.1 10.58 113.37 38.83 7.91 99.39 24.14 111.89 44.75 87.95 134.1"/>
        <polygon class="e4f9bb99-dfe8-4833-815e-7fe956d651b4" points="53.56 2.67 26.34 104.27 99.85 123.96 123.05 37.37 111.42 18.17 53.56 2.67"/>
        <g>
          <polygon class="ebe6ad3f-c2e8-40d2-8cb9-4274e1ef728d" points="49.24 51.71 64.85 42.35 71.64 52.08 93.49 39.23 108.17 64.38 103.03 83.29 44.47 68.05 45.94 62.36 49.24 51.71"/>
          <path class="ebe6ad3f-c2e8-40d2-8cb9-4274e1ef728d" d="M59.7,29.42a6.79,6.79,0,1,1,4.84,8.29A6.79,6.79,0,0,1,59.7,29.42Z"/>
        </g>
        <path class="ebe6ad3f-c2e8-40d2-8cb9-4274e1ef728d" d="M101.26,126.41,23.89,105.68,52.15.22l60.56,16.23L125.2,37.06ZM28.79,102.85l69.64,18.66L120.9,37.68,110.12,19.89,55,5.12Z"/>
      </g>
      <g>
        <rect class="ebe6ad3f-c2e8-40d2-8cb9-4274e1ef728d" y="92" width="134" height="42"/>
        <g>
          <path class="e4f9bb99-dfe8-4833-815e-7fe956d651b4" d="M40.58,102h4v13a12.25,12.25,0,0,1-.57,4.38,4.5,4.5,0,0,1-1.69,2,4.67,4.67,0,0,1-2.84.73,6.74,6.74,0,0,1-5.66-2.92l2.83-2.56a4.39,4.39,0,0,0,1.51,1.28,3.7,3.7,0,0,0,1.32.37,1.06,1.06,0,0,0,1-.55,5.09,5.09,0,0,0,.38-2.19V102Z"/>
          <path class="e4f9bb99-dfe8-4833-815e-7fe956d651b4" d="M49.07,102h4.15a14.22,14.22,0,0,1,4.72.55,4.84,4.84,0,0,1,2.27,2,6.06,6.06,0,0,1,.94,3.1A5.17,5.17,0,0,1,60,111.17,5.6,5.6,0,0,1,57,113a18.81,18.81,0,0,1-4.16.36v8.41h-4V102Zm3.77,7.67h1.33a6.09,6.09,0,0,0,2.07-.18,1.9,1.9,0,0,0,.95-.73,2.61,2.61,0,0,0,.37-1.1,1.89,1.89,0,0,0-.94-1.64,6.84,6.84,0,0,0-2.45-.36H53v4Z"/>
          <path class="e4f9bb99-dfe8-4833-815e-7fe956d651b4" d="M64.92,102H76.06v3.66H68.89v3.46h7.17v3.66H68.89v5.11h7.17v3.65H64.92Z"/>
          <path class="e4f9bb99-dfe8-4833-815e-7fe956d651b4" d="M98.33,105.15l-2.64,2.74a8.08,8.08,0,0,0-6-2.74,7.42,7.42,0,0,0-5.1,2,5.53,5.53,0,0,0-2.07,4.56,6.53,6.53,0,0,0,2.07,4.75,7.55,7.55,0,0,0,5.29,2,6.59,6.59,0,0,0,3.39-.73,6.13,6.13,0,0,0,2.27-2.56H89.65v-3.47H99.84v.91a9.69,9.69,0,0,1-1.32,4.93A8.12,8.12,0,0,1,94.93,121a11.64,11.64,0,0,1-5.09,1.27A11.77,11.77,0,0,1,84.17,121a10,10,0,0,1-4-3.84,10.77,10.77,0,0,1-1.51-5.3,9.78,9.78,0,0,1,2.65-6.75,10.46,10.46,0,0,1,8.3-3.47,14.45,14.45,0,0,1,4.9.91A8.16,8.16,0,0,1,98.33,105.15Z"/>
        </g>
      </g>
    </g>
  </g>
</svg>
