<svg id="b88c7e84-685a-4f46-afc5-6fe16bff4590" data-name="resources" xmlns="http://www.w3.org/2000/svg" viewBox="0 0 134 134">
  <defs>
    <style>
      .b5b7e5c0-e1ea-4ccc-8b84-aae075f58f2f {
        fill: var(--secondary-color);
      }

      .a0753cfb-6bf4-4cc7-a470-af90c3047dcd {
        fill: #fff;
      }

      .eec79189-eee4-49cd-8a4c-bf88ef722259 {
        fill: var(--primary-color);
      }
    </style>
  </defs>
  <g id="bdabf58e-ff35-47cb-8c5c-4b95f960dfe1" data-name="Files">
    <g>
      <g>
        <polygon class="b5b7e5c0-e1ea-4ccc-8b84-aae075f58f2f" points="87.06 134.1 9.68 113.37 37.94 7.91 98.5 24.14 111 44.75 87.06 134.1"/>
        <polygon class="a0753cfb-6bf4-4cc7-a470-af90c3047dcd" points="52.67 2.67 25.45 104.27 98.96 123.96 122.16 37.37 110.53 18.17 52.67 2.67"/>
        <g>
          <polygon class="eec79189-eee4-49cd-8a4c-bf88ef722259" points="48.35 51.71 63.96 42.35 70.75 52.08 92.6 39.23 107.28 64.38 102.14 83.29 43.58 68.05 45.05 62.36 48.35 51.71"/>
          <path class="eec79189-eee4-49cd-8a4c-bf88ef722259" d="M58.81,29.42a6.79,6.79,0,1,1,4.84,8.29A6.79,6.79,0,0,1,58.81,29.42Z"/>
        </g>
        <path class="eec79189-eee4-49cd-8a4c-bf88ef722259" d="M100.37,126.41,23,105.68,51.26.22l60.56,16.23,12.49,20.61ZM27.9,102.85l69.64,18.66L120,37.68,109.23,19.89,54.09,5.12Z"/>
      </g>
      <g>
        <rect class="eec79189-eee4-49cd-8a4c-bf88ef722259" y="92" width="134" height="42"/>
        <g>
          <path class="a0753cfb-6bf4-4cc7-a470-af90c3047dcd" d="M40,102h4.15a14.22,14.22,0,0,1,4.72.55,4.77,4.77,0,0,1,2.26,2,6,6,0,0,1,1,3.1,5.17,5.17,0,0,1-1.13,3.47,5.6,5.6,0,0,1-3,1.83,18.77,18.77,0,0,1-4.15.36v8.41h-4V102Zm3.78,7.67h1.32a6.09,6.09,0,0,0,2.07-.18,1.9,1.9,0,0,0,1-.73,2.61,2.61,0,0,0,.37-1.1,1.89,1.89,0,0,0-.94-1.64,6.84,6.84,0,0,0-2.45-.36H44v4Z"/>
          <path class="a0753cfb-6bf4-4cc7-a470-af90c3047dcd" d="M92.69,105.15,90,107.89a8,8,0,0,0-6-2.74,7.42,7.42,0,0,0-5.1,2,5.54,5.54,0,0,0-2.08,4.56,6.54,6.54,0,0,0,2.08,4.75,7.54,7.54,0,0,0,5.28,2,6.6,6.6,0,0,0,3.4-.73,6.13,6.13,0,0,0,2.27-2.56H84v-3.47H94.2v.91a9.69,9.69,0,0,1-1.32,4.93A8.17,8.17,0,0,1,89.29,121a12,12,0,0,1-10.76,0,9.89,9.89,0,0,1-4-3.84,10.77,10.77,0,0,1-1.51-5.3,9.82,9.82,0,0,1,2.64-6.75A10.5,10.5,0,0,1,84,101.68a14.54,14.54,0,0,1,4.9.91A8.21,8.21,0,0,1,92.69,105.15Z"/>
          <polygon class="a0753cfb-6bf4-4cc7-a470-af90c3047dcd" points="66.65 101.92 66.65 114.62 59.79 101.92 59.6 101.92 55.84 101.92 55.84 121.58 59.6 121.58 59.6 108.76 66.65 121.58 66.65 121.58 70.42 121.58 70.42 101.92 66.65 101.92"/>
        </g>
      </g>
    </g>
  </g>
</svg>
