<svg id="ba492bab-1d87-49a4-abd7-e1ea1bd75014" data-name="resources" xmlns="http://www.w3.org/2000/svg" viewBox="0 0 134 134">
  <defs>
    <style>
      .b755e578-551f-404c-87fc-e7ed87066006 {
        fill: var(--secondary-color);
      }

      .ba5917a2-70e1-4c33-a107-3287f083846f {
        fill: #fff;
      }

      .af109042-56c4-4f63-ae26-789ced5899db {
        fill: var(--primary-color);
      }
    </style>
  </defs>
  <g id="f880beb8-7f27-4986-978e-4e67f011b37a" data-name="Files">
    <g>
      <g>
        <polygon class="b755e578-551f-404c-87fc-e7ed87066006" points="87.95 134.1 10.58 113.37 38.84 7.91 99.39 24.14 111.89 44.75 87.95 134.1"/>
        <polygon class="ba5917a2-70e1-4c33-a107-3287f083846f" points="53.57 2.67 26.34 104.27 99.85 123.96 123.05 37.37 111.42 18.17 53.57 2.67"/>
        <g>
          <polygon class="af109042-56c4-4f63-ae26-789ced5899db" points="49.24 51.71 64.85 42.35 71.64 52.08 93.49 39.23 108.18 64.38 103.03 83.29 44.47 68.05 45.94 62.36 49.24 51.71"/>
          <path class="af109042-56c4-4f63-ae26-789ced5899db" d="M59.7,29.42a6.79,6.79,0,1,1,4.85,8.29A6.79,6.79,0,0,1,59.7,29.42Z"/>
        </g>
        <path class="af109042-56c4-4f63-ae26-789ced5899db" d="M101.26,126.41,23.89,105.68,52.15.22l60.56,16.23,12.5,20.61ZM28.79,102.85l69.65,18.66L120.9,37.68,110.12,19.89,55,5.12Z"/>
      </g>
      <g>
        <rect class="af109042-56c4-4f63-ae26-789ced5899db" y="92" width="134" height="42"/>
        <g>
          <path class="ba5917a2-70e1-4c33-a107-3287f083846f" d="M43.53,101.89H54.85v3.65H51.08v16.07h-4V105.54H43.53Z"/>
          <path class="ba5917a2-70e1-4c33-a107-3287f083846f" d="M57.12,101.89h3.77v19.72H57.12Z"/>
          <path class="ba5917a2-70e1-4c33-a107-3287f083846f" d="M65.42,101.89h10v3.65H69.2v3.66h6.22v3.65H69.2v8.76H65.42Z"/>
          <path class="ba5917a2-70e1-4c33-a107-3287f083846f" d="M79,101.89H89v3.65H82.79v3.66H89v3.65H82.79v8.76H79Z"/>
        </g>
      </g>
    </g>
  </g>
</svg>
