<svg id="b6dac2d8-592a-4a24-94c7-cbfa51166295" data-name="resources" xmlns="http://www.w3.org/2000/svg" viewBox="0 0 134 134">
  <defs>
    <style>
      .bb3ebe71-116a-4202-980c-60158317284a {
        fill: var(--secondary-color);
      }

      .ac32c369-9f06-4116-aa57-29dd7eec97aa {
        fill: #fff;
      }

      .b9d48990-8344-4d40-a9cf-e740eba398d0 {
        fill: var(--primary-color);
      }
    </style>
  </defs>
  <g id="b51528ab-4a90-474d-a44a-c2768920a158" data-name="Files">
    <g>
      <g>
        <polygon class="bb3ebe71-116a-4202-980c-60158317284a" points="87.95 134.1 10.58 113.37 38.83 7.91 99.39 24.14 111.89 44.75 87.95 134.1"/>
        <polygon class="ac32c369-9f06-4116-aa57-29dd7eec97aa" points="53.57 2.67 26.34 104.27 99.85 123.96 123.05 37.37 111.42 18.17 53.57 2.67"/>
        <g>
          <polygon class="b9d48990-8344-4d40-a9cf-e740eba398d0" points="49.24 51.71 64.85 42.35 71.64 52.08 93.49 39.23 108.18 64.38 103.03 83.29 44.47 68.05 45.94 62.36 49.24 51.71"/>
          <path class="b9d48990-8344-4d40-a9cf-e740eba398d0" d="M59.7,29.42a6.79,6.79,0,1,1,4.84,8.29A6.79,6.79,0,0,1,59.7,29.42Z"/>
        </g>
        <path class="b9d48990-8344-4d40-a9cf-e740eba398d0" d="M101.26,126.41,23.89,105.68,52.15.22l60.56,16.23,12.5,20.61ZM28.79,102.85l69.65,18.66L120.9,37.68,110.12,19.89,55,5.12Z"/>
      </g>
      <g>
        <rect class="b9d48990-8344-4d40-a9cf-e740eba398d0" y="92" width="134" height="42"/>
        <g>
          <path class="ac32c369-9f06-4116-aa57-29dd7eec97aa" d="M59.26,105.33l-2.64,2.56a8.08,8.08,0,0,0-6-2.74,7.45,7.45,0,0,0-5.1,2,6.47,6.47,0,0,0,0,9.49,7.44,7.44,0,0,0,5.1,2,6.65,6.65,0,0,0,3.4-.73,6.1,6.1,0,0,0,2.26-2.56H50.39V111.9H60.58v.92a9.65,9.65,0,0,1-1.32,4.93,9.24,9.24,0,0,1-3.58,3.47,11.92,11.92,0,0,1-10.76,0,9.92,9.92,0,0,1-4-3.84,10.75,10.75,0,0,1-1.5-5.29,9.84,9.84,0,0,1,2.64-6.76,10.51,10.51,0,0,1,8.3-3.47,14.8,14.8,0,0,1,4.91.91A9.78,9.78,0,0,1,59.26,105.33Z"/>
          <path class="ac32c369-9f06-4116-aa57-29dd7eec97aa" d="M64,102.23h3.78V122H64Z"/>
          <path class="ac32c369-9f06-4116-aa57-29dd7eec97aa" d="M72.29,102.23h10v3.65H76.06v3.65h6.23v3.65H76.06V122H72.29Z"/>
        </g>
      </g>
    </g>
  </g>
</svg>
