<svg id="a30e41f5-cd6c-48a5-8c7e-853a79e0c51e" data-name="resources" xmlns="http://www.w3.org/2000/svg" viewBox="0 0 134 134">
  <defs>
    <style>
      .ab39f5d4-fc72-4259-ac2a-8c33a908433b, .e8b3cd37-f98a-4f03-8ddf-b9ea387fe889 {
        fill: var(--secondary-color);
      }

      .b0dc6728-535e-4296-b638-55cff8b4576b, .e8b3cd37-f98a-4f03-8ddf-b9ea387fe889 {
        stroke: var(--secondary-color);
      }

      .b0dc6728-535e-4296-b638-55cff8b4576b, .e8b3cd37-f98a-4f03-8ddf-b9ea387fe889, .f82beb97-3704-4243-956b-3863d6097596 {
        stroke-miterlimit: 10;
      }

      .e8b3cd37-f98a-4f03-8ddf-b9ea387fe889, .f82beb97-3704-4243-956b-3863d6097596 {
        stroke-width: 4px;
      }

      .a75b5f59-8c29-4242-889f-4bc9c20bcb6f, .f82beb97-3704-4243-956b-3863d6097596 {
        fill: #fff;
      }

      .f82beb97-3704-4243-956b-3863d6097596 {
        stroke: var(--primary-color);
      }

      .b0dc6728-535e-4296-b638-55cff8b4576b {
        fill: none;
        stroke-width: 2px;
      }

      .e44a370e-71d4-440f-9724-046e613aa954 {
        fill: var(--primary-color);
      }
    </style>
  </defs>
  <g id="ea1c6d48-7a4a-4c67-bcdc-bed8759a6337" data-name="Files">
    <g>
      <g>
        <polygon class="e8b3cd37-f98a-4f03-8ddf-b9ea387fe889" points="43.23 75.5 59.42 31.3 75.23 24.34 83.7 15.88 102.86 35.04 94.4 43.5 87.44 59.32 43.23 75.5"/>
        <polygon class="f82beb97-3704-4243-956b-3863d6097596" points="55.42 63.31 71.61 19.11 87.42 12.15 95.89 3.69 115.06 22.85 106.59 31.31 99.63 47.13 55.42 63.31"/>
        <g>
          <line class="b0dc6728-535e-4296-b638-55cff8b4576b" x1="55.2" y1="96.14" x2="22.54" y2="63.48"/>
          <g>
            <rect class="ab39f5d4-fc72-4259-ac2a-8c33a908433b" x="36.69" y="77.63" width="4.36" height="4.36" transform="translate(-45.04 50.85) rotate(-44.99)"/>
            <rect class="ab39f5d4-fc72-4259-ac2a-8c33a908433b" x="84.57" y="76.54" width="6.54" height="6.55" transform="translate(-30.7 85.55) rotate(-45.03)"/>
            <rect class="ab39f5d4-fc72-4259-ac2a-8c33a908433b" x="35.6" y="27.57" width="6.54" height="6.54" transform="translate(-10.42 36.51) rotate(-44.99)"/>
            <path class="ab39f5d4-fc72-4259-ac2a-8c33a908433b" d="M54.28,95.22a2.64,2.64,0,1,1,0,3.74A2.65,2.65,0,0,1,54.28,95.22Z"/>
            <path class="ab39f5d4-fc72-4259-ac2a-8c33a908433b" d="M23.46,64.4a2.64,2.64,0,1,0-3.74,0A2.65,2.65,0,0,0,23.46,64.4Z"/>
          </g>
          <path class="b0dc6728-535e-4296-b638-55cff8b4576b" d="M87.84,79.81a34.63,34.63,0,0,1-49-49"/>
        </g>
        <path class="ab39f5d4-fc72-4259-ac2a-8c33a908433b" d="M101.31,27.7,95,42.15l-27.37,10L84,35.78a2.84,2.84,0,1,0-1-1L66.57,51.15l10-27.37L91,17.43l4.86-4.86,10.28,10.28Z"/>
      </g>
      <g>
        <rect class="e44a370e-71d4-440f-9724-046e613aa954" y="92" width="134" height="42"/>
        <g>
          <path class="a75b5f59-8c29-4242-889f-4bc9c20bcb6f" d="M13.4,102h4l5.1,14.06L27.74,102h4l-7.36,19.73H20.57Z"/>
          <path class="a75b5f59-8c29-4242-889f-4bc9c20bcb6f" d="M34.73,102H45.86v3.66H38.69v3.65h7.17V113H38.69v5.11h7.17v3.66H34.73Z"/>
          <path class="a75b5f59-8c29-4242-889f-4bc9c20bcb6f" d="M68.13,105.51l-2.64,2.56a8.77,8.77,0,0,0-6.23-2.74,6.94,6.94,0,0,0-4.9,2,6.5,6.5,0,0,0-2.08,4.75,6.92,6.92,0,0,0,.94,3.47,6.08,6.08,0,0,0,2.46,2.37,8,8,0,0,0,3.58.91,8.16,8.16,0,0,0,3-.54,9.69,9.69,0,0,0,3-2.2l2.64,2.74a12.11,12.11,0,0,1-4.34,2.93,11.87,11.87,0,0,1-4.53.91,10.44,10.44,0,0,1-7.74-2.92,9.77,9.77,0,0,1-3-7.49,10.05,10.05,0,0,1,1.33-5.3,10.68,10.68,0,0,1,4-3.65,11.72,11.72,0,0,1,5.47-1.46A12,12,0,0,1,64,103,7.51,7.51,0,0,1,68.13,105.51Z"/>
          <path class="a75b5f59-8c29-4242-889f-4bc9c20bcb6f" d="M69.64,102H81v3.66H77.19v16.07h-4V105.7H69.64Z"/>
          <path class="a75b5f59-8c29-4242-889f-4bc9c20bcb6f" d="M93,101.5a10.33,10.33,0,0,1,7.37,3.1,10.37,10.37,0,0,1,0,14.61A10.74,10.74,0,0,1,85.5,119a9.61,9.61,0,0,1-3-7.31,9.36,9.36,0,0,1,1.32-5.11,13,13,0,0,1,4-3.84A13.22,13.22,0,0,1,93,101.5Zm0,3.83a6.36,6.36,0,0,0-6.6,6.57A5.92,5.92,0,0,0,88.89,117a7.31,7.31,0,0,0,4.34,1.46,6.52,6.52,0,0,0,4.72-2,6.91,6.91,0,0,0,0-9.5A8,8,0,0,0,93,105.33Z"/>
          <path class="a75b5f59-8c29-4242-889f-4bc9c20bcb6f" d="M107.58,102h4.15a14.26,14.26,0,0,1,4.72.55,4.82,4.82,0,0,1,2.26,2,6.15,6.15,0,0,1,0,6.57,6.52,6.52,0,0,1-2.83,2l4.91,8.77h-4.15l-4.53-8.4h-.76V122h-3.77Zm3.77,7.67h1.14a3.67,3.67,0,0,0,2.45-.54,2.3,2.3,0,0,0,.75-1.65,2.62,2.62,0,0,0-.37-1.09,1.85,1.85,0,0,0-.95-.73,5.78,5.78,0,0,0-2.07-.19h-1Z"/>
        </g>
      </g>
    </g>
  </g>
</svg>
