<svg id="bbe1c348-6210-44de-9c92-4c673377ac8c" data-name="resources" xmlns="http://www.w3.org/2000/svg" viewBox="0 0 134 134">
  <defs>
    <style>
      .b2a80562-686d-414b-a825-47aef7d18ccd {
        fill: var(--secondary-color);
      }

      .a238ff72-e079-4ac0-9b84-831d1ed2bf27 {
        fill: #fff;
      }

      .f15178d6-15d1-449e-9993-07bdf615eeec {
        fill: var(--primary-color);
      }
    </style>
  </defs>
  <g id="b01724da-7861-4979-a2fe-b81017fb8a63" data-name="Files">
    <g>
      <g>
        <polygon class="b2a80562-686d-414b-a825-47aef7d18ccd" points="88.02 134.1 10.65 113.37 38.91 7.91 99.47 24.14 111.96 44.75 88.02 134.1"/>
        <polygon class="a238ff72-e079-4ac0-9b84-831d1ed2bf27" points="53.64 2.67 26.42 104.27 99.92 123.96 123.13 37.37 111.49 18.17 53.64 2.67"/>
        <g>
          <polygon class="f15178d6-15d1-449e-9993-07bdf615eeec" points="49.32 51.71 64.92 42.35 71.72 52.08 93.56 39.23 108.25 64.38 103.11 83.29 44.55 68.05 46.01 62.36 49.32 51.71"/>
          <path class="f15178d6-15d1-449e-9993-07bdf615eeec" d="M59.77,29.42a6.79,6.79,0,1,1,4.85,8.29A6.8,6.8,0,0,1,59.77,29.42Z"/>
        </g>
        <path class="f15178d6-15d1-449e-9993-07bdf615eeec" d="M101.34,126.41,24,105.68,52.23.22l60.56,16.23,12.49,20.61ZM28.87,102.85l69.64,18.66L121,37.68,110.2,19.89,55.05,5.12Z"/>
      </g>
      <g>
        <rect class="f15178d6-15d1-449e-9993-07bdf615eeec" y="92" width="134" height="42"/>
        <g>
          <path class="a238ff72-e079-4ac0-9b84-831d1ed2bf27" d="M40.39,122V102.23H43.6a21.64,21.64,0,0,1,4.15.36,5.08,5.08,0,0,1,2.83,1.83,4.4,4.4,0,0,1,1.13,2.92,3.66,3.66,0,0,1-.56,2A12.51,12.51,0,0,1,49.64,111a5.3,5.3,0,0,1,2.64,2.19,5.39,5.39,0,0,1,.94,2.92,6,6,0,0,1-.94,3.11,4.79,4.79,0,0,1-2.27,2,10.63,10.63,0,0,1-3.77.73Zm4-16.25v4.2h.76a3.11,3.11,0,0,0,2.07-.55,2.3,2.3,0,0,0,.76-1.65,2,2,0,0,0-.57-1.46,3.13,3.13,0,0,0-2.07-.54Zm0,7.48v5.12h.95a6.17,6.17,0,0,0,3.2-.55,1.76,1.76,0,0,0,.76-1.65,2.57,2.57,0,0,0-.94-2c-.57-.55-1.7-.74-3.21-.74h-.76Z"/>
          <path class="a238ff72-e079-4ac0-9b84-831d1ed2bf27" d="M58.88,102.23h3.78l4.72,13.69,4.72-13.69h3.77L79.27,122H75.49l-2.26-12.42L68.89,122h-3.4l-4.34-12.42L58.88,122H55.11Z"/>
          <path class="a238ff72-e079-4ac0-9b84-831d1ed2bf27" d="M82.29,102.23h4.15a14.37,14.37,0,0,1,4.72.54,4.77,4.77,0,0,1,2.26,2,6,6,0,0,1,1,3.11,5.15,5.15,0,0,1-1.14,3.47,5.55,5.55,0,0,1-3,1.82,18.44,18.44,0,0,1-4.15.37V122h-4V102.23Zm4,7.67h1.32a5.85,5.85,0,0,0,2.08-.19,1.82,1.82,0,0,0,.94-.73,2.51,2.51,0,0,0,.38-1.09,1.93,1.93,0,0,0-.94-1.65,6.91,6.91,0,0,0-2.46-.36H86.44v4Z"/>
        </g>
      </g>
    </g>
  </g>
</svg>
