<svg id="a315e55a-7491-415a-9cd0-b593f389eaf6" data-name="resources" xmlns="http://www.w3.org/2000/svg" viewBox="0 0 134 134">
  <defs>
    <style>
      .bcb47675-e546-4f46-af3e-67b04f8a8136, .f991791d-746d-44d8-bc10-347bbfb5aefc {
        fill: var(--secondary-color);
      }

      .bcb47675-e546-4f46-af3e-67b04f8a8136 {
        stroke: var(--secondary-color);
      }

      .bcb47675-e546-4f46-af3e-67b04f8a8136, .f658feb1-0606-4fb7-970b-e0ae3f9816ab {
        stroke-miterlimit: 10;
        stroke-width: 4px;
      }

      .b55901cd-a7cf-4da1-bb94-4b6158276b87, .f658feb1-0606-4fb7-970b-e0ae3f9816ab {
        fill: var(--primary-color);
      }

      .f658feb1-0606-4fb7-970b-e0ae3f9816ab {
        stroke: var(--primary-color);
      }

      .e764199c-cb13-4583-bcdf-7cc3331a9d6f {
        fill: #fff;
      }
    </style>
  </defs>
  <g id="ac98936e-66fe-437d-bafe-1b99a3d7492d" data-name="Files">
    <g>
      <g>
        <rect class="bcb47675-e546-4f46-af3e-67b04f8a8136" x="5.54" y="10.84" width="116.43" height="79.42"/>
        <g>
          <rect class="f658feb1-0606-4fb7-970b-e0ae3f9816ab" x="12.04" y="4.35" width="116.43" height="79.42"/>
          <rect class="e764199c-cb13-4583-bcdf-7cc3331a9d6f" x="13.52" y="70.67" width="10.62" height="11.08"/>
          <rect class="e764199c-cb13-4583-bcdf-7cc3331a9d6f" x="13.52" y="54.67" width="10.62" height="11.08"/>
          <rect class="e764199c-cb13-4583-bcdf-7cc3331a9d6f" x="13.52" y="38.52" width="10.62" height="11.08"/>
          <rect class="e764199c-cb13-4583-bcdf-7cc3331a9d6f" x="13.52" y="22.51" width="10.62" height="11.08"/>
          <rect class="e764199c-cb13-4583-bcdf-7cc3331a9d6f" x="13.52" y="6.36" width="10.62" height="11.08"/>
          <rect class="e764199c-cb13-4583-bcdf-7cc3331a9d6f" x="116.36" y="70.67" width="10.62" height="11.08"/>
          <rect class="e764199c-cb13-4583-bcdf-7cc3331a9d6f" x="116.36" y="54.67" width="10.62" height="11.08"/>
          <rect class="e764199c-cb13-4583-bcdf-7cc3331a9d6f" x="116.36" y="38.52" width="10.62" height="11.08"/>
          <rect class="e764199c-cb13-4583-bcdf-7cc3331a9d6f" x="116.36" y="22.51" width="10.62" height="11.08"/>
          <rect class="e764199c-cb13-4583-bcdf-7cc3331a9d6f" x="116.36" y="6.36" width="10.62" height="11.08"/>
          <rect class="f991791d-746d-44d8-bc10-347bbfb5aefc" x="28.17" y="6.36" width="84.16" height="75.39"/>
          <polygon class="e764199c-cb13-4583-bcdf-7cc3331a9d6f" points="54.12 68.61 54.12 18.63 91.64 43.53 54.12 68.61"/>
        </g>
      </g>
      <g>
        <rect class="b55901cd-a7cf-4da1-bb94-4b6158276b87" y="92" width="134" height="42"/>
        <g>
          <path class="e764199c-cb13-4583-bcdf-7cc3331a9d6f" d="M32.84,102.05h3.77l4.72,13.69,4.72-13.69h3.77l3.4,19.72H49.45l-2.27-12.42-4.34,12.42H39.63l-4.34-12.42L33,121.77H29.25Z"/>
          <path class="e764199c-cb13-4583-bcdf-7cc3331a9d6f" d="M56.24,102.05h4.15a14.28,14.28,0,0,1,4.72.54,4.84,4.84,0,0,1,2.27,2,6.09,6.09,0,0,1,.94,3.11,5.19,5.19,0,0,1-1.13,3.47,5.59,5.59,0,0,1-3,1.82,18,18,0,0,1-4.15.37v8.4h-4l.19-19.72Zm4,7.66h1.32a6.12,6.12,0,0,0,2.07-.18,1.78,1.78,0,0,0,.94-.73,2.51,2.51,0,0,0,.38-1.09,1.93,1.93,0,0,0-.94-1.65,6.84,6.84,0,0,0-2.45-.36H60.39l-.18,4Z"/>
          <path class="e764199c-cb13-4583-bcdf-7cc3331a9d6f" d="M72.09,102.05H83.23v3.65H76.06v3.47h7.17v3.65H76.06v5.11h7.17v3.66H72.09Z"/>
          <path class="e764199c-cb13-4583-bcdf-7cc3331a9d6f" d="M105.69,105.15l-2.64,2.56A8.08,8.08,0,0,0,97,105a7.42,7.42,0,0,0-5.1,2,6.47,6.47,0,0,0,0,9.49,7.42,7.42,0,0,0,5.1,2,6.65,6.65,0,0,0,3.4-.73,6.1,6.1,0,0,0,2.26-2.56H96.82v-3.47H107v.92a9.75,9.75,0,0,1-1.32,4.93,8.13,8.13,0,0,1-3.58,3.47,12,12,0,0,1-10.76,0,10,10,0,0,1-4-3.84,10.76,10.76,0,0,1-1.51-5.29,9.85,9.85,0,0,1,2.65-6.76,10.49,10.49,0,0,1,8.3-3.47,14.8,14.8,0,0,1,4.91.91A8.68,8.68,0,0,1,105.69,105.15Z"/>
        </g>
      </g>
    </g>
  </g>
</svg>
