<svg id="ed56883a-3dab-496c-84f7-58cac2ecd3e2" data-name="resources" xmlns="http://www.w3.org/2000/svg" viewBox="0 0 134 134">
  <defs>
    <style>
      .ad7f4efb-8253-4c77-8c19-fb98832d0f8c, .e847bfe9-7159-4662-877c-33c9f76531e5 {
        fill: var(--secondary-color);
      }

      .ad7f4efb-8253-4c77-8c19-fb98832d0f8c {
        stroke: var(--secondary-color);
      }

      .ad7f4efb-8253-4c77-8c19-fb98832d0f8c, .ec634593-d446-46b2-92e3-cff27655ef1b {
        stroke-miterlimit: 10;
        stroke-width: 4px;
      }

      .ec634593-d446-46b2-92e3-cff27655ef1b {
        fill: #fff;
        stroke: var(--primary-color);
      }
    </style>
  </defs>
  <g id="a59c5e67-5339-4f85-9819-cb093c980864" data-name="Custom">
    <g id="a58526e1-a8c2-4029-a9d9-a4ce2b9d8a92" data-name="Quiz">
      <rect class="ad7f4efb-8253-4c77-8c19-fb98832d0f8c" x="1.99" y="9.92" width="122.01" height="61"/>
      <g>
        <rect class="ad7f4efb-8253-4c77-8c19-fb98832d0f8c" x="18.64" y="82.16" width="105.36" height="10.98"/>
        <rect class="ad7f4efb-8253-4c77-8c19-fb98832d0f8c" x="18.64" y="99.88" width="105.36" height="10.98"/>
        <rect class="ad7f4efb-8253-4c77-8c19-fb98832d0f8c" x="18.64" y="117.6" width="105.36" height="10.98"/>
        <path class="ad7f4efb-8253-4c77-8c19-fb98832d0f8c" d="M19.27,87.72a8.64,8.64,0,1,1-8.64-8.64A8.64,8.64,0,0,1,19.27,87.72Z"/>
        <path class="ad7f4efb-8253-4c77-8c19-fb98832d0f8c" d="M19.27,105.37a8.64,8.64,0,1,1-8.64-8.64A8.64,8.64,0,0,1,19.27,105.37Z"/>
        <path class="ad7f4efb-8253-4c77-8c19-fb98832d0f8c" d="M19.27,123.31a8.64,8.64,0,1,1-8.64-8.64A8.64,8.64,0,0,1,19.27,123.31Z"/>
      </g>
      <g>
        <rect class="ec634593-d446-46b2-92e3-cff27655ef1b" x="10" y="2.05" width="122.01" height="61"/>
        <path class="e847bfe9-7159-4662-877c-33c9f76531e5" d="M66.08,43.6V42.26c0-4.3.34-7,1-8.13s2.45-2.74,5.33-4.86a12,12,0,0,0,3.15-3.1,6.63,6.63,0,0,0,.89-3.55,5.3,5.3,0,0,0-1.67-4.13,5.8,5.8,0,0,0-4-1.5q-6.27,0-7.05,8.85L54,24.46q1.1-8,5.86-12.11A17.17,17.17,0,0,1,71.5,8.24a17.51,17.51,0,0,1,11.75,4A12.86,12.86,0,0,1,88,22.51q0,7.68-7.9,12.84c-2.29,1.52-3.67,2.7-4.16,3.55a10.56,10.56,0,0,0-.72,4.7ZM76,57.44H65.29V46.78H76Z"/>
      </g>
      <g>
        <rect class="ec634593-d446-46b2-92e3-cff27655ef1b" x="26.64" y="74.29" width="105.36" height="10.98"/>
        <rect class="ec634593-d446-46b2-92e3-cff27655ef1b" x="26.64" y="92.01" width="105.36" height="10.98"/>
        <rect class="ec634593-d446-46b2-92e3-cff27655ef1b" x="26.64" y="109.73" width="105.36" height="10.98"/>
        <path class="ec634593-d446-46b2-92e3-cff27655ef1b" d="M27.28,79.85a8.64,8.64,0,1,1-8.64-8.64A8.64,8.64,0,0,1,27.28,79.85Z"/>
        <path class="ec634593-d446-46b2-92e3-cff27655ef1b" d="M27.28,97.5a8.64,8.64,0,1,1-8.64-8.64A8.64,8.64,0,0,1,27.28,97.5Z"/>
        <path class="ec634593-d446-46b2-92e3-cff27655ef1b" d="M27.28,115.44a8.64,8.64,0,1,1-8.64-8.64A8.64,8.64,0,0,1,27.28,115.44Z"/>
      </g>
    </g>
  </g>
</svg>
