<svg id="a0c4680a-ffbf-428b-9775-ac65f100d5ce" data-name="resources" xmlns="http://www.w3.org/2000/svg" viewBox="0 0 134 134">
  <defs>
    <style>
      .bd75a1c8-a493-4c2f-845b-46189019da10 {
        fill: var(--secondary-color);
      }

      .a360d44a-8cc6-4b97-b97d-7694c769501f, .bd75a1c8-a493-4c2f-845b-46189019da10 {
        stroke: var(--secondary-color);
      }

      .a360d44a-8cc6-4b97-b97d-7694c769501f, .ad6203d9-502e-45d7-bf63-6900a6c7b3d2, .ba218102-6bae-40c7-b5bc-5c6b058d4c06, .bd75a1c8-a493-4c2f-845b-46189019da10 {
        stroke-miterlimit: 10;
        stroke-width: 4px;
      }

      .a360d44a-8cc6-4b97-b97d-7694c769501f, .ad6203d9-502e-45d7-bf63-6900a6c7b3d2 {
        fill: none;
      }

      .ad6203d9-502e-45d7-bf63-6900a6c7b3d2, .ba218102-6bae-40c7-b5bc-5c6b058d4c06 {
        stroke: var(--primary-color);
      }

      .ba218102-6bae-40c7-b5bc-5c6b058d4c06, .ea2675c9-b8f2-47cf-a784-645610f13ec3 {
        fill: #fff;
      }

      .a6a9157a-2c33-4994-b4aa-d84a6bd6c60b {
        fill: var(--primary-color);
      }
    </style>
  </defs>
  <g id="a4694321-4006-4929-86a3-5cd7400dbd16" data-name="Files">
    <g id="f4f2bc69-f972-410c-a311-7d3f143fb330" data-name="Audio">
      <polygon class="bd75a1c8-a493-4c2f-845b-46189019da10" points="35.79 36.7 16.87 36.7 16.87 64.86 35.79 64.86 70.99 90.38 70.99 11.18 35.79 36.7"/>
      <g>
        <path class="a360d44a-8cc6-4b97-b97d-7694c769501f" d="M85,32.14c6.32,4.38,9.79,10.3,9.79,16.73S91.27,61.21,85,65.6"/>
        <path class="a360d44a-8cc6-4b97-b97d-7694c769501f" d="M95.47,15.58c12.76,8.8,19.66,20.68,19.66,33.29s-6.9,24.64-19.66,33.44"/>
        <path class="ad6203d9-502e-45d7-bf63-6900a6c7b3d2" d="M87,29.14c6.32,4.38,9.79,10.3,9.79,16.73S93.27,58.21,87,62.6"/>
        <path class="ad6203d9-502e-45d7-bf63-6900a6c7b3d2" d="M97.47,12.58c12.76,8.8,19.66,20.68,19.66,33.29s-6.9,24.64-19.66,33.44"/>
        <polygon class="ba218102-6bae-40c7-b5bc-5c6b058d4c06" points="41.73 30.76 22.81 30.76 22.81 58.92 41.73 58.92 76.93 84.44 76.93 5.24 41.73 30.76"/>
      </g>
      <rect class="a6a9157a-2c33-4994-b4aa-d84a6bd6c60b" y="92" width="134" height="42"/>
      <g>
        <path class="ea2675c9-b8f2-47cf-a784-645610f13ec3" d="M99.34,100.85a10.9,10.9,0,0,1,7.42,18.46,10.58,10.58,0,0,1-15-.19,11.16,11.16,0,0,1-1.72-13,13.46,13.46,0,0,1,4-4A12.28,12.28,0,0,1,99.34,100.85Zm-.19,3.8a6.32,6.32,0,0,0-4.76,1.9,6.77,6.77,0,0,0-1.9,5A6.25,6.25,0,0,0,95,116.83a7.21,7.21,0,0,0,4.38,1.53,6.51,6.51,0,0,0,4.76-2.1,7.4,7.4,0,0,0,0-9.9A8.63,8.63,0,0,0,99.15,104.65Z"/>
        <path class="ea2675c9-b8f2-47cf-a784-645610f13ec3" d="M32.8,101.3h4l7.78,20.48h-4l-1.52-4.17H30.53l-1.71,4.17h-4Zm1.9,5.5-2.66,7h5.5Z"/>
        <path class="ea2675c9-b8f2-47cf-a784-645610f13ec3" d="M82,101.15h3.8v20.63H82Z"/>
        <path class="ea2675c9-b8f2-47cf-a784-645610f13ec3" d="M63.19,101.17h4.57a15,15,0,0,1,6.66,1.14A8.3,8.3,0,0,1,78,105.93a11.64,11.64,0,0,1,1.34,5.9,11.2,11.2,0,0,1-.76,4.38,10.56,10.56,0,0,1-2.1,3.23,8.27,8.27,0,0,1-3,1.9,18.23,18.23,0,0,1-5.52.57H63.19V101.17ZM67,105v12.94h1.9a9.43,9.43,0,0,0,3.81-.57,4.1,4.1,0,0,0,1.9-2.1,9.28,9.28,0,0,0,.76-3.61,6.89,6.89,0,0,0-1.9-5.14c-1.14-1.14-2.86-1.71-5.33-1.71H67Z"/>
        <path class="ea2675c9-b8f2-47cf-a784-645610f13ec3" d="M56.51,101.15v15.64c0,1.16-1.49,1.89-2.65,1.89s-2.69-.94-2.69-2.09V101.15H47.24v15.08c0,3.35,3.3,6.06,6.65,6.06s6.62-2.5,6.62-5.85V101.15Z"/>
      </g>
    </g>
  </g>
</svg>
