<svg id="f3d0bcdb-0bd2-4b06-aaf9-b26591b87d02" data-name="resources" xmlns="http://www.w3.org/2000/svg" viewBox="0 0 134 134">
  <defs>
    <style>
      .e41e3762-28ca-41bc-b734-457454ceafdf {
        fill: var(--secondary-color);
      }

      .b7abacf5-2cc3-4c69-9989-40c6f1cf7d5c, .e41e3762-28ca-41bc-b734-457454ceafdf {
        stroke: var(--secondary-color);
      }

      .a8ae9b7e-4760-4242-9968-91fac09541a8, .b7abacf5-2cc3-4c69-9989-40c6f1cf7d5c, .e41e3762-28ca-41bc-b734-457454ceafdf, .fc94e45e-11a6-4e37-940e-ee38700d761d {
        stroke-miterlimit: 10;
        stroke-width: 4px;
      }

      .b7abacf5-2cc3-4c69-9989-40c6f1cf7d5c, .fc94e45e-11a6-4e37-940e-ee38700d761d {
        fill: none;
      }

      .a8ae9b7e-4760-4242-9968-91fac09541a8, .fc94e45e-11a6-4e37-940e-ee38700d761d {
        stroke: var(--primary-color);
      }

      .a8ae9b7e-4760-4242-9968-91fac09541a8, .b8851f7e-d53d-4970-a093-26bf4c1a6f16 {
        fill: #fff;
      }

      .a2d38897-aa68-4348-a9c7-e9a08a7634d0 {
        fill: var(--primary-color);
      }
    </style>
  </defs>
  <g id="ecff5047-103a-493b-b66a-b4531a951621" data-name="Files">
    <g id="b5abb1a5-6ec0-4ae3-ab30-58c7ee79048a" data-name="MP3">
      <polygon class="e41e3762-28ca-41bc-b734-457454ceafdf" points="35.79 36.7 16.87 36.7 16.87 64.86 35.79 64.86 70.99 90.38 70.99 11.18 35.79 36.7"/>
      <g>
        <path class="b7abacf5-2cc3-4c69-9989-40c6f1cf7d5c" d="M85,32.14c6.32,4.38,9.79,10.3,9.79,16.73S91.27,61.21,85,65.6"/>
        <path class="b7abacf5-2cc3-4c69-9989-40c6f1cf7d5c" d="M95.47,15.58c12.76,8.8,19.66,20.68,19.66,33.29s-6.9,24.64-19.66,33.44"/>
        <path class="fc94e45e-11a6-4e37-940e-ee38700d761d" d="M87,29.14c6.32,4.38,9.79,10.3,9.79,16.73S93.27,58.21,87,62.6"/>
        <path class="fc94e45e-11a6-4e37-940e-ee38700d761d" d="M97.47,12.58c12.76,8.8,19.66,20.68,19.66,33.29s-6.9,24.64-19.66,33.44"/>
        <polygon class="a8ae9b7e-4760-4242-9968-91fac09541a8" points="41.73 30.76 22.81 30.76 22.81 58.92 41.73 58.92 76.93 84.44 76.93 5.24 41.73 30.76"/>
      </g>
      <g>
        <rect class="a2d38897-aa68-4348-a9c7-e9a08a7634d0" y="92" width="134" height="42"/>
        <g>
          <path class="b8851f7e-d53d-4970-a093-26bf4c1a6f16" d="M42.94,102.32h3.77L51.43,116l4.72-13.69h3.77L63.32,122H59.54l-2.26-12.42L52.94,122h-3.4L45.2,109.62,42.94,122H39.16Z"/>
          <path class="b8851f7e-d53d-4970-a093-26bf4c1a6f16" d="M66.34,102.32h4.15a14,14,0,0,1,4.72.55,4.67,4.67,0,0,1,2.26,2,6,6,0,0,1,1,3.1,5.17,5.17,0,0,1-1.13,3.47,5.66,5.66,0,0,1-3,1.83,18.81,18.81,0,0,1-4.16.36V122h-4l.19-19.72Zm4,7.67h1.32a6.16,6.16,0,0,0,2.08-.18,1.88,1.88,0,0,0,.94-.73A2.59,2.59,0,0,0,75,108a1.9,1.9,0,0,0-.94-1.64,6.59,6.59,0,0,0-2.46-.37H70.49v4Z"/>
          <path class="b8851f7e-d53d-4970-a093-26bf4c1a6f16" d="M81.44,118.21a9.87,9.87,0,0,0,4.9,1.28c3,0,4.35-1.65,4.35-3.29,0-2.38-2.46-3.47-4.91-3.47H83.89v-2.92h1.89c1.89,0,4.15-.92,4.15-2.93,0-1.46-1.13-2.55-3.4-2.55a9.29,9.29,0,0,0-4.34,1.28l-.94-2.74a10.93,10.93,0,0,1,6.23-1.65c4.34,0,6.6,2.38,6.6,5.12,0,2.19-1.32,4-4,4.75h0a5.2,5.2,0,0,1,4.72,5.11c0,3.47-3,6.21-8.31,6.21a12,12,0,0,1-6-1.46Z"/>
        </g>
      </g>
    </g>
  </g>
</svg>
