<?xml version="1.0" encoding="utf-8"?>
<svg version="1.1"  xmlns="http://www.w3.org/2000/svg" viewBox="0 0 71 80" preserveAspectRatio="xMinYMin meet">
    <path d="M32.08,50a5.54,5.54,0,0,0,2.81,4.24c6,3.67,13.93,3.56,20.39,1.23,2.61-1,5.71-3,5.44-6.1,0-.87,0-5.68,0-6.64h1a5.54,5.54,0,0,1-2.27,4.08c-6,4.39-14.7,4.3-21.47,1.91-2.6-1.06-5.76-2.86-5.9-6h.1L32.08,50Zm0,0,0-7.27a0,0,0,0,1,0,0c.26,3,3.29,4.81,6,5.74,6.56,2.09,15.08,1.85,20.76-2.33a4.62,4.62,0,0,0,1.87-3.39.5.5,0,0,1,1,0l0,5.31a24.82,24.82,0,0,1-.09,2.73C59.31,59.92,33.2,59.6,32.08,50Z" style="fill:#010101"/><path d="M32.08,42.69a5.56,5.56,0,0,0,2.81,4.24c6,3.67,13.93,3.56,20.39,1.23,2.61-1.06,5.71-3,5.44-6.11,0-.86,0-5.67,0-6.64h1A5.58,5.58,0,0,1,59.4,39.5c-6,4.39-14.7,4.3-21.47,1.9-2.6-1-5.76-2.85-5.9-6h.1l-.05,7.28Zm0,0,0-7.28a0,0,0,0,1,0,0c.26,3.06,3.29,4.82,6,5.74C44.6,43.2,53.12,43,58.8,38.78a4.63,4.63,0,0,0,1.87-3.39.5.5,0,0,1,1,0l0,5.31a24.92,24.92,0,0,1-.09,2.74c-2.23,9.19-28.34,8.87-29.46-.77Z" style="fill:#010101"/><path d="M46.63,20.87c5-.21,17.48,2.31,14.18,9.51-4.89,7.39-23.47,7.4-28.37,0-3.31-7.2,9.21-9.72,14.19-9.51Zm0,0c-4.32.11-9,.85-12.38,3.67-1.66,1.3-2.57,3.67-1.3,5.53,4.74,6.51,22.6,6.52,27.35,0,1.27-1.87.36-4.24-1.3-5.54-3.41-2.82-8.06-3.56-12.37-3.67Z" style="fill:#010101"/><path d="M32.08,35.41a5.54,5.54,0,0,0,2.81,4.24c6,3.68,13.93,3.56,20.39,1.23,2.61-1.05,5.71-3,5.44-6.1,0-.86,0-5.67,0-6.64h1a5.54,5.54,0,0,1-2.27,4.08c-6,4.39-14.7,4.3-21.47,1.91-2.6-1.05-5.76-2.86-5.9-6h.1l-.05,7.27Zm0,0,0-7.27a0,0,0,0,1,0-.05c.26,3.06,3.29,4.82,6,5.74,6.56,2.09,15.08,1.86,20.76-2.33a4.6,4.6,0,0,0,1.87-3.39.5.5,0,0,1,1,0l0,5.31a25,25,0,0,1-.09,2.74c-2.24,9.18-28.34,8.86-29.46-.78Z" style="fill:#010101"/><path d="M8.69,63.31c0,4,6.51,7.28,14.54,7.28s14.55-3.26,14.55-7.28V56c0,4-6.51,7.27-14.55,7.27S8.69,60.06,8.69,56Z" style="fill:#fff"/><path d="M8.69,63.31a4.24,4.24,0,0,0,.89,2.45,7.15,7.15,0,0,0,1.92,1.8,16.12,16.12,0,0,0,4.84,2.08,27.27,27.27,0,0,0,10.49.46,22.05,22.05,0,0,0,5.06-1.32A11.19,11.19,0,0,0,36.16,66a4.55,4.55,0,0,0,1.11-2.11l.06-.58v-2l0-5.31h1a4.85,4.85,0,0,1-.7,2.34A7.11,7.11,0,0,1,36,60.13a13.41,13.41,0,0,1-4,2.16,24.94,24.94,0,0,1-8.8,1.34A25.47,25.47,0,0,1,14.54,62a13.22,13.22,0,0,1-3.84-2.2,6.82,6.82,0,0,1-1.45-1.67A4.38,4.38,0,0,1,8.64,56h.1Zm0,0,0-7.27a0,0,0,0,1,0,0,.05.05,0,0,1,.05,0,4.31,4.31,0,0,0,.62,2.06,6.5,6.5,0,0,0,1.45,1.6,13,13,0,0,0,3.84,2A25,25,0,0,0,23.23,63a26.17,26.17,0,0,0,8.49-1.53,12.72,12.72,0,0,0,3.69-2.07,6.23,6.23,0,0,0,1.34-1.52A4.07,4.07,0,0,0,37.28,56v0a.5.5,0,0,1,1,0l0,5.31v2l-.08.74a5.41,5.41,0,0,1-1.36,2.51,11.65,11.65,0,0,1-4.66,2.82,23.11,23.11,0,0,1-5.24,1.18,28.41,28.41,0,0,1-10.59-.82,16.2,16.2,0,0,1-4.84-2.16,7.39,7.39,0,0,1-1.91-1.83A4.28,4.28,0,0,1,8.69,63.31Z" style="fill:#98c03e"/><path d="M37.78,48.77c0,4-6.52,7.27-14.55,7.27S8.69,52.78,8.69,48.77s6.51-7.28,14.54-7.28S37.78,44.75,37.78,48.77Z" style="fill:#fff"/><path d="M37.78,48.77a4.51,4.51,0,0,1-.6,2.09,6.4,6.4,0,0,1-1.45,1.66,13.41,13.41,0,0,1-3.83,2.16,26.06,26.06,0,0,1-8.67,1.61A25.36,25.36,0,0,1,14.44,55a13.88,13.88,0,0,1-4-2.16A7.11,7.11,0,0,1,8.89,51.1a4.24,4.24,0,0,1,0-4.67,6.89,6.89,0,0,1,1.57-1.74,13.41,13.41,0,0,1,4-2.16,25.37,25.37,0,0,1,8.79-1.29,25.82,25.82,0,0,1,8.67,1.62A12.83,12.83,0,0,1,35.73,45a6.52,6.52,0,0,1,1.45,1.65A4.55,4.55,0,0,1,37.78,48.77Zm0,0a4.47,4.47,0,0,0-.63-2.08,6.84,6.84,0,0,0-1.46-1.62A13.1,13.1,0,0,0,31.85,43a24.72,24.72,0,0,0-8.62-1.25,25.2,25.2,0,0,0-8.49,1.58,12.67,12.67,0,0,0-3.68,2.07,6,6,0,0,0-1.34,1.53,3.91,3.91,0,0,0-.53,1.84,3.86,3.86,0,0,0,.53,1.84,6.21,6.21,0,0,0,1.33,1.53,12.72,12.72,0,0,0,3.69,2.07,25.45,25.45,0,0,0,8.49,1.58,24.72,24.72,0,0,0,8.62-1.25,13.13,13.13,0,0,0,3.84-2.08,6.6,6.6,0,0,0,1.46-1.61A4.51,4.51,0,0,0,37.78,48.77Z" style="fill:#98c03e"/><path d="M8.69,56c0,4,6.51,7.27,14.54,7.27S37.78,60.06,37.78,56V48.77c0,4-6.51,7.27-14.55,7.27S8.69,52.78,8.69,48.77Z" style="fill:#fff"/><path d="M8.69,56a4.26,4.26,0,0,0,.89,2.45,7.28,7.28,0,0,0,1.92,1.79,16.14,16.14,0,0,0,4.84,2.09,27.27,27.27,0,0,0,10.49.46,22.58,22.58,0,0,0,5.06-1.32,11.31,11.31,0,0,0,4.27-2.75,4.55,4.55,0,0,0,1.11-2.11l.06-.58v-2l0-5.31h1a4.85,4.85,0,0,1-.7,2.33A6.77,6.77,0,0,1,36,52.85,13.44,13.44,0,0,1,32,55a24.94,24.94,0,0,1-8.8,1.34,25.71,25.71,0,0,1-8.69-1.6,13.45,13.45,0,0,1-3.84-2.2,6.82,6.82,0,0,1-1.45-1.67,4.41,4.41,0,0,1-.61-2.12h.1Zm0,0,0-7.27a0,0,0,0,1,0-.05.05.05,0,0,1,.05.05,4.27,4.27,0,0,0,.62,2,6.37,6.37,0,0,0,1.45,1.61,13,13,0,0,0,3.84,2,25.27,25.27,0,0,0,8.58,1.27,26.17,26.17,0,0,0,8.49-1.53,12.72,12.72,0,0,0,3.69-2.07,6.23,6.23,0,0,0,1.34-1.52,4.1,4.1,0,0,0,.53-1.84v0a.5.5,0,0,1,1,0l0,5.31v2l-.08.74a5.41,5.41,0,0,1-1.36,2.51,11.65,11.65,0,0,1-4.66,2.82,22.57,22.57,0,0,1-5.24,1.17,28.2,28.2,0,0,1-10.59-.81,16.23,16.23,0,0,1-4.84-2.17,7.08,7.08,0,0,1-1.91-1.83A4.27,4.27,0,0,1,8.69,56Z" style="fill:#98c03e"/>
</svg>
