<?xml version="1.0" encoding="utf-8"?>
<!-- Generator: Adobe Illustrator 22.1.0, SVG Export Plug-In . SVG Version: 6.00 Build 0)  -->
<svg version="1.1" xmlns="http://www.w3.org/2000/svg" xmlns:xlink="http://www.w3.org/1999/xlink" x="0px" y="0px"
	 viewBox="0 0 71 80" style="enable-background:new 0 0 71 80;" xml:space="preserve">
<g id="shortcut">
</g>
<g id="file">
	<g>
		<g>
			<path d="M53,7.1c-0.3,1.4-0.5,2.7-0.7,4l-0.6,3.8c-0.4,2.4-0.9,4.8-1.6,7.1l-0.4-0.7l4.3,1.3c1.4,0.4,2.9,0.7,4.3,1.1
				c1.5,0.3,2.9,0.6,4.4,0.8c1.5,0.2,2.9,0.5,4.4,0.8l-0.7,1c-1.2-1.5-2.3-3-3.5-4.5c-1.1-1.5-2.2-3-3.3-4.6L53,7.1z M53,6.9
				l7.3,8.8c1.3,1.6,2.5,3.2,3.7,4.8c1.2,1.7,2.4,3.3,3.5,5l0,0c0.2,0.3,0.1,0.7-0.2,0.9c-0.2,0.1-0.4,0.1-0.5,0.1
				c-1.4-0.4-2.9-0.8-4.3-1.2c-1.4-0.4-2.9-0.8-4.3-1.2c-1.4-0.4-2.9-0.7-4.4-1l-4.4-0.8c-0.3,0-0.5-0.3-0.4-0.6l0-0.1
				c0.4-2.6,1.1-5.2,1.9-7.7c0.4-1.3,0.7-2.5,1.1-3.7L53,6.9z"/>
		</g>
		<path d="M57.7,31.7l-30.4-7.1c-0.3-0.1-0.4-0.3-0.4-0.6l0.3-1.1c0.1-0.3,0.3-0.4,0.6-0.4l30.4,7.1c0.3,0.1,0.4,0.3,0.4,0.6
			l-0.3,1.1C58.2,31.6,57.9,31.7,57.7,31.7z"/>
		<path d="M47.9,70.9l-30.4-7.1c-0.3-0.1-0.4-0.3-0.4-0.6l0.3-1.1c0.1-0.3,0.3-0.4,0.6-0.4l30.4,7.1c0.3,0.1,0.4,0.3,0.4,0.6
			l-0.3,1.1C48.4,70.8,48.1,71,47.9,70.9z"/>
		<path d="M53.1,51.5l-30.4-7.1c-0.3-0.1-0.4-0.3-0.4-0.6l0.3-1.1c0.1-0.3,0.3-0.4,0.6-0.4l30.4,7.1c0.3,0.1,0.4,0.3,0.4,0.6
			l-0.3,1.1C53.6,51.4,53.3,51.5,53.1,51.5z"/>
		<path style="fill:none;stroke:#E59B3A;stroke-width:1.5;stroke-miterlimit:10;" d="M49.6,63.4l-29.1-6.8c-0.6-0.1-1-0.8-0.9-1.4
			l0.9-3.8c0.1-0.6,0.8-1,1.4-0.9L51,57.3c0.6,0.1,1,0.8,0.9,1.4L51,62.6C50.8,63.2,50.2,63.6,49.6,63.4z"/>
		<path style="fill:none;stroke:#E59B3A;stroke-width:1.5;stroke-miterlimit:10;" d="M54.3,42.9l-29.1-6.8c-0.6-0.1-1-0.8-0.9-1.4
			l0.9-3.8c0.1-0.6,0.8-1,1.4-0.9l29.1,6.8c0.6,0.1,1,0.8,0.9,1.4L55.8,42C55.6,42.7,55,43.1,54.3,42.9z"/>
		<circle style="fill:#E59B3A;" cx="21.8" cy="22.4" r="1.3"/>
		<circle cx="19.7" cy="31.6" r="1.3"/>
		<circle style="fill:#E59B3A;" cx="17.2" cy="42" r="1.3"/>
		<circle cx="14.9" cy="51.8" r="1.3"/>
		<circle style="fill:#E59B3A;" cx="12.7" cy="61.6" r="1.3"/>
		<g>
			<path d="M53.3,7.1C47.7,6,42.1,4.8,36.6,3.6C31,2.4,25.5,1.2,20-0.1l0.7-0.4c-1.3,5.8-2.6,11.6-4,17.4l-2.1,8.7l-2.1,8.7
				C11.1,40,9.6,45.8,8.2,51.6c-1.4,5.8-2.7,11.6-4,17.4L4,68.7l25.2,5.6l25.2,5.7l-0.9,0.6c1.1-4.6,2.1-9.3,3.2-13.9l3.3-13.9
				c1.1-4.6,2.2-9.2,3.3-13.8l3.4-13.8l0.1,0.4L60,16.4L53.3,7.1z M53.4,7l7.1,8.9l7.1,9c0.1,0.1,0.1,0.3,0.1,0.4l0,0l-3.1,13.9
				c-1,4.6-2,9.3-3.1,13.9L58.2,67c-1.1,4.6-2.2,9.2-3.3,13.9l0,0c-0.1,0.4-0.5,0.6-0.9,0.6l0,0l-25.1-6L3.9,69.2
				c-0.1,0-0.2-0.2-0.2-0.3C5,63.1,6.4,57.3,7.7,51.5C9,45.7,10.3,39.9,11.6,34l1.9-8.7l2-8.7c1.3-5.8,2.7-11.6,4.1-17.4
				c0.1-0.3,0.4-0.5,0.7-0.4l0,0c5.6,1.3,11.1,2.7,16.6,4.1C42.4,4.2,47.9,5.6,53.4,7z"/>
		</g>
	</g>
</g>
</svg>
