<svg id="abb3af48-d728-4874-bbf8-8984b185881a" data-name="data" xmlns="http://www.w3.org/2000/svg" viewBox="0 0 134 134">
  <defs>
    <style>
      .b2f9b6e9-b74d-4c54-aad8-8e8ded010ed2 {
        fill: var(--secondary-color);
        stroke: var(--secondary-color);
      }

      .b2f9b6e9-b74d-4c54-aad8-8e8ded010ed2, .e14939b1-d3e3-4e29-89c1-ae35b6015ce9, .f38c67bf-7747-44e9-bd87-64bded109794, .f537c9f6-49e4-4301-a964-fb42c42f7bb6 {
        stroke-miterlimit: 10;
        stroke-width: 4px;
      }

      .aa523b7b-c1bb-4de1-8105-810b431d257b, .b2f9b6e9-b74d-4c54-aad8-8e8ded010ed2, .e14939b1-d3e3-4e29-89c1-ae35b6015ce9, .f38c67bf-7747-44e9-bd87-64bded109794, .f537c9f6-49e4-4301-a964-fb42c42f7bb6 {
        fill-rule: evenodd;
      }

      .f38c67bf-7747-44e9-bd87-64bded109794 {
        fill: #fff;
      }

      .e14939b1-d3e3-4e29-89c1-ae35b6015ce9, .f38c67bf-7747-44e9-bd87-64bded109794, .f537c9f6-49e4-4301-a964-fb42c42f7bb6 {
        stroke: var(--primary-color);
      }

      .e14939b1-d3e3-4e29-89c1-ae35b6015ce9 {
        fill: none;
      }

      .aa523b7b-c1bb-4de1-8105-810b431d257b, .f537c9f6-49e4-4301-a964-fb42c42f7bb6 {
        fill: var(--primary-color);
      }
    </style>
  </defs>
  <g>
    <g>
      <path class="b2f9b6e9-b74d-4c54-aad8-8e8ded010ed2" d="M72.26,110.34V121c.63.13,1.24.2,1.81.38a5.2,5.2,0,0,1,3.51,5.75,5,5,0,0,1-4.57,4.6c-.52,0-1,.08-1.55.09q-26.31,0-52.62,0a16.15,16.15,0,0,1-10.1-3.24,15.42,15.42,0,0,1-6.15-10.29,22.65,22.65,0,0,1-.25-3.59q0-26.19,0-52.39a16.27,16.27,0,0,1,2.41-8.92,15.42,15.42,0,0,1,11.1-7.35,23.89,23.89,0,0,1,3.59-.25H71.77a8,8,0,0,1,2.34.3,5,5,0,0,1,3.48,4.61c0,.2,0,.4,0,.61q0,26.72,0,53.44a5.39,5.39,0,0,1-1.84,4.34A5.28,5.28,0,0,1,72.26,110.34Z"/>
      <path class="f38c67bf-7747-44e9-bd87-64bded109794" d="M77.22,105.39v10.7a16.35,16.35,0,0,1,1.8.38,5.21,5.21,0,0,1,3.51,5.75,5,5,0,0,1-4.57,4.6c-.51.05-1,.09-1.55.09q-26.31,0-52.61,0a16.22,16.22,0,0,1-10.11-3.24,15.48,15.48,0,0,1-6.15-10.29,23.89,23.89,0,0,1-.25-3.59q0-26.2,0-52.39A16.19,16.19,0,0,1,9.7,48.47a15.41,15.41,0,0,1,11.09-7.35,23.89,23.89,0,0,1,3.59-.25q26.17,0,52.34,0a8,8,0,0,1,2.34.3,5,5,0,0,1,3.48,4.6c0,.21,0,.41,0,.61V99.83a5.2,5.2,0,0,1-5.33,5.56Z"/>
      <path class="e14939b1-d3e3-4e29-89c1-ae35b6015ce9" d="M77.22,105.38s-31.1,0-59.67,0a9.88,9.88,0,0,0-9.33,5.39,13.34,13.34,0,0,0-.9,2.08"/>
      <path class="aa523b7b-c1bb-4de1-8105-810b431d257b" d="M47.66,78.52c5.25,0,10.5,0,15.76,0a4.16,4.16,0,0,0,1.35-.23,2.52,2.52,0,0,0,1.68-2.49,2.49,2.49,0,0,0-1.7-2.48,4.78,4.78,0,0,0-1.46-.22H31.54a2.62,2.62,0,0,0-2.76,2.6,2.56,2.56,0,0,0,2.45,2.8,4.35,4.35,0,0,0,.72,0Z"/>
      <path class="aa523b7b-c1bb-4de1-8105-810b431d257b" d="M47.61,67.76H63.47a2.81,2.81,0,0,0,2.34-.93,2.76,2.76,0,0,0,.32-3.08,2.57,2.57,0,0,0-2.57-1.4q-15.87,0-31.73,0a4.41,4.41,0,0,0-1.57.29,2.54,2.54,0,0,0-1.46,2.78,2.45,2.45,0,0,0,2,2.22,6.31,6.31,0,0,0,1.15.11Z"/>
      <path class="f537c9f6-49e4-4301-a964-fb42c42f7bb6" d="M77.22,116.17v-10.8s-39.67,0-53.9,0a4.94,4.94,0,0,0-4.65,2.69,5.48,5.48,0,0,0,.13,5.66,5.19,5.19,0,0,0,4.8,2.45Z"/>
      <polyline class="f38c67bf-7747-44e9-bd87-64bded109794" points="77.22 114.39 77.22 105.39 68.37 105.39 68.37 114.39"/>
    </g>
    <g>
      <path class="b2f9b6e9-b74d-4c54-aad8-8e8ded010ed2" d="M124,20.76c-1.25-.23-9.17-1.42-11.88-1.83a.52.52,0,0,1-.44-.33Q109.1,13.31,106.51,8a3,3,0,0,0-2.44-1.64h0A3,3,0,0,0,101.63,8c-1.73,3.52-3.43,7.05-5.14,10.58a.52.52,0,0,1-.44.33c-2.7.41-10.63,1.6-11.88,1.83a2.59,2.59,0,0,0-1.42,4.32c.43.49,6.16,6.13,8.56,8.5a.53.53,0,0,1,.16.53c-.4,2.39-1.67,10.23-1.94,11.74A2.68,2.68,0,0,0,91.79,49a2.74,2.74,0,0,0,1.66-.38c1.48-.77,8.42-4.42,10.42-5.49a.36.36,0,0,1,.4,0c2,1.07,9,4.72,10.42,5.49a2.74,2.74,0,0,0,1.66.38,2.68,2.68,0,0,0,2.26-3.18c-.27-1.51-1.54-9.35-1.94-11.74a.53.53,0,0,1,.16-.53c2.4-2.37,8.13-8,8.56-8.5A2.59,2.59,0,0,0,124,20.76Z"/>
      <path class="f38c67bf-7747-44e9-bd87-64bded109794" d="M130,16.76c-1.25-.23-9.17-1.42-11.88-1.83a.52.52,0,0,1-.44-.33Q115.1,9.31,112.51,4a3,3,0,0,0-2.44-1.64h0A3,3,0,0,0,107.63,4c-1.73,3.52-3.43,7.05-5.14,10.58a.52.52,0,0,1-.44.33c-2.7.41-10.63,1.6-11.88,1.83a2.59,2.59,0,0,0-1.42,4.32c.43.49,6.16,6.13,8.56,8.5a.53.53,0,0,1,.16.53c-.4,2.39-1.67,10.23-1.94,11.74A2.68,2.68,0,0,0,97.79,45a2.74,2.74,0,0,0,1.66-.38c1.48-.77,8.42-4.42,10.42-5.49a.36.36,0,0,1,.4,0c2,1.07,9,4.72,10.42,5.49a2.74,2.74,0,0,0,1.66.38,2.68,2.68,0,0,0,2.26-3.18c-.27-1.51-1.54-9.35-1.94-11.74a.53.53,0,0,1,.16-.53c2.4-2.37,8.13-8,8.56-8.5A2.59,2.59,0,0,0,130,16.76Z"/>
    </g>
  </g>
</svg>
