<svg id="bba17bfc-df6b-49bc-bd1d-46cb45a6b272" data-name="data" xmlns="http://www.w3.org/2000/svg" viewBox="0 0 134 134">
  <defs>
    <style>
      .b5a00c88-d6b1-4261-bb71-0f385f4803c2 {
        fill: var(--secondary-color);
        stroke: var(--secondary-color);
      }

      .b5a00c88-d6b1-4261-bb71-0f385f4803c2, .f03f39a3-313d-49ba-991d-368e45fb5866 {
        stroke-miterlimit: 10;
        stroke-width: 4px;
        fill-rule: evenodd;
      }

      .f03f39a3-313d-49ba-991d-368e45fb5866 {
        fill: #fff;
        stroke: var(--primary-color);
      }
    </style>
  </defs>
  <g>
    <g>
      <path class="b5a00c88-d6b1-4261-bb71-0f385f4803c2" d="M43.77,131.86H12.86a10.45,10.45,0,0,1-7.59-2.94,10.27,10.27,0,0,1-3.2-6.87c0-.75-.07-1.51-.07-2.26Q2,94.7,2,69.62a10.51,10.51,0,0,1,4.36-8.89,10.27,10.27,0,0,1,6.25-2c6.27,0,36.87,0,36.87,0L65.13,69.17s28.83,0,36.76,0A10.59,10.59,0,0,1,112.61,80q0,20.52,0,41.05a10.47,10.47,0,0,1-8.07,10.5,12.2,12.2,0,0,1-2.89.32C91.35,131.87,54.07,131.86,43.77,131.86Z"/>
      <path class="f03f39a3-313d-49ba-991d-368e45fb5866" d="M51.87,123.76H21a10.41,10.41,0,0,1-7.58-2.94A10.24,10.24,0,0,1,10.17,114c-.05-.75-.06-1.51-.06-2.26q0-25.09,0-50.17a10.53,10.53,0,0,1,4.36-8.9,10.33,10.33,0,0,1,6.25-2c6.27,0,36.87,0,36.87,0L73.23,61.07s28.83,0,36.76,0a10.59,10.59,0,0,1,10.72,10.8q0,20.52,0,41.05a10.5,10.5,0,0,1-8.08,10.5,12.2,12.2,0,0,1-2.89.32C99.45,123.77,62.18,123.76,51.87,123.76Z"/>
    </g>
    <g>
      <path class="b5a00c88-d6b1-4261-bb71-0f385f4803c2" d="M123.83,20.76c-1.26-.23-9.18-1.42-11.88-1.83a.51.51,0,0,1-.44-.33c-1.71-3.53-3.41-7.06-5.14-10.58a3,3,0,0,0-2.44-1.64h0A3,3,0,0,0,101.49,8Q98.9,13.3,96.35,18.6a.52.52,0,0,1-.44.33c-2.71.41-10.63,1.6-11.88,1.83a2.59,2.59,0,0,0-1.42,4.32c.43.49,6.16,6.13,8.56,8.5a.53.53,0,0,1,.16.53c-.4,2.39-1.67,10.23-1.94,11.74A2.68,2.68,0,0,0,91.65,49a2.76,2.76,0,0,0,1.66-.38c1.47-.77,8.42-4.42,10.42-5.49a.36.36,0,0,1,.4,0c2,1.07,8.94,4.72,10.41,5.49a2.78,2.78,0,0,0,1.66.38,2.68,2.68,0,0,0,2.27-3.18c-.27-1.51-1.54-9.35-1.94-11.74a.53.53,0,0,1,.16-.53c2.4-2.37,8.13-8,8.56-8.5A2.59,2.59,0,0,0,123.83,20.76Z"/>
      <path class="f03f39a3-313d-49ba-991d-368e45fb5866" d="M129.83,16.76c-1.26-.23-9.18-1.42-11.88-1.83a.51.51,0,0,1-.44-.33C115.8,11.07,114.1,7.54,112.37,4a3,3,0,0,0-2.44-1.64h0A3,3,0,0,0,107.49,4Q104.9,9.3,102.35,14.6a.52.52,0,0,1-.44.33c-2.71.41-10.63,1.6-11.88,1.83a2.59,2.59,0,0,0-1.42,4.32c.43.49,6.16,6.13,8.56,8.5a.53.53,0,0,1,.16.53c-.4,2.39-1.67,10.23-1.94,11.74A2.68,2.68,0,0,0,97.65,45a2.76,2.76,0,0,0,1.66-.38c1.47-.77,8.42-4.42,10.42-5.49a.36.36,0,0,1,.4,0c2,1.07,8.94,4.72,10.41,5.49a2.78,2.78,0,0,0,1.66.38,2.68,2.68,0,0,0,2.27-3.18c-.27-1.51-1.54-9.35-1.94-11.74a.53.53,0,0,1,.16-.53c2.4-2.37,8.13-8,8.56-8.5A2.59,2.59,0,0,0,129.83,16.76Z"/>
    </g>
  </g>
</svg>
