<svg xmlns="http://www.w3.org/2000/svg" viewBox="0 0 71 80" preserveAspectRatio="xMinYMin meet">
    <defs>
        <symbol id="simple" viewBox="0 0 71 80">
            <g>
                <path d="M23.1,4.1l-1.8,7.5c-0.6,2.5-1.3,5-1.9,7.6c-1.3,5-2.6,10.1-3.9,15.1l-2,7.5c-0.7,2.5-1.3,5-2,7.5l-2.1,7.5l-2.2,7.5
			l-0.3-0.6l10.8,3.1l5.4,1.5l5.4,1.5l10.9,2.9l10.9,2.8l-0.6,0.3c2.2-8.6,4.4-17.2,6.7-25.7L60,37.3l3.5-12.8l0.1,0.6
			c-2.3-3.7-4.6-7.5-6.9-11.3l0.4,0.3c-5.7-1.6-11.4-3.2-17.1-4.9l-8.5-2.5L23.1,4.1z M23.1,3.9l8.6,2.1l8.6,2.2
			c5.7,1.5,11.5,3,17.2,4.5c0.2,0,0.3,0.1,0.4,0.3l0,0c2.4,3.7,4.7,7.4,7,11.2c0.1,0.2,0.1,0.4,0.1,0.6l-3.4,12.8L58,50.5
			c-2.4,8.5-4.7,17.1-7.2,25.6l0,0c-0.1,0.2-0.3,0.4-0.6,0.3l-10.8-3.1l-10.9-3L23,68.9l-5.5-1.4L6.7,64.6c-0.2-0.1-0.4-0.3-0.3-0.6
			l0,0l1.9-7.6l2-7.5c0.7-2.5,1.3-5,2-7.5l2.1-7.5c1.4-5,2.8-10,4.2-15c0.7-2.5,1.4-5,2.2-7.5L23.1,3.9C23,4,23,3.9,23.1,3.9z"/>
            </g>

            <path style="display:none;fill:#FFFFFF;stroke:#000000;stroke-width:2.2527;stroke-linecap:round;stroke-linejoin:round;stroke-miterlimit:10;" d="
		M53.3,13.1"/>

            <polyline style="fill:none;stroke:#000000;stroke-width:2.039;stroke-linecap:round;stroke-linejoin:round;stroke-miterlimit:10;" points="
		64,24.6 53.7,21.8 56,13.5 	"/>

            <line style="fill:none;stroke:#000000;stroke-width:1.5;stroke-linecap:round;stroke-linejoin:round;stroke-miterlimit:10;" x1="40.4" y1="22" x2="57.8" y2="26.7"/>

            <line style="fill:none;stroke:#000000;stroke-width:1.5;stroke-linecap:round;stroke-linejoin:round;stroke-miterlimit:10;" x1="22.5" y1="28.5" x2="54.9" y2="37.3"/>

            <line style="fill:none;stroke:#000000;stroke-width:1.5;stroke-linecap:round;stroke-linejoin:round;stroke-miterlimit:10;" x1="19.7" y1="39.1" x2="52.1" y2="47.8"/>

            <line style="fill:none;stroke:#000000;stroke-width:1.5;stroke-linecap:round;stroke-linejoin:round;stroke-miterlimit:10;" x1="16.8" y1="49.6" x2="49.2" y2="58.4"/>

            <path style="opacity:8.000000e-002;fill:#FFFFFF;stroke:#000000;stroke-width:2.2527;stroke-linecap:round;stroke-linejoin:round;stroke-miterlimit:10;" d="
		M53.8,14.1"/>

            <line style="fill:none;stroke:#000000;stroke-width:1.9443;stroke-linecap:round;stroke-linejoin:round;stroke-miterlimit:10;" x1="14" y1="60.1" x2="38.5" y2="66.8"/>
            <g>
                <g>
                    <path style="fill:#60439A;stroke:#60439A;stroke-miterlimit:10;" d="M34.2,11.2l-3.1,11.4c0,0.1-0.1,0.3-0.1,0.4
				c0,0.1,0,0.2,0.1,0.3c0.1,0.1,0.2,0.2,0.3,0.3c0.1,0.1,0.4,0.2,0.6,0.3c0.2,0.1,0.3,0.3,0.2,0.5c0,0,0,0.1-0.1,0.2
				c0,0.1-0.1,0.2-0.1,0.2c-0.5-0.2-0.9-0.3-1.5-0.5c-0.5-0.2-1-0.3-1.4-0.4c-0.4-0.1-0.9-0.2-1.4-0.4c-0.5-0.1-1-0.2-1.5-0.3
				c0-0.1,0-0.1,0-0.2c0-0.1,0-0.2,0-0.2c0-0.1,0.1-0.2,0.1-0.2c0.1-0.1,0.2-0.1,0.3-0.1c0.6,0.1,0.9,0.1,1.1,0
				c0.2-0.1,0.3-0.3,0.4-0.6l3.1-11.4l-1.9-0.5c-0.4-0.1-0.8-0.2-1.1-0.2c-0.3,0-0.6,0.1-0.8,0.2c-0.3,0.1-0.5,0.3-0.7,0.5
				c-0.2,0.2-0.5,0.5-0.8,0.8c-0.1,0.1-0.2,0.2-0.4,0.1c-0.1,0-0.2-0.1-0.3-0.1c-0.1-0.1-0.2-0.1-0.2-0.2c0.2-0.3,0.4-0.6,0.5-0.9
				c0.1-0.2,0.3-0.5,0.4-0.7c0.1-0.3,0.3-0.6,0.4-0.9s0.2-0.4,0.3-0.5C26.9,8,27,7.9,27.2,8c0.2,0,0.5,0.2,0.9,0.3
				c0.5,0.2,1,0.4,1.7,0.5l6.7,1.8c0.7,0.2,1.2,0.3,1.7,0.4c0.5,0.1,0.8,0.2,1,0.2c0.2,0,0.3,0.1,0.3,0.3c0,0.1,0,0.3-0.1,0.6
				s-0.1,0.6-0.1,0.9c0,0.3,0,0.6-0.1,0.8c0,0.3,0,0.6,0,1c-0.1,0-0.2,0-0.3,0c-0.1,0-0.2,0-0.3,0c-0.2,0-0.3-0.1-0.3-0.3
				c-0.1-0.4-0.2-0.8-0.2-1.1s-0.2-0.6-0.4-0.8c-0.2-0.2-0.4-0.4-0.6-0.6c-0.3-0.2-0.6-0.3-1-0.4L34.2,11.2z"/>
                </g>
            </g>
        </symbol>

        <symbol id="list" viewBox="0 0 71 80">
            <g>
                <path d="M14,11c4-0.4,8-0.6,12-0.7c4-0.2,8-0.2,12-0.2c4,0,8,0.1,12,0.2c4,0.1,8,0.3,12,0.7c-4,0.4-8,0.6-12,0.7
			c-4,0.2-8,0.2-12,0.2c-4,0-8-0.1-12-0.2C22,11.6,18,11.4,14,11z"/>
            </g>
            <g>
                <path d="M14,19c4-0.4,8-0.6,12-0.7c4-0.2,8-0.2,12-0.2c4,0,8,0.1,12,0.2c4,0.1,8,0.3,12,0.7c-4,0.4-8,0.6-12,0.7
			c-4,0.2-8,0.2-12,0.2c-4,0-8-0.1-12-0.2C22,19.6,18,19.4,14,19z"/>
            </g>
            <g>
                <path d="M14,27c4-0.4,8-0.6,12-0.7c4-0.2,8-0.2,12-0.2c4,0,8,0.1,12,0.2c4,0.1,8,0.3,12,0.7c-4,0.4-8,0.6-12,0.7
			c-4,0.2-8,0.2-12,0.2c-4,0-8-0.1-12-0.2C22,27.6,18,27.4,14,27z"/>
            </g>
            <g>
                <path d="M21,53.5c-2.6,0-5.2,0.1-7.8,0.3c-1.3,0.1-2.6,0.1-3.9,0.1l-1.9,0c-0.2,0-0.3,0-0.5,0c-0.2,0-0.5-0.1-0.6-0.2
			c-0.4-0.3-0.6-0.7-0.6-1.2c0.1-2.6,0.2-5.2,0.3-7.8c0-1.3,0-2.6,0-3.9c0-0.6,0-1.3,0-1.9c0-0.2,0-0.3,0-0.5c0-0.2,0.1-0.4,0.2-0.6
			c0.2-0.3,0.6-0.6,1-0.6c2.6-0.1,5.2-0.2,7.8-0.2l3.9-0.1l1.9,0c0.2,0,0.3,0,0.5,0c0.2,0,0.5,0.1,0.7,0.3c0.4,0.3,0.7,0.8,0.7,1.3
			c0,2.6-0.1,5.2-0.2,7.8l-0.2,3.9c0,0.6,0,1.3-0.1,1.9c0,0.3,0,0.7-0.2,1C21.7,53.4,21.3,53.6,21,53.5z M21,53.5
			c0.3,0,0.6-0.2,0.8-0.4c0.2-0.3,0.2-0.6,0.1-0.9c0-0.6,0-1.3-0.1-1.9l-0.2-3.9c-0.1-2.6-0.2-5.2-0.2-7.8c0-0.1-0.1-0.3-0.2-0.4
			c-0.1,0-0.1-0.1-0.2-0.1c0,0-0.3,0-0.4,0l-1.9,0L14.8,38c-2.6,0-5.2-0.1-7.8-0.2c-0.2,0-0.5,0.1-0.6,0.3c-0.2,0.2-0.2,0.4-0.2,0.8
			c0,0.6,0,1.3,0,1.9c0,1.3,0,2.6,0,3.9c0,2.6,0.2,5.2,0.3,7.8c0,0.2,0.1,0.4,0.3,0.5c0.1,0,0.2,0.1,0.3,0.1c0.1,0,0.3,0,0.4,0
			l1.9,0c1.3,0,2.6,0.1,3.9,0.1C15.8,53.3,18.4,53.5,21,53.5z"/>
            </g>
            <g>
                <path d="M41.5,53.5c-2.6,0-5.2,0.1-7.8,0.3c-1.3,0.1-2.6,0.1-3.9,0.1l-1.9,0c-0.2,0-0.3,0-0.5,0c-0.2,0-0.5-0.1-0.6-0.2
			c-0.4-0.3-0.6-0.7-0.6-1.2c0.1-2.6,0.2-5.2,0.3-7.8c0-1.3,0-2.6,0-3.9c0-0.6,0-1.3,0-1.9c0-0.2,0-0.3,0-0.5c0-0.2,0.1-0.4,0.2-0.6
			c0.2-0.3,0.6-0.6,1-0.6c2.6-0.1,5.2-0.2,7.8-0.2l3.9-0.1l1.9,0c0.2,0,0.3,0,0.5,0c0.2,0,0.5,0.1,0.7,0.3c0.4,0.3,0.7,0.8,0.7,1.3
			c0,2.6-0.1,5.2-0.2,7.8l-0.2,3.9c0,0.6,0,1.3-0.1,1.9c0,0.3,0,0.7-0.2,1C42.2,53.4,41.8,53.6,41.5,53.5z M41.5,53.5
			c0.3,0,0.6-0.2,0.8-0.4c0.2-0.3,0.2-0.6,0.1-0.9c0-0.6,0-1.3-0.1-1.9l-0.2-3.9C42,43.7,42,41.1,42,38.5c0-0.1-0.1-0.3-0.2-0.4
			c-0.1,0-0.1-0.1-0.2-0.1c0,0-0.3,0-0.4,0l-1.9,0L35.3,38c-2.6,0-5.2-0.1-7.8-0.2c-0.2,0-0.5,0.1-0.6,0.3c-0.2,0.2-0.2,0.4-0.2,0.8
			c0,0.6,0,1.3,0,1.9c0,1.3,0,2.6,0,3.9c0,2.6,0.2,5.2,0.3,7.8c0,0.2,0.1,0.4,0.3,0.5c0.1,0,0.2,0.1,0.3,0.1c0.1,0,0.3,0,0.4,0
			l1.9,0c1.3,0,2.6,0.1,3.9,0.1C36.3,53.3,38.9,53.5,41.5,53.5z"/>
            </g>
            <g>
                <path d="M62,53.5c-2.6,0-5.2,0.1-7.8,0.3c-1.3,0.1-2.6,0.1-3.9,0.1l-1.9,0c-0.2,0-0.3,0-0.5,0c-0.2,0-0.5-0.1-0.6-0.2
			c-0.4-0.3-0.6-0.7-0.6-1.2c0.1-2.6,0.2-5.2,0.3-7.8c0-1.3,0-2.6,0-3.9c0-0.6,0-1.3,0-1.9c0-0.2,0-0.3,0-0.5c0-0.2,0.1-0.4,0.2-0.6
			c0.2-0.3,0.6-0.6,1-0.6c2.6-0.1,5.2-0.2,7.8-0.2l3.9-0.1l1.9,0c0.2,0,0.3,0,0.5,0c0.2,0,0.5,0.1,0.7,0.3c0.4,0.3,0.7,0.8,0.7,1.3
			c0,2.6-0.1,5.2-0.2,7.8l-0.2,3.9c0,0.6,0,1.3-0.1,1.9c0,0.3,0,0.7-0.2,1C62.7,53.4,62.3,53.6,62,53.5z M62,53.5
			c0.3,0,0.6-0.2,0.8-0.4c0.2-0.3,0.2-0.6,0.1-0.9c0-0.6,0-1.3-0.1-1.9l-0.2-3.9c-0.1-2.6-0.2-5.2-0.2-7.8c0-0.1-0.1-0.3-0.2-0.4
			c-0.1,0-0.1-0.1-0.2-0.1c0,0-0.3,0-0.4,0l-1.9,0L55.8,38c-2.6,0-5.2-0.1-7.8-0.2c-0.2,0-0.5,0.1-0.6,0.3c-0.2,0.2-0.2,0.4-0.2,0.8
			c0,0.6,0,1.3,0,1.9c0,1.3,0,2.6,0,3.9c0,2.6,0.2,5.2,0.3,7.8c0,0.2,0.1,0.4,0.3,0.5c0.1,0,0.2,0.1,0.3,0.1c0.1,0,0.3,0,0.4,0
			l1.9,0c1.3,0,2.6,0.1,3.9,0.1C56.8,53.3,59.4,53.5,62,53.5z"/>
            </g>
            <g>
                <path d="M21,75.1c-2.6,0-5.2,0.1-7.8,0.3c-1.3,0.1-2.6,0.1-3.9,0.1l-1.9,0c-0.2,0-0.3,0-0.5,0c-0.2,0-0.5-0.1-0.6-0.2
			c-0.4-0.3-0.6-0.7-0.6-1.2c0.1-2.6,0.2-5.2,0.3-7.8c0-1.3,0-2.6,0-3.9c0-0.6,0-1.3,0-1.9c0-0.2,0-0.3,0-0.5c0-0.2,0.1-0.4,0.2-0.6
			c0.2-0.3,0.6-0.6,1-0.6c2.6-0.1,5.2-0.2,7.8-0.2l3.9-0.1l1.9,0c0.2,0,0.3,0,0.5,0c0.2,0,0.5,0.1,0.7,0.3c0.4,0.3,0.7,0.8,0.7,1.3
			c0,2.6-0.1,5.2-0.2,7.8l-0.2,3.9c0,0.6,0,1.3-0.1,1.9c0,0.3,0,0.7-0.2,1C21.7,74.9,21.3,75.1,21,75.1z M21,74.9
			c0.3,0,0.6-0.2,0.8-0.4c0.2-0.3,0.2-0.6,0.1-0.9c0-0.6,0-1.3-0.1-1.9l-0.2-3.9c-0.1-2.6-0.2-5.2-0.2-7.8c0-0.1-0.1-0.3-0.2-0.4
			c-0.1,0-0.1-0.1-0.2-0.1c0,0-0.3,0-0.4,0l-1.9,0l-3.9-0.1c-2.6,0-5.2-0.1-7.8-0.2c-0.2,0-0.5,0.1-0.6,0.3
			c-0.2,0.2-0.2,0.4-0.2,0.8c0,0.6,0,1.3,0,1.9c0,1.3,0,2.6,0,3.9c0,2.6,0.2,5.2,0.3,7.8c0,0.2,0.1,0.4,0.3,0.5
			c0.1,0,0.2,0.1,0.3,0.1c0.1,0,0.3,0,0.4,0l1.9,0c1.3,0,2.6,0.1,3.9,0.1C15.8,74.8,18.4,75,21,74.9z"/>
            </g>
            <g>
                <path d="M41.5,75.1c-2.6,0-5.2,0.1-7.8,0.3c-1.3,0.1-2.6,0.1-3.9,0.1l-1.9,0c-0.2,0-0.3,0-0.5,0c-0.2,0-0.5-0.1-0.6-0.2
			c-0.4-0.3-0.6-0.7-0.6-1.2c0.1-2.6,0.2-5.2,0.3-7.8c0-1.3,0-2.6,0-3.9c0-0.6,0-1.3,0-1.9c0-0.2,0-0.3,0-0.5c0-0.2,0.1-0.4,0.2-0.6
			c0.2-0.3,0.6-0.6,1-0.6c2.6-0.1,5.2-0.2,7.8-0.2l3.9-0.1l1.9,0c0.2,0,0.3,0,0.5,0c0.2,0,0.5,0.1,0.7,0.3C42.8,59,43,59.5,43,60
			c0,2.6-0.1,5.2-0.2,7.8l-0.2,3.9c0,0.6,0,1.3-0.1,1.9c0,0.3,0,0.7-0.2,1C42.2,74.9,41.8,75.1,41.5,75.1z M41.5,74.9
			c0.3,0,0.6-0.2,0.8-0.4c0.2-0.3,0.2-0.6,0.1-0.9c0-0.6,0-1.3-0.1-1.9l-0.2-3.9C42,65.2,42,62.6,42,60c0-0.1-0.1-0.3-0.2-0.4
			c-0.1,0-0.1-0.1-0.2-0.1c0,0-0.3,0-0.4,0l-1.9,0l-3.9-0.1c-2.6,0-5.2-0.1-7.8-0.2c-0.2,0-0.5,0.1-0.6,0.3
			c-0.2,0.2-0.2,0.4-0.2,0.8c0,0.6,0,1.3,0,1.9c0,1.3,0,2.6,0,3.9c0,2.6,0.2,5.2,0.3,7.8c0,0.2,0.1,0.4,0.3,0.5
			c0.1,0,0.2,0.1,0.3,0.1c0.1,0,0.3,0,0.4,0l1.9,0c1.3,0,2.6,0.1,3.9,0.1C36.3,74.8,38.9,75,41.5,74.9z"/>
            </g>
            <g>
                <path d="M62,75.1c-2.6,0-5.2,0.1-7.8,0.3c-1.3,0.1-2.6,0.1-3.9,0.1l-1.9,0c-0.2,0-0.3,0-0.5,0c-0.2,0-0.5-0.1-0.6-0.2
			c-0.4-0.3-0.6-0.7-0.6-1.2c0.1-2.6,0.2-5.2,0.3-7.8c0-1.3,0-2.6,0-3.9c0-0.6,0-1.3,0-1.9c0-0.2,0-0.3,0-0.5c0-0.2,0.1-0.4,0.2-0.6
			c0.2-0.3,0.6-0.6,1-0.6c2.6-0.1,5.2-0.2,7.8-0.2l3.9-0.1l1.9,0c0.2,0,0.3,0,0.5,0c0.2,0,0.5,0.1,0.7,0.3c0.4,0.3,0.7,0.8,0.7,1.3
			c0,2.6-0.1,5.2-0.2,7.8l-0.2,3.9c0,0.6,0,1.3-0.1,1.9c0,0.3,0,0.7-0.2,1C62.7,74.9,62.3,75.1,62,75.1z M62,74.9
			c0.3,0,0.6-0.2,0.8-0.4c0.2-0.3,0.2-0.6,0.1-0.9c0-0.6,0-1.3-0.1-1.9l-0.2-3.9c-0.1-2.6-0.2-5.2-0.2-7.8c0-0.1-0.1-0.3-0.2-0.4
			c-0.1,0-0.1-0.1-0.2-0.1c0,0-0.3,0-0.4,0l-1.9,0l-3.9-0.1c-2.6,0-5.2-0.1-7.8-0.2c-0.2,0-0.5,0.1-0.6,0.3
			c-0.2,0.2-0.2,0.4-0.2,0.8c0,0.6,0,1.3,0,1.9c0,1.3,0,2.6,0,3.9c0,2.6,0.2,5.2,0.3,7.8c0,0.2,0.1,0.4,0.3,0.5
			c0.1,0,0.2,0.1,0.3,0.1c0.1,0,0.3,0,0.4,0l1.9,0c1.3,0,2.6,0.1,3.9,0.1C56.8,74.8,59.4,75,62,74.9z"/>
            </g>
            <circle style="fill:#E59B3A;" cx="7.8" cy="11" r="1.8"/>
            <circle style="fill:#E59B3A;" cx="7.8" cy="19" r="1.8"/>
            <circle style="fill:#E59B3A;" cx="7.8" cy="27" r="1.8"/>
        </symbol>

        <symbol id="profile" viewBox="0 0 71 80">
            <g>
                <path style="fill:#128BC7;" d="M41.2,26.1c0,0-0.2,0-0.7-0.1c-0.5,0-1.1-0.1-2,0c-0.4,0-0.9,0.1-1.4,0.2c-0.5,0.1-0.9,0.2-1.5,0.4
			c-1,0.3-2.2,0.9-3.2,1.6c-1,0.8-2,1.7-2.8,2.9c-0.8,1.2-1.3,2.6-1.5,4C28,35.5,28,35.9,28,36.3l0,0.1c0,0,0-0.2,0-0.1l0,0l0,0
			l0,0.1l0,0.3l0,0.7c0.1,0.3,0.1,0.6,0.2,1c0.1,0.4,0.1,0.7,0.3,1.1c0.4,1.5,1.2,2.8,2.3,3.9c1,1.1,2.4,2,3.8,2.5
			c0.3,0.2,0.7,0.2,1.1,0.3c0.2,0.1,0.4,0.1,0.6,0.1l0.3,0.1l0.1,0l0.1,0c-0.2,0-0.1,0-0.1,0l0,0l0,0l0.7,0.1c0.2,0,0.5,0,0.6,0
			c0.3,0,0.6,0,1,0c1.5-0.1,2.9-0.6,4.1-1.3c1.2-0.7,2.3-1.6,3.1-2.6c0.8-1,1.4-2.1,1.8-3.1c0.4-1,0.6-2,0.7-2.8
			c0.1-0.8,0.1-1.5,0.1-1.9c0-0.5,0-0.7,0-0.7s0.1,0.2,0.3,0.6c0.2,0.4,0.4,1.1,0.6,2c0.2,0.9,0.3,2,0.1,3.3
			c-0.1,1.3-0.5,2.8-1.2,4.2c-0.7,1.5-1.9,2.9-3.4,4.2c-1.5,1.2-3.4,2.2-5.6,2.6c-0.5,0.1-1.1,0.2-1.7,0.2c-0.3,0-0.6,0-0.8,0
			l-0.7,0l0,0l-0.2,0l-0.1,0l-0.2,0l-0.4,0c-0.3,0-0.6,0-0.8-0.1c-0.6-0.1-1.1-0.2-1.7-0.4c-2.2-0.7-4.3-2-5.9-3.7
			c-0.8-0.8-1.5-1.8-2.1-2.8c-0.5-1-1-2.1-1.2-3.3c-0.2-0.6-0.2-1.1-0.3-1.7c-0.1-0.6-0.1-1.2-0.1-1.8l0-0.7l0-0.3l0-0.3l0-0.2
			c0.1-0.5,0.2-1.1,0.3-1.6c0.6-2.1,1.6-4,2.9-5.4c1.3-1.5,2.8-2.5,4.3-3.1c1.5-0.7,3-0.9,4.3-1c0.6-0.1,1.3,0,1.8,0.1
			c0.5,0.1,1,0.2,1.4,0.3c0.9,0.2,1.5,0.5,1.9,0.7C40.9,26,41.2,26.1,41.2,26.1z"/>
            </g>
            <g>
                <path d="M45,25.6c0,0,0.1,0,0.3,0c0.2,0,0.5,0,0.8,0.1c0.7,0.2,1.6,0.6,2.4,1.5c0.4,0.5,0.7,1.1,0.9,1.8c0,0.2,0.1,0.4,0.1,0.6
			c0,0.2,0,0.3,0,0.6c0,0.4-0.1,0.8-0.3,1.2c-0.3,0.8-0.9,1.5-1.6,2c-0.8,0.5-1.6,0.8-2.6,0.8c-0.3,0-0.9-0.1-1.3-0.2
			c-0.4-0.1-0.9-0.3-1.2-0.6c-0.8-0.5-1.3-1.2-1.6-2c-0.3-0.8-0.3-1.6-0.2-2.3c0.2-0.8,0.5-1.4,0.9-1.8c0.8-1,1.8-1.4,2.4-1.5
			c0.3-0.1,0.6-0.1,0.8-0.1C44.9,25.6,45,25.6,45,25.6z M45,25.6c0,0-0.1,0-0.3,0c-0.2,0-0.5,0-0.8,0.1c-0.7,0.2-1.6,0.7-2.2,1.7
			c-0.3,0.5-0.5,1.1-0.5,1.7c0,0.7,0.2,1.3,0.5,1.8c0.3,0.6,0.8,1,1.4,1.3c0.3,0.2,0.6,0.3,0.9,0.4c0.3,0.1,0.6,0.1,1,0.1
			c0.3,0,0.6,0,0.9-0.1c0.3-0.1,0.6-0.2,0.9-0.4c0.6-0.3,1.1-0.8,1.4-1.3c0.2-0.3,0.3-0.6,0.4-0.9c0-0.1,0.1-0.3,0.1-0.5
			c0-0.1,0-0.3,0-0.5c0-0.6-0.2-1.2-0.5-1.7c-0.6-1-1.5-1.5-2.2-1.7c-0.3-0.1-0.6-0.1-0.8-0.1C45.1,25.6,45,25.6,45,25.6z"/>
            </g>
            <g>
                <path d="M43.5,21.6c0,0,0-0.1,0-0.3c0-0.2,0.1-0.6,0.2-1c0.1-0.4,0.3-0.9,0.6-1.4c0.3-0.5,0.8-1,1.4-1.4c0.6-0.4,1.4-0.8,2.2-0.9
			c0.2,0,0.4-0.1,0.7-0.1c0.2,0,0.4,0,0.7,0c0.5,0,1,0.1,1.4,0.3c0.9,0.3,1.9,0.9,2.5,1.8c0.7,0.8,1.1,2,1.1,3.1
			c0,0.5-0.1,1.1-0.3,1.7c-0.2,0.5-0.5,1-0.8,1.4c-0.7,0.9-1.6,1.4-2.5,1.8c-0.9,0.3-1.9,0.3-2.8,0.2c-0.9-0.2-1.6-0.5-2.3-0.9
			c-0.6-0.4-1.1-0.9-1.4-1.4c-0.3-0.5-0.5-1-0.6-1.4c-0.1-0.4-0.2-0.7-0.2-1C43.5,21.7,43.5,21.6,43.5,21.6z M43.5,21.6
			c0,0,0,0.1,0,0.3c0,0.2,0.1,0.6,0.2,1c0.1,0.4,0.3,0.9,0.7,1.3c0.4,0.5,0.9,0.9,1.5,1.2c0.6,0.3,1.4,0.5,2.1,0.5
			c0.8,0,1.6-0.2,2.3-0.5c0.7-0.4,1.4-0.9,1.8-1.6c0.2-0.3,0.4-0.7,0.5-1.1c0.1-0.4,0.2-0.7,0.2-1.2c0-0.4-0.1-0.8-0.2-1.2
			c-0.1-0.4-0.3-0.7-0.5-1.1c-0.5-0.7-1.1-1.2-1.8-1.6c-0.4-0.2-0.8-0.3-1.1-0.4c-0.2-0.1-0.4-0.1-0.6-0.1c-0.2,0-0.4,0-0.6,0
			c-0.8,0-1.5,0.2-2.1,0.5c-0.6,0.3-1.1,0.8-1.5,1.2c-0.4,0.5-0.6,0.9-0.7,1.3c-0.1,0.4-0.2,0.7-0.2,1
			C43.5,21.5,43.5,21.6,43.5,21.6z"/>
            </g>
            <g>
                <path d="M47.2,6.8c0,0,0.1,0.1,0.3,0.4c0.2,0.3,0.5,0.7,0.8,1.2c0.3,0.6,0.6,1.3,0.7,2.2c0.1,0.9,0.1,1.9-0.1,3
			c-0.2,1.1-0.8,2.2-1.6,3.2c-0.2,0.2-0.4,0.5-0.7,0.7c-0.2,0.2-0.5,0.4-0.8,0.6c-0.6,0.4-1.2,0.8-1.8,1c-0.7,0.3-1.4,0.4-2.1,0.5
			c-0.8,0.1-1.5,0-2.3-0.1c-1.5-0.3-3-1.1-4.1-2.3c-0.5-0.6-1-1.3-1.3-2c-0.3-0.7-0.5-1.5-0.6-2.3c-0.1-0.8,0-1.5,0.1-2.3
			c0.2-0.7,0.4-1.4,0.8-2.1c0.7-1.3,1.7-2.3,2.7-3c1.1-0.7,2.3-1.1,3.4-1.3c1.1-0.1,2.1,0,3,0.2c0.9,0.2,1.6,0.6,2.1,0.9
			c0.5,0.3,0.9,0.7,1.1,0.9C47.1,6.7,47.2,6.8,47.2,6.8z M47.2,6.8c0,0-0.1-0.1-0.4-0.4c-0.2-0.2-0.6-0.6-1.2-0.9
			c-0.5-0.3-1.2-0.7-2.1-0.8c-0.9-0.2-1.9-0.2-2.9,0c-1,0.2-2.1,0.7-3,1.4C36.7,7,36,8,35.5,9.2c-0.5,1.2-0.6,2.5-0.4,3.8
			c0.1,0.6,0.3,1.2,0.6,1.8c0.3,0.6,0.6,1.1,1.1,1.6c0.4,0.5,0.9,0.9,1.5,1.2c0.6,0.3,1.2,0.6,1.8,0.7c1.2,0.3,2.6,0.3,3.8-0.1
			c0.6-0.2,1.2-0.4,1.7-0.8c0.3-0.1,0.5-0.4,0.8-0.5c0.2-0.2,0.4-0.4,0.7-0.6c0.8-0.8,1.4-1.9,1.8-2.9c0.4-1,0.4-2,0.3-2.9
			c-0.1-0.9-0.3-1.6-0.6-2.2c-0.3-0.6-0.6-1-0.8-1.2C47.3,7,47.2,6.8,47.2,6.8z"/>
            </g>
            <g>
                <path d="M48.6,52.3c-0.8,0.7-1.6,1.4-2.5,1.9c-0.9,0.6-1.9,1.1-2.9,1.5c-1,0.4-2,0.8-3.1,1c-1.1,0.3-2.2,0.4-3.3,0.5
			c-0.3,0-0.5,0-0.8,0c-0.3,0-0.6,0-0.9,0c-0.6,0-1.1-0.1-1.7-0.2c-1.1-0.2-2.2-0.5-3.2-0.8c-2.1-0.7-4.1-1.7-5.9-3.3l1,0.1
			c-0.9,0.5-1.7,1-2.6,1.6c-0.4,0.3-0.8,0.6-1.2,0.9c-0.4,0.3-0.8,0.6-1.1,0.9c-0.4,0.3-0.7,0.7-1.1,1c-0.3,0.3-0.7,0.7-1,1.1
			c-0.3,0.4-0.6,0.8-0.8,1.2l-0.4,0.6l-0.3,0.7c-0.2,0.4-0.4,0.9-0.6,1.4c-0.2,0.5-0.3,1-0.5,1.4l-0.4,1.5c-0.1,0.5-0.2,1-0.2,1.5
			c0,0.5-0.1,1-0.1,1.5L15,69.7c0,1,0,2,0.2,3.1l-0.3-0.3c3.5,0,7-0.1,10.5-0.2c3.5-0.1,7-0.2,10.5-0.3l10.5-0.1c1.8,0,3.5,0,5.3,0
			c1.8,0,3.5,0,5.3,0l-1,0.9c0.1-1,0.2-1.9,0.2-2.9l0-1.5l0-1.5c0-1-0.1-1.9-0.2-2.9c-0.1-1-0.3-1.9-0.5-2.8c-0.2-0.9-0.6-1.8-1-2.7
			c-0.2-0.4-0.5-0.8-0.7-1.3c-0.3-0.4-0.5-0.8-0.8-1.2c-0.3-0.4-0.6-0.7-1-1.1c-0.3-0.4-0.7-0.7-1.1-1
			C50.1,53.4,49.3,52.8,48.6,52.3z M48.6,52c0.4,0.2,0.9,0.5,1.3,0.7c0.4,0.3,0.9,0.5,1.3,0.8c0.4,0.3,0.8,0.6,1.2,0.9L53,55
			l0.5,0.6c0.4,0.4,0.7,0.8,1,1.2c0.3,0.4,0.6,0.8,0.9,1.3c0.5,0.9,1,1.9,1.3,2.8c0.3,1,0.6,2,0.8,3c0.2,1,0.3,2,0.4,3.1l0.1,1.5
			l0,1.5c0,1-0.1,2.1-0.2,3.1L57.9,74l-0.9,0c-1.8,0-3.5,0-5.3,0c-1.8,0-3.5,0-5.3-0.1l-10.5-0.2c-3.5-0.1-7-0.2-10.5-0.4
			c-3.5-0.1-7-0.3-10.5-0.3l-0.3,0l0-0.3c-0.1-1-0.2-2.1-0.2-3.1c0-1,0-2.1,0.1-3.1c0.1-1,0.2-2.1,0.4-3.1c0.1-0.5,0.2-1,0.4-1.6
			c0.2-0.5,0.3-1,0.5-1.5l0.3-0.8l0.4-0.7c0.2-0.5,0.5-0.9,0.8-1.4c0.3-0.4,0.6-0.9,1-1.3c0.4-0.4,0.7-0.8,1.1-1.2
			c0.4-0.4,0.8-0.7,1.2-1.1c0.4-0.4,0.9-0.6,1.3-1c0.9-0.6,1.8-1.1,2.7-1.6l0.6-0.3l0.5,0.4c0.7,0.7,1.5,1.2,2.4,1.8
			c0.9,0.5,1.8,1,2.8,1.3c1,0.4,2,0.7,3,0.9c0.5,0.1,1,0.2,1.5,0.3c0.2,0,0.5,0.1,0.7,0.1c0.3,0,0.6,0,0.8,0c1,0,2.1-0.1,3.1-0.3
			c1-0.2,2-0.5,3-0.8c1-0.3,2-0.7,2.9-1.2c0.5-0.2,0.9-0.5,1.4-0.8c0.5-0.3,0.9-0.6,1.3-0.9L48.6,52L48.6,52z"/>
            </g>
        </symbol>

        <symbol id="resource" viewBox="0 0 71 80">
            <g>
                <g>
                    <clipPath id="SVGID_2_">
                        <rect id="SVGID_5_" x="50.5" y="15.2" transform="matrix(-1 1.757533e-003 -1.757533e-003 -1 113.5424 42.766)" width="12.5" height="12.5"/>
                    </clipPath>
                    <path style="clip-path:url(#SVGID_2_);fill:#98C03D;" d="M62.6,22.5L61.8,22c0-0.3,0-0.6,0-1l0.8-0.5c0.3-0.2,0.5-0.6,0.3-1
				l-0.4-1.1c-0.1-0.3-0.4-0.5-0.7-0.5c-0.1,0-0.1,0-0.2,0l-0.9,0.2c-0.2-0.3-0.4-0.5-0.7-0.7l0.2-0.9c0.1-0.4-0.1-0.8-0.5-0.9
				l-1-0.4c-0.1,0-0.2-0.1-0.3-0.1c-0.3,0-0.5,0.1-0.7,0.4c0,0,0,0,0,0l-0.5,0.8c-0.3,0-0.6,0-1,0l-0.5-0.8
				c-0.1-0.2-0.4-0.4-0.7-0.4c-0.1,0-0.2,0-0.3,0.1l-1.1,0.4c-0.4,0.1-0.6,0.5-0.5,0.9l0.2,0.9c-0.3,0.2-0.5,0.4-0.7,0.7l-0.9-0.2
				c-0.1,0-0.1,0-0.2,0c-0.3,0-0.6,0.2-0.7,0.5l-0.4,1c-0.1,0.4,0,0.8,0.3,1l0.8,0.5c0,0.3,0,0.6,0,1l-0.8,0.5c0,0,0,0,0,0
				c-0.3,0.2-0.5,0.6-0.3,0.9c0,0,0,0,0,0l0.4,1.1c0.1,0.3,0.4,0.5,0.7,0.5c0.1,0,0.1,0,0.2,0l0.9-0.2c0.2,0.3,0.4,0.5,0.7,0.7
				l-0.2,0.9c-0.1,0.4,0.1,0.8,0.5,0.9l1,0.4c0.1,0,0.2,0.1,0.3,0.1c0.3,0,0.5-0.1,0.7-0.4l0.5-0.8c0.3,0,0.6,0,1,0l0.5,0.8
				c0.1,0.2,0.4,0.4,0.7,0.4c0.1,0,0.2,0,0.3-0.1l1.1-0.4c0.4-0.1,0.6-0.5,0.5-0.9l-0.2-0.9c0.2-0.2,0.5-0.4,0.7-0.6l0.9,0.2
				c0.1,0,0.1,0,0.2,0c0.3,0,0.6-0.2,0.7-0.5l0.4-1C63,23.1,62.9,22.7,62.6,22.5L62.6,22.5z M62.2,23.2l-0.4,1c0,0,0,0.1-0.1,0.1
				c0,0,0,0,0,0L60.5,24c-0.1,0-0.3,0-0.4,0.1c-0.2,0.3-0.5,0.6-0.9,0.8c-0.1,0.1-0.2,0.2-0.1,0.4l0.2,1.1c0,0,0,0.1-0.1,0.1
				L58.3,27c0,0,0,0,0,0c0,0-0.1,0-0.1,0l-0.6-1c-0.1-0.1-0.2-0.2-0.3-0.2c0,0,0,0,0,0c-0.2,0-0.4,0-0.6,0c-0.2,0-0.4,0-0.7-0.1
				c-0.1,0-0.3,0-0.3,0.2l-0.6,1c0,0-0.1,0-0.1,0l-1-0.4c0,0-0.1-0.1,0-0.1l0.3-1.1c0-0.1,0-0.3-0.1-0.4c-0.3-0.2-0.6-0.5-0.9-0.9
				c-0.1-0.1-0.2-0.2-0.4-0.1l-1.1,0.2c0,0,0,0,0,0c0,0-0.1,0-0.1-0.1l-0.4-1c0,0,0-0.1,0-0.1l1-0.6c0.1-0.1,0.2-0.2,0.2-0.3
				c-0.1-0.4-0.1-0.8,0-1.2c0-0.1,0-0.3-0.2-0.3l-1-0.6c0,0,0-0.1,0-0.1l0.4-1c0,0,0-0.1,0.1-0.1c0,0,0,0,0,0l1.1,0.3
				c0.1,0,0.3,0,0.4-0.1c0.3-0.3,0.6-0.6,0.9-0.9c0.1-0.1,0.2-0.2,0.1-0.4l-0.2-1.1c0,0,0-0.1,0.1-0.1l1.1-0.4c0,0,0,0,0,0
				c0,0,0.1,0,0.1,0l0.6,1c0.1,0.1,0.2,0.2,0.3,0.2c0.4,0,0.8,0,1.2,0c0.1,0,0.3,0,0.3-0.2l0.6-1c0,0,0.1,0,0.1,0l1,0.4
				c0,0,0.1,0.1,0,0.1l-0.3,1.1c0,0.1,0,0.3,0.1,0.4c0.3,0.3,0.6,0.5,0.8,0.9c0.1,0.1,0.2,0.2,0.4,0.1l1.1-0.2c0,0,0,0,0,0
				c0,0,0.1,0,0.1,0.1l0.4,1.1c0,0,0,0.1,0,0.1l-1,0.6c-0.1,0.1-0.2,0.2-0.2,0.3c0,0.4,0,0.8,0,1.2c0,0.1,0,0.3,0.2,0.3l1,0.6
				C62.2,23.1,62.2,23.1,62.2,23.2L62.2,23.2z M62.2,23.2"/>
                </g>
                <path style="fill:#98C03D;" d="M56.7,18.8L56.7,18.8c-0.7,0-1.4,0.3-1.9,0.7c-0.5,0.5-0.8,1.1-0.8,1.8c0,1.4,1.1,2.6,2.6,2.6l0,0
			c0.7,0,1.3-0.3,1.8-0.7c0.5-0.5,0.8-1.1,0.8-1.8C59.3,20,58.2,18.9,56.7,18.8L56.7,18.8z M56.7,23.3L56.7,23.3
			c-1.1,0-1.9-0.9-1.9-1.9c0-1,0.9-1.9,1.9-1.9l0,0c1,0,1.9,0.9,1.9,1.9C58.6,22.5,57.7,23.3,56.7,23.3L56.7,23.3z M56.7,23.3"/>
            </g>
            <g>
                <g>
                    <clipPath id="SVGID_4_">
                        <rect id="SVGID_7_" x="41.5" y="9.2" width="7.5" height="7.5"/>
                    </clipPath>
                    <path style="clip-path:url(#SVGID_4_);" d="M48.7,13.6l-0.5-0.3c0-0.2,0-0.4,0-0.6l0.5-0.3c0.2-0.1,0.3-0.4,0.2-0.6l-0.3-0.6
				c-0.1-0.2-0.2-0.3-0.4-0.3c0,0-0.1,0-0.1,0L47.6,11c-0.1-0.2-0.3-0.3-0.4-0.4l0.1-0.5c0.1-0.2-0.1-0.5-0.3-0.5l-0.6-0.3
				c-0.1,0-0.1,0-0.2,0c-0.2,0-0.3,0.1-0.4,0.2c0,0,0,0,0,0l-0.3,0.5c-0.2,0-0.4,0-0.6,0l-0.3-0.5c-0.1-0.1-0.2-0.2-0.4-0.2
				c-0.1,0-0.1,0-0.2,0l-0.6,0.3c-0.2,0.1-0.3,0.3-0.3,0.5l0.1,0.5c-0.2,0.1-0.3,0.3-0.4,0.4l-0.5-0.1c0,0-0.1,0-0.1,0
				c-0.2,0-0.4,0.1-0.4,0.3l-0.3,0.6c-0.1,0.2,0,0.5,0.2,0.6l0.5,0.3c0,0.2,0,0.4,0,0.6l-0.5,0.3c0,0,0,0,0,0
				c-0.2,0.1-0.3,0.4-0.2,0.6c0,0,0,0,0,0l0.3,0.6c0.1,0.2,0.2,0.3,0.4,0.3c0,0,0.1,0,0.1,0l0.5-0.1c0.1,0.2,0.3,0.3,0.4,0.4
				l-0.1,0.5c-0.1,0.2,0.1,0.5,0.3,0.5l0.6,0.3c0.1,0,0.1,0,0.2,0c0.2,0,0.3-0.1,0.4-0.2l0.3-0.5c0.2,0,0.4,0,0.6,0l0.3,0.5
				c0.1,0.1,0.2,0.2,0.4,0.2c0.1,0,0.1,0,0.2,0l0.6-0.3c0.2-0.1,0.3-0.3,0.3-0.5l-0.1-0.5c0.1-0.1,0.3-0.2,0.4-0.4l0.5,0.1
				c0,0,0.1,0,0.1,0c0.2,0,0.4-0.1,0.4-0.3l0.3-0.6C49,14,48.9,13.7,48.7,13.6L48.7,13.6z M48.5,14l-0.3,0.6c0,0,0,0,0,0
				c0,0,0,0,0,0l-0.7-0.2c-0.1,0-0.2,0-0.2,0.1c-0.1,0.2-0.3,0.4-0.5,0.5c-0.1,0-0.1,0.1-0.1,0.2l0.1,0.7c0,0,0,0,0,0.1l-0.6,0.3
				c0,0,0,0,0,0c0,0,0,0,0,0l-0.4-0.6c0-0.1-0.1-0.1-0.2-0.1c0,0,0,0,0,0c-0.1,0-0.2,0-0.3,0c-0.1,0-0.3,0-0.4,0
				c-0.1,0-0.2,0-0.2,0.1l-0.4,0.6c0,0,0,0-0.1,0L43.6,16c0,0,0,0,0-0.1l0.2-0.7c0-0.1,0-0.2-0.1-0.2c-0.2-0.1-0.4-0.3-0.5-0.5
				c0-0.1-0.1-0.1-0.2-0.1l-0.7,0.1c0,0,0,0,0,0c0,0,0,0,0,0l-0.3-0.6c0,0,0-0.1,0-0.1l0.6-0.4c0.1,0,0.1-0.1,0.1-0.2
				c0-0.2,0-0.5,0-0.7c0-0.1,0-0.2-0.1-0.2L42,12c0,0,0,0,0-0.1l0.3-0.6c0,0,0,0,0,0c0,0,0,0,0,0l0.7,0.2c0.1,0,0.2,0,0.2-0.1
				c0.2-0.2,0.3-0.4,0.5-0.5c0.1,0,0.1-0.1,0.1-0.2l-0.1-0.7c0,0,0,0,0-0.1l0.6-0.3c0,0,0,0,0,0c0,0,0,0,0,0l0.4,0.6
				c0,0.1,0.1,0.1,0.2,0.1c0.2,0,0.5,0,0.7,0c0.1,0,0.2,0,0.2-0.1l0.4-0.6c0,0,0,0,0.1,0l0.6,0.3c0,0,0,0,0,0.1l-0.2,0.7
				c0,0.1,0,0.2,0.1,0.2c0.2,0.2,0.4,0.3,0.5,0.5c0,0.1,0.1,0.1,0.2,0.1l0.7-0.1c0,0,0,0,0,0c0,0,0,0,0,0l0.3,0.6c0,0,0,0.1,0,0.1
				l-0.6,0.4c-0.1,0-0.1,0.1-0.1,0.2c0,0.2,0,0.5,0,0.7c0,0.1,0,0.2,0.1,0.2L48.5,14C48.5,13.9,48.5,14,48.5,14L48.5,14z M48.5,14"
                    />
                </g>
                <path d="M45.2,11.4L45.2,11.4c-0.4,0-0.8,0.2-1.1,0.4c-0.3,0.3-0.5,0.7-0.5,1.1c0,0.9,0.7,1.6,1.5,1.6h0c0.4,0,0.8-0.2,1.1-0.4
			c0.3-0.3,0.5-0.7,0.5-1.1C46.8,12.1,46.1,11.4,45.2,11.4L45.2,11.4z M45.2,14.1L45.2,14.1c-0.6,0-1.1-0.5-1.1-1.2
			c0-0.6,0.5-1.1,1.1-1.1h0c0.6,0,1.1,0.5,1.1,1.1C46.3,13.6,45.8,14.1,45.2,14.1L45.2,14.1z M45.2,14.1"/>
            </g>
            <g>
                <path d="M62.7,34l-0.1-3.3c0-0.6-0.1-1.1-0.5-1.4c-0.4-0.4-0.8-0.5-1.4-0.5c-2.2,0-4.5,0.1-6.7,0.2l-13.4,0.3L34,29.3l-3.3,0
			l-1.7,0l-0.4,0c-0.2,0-0.4,0-0.6-0.1c-0.4-0.1-0.7-0.3-1-0.6c-0.1-0.1-0.3-0.3-0.4-0.4l-0.2-0.4L26,27.1l-0.9-1.4
			c-0.3-0.4-0.6-1.1-0.8-1.2c-0.1-0.1-0.3-0.2-0.5-0.2c-0.1,0-0.2,0-0.3,0l-0.4,0l-3.3,0l-1.7,0l-0.8,0l-0.4,0c-0.1,0-0.2,0-0.3,0
			c-0.2,0-0.3,0.1-0.4,0.3c-0.1,0.1-0.1,0.1-0.2,0.2l-0.2,0.3l-0.9,1.4L14.1,28c-0.1,0.1-0.2,0.3-0.2,0.4c-0.1,0.2-0.2,0.3-0.4,0.4
			c-0.3,0.2-0.6,0.4-1,0.5c-0.2,0-0.4,0.1-0.6,0.1l-0.4,0l-0.8,0l-1.7,0l-1.7,0c-0.6,0-0.9,0-1.2,0.2c-0.3,0.2-0.4,0.5-0.4,1l0,1.7
			l0,3.3l-0.1,6.7L5.3,69.2l-0.6-0.1c1.7-7.7,3.4-15.3,5-23l1.2-5.8l0.6-2.9l0.3-1.4c0-0.2,0.1-0.5,0.3-0.8c0.1-0.2,0.3-0.5,0.6-0.6
			c0.2-0.2,0.5-0.3,0.8-0.3c0.3-0.1,0.6,0,0.8,0l1.5,0l2.9,0l5.9-0.1l23.6-0.2l11.8-0.1l2.9,0l1.5,0c0.4,0,1.1-0.1,1.7,0.2
			c0.6,0.3,1.1,0.8,1.4,1.5c0.1,0.3,0.1,0.7,0.1,1c0,0.4-0.1,0.5-0.1,0.8l-0.5,2.9c-1.3,7.7-2.7,15.5-4.1,23.2l-1,5.8
			c0,0.2-0.1,0.5-0.2,0.9c-0.1,0.3-0.4,0.6-0.6,0.8c-0.3,0.2-0.6,0.4-0.9,0.5c-0.2,0.1-0.3,0.1-0.5,0.1c-0.1,0-0.2,0-0.3,0l-0.2,0
			l-2.9,0l-11.8-0.1c-7.9-0.1-15.7-0.1-23.6-0.2L9,71.1l-1.5,0c-0.1,0-0.3,0-0.4,0c-0.1,0-0.3,0-0.4-0.1c-0.3-0.1-0.5-0.2-0.7-0.3
			c-0.5-0.2-0.9-0.6-1.1-1.1c0-0.1-0.1-0.3-0.1-0.4l0-0.4l0-0.7l0.1-5.9c0,0,0-0.1,0.1-0.1c0,0,0.1,0,0.1,0.1L5.2,68l0,0.7l0,0.4
			c0,0.1,0,0.2,0.1,0.3c0.2,0.4,0.5,0.7,0.9,0.9c0.2,0.1,0.4,0.2,0.6,0.2c0.1,0,0.2,0,0.3,0c0.1,0,0.2,0,0.4,0l1.5,0l11.8-0.2
			c7.9-0.1,15.7-0.2,23.6-0.2l11.8-0.1l2.9,0l0.2,0l0.1,0c0.1,0,0.1,0,0.2,0c0.1,0,0.3-0.1,0.4-0.2c0.1-0.1,0.2-0.2,0.2-0.3
			c0-0.1,0.1-0.3,0.1-0.5l1-5.8c1.3-7.7,2.7-15.5,4.1-23.2L66,37c0-0.2,0.1-0.5,0.1-0.7c0-0.1,0-0.3,0-0.4c-0.1-0.3-0.3-0.5-0.6-0.6
			c-0.2-0.1-0.6-0.1-1.2-0.1l-1.5,0l-2.9,0l-11.8-0.1l-23.6-0.2l-5.9-0.1l-2.9,0l-1.5,0c-0.5,0-0.9,0-1.2,0.3
			c-0.2,0.1-0.3,0.3-0.4,0.4c-0.1,0.2-0.2,0.3-0.2,0.6l-0.3,1.4l-0.6,2.9l-1.3,5.8c-1.7,7.7-3.3,15.4-4.9,23.1
			c0,0.2-0.2,0.3-0.3,0.2c-0.1,0-0.2-0.2-0.2-0.3L4.5,42.4l-0.1-6.7l0-3.3l0-1.7c0-0.7,0.3-1.5,0.9-2c0.3-0.2,0.6-0.4,1-0.5
			c0.4-0.1,0.7,0,0.9-0.1l1.7,0l1.7,0l0.8,0l0.4,0c0.1,0,0.2,0,0.3,0c0.2,0,0.3-0.1,0.5-0.2c0.1-0.1,0.1-0.1,0.2-0.2
			c0.1-0.1,0.1-0.2,0.2-0.3l0.9-1.4l0.9-1.4l0.2-0.4c0.1-0.2,0.2-0.3,0.4-0.4c0.3-0.3,0.6-0.5,1-0.6c0.2,0,0.4-0.1,0.6-0.1l0.4,0
			l0.8,0l1.7,0l3.3,0l0.4,0c0.2,0,0.4,0,0.6,0.1c0.4,0.1,0.7,0.3,1,0.5c0.3,0.2,0.5,0.6,0.6,0.8l0.4,0.7l0.9,1.4l0.4,0.7l0.2,0.3
			c0,0.1,0.1,0.2,0.2,0.2c0.1,0.1,0.3,0.2,0.5,0.3c0.1,0,0.2,0,0.3,0.1l0.4,0l1.7,0l3.3,0l6.7,0l13.4,0.1c2.2,0,4.5,0,6.7,0.1
			c0.6,0,1.2,0.2,1.6,0.6c0.4,0.4,0.6,1.1,0.5,1.7L62.8,34C62.8,34,62.8,34,62.7,34C62.7,34,62.7,34,62.7,34z"/>
            </g>
            <g>
                <path style="fill:none;stroke:#000000;stroke-miterlimit:10;" d="M36.9,33.6c0-1.3,0.5-2.5,1.5-3.5c0.9-0.9,2.2-1.4,3.5-1.4H42
			c2.7,0,4.9,2.3,4.9,5c0,0.1,0,0.3,0,0.4h3.5c0-0.5,0-1,0-1.5c0-0.3,0.1-0.5,0.3-0.7l1.9-1.2c0.1,0,0.1-0.1,0.1-0.2l-0.8-2
			c0-0.1-0.1-0.1-0.2-0.1c0,0,0,0,0,0L49.5,29c-0.3,0.1-0.5,0-0.7-0.3c-0.5-0.6-1-1.2-1.6-1.7c-0.2-0.2-0.3-0.4-0.2-0.7l0.5-2.2
			c0-0.1,0-0.2-0.1-0.2l-2-0.9c-0.1,0-0.2,0-0.2,0.1L44,25c-0.1,0.2-0.4,0.3-0.7,0.3c-0.8-0.1-1.6-0.1-2.3,0c-0.3,0-0.5-0.1-0.7-0.3
			l-1.2-1.9c0-0.1-0.1-0.1-0.1-0.1c0,0,0,0-0.1,0l-2,0.8c-0.1,0-0.1,0.1-0.1,0.2l0.5,2.1c0.1,0.3,0,0.5-0.3,0.7
			c-0.7,0.5-1.2,1-1.7,1.7c-0.2,0.2-0.4,0.3-0.7,0.2l-2.1-0.5c0,0,0,0,0,0c-0.1,0-0.1,0-0.1,0.1l-0.9,2c0,0.1,0,0.2,0.1,0.2l1.9,1.2
			c0.2,0.1,0.3,0.4,0.3,0.7c-0.1,0.6-0.1,1.2-0.1,1.8H37C36.9,34,36.9,33.8,36.9,33.6z"/>
                <path style="fill:none;" d="M32.2,34.2c0-0.5,0-1,0-1.5l-1.5-1c-0.6-0.4-0.9-1.2-0.6-1.9l0.9-2c0.2-0.6,0.8-0.9,1.4-0.9
			c0.1,0,0.2,0,0.4,0l1.7,0.4c0.4-0.5,0.9-0.9,1.4-1.3l-0.4-1.7c-0.2-0.7,0.2-1.4,0.9-1.7l2-0.8c0.2-0.1,0.4-0.1,0.6-0.1
			c0.5,0,1,0.3,1.3,0.7l0.9,1.5c0.6,0,1.2,0,1.8,0l0.9-1.5c0,0,0,0,0,0c0.3-0.4,0.8-0.7,1.3-0.7c0.2,0,0.4,0,0.6,0.1l2,0.9
			c0.7,0.3,1,1,0.9,1.7l-0.4,1.8c0.5,0.4,0.9,0.8,1.3,1.3l1.7-0.4c0.1,0,0.2,0,0.3,0c0.6,0,1.2,0.4,1.4,0.9l0.8,2
			c0.3,0.7,0,1.5-0.6,1.8l-1.5,0.9c0,0.4,0,0.8,0,1.2H54V21.6H30v12.5H32.2z"/>
                <path style="fill:none;" d="M45.5,33.7c0-2-1.6-3.7-3.6-3.7h-0.1c-2,0-3.6,1.6-3.6,3.6c0,0.2,0,0.4,0,0.5h7.2
			C45.5,34,45.5,33.9,45.5,33.7z"/>
            </g>
        </symbol>

        <!-- TODO : the next ones are from plugins. This should be move inside the correct one. But for now, we can only access one icon file -->
        <symbol id="progression" viewBox="0 0 71 80">
            <path d="M11.9,27.2c0,0-0.3,0.6-0.7,1.6c-0.4,1-0.9,2.6-1.4,4.6c-0.4,2-0.7,4.6-0.5,7.4c0.1,0.7,0.1,1.5,0.2,2.2
                c0.1,0.7,0.3,1.5,0.4,2.3c0.2,0.8,0.4,1.6,0.6,2.4c0.2,0.8,0.6,1.6,0.9,2.4c1.3,3.2,3.4,6.5,6.3,9.3c2.9,2.8,6.5,5.2,10.7,6.7
                c4.2,1.4,9,1.8,13.6,0.9c4.6-1,9-3.2,12.4-6.4l1.3-1.2L57,58l0.6-0.7l0.5-0.7l1-1.4l0.9-1.5l0.4-0.8l0.4-0.8l0.7-1.6l0.6-1.6
                c0.4-1.1,0.6-2.2,0.9-3.3c0.1-0.6,0.2-1.1,0.3-1.7c0.1-0.6,0.2-1.1,0.2-1.7c0-0.6,0-1.1,0.1-1.7l0-0.4c0,0,0-0.2,0-0.2l0-0.2
                l-0.1-0.9c0-0.6-0.1-1.1-0.1-1.7c-0.1-0.5-0.2-1.1-0.3-1.6c-0.1-1.1-0.5-2.1-0.7-3.1c-0.3-1-0.7-2-1-3c-0.9-1.9-1.8-3.7-3-5.3
                c-2.3-3.2-5.2-5.8-8.2-7.6c-3-1.8-6.1-2.8-8.9-3.4c-0.7-0.1-1.4-0.3-2.1-0.4c-0.7-0.1-1.3-0.1-1.9-0.2c-1.2-0.1-2.4,0-3.4,0
                c-2.1,0.1-3.7,0.5-4.8,0.7c-1.1,0.3-1.7,0.4-1.7,0.4l-0.1-0.2c0,0,0.6-0.2,1.6-0.6c1.1-0.4,2.7-0.8,4.8-1.1
                c1.1-0.2,2.2-0.3,3.5-0.2c0.6,0,1.3,0,2,0c0.7,0,1.4,0.2,2.2,0.2c3,0.4,6.3,1.4,9.6,3.2c3.3,1.8,6.5,4.4,9,7.9
                c2.6,3.4,4.5,7.7,5.2,12.4c0.7,4.6,0.4,9.6-1.4,14.2L63,51.2l-0.8,1.6l-0.4,0.8l-0.5,0.8l-1,1.6l-1.1,1.5l-0.6,0.7L58,58.9
                l-1.3,1.3l-1.4,1.2c-0.5,0.4-0.9,0.8-1.5,1.1c-0.5,0.4-1,0.7-1.5,1.1c-1.1,0.6-2.1,1.3-3.2,1.7c-2.2,1.1-4.5,1.8-6.8,2.3
                c-4.7,0.9-9.5,0.7-14-0.5c-4.4-1.3-8.4-3.5-11.6-6.4c-3.1-2.9-5.3-6.4-6.7-9.9c-0.3-0.9-0.6-1.7-0.9-2.6c-0.2-0.9-0.4-1.7-0.6-2.5
                c-0.1-0.8-0.2-1.7-0.3-2.5c-0.1-0.8-0.1-1.5-0.1-2.3c-0.1-3,0.4-5.6,1-7.7c0.6-2.1,1.3-3.6,1.8-4.6c0.5-1,0.8-1.5,0.8-1.5
                L11.9,27.2z"
            />

            <path style="fill:#E59B3A;" d="M23.2,38.1c0.6,0.5,1.2,0.9,1.8,1.4c0.6,0.5,1.2,0.9,1.7,1.4c1.1,1,2.3,2,3.3,3
                c1.1,1,2.2,2.1,3.2,3.1c1,1.1,2.1,2.1,3.1,3.2l-3.7,0.2c2.3-4.1,4.9-8,7.8-11.8c1.4-1.9,2.9-3.7,4.5-5.5c1.6-1.8,3.2-3.5,5.1-5.1
                c-0.7,2.3-1.6,4.5-2.6,6.7c-1,2.2-2.1,4.3-3.2,6.3c-2.3,4.1-4.9,8-7.7,11.8l-0.1,0.2c-0.7,1-2.1,1.2-3.1,0.5
                c-0.2-0.1-0.3-0.3-0.5-0.5c-0.9-1.2-1.8-2.4-2.6-3.6c-0.9-1.2-1.7-2.5-2.5-3.7c-0.8-1.2-1.6-2.5-2.3-3.8c-0.4-0.6-0.7-1.3-1.1-2
                C23.9,39.5,23.5,38.8,23.2,38.1z"
            />

            <path d="M17.3,32.8c-0.2-2.1-0.2-4.1-0.2-6.2c0-1,0-2.1,0-3.1c0-1,0.1-2.1,0.1-3.1l1.1,1c-0.5,0.2-1,0.3-1.6,0.4
                c-0.5,0.1-1,0.3-1.6,0.4c-1.1,0.2-2.1,0.4-3.2,0.6c-1.1,0.2-2.1,0.3-3.2,0.4c-1.1,0.1-2.2,0.2-3.3,0.1c1-0.5,2-0.9,3-1.3
                c1-0.4,2-0.7,3.1-1c1-0.3,2.1-0.6,3.1-0.8c0.5-0.1,1.1-0.2,1.6-0.3c0.5-0.1,1.1-0.2,1.6-0.3l0.1,0c0.5-0.1,0.9,0.3,1,0.7
                c0,0.1,0,0.2,0,0.2c-0.1,1-0.2,2-0.3,3.1c-0.1,1-0.2,2-0.4,3.1C18,28.7,17.7,30.7,17.3,32.8z"
            />
        </symbol>
    </defs>
</svg>
