<?xml version="1.0" encoding="utf-8"?>
<!-- Generator: Adobe Illustrator 22.1.0, SVG Export Plug-In . SVG Version: 6.00 Build 0)  -->
<svg version="1.1" xmlns="http://www.w3.org/2000/svg" xmlns:xlink="http://www.w3.org/1999/xlink" x="0px" y="0px"
	 viewBox="0 0 71 80" style="enable-background:new 0 0 71 80;" xml:space="preserve">
<g id="shortcut">
</g>
<g id="file">
	<g>
		<g>
			<path d="M27,3.8l-7.3,0L12.3,4L8.6,4.1c-0.6,0-1.2,0-1.8,0.1C6.2,4.3,5.7,4.4,5.2,4.7c-1,0.5-1.8,1.4-2.1,2.4
				c-0.2,0.5-0.2,1-0.1,1.6L3,10.6L3.2,18l0,0.9c0,0.3,0,0.5,0.1,0.7c0.1,0.5,0.3,0.9,0.7,1.3c0.6,0.8,1.6,1.3,2.6,1.4
				c0.3,0,0.5,0.1,0.8,0.1c0.3,0,0.6,0,0.9,0l1.8,0l3.7,0l7.3,0.1l0.5,0l0.3,0.4c0.7,1.1,1.8,2,3,2.6c1.2,0.6,2.7,0.9,4.1,1.1
				l-0.4,1.4c-0.5-0.3-0.8-0.6-1.2-0.9c-0.4-0.3-0.8-0.6-1.2-1c-0.7-0.7-1.4-1.5-1.9-2.4l-0.5-0.9l1,0l1.7,0.1c0.6,0,1.1,0,1.6-0.1
				c1-0.2,2-0.7,2.7-1.5c0.3-0.4,0.6-0.9,0.8-1.4c0.2-0.5,0.2-1.1,0.2-1.6l0.1-3.5c0-2.3,0.1-4.6,0.1-7c-0.1-1.1-0.8-2.2-1.7-2.9
				C29.3,4.2,28.1,3.8,27,3.8z M27,3.8c1.2,0,2.3,0.3,3.3,1c0.9,0.7,1.6,1.7,1.8,2.9c0.1,2.3,0.1,4.6,0.2,7l0.1,3.5
				c0,0.6,0.1,1.2-0.1,1.8c-0.1,0.6-0.4,1.2-0.8,1.7c-0.8,1-1.9,1.7-3.1,2c-0.6,0.2-1.3,0.2-1.8,0.2l-1.7,0.1l0.5-0.8
				c0.4,0.7,1.1,1.4,1.8,2c0.4,0.3,0.7,0.6,1.1,0.8c0.4,0.3,0.8,0.5,1.2,0.7l2.9,1.6L28.8,28c-1.6-0.1-3.2-0.3-4.7-1
				c-1.5-0.6-2.9-1.7-3.9-3.1l0.8,0.4l-7.3,0.1l-3.7,0l-1.8,0c-0.3,0-0.6,0-0.9,0c-0.4,0-0.7-0.1-1.1-0.1c-1.4-0.3-2.7-1-3.6-2.2
				c-0.4-0.6-0.8-1.3-0.9-2c-0.1-0.4-0.1-0.8-0.1-1.1l0-0.9l0.2-7.3l0.1-1.8c0-0.6,0-1.3,0.3-2C2.6,5.5,3.6,4.5,4.8,4
				c0.6-0.3,1.2-0.4,1.9-0.5c0.7,0,1.3,0,1.9,0l3.7,0.1l7.3,0.1L27,3.8z"/>
		</g>
		<g>
			<path d="M41.5,13.3c5.5,0,11,0,16.6-0.1l4.1-0.1c0.7,0,1.4-0.1,2.1,0.1c0.7,0.1,1.4,0.4,2,0.8c1.2,0.8,2.2,2,2.6,3.5
				c0.1,0.4,0.1,0.7,0.1,1.1l0,1l0,2.1l0.2,8.3c0,0.7,0.1,1.3,0,2.2c-0.1,0.8-0.4,1.5-0.8,2.2c-0.8,1.3-2.2,2.3-3.7,2.7
				c-0.7,0.2-1.6,0.2-2.2,0.2l-2.1,0l-4.1,0l-8.3,0l0.6-0.3c-1,1.5-2.4,2.8-4.1,3.6c-1.6,0.8-3.4,1.1-5.2,1.2l-2.3,0.1l2-1.2
				c0.9-0.5,1.8-1.2,2.6-1.9c0.8-0.7,1.5-1.5,2-2.4l0.4,0.6l-2,0c-0.6,0-1.4,0-2.1-0.2c-1.4-0.4-2.6-1.3-3.4-2.4
				c-0.4-0.6-0.6-1.3-0.8-2c-0.1-0.7-0.1-1.4-0.1-2.1l0.1-4c0.1-2.7,0-5.4,0.1-8c0.1-1.3,0.8-2.6,1.9-3.5
				C38.8,13.8,40.1,13.3,41.5,13.3z M41.5,13.3c-1.3,0-2.7,0.5-3.7,1.4c-1,0.9-1.7,2.1-1.8,3.5c0,2.7,0,5.4,0.1,8l0.1,4
				c0,0.7,0,1.3,0.1,2c0.1,0.6,0.4,1.2,0.8,1.7c0.7,1,1.9,1.8,3.1,2.1c0.6,0.2,1.2,0.2,1.9,0.1l2,0l0.7,0l-0.3,0.6
				c-0.5,1.1-1.3,2-2.1,2.8c-0.8,0.8-1.7,1.5-2.7,2.1l-0.3-1c1.6-0.2,3.2-0.5,4.7-1.3c1.4-0.7,2.6-1.8,3.4-3.2l0.2-0.3l0.4,0l8.3,0
				l4.1,0l2.1,0c0.7,0,1.3,0,1.9-0.2c1.2-0.3,2.2-1,2.9-2c0.3-0.5,0.6-1.1,0.6-1.7c0.1-0.6,0.1-1.3,0.1-2l0.2-8.3l0-2.1l0-1
				c0-0.3,0-0.6-0.1-0.9c-0.2-1.3-1-2.4-2.1-3.1c-0.5-0.4-1.2-0.6-1.8-0.8c-0.6-0.2-1.3-0.1-2-0.2L58,13.5
				C52.5,13.4,47,13.3,41.5,13.3z"/>
		</g>
		<g>
			<path d="M42.4,43.3l-11.5,0l-11.5,0.1l-5.7,0.1l-2.9,0.1c-0.9,0-1.9,0.1-2.7,0.4c-1.8,0.5-3.4,1.5-4.4,2.9
				C3.3,47.7,3,48.5,3,49.4l0,2.8l0.2,11.5c0,1,0,1.7,0.4,2.5c0.3,0.7,0.9,1.4,1.5,1.9c1.3,1.1,3,1.6,4.8,1.7l0.7,0l0.7,0l1.4,0
				l2.9,0l5.7,0l11.5,0.1l0.5,0l0.3,0.4c1.3,1.7,3.2,3,5.3,3.8c2.1,0.8,4.4,1.3,6.7,1.5l-0.4,1.4c-1.4-0.7-2.6-1.5-3.8-2.5
				c-1.2-0.9-2.3-2-3.2-3.3l-0.5-0.9l1,0l2.6,0c0.9,0,1.7,0.1,2.5-0.1c1.6-0.2,3.3-0.8,4.5-1.8c1.3-1,2.1-2.6,2-4.3l0.1-5.2l0.1-5.2
				l0-2.6c0-0.9,0.1-1.7-0.1-2.6c-0.3-1.7-1.6-3.1-3.1-3.9C45.9,43.8,44.1,43.4,42.4,43.3z M42.4,43.3c1.7,0,3.5,0.4,5,1.3
				c1.5,0.8,2.8,2.2,3.1,3.9c0.2,0.9,0.1,1.7,0.1,2.6l0,2.6l0.1,5.2l0.1,5.2c0,0.9-0.1,1.8-0.4,2.6c-0.4,0.8-0.9,1.6-1.6,2.2
				c-1.4,1.2-3.1,1.9-4.9,2.2c-0.9,0.2-1.8,0.1-2.6,0.2l-2.6,0l0.5-0.8c0.8,1.1,1.9,2.1,3,2.9c1.2,0.8,2.4,1.6,3.7,2.2l3.1,1.5
				l-3.5-0.2c-2.4-0.1-4.9-0.4-7.2-1.3c-2.3-0.8-4.6-2.3-6.2-4.3l0.7,0.4l-11.5,0.1l-5.7,0l-2.9,0l-1.4,0l-0.7,0l-0.8,0
				c-2.1-0.2-4.1-0.9-5.8-2.2c-0.8-0.7-1.5-1.6-2-2.6c-0.1-0.3-0.2-0.5-0.3-0.8c-0.1-0.3-0.1-0.6-0.2-0.8c-0.1-0.6,0-1.1,0-1.5
				l0.2-11.5c0-1,0-1.9,0.1-2.9c0.1-1.1,0.5-2.1,1.1-2.9c1.2-1.7,3.1-2.7,5-3.1c1-0.2,2-0.3,2.9-0.3l2.9,0.1l5.7,0.1l11.5,0.1
				L42.4,43.3z"/>
		</g>
		<g>
			<path style="fill:#E59B3A;" d="M20.4,55.4c0.5,0,0.9,0.2,1.2,0.5c0.3,0.3,0.5,0.8,0.5,1.2S22,58,21.7,58.4s-0.8,0.5-1.2,0.5
				s-0.9-0.2-1.2-0.5s-0.5-0.8-0.5-1.2s0.2-0.9,0.5-1.2C19.5,55.6,19.9,55.4,20.4,55.4z"/>
			<path style="fill:#E59B3A;" d="M26.8,55.4c0.5,0,0.9,0.2,1.2,0.5c0.3,0.3,0.5,0.8,0.5,1.2s-0.2,0.9-0.5,1.2s-0.8,0.5-1.2,0.5
				s-0.9-0.2-1.2-0.5s-0.5-0.8-0.5-1.2s0.2-0.9,0.5-1.2C25.9,55.6,26.4,55.4,26.8,55.4z"/>
			<path style="fill:#E59B3A;" d="M33.3,55.4c0.5,0,0.9,0.2,1.2,0.5c0.3,0.3,0.5,0.8,0.5,1.2s-0.2,0.9-0.5,1.2s-0.8,0.5-1.2,0.5
				s-0.9-0.2-1.2-0.5s-0.5-0.8-0.5-1.2s0.2-0.9,0.5-1.2C32.4,55.6,32.8,55.4,33.3,55.4z"/>
		</g>
	</g>
</g>
</svg>
